G04 MADE WITH FRITZING*
G04 WWW.FRITZING.ORG*
G04 DOUBLE SIDED*
G04 HOLES PLATED*
G04 CONTOUR ON CENTER OF CONTOUR VECTOR*
%ASAXBY*%
%FSLAX23Y23*%
%MOIN*%
%OFA0B0*%
%SFA1.0B1.0*%
%ADD10C,0.074000*%
%ADD11C,0.075000*%
%ADD12C,0.078000*%
%ADD13R,0.074000X0.074000*%
%ADD14R,0.075000X0.075000*%
%ADD15C,0.024000*%
%LNCOPPER0*%
G90*
G70*
G54D10*
X1161Y317D03*
X1061Y917D03*
X1561Y917D03*
X1061Y317D03*
X1661Y917D03*
X1161Y917D03*
X1961Y917D03*
X2061Y917D03*
X1861Y317D03*
X1961Y317D03*
X2061Y317D03*
X561Y917D03*
X661Y917D03*
X761Y917D03*
X861Y917D03*
X661Y317D03*
X561Y317D03*
G54D11*
X2261Y817D03*
X2561Y817D03*
X2261Y717D03*
X2561Y717D03*
X2261Y617D03*
X2561Y617D03*
X2261Y517D03*
X2561Y517D03*
G54D12*
X561Y1117D03*
X661Y1117D03*
X761Y1117D03*
X861Y1117D03*
X1961Y1117D03*
X2061Y1117D03*
X2261Y1017D03*
G54D13*
X561Y917D03*
G54D14*
X2261Y817D03*
G54D15*
X761Y1087D02*
X760Y917D01*
D02*
X760Y917D02*
X734Y932D01*
D02*
X861Y1087D02*
X860Y917D01*
D02*
X860Y917D02*
X834Y932D01*
D02*
X685Y337D02*
X1760Y1217D01*
D02*
X1760Y1217D02*
X2160Y1217D01*
D02*
X2160Y1217D02*
X2563Y1017D01*
D02*
X2563Y1017D02*
X2561Y846D01*
D02*
X1961Y348D02*
X1960Y418D01*
D02*
X1960Y418D02*
X2363Y418D01*
D02*
X2363Y418D02*
X2541Y597D01*
D02*
X1961Y1087D02*
X1960Y917D01*
D02*
X1960Y917D02*
X1931Y926D01*
D02*
X2541Y737D02*
X2282Y996D01*
D02*
X2233Y517D02*
X1860Y518D01*
D02*
X1860Y518D02*
X1861Y348D01*
D02*
X561Y1087D02*
X560Y917D01*
D02*
X560Y917D02*
X535Y934D01*
D02*
X661Y1087D02*
X660Y917D01*
D02*
X660Y917D02*
X635Y933D01*
D02*
X2061Y1087D02*
X2060Y917D01*
D02*
X2060Y917D02*
X2031Y926D01*
D02*
X2541Y497D02*
X2363Y318D01*
D02*
X2363Y318D02*
X2092Y317D01*
G04 End of Copper0*
M02*