; NON-PLATED HOLES START AT T1
; THROUGH (PLATED) HOLES START AT T100
M48
INCH
T1C0.125984
T100C0.040000
T101C0.038000
T102C0.035000
%
T1
X004032Y001071
X023969Y001620
X013648Y011646
T100
X019611Y009170
X020611Y003170
X005611Y003170
X011611Y003170
X016611Y009170
X007611Y009170
X020611Y009170
X015611Y009170
X005611Y009170
X018611Y003170
X011611Y009170
X008611Y009170
X010611Y003170
X006611Y009170
X006611Y003170
X019611Y003170
X010611Y009170
T101
X005611Y011170
X008611Y011170
X022611Y010170
X006611Y011170
X019611Y011170
X007611Y011170
X020611Y011170
T102
X025611Y008170
X022611Y008170
X022611Y005170
X025611Y006170
X025611Y005170
X025611Y007170
X022611Y006170
X022611Y007170
T00
M30
