G04 MADE WITH FRITZING*
G04 WWW.FRITZING.ORG*
G04 DOUBLE SIDED*
G04 HOLES PLATED*
G04 CONTOUR ON CENTER OF CONTOUR VECTOR*
%ASAXBY*%
%FSLAX23Y23*%
%MOIN*%
%OFA0B0*%
%SFA1.0B1.0*%
%ADD10C,0.008*%
%LNCONTOUR*%
G90*
G70*
G54D10*
X374Y1273D02*
X375Y1273D01*
X376Y1273D01*
X377Y1273D01*
X378Y1273D01*
X379Y1273D01*
X380Y1273D01*
X381Y1273D01*
X382Y1273D01*
X383Y1273D01*
X384Y1273D01*
X385Y1273D01*
X386Y1273D01*
X387Y1273D01*
X388Y1273D01*
X389Y1273D01*
X390Y1273D01*
X391Y1273D01*
X392Y1273D01*
X393Y1273D01*
X394Y1273D01*
X395Y1273D01*
X396Y1273D01*
X397Y1273D01*
X398Y1273D01*
X399Y1273D01*
X400Y1273D01*
X401Y1273D01*
X402Y1273D01*
X403Y1273D01*
X404Y1273D01*
X405Y1273D01*
X406Y1273D01*
X407Y1273D01*
X408Y1273D01*
X409Y1273D01*
X410Y1273D01*
X411Y1273D01*
X412Y1273D01*
X413Y1273D01*
X414Y1273D01*
X415Y1273D01*
X416Y1273D01*
X417Y1273D01*
X418Y1273D01*
X419Y1273D01*
X420Y1273D01*
X421Y1273D01*
X422Y1273D01*
X423Y1273D01*
X424Y1273D01*
X425Y1273D01*
X426Y1273D01*
X427Y1273D01*
X428Y1273D01*
X429Y1273D01*
X430Y1273D01*
X431Y1273D01*
X432Y1273D01*
X433Y1273D01*
X434Y1273D01*
X435Y1273D01*
X436Y1273D01*
X437Y1273D01*
X438Y1273D01*
X439Y1273D01*
X440Y1273D01*
X441Y1273D01*
X442Y1273D01*
X443Y1273D01*
X444Y1273D01*
X445Y1273D01*
X446Y1273D01*
X447Y1273D01*
X448Y1273D01*
X449Y1273D01*
X450Y1273D01*
X451Y1273D01*
X452Y1273D01*
X453Y1273D01*
X454Y1273D01*
X455Y1273D01*
X456Y1273D01*
X457Y1273D01*
X458Y1273D01*
X459Y1273D01*
X460Y1273D01*
X461Y1273D01*
X462Y1273D01*
X463Y1273D01*
X464Y1273D01*
X465Y1273D01*
X466Y1273D01*
X467Y1273D01*
X468Y1273D01*
X469Y1273D01*
X470Y1273D01*
X471Y1273D01*
X472Y1273D01*
X473Y1273D01*
X474Y1273D01*
X475Y1273D01*
X476Y1273D01*
X477Y1273D01*
X478Y1273D01*
X479Y1273D01*
X480Y1273D01*
X481Y1273D01*
X482Y1273D01*
X483Y1273D01*
X484Y1273D01*
X485Y1273D01*
X486Y1273D01*
X487Y1273D01*
X488Y1273D01*
X489Y1273D01*
X490Y1273D01*
X491Y1273D01*
X492Y1273D01*
X493Y1273D01*
X494Y1273D01*
X495Y1273D01*
X496Y1273D01*
X497Y1273D01*
X498Y1273D01*
X499Y1273D01*
X500Y1273D01*
X501Y1273D01*
X502Y1273D01*
X503Y1273D01*
X504Y1273D01*
X505Y1273D01*
X506Y1273D01*
X507Y1273D01*
X508Y1273D01*
X509Y1273D01*
X510Y1273D01*
X511Y1273D01*
X512Y1273D01*
X513Y1273D01*
X514Y1273D01*
X515Y1273D01*
X516Y1273D01*
X517Y1273D01*
X518Y1273D01*
X519Y1273D01*
X520Y1273D01*
X521Y1273D01*
X522Y1273D01*
X523Y1273D01*
X524Y1273D01*
X525Y1273D01*
X526Y1273D01*
X527Y1273D01*
X528Y1273D01*
X529Y1273D01*
X530Y1273D01*
X531Y1273D01*
X532Y1273D01*
X533Y1273D01*
X534Y1273D01*
X535Y1273D01*
X536Y1273D01*
X537Y1273D01*
X538Y1273D01*
X539Y1273D01*
X540Y1273D01*
X541Y1273D01*
X542Y1273D01*
X543Y1273D01*
X544Y1273D01*
X545Y1273D01*
X546Y1273D01*
X547Y1273D01*
X548Y1273D01*
X549Y1273D01*
X550Y1273D01*
X551Y1273D01*
X552Y1273D01*
X553Y1273D01*
X554Y1273D01*
X555Y1273D01*
X556Y1273D01*
X557Y1273D01*
X558Y1273D01*
X559Y1273D01*
X560Y1273D01*
X561Y1273D01*
X562Y1273D01*
X563Y1273D01*
X564Y1273D01*
X565Y1273D01*
X566Y1273D01*
X567Y1273D01*
X568Y1273D01*
X569Y1273D01*
X570Y1273D01*
X571Y1273D01*
X572Y1273D01*
X573Y1273D01*
X574Y1273D01*
X575Y1273D01*
X576Y1273D01*
X577Y1273D01*
X578Y1273D01*
X579Y1273D01*
X580Y1273D01*
X581Y1273D01*
X582Y1273D01*
X583Y1273D01*
X584Y1273D01*
X585Y1273D01*
X586Y1273D01*
X587Y1273D01*
X588Y1273D01*
X589Y1273D01*
X590Y1273D01*
X591Y1273D01*
X592Y1273D01*
X593Y1273D01*
X594Y1273D01*
X595Y1273D01*
X596Y1273D01*
X597Y1273D01*
X598Y1273D01*
X599Y1273D01*
X600Y1273D01*
X601Y1273D01*
X602Y1273D01*
X603Y1273D01*
X604Y1273D01*
X605Y1273D01*
X606Y1273D01*
X607Y1273D01*
X608Y1273D01*
X609Y1273D01*
X610Y1273D01*
X611Y1273D01*
X612Y1273D01*
X613Y1273D01*
X614Y1273D01*
X615Y1273D01*
X616Y1273D01*
X617Y1273D01*
X618Y1273D01*
X619Y1273D01*
X620Y1273D01*
X621Y1273D01*
X622Y1273D01*
X623Y1273D01*
X624Y1273D01*
X625Y1273D01*
X626Y1273D01*
X627Y1273D01*
X628Y1273D01*
X629Y1273D01*
X630Y1273D01*
X631Y1273D01*
X632Y1273D01*
X633Y1273D01*
X634Y1273D01*
X635Y1273D01*
X636Y1273D01*
X637Y1273D01*
X638Y1273D01*
X639Y1273D01*
X640Y1273D01*
X641Y1273D01*
X642Y1273D01*
X643Y1273D01*
X644Y1273D01*
X645Y1273D01*
X646Y1273D01*
X647Y1273D01*
X648Y1273D01*
X649Y1273D01*
X650Y1273D01*
X651Y1273D01*
X652Y1273D01*
X653Y1273D01*
X654Y1273D01*
X655Y1273D01*
X656Y1273D01*
X657Y1273D01*
X658Y1273D01*
X659Y1273D01*
X660Y1273D01*
X661Y1273D01*
X662Y1273D01*
X663Y1273D01*
X664Y1273D01*
X665Y1273D01*
X666Y1273D01*
X667Y1273D01*
X668Y1273D01*
X669Y1273D01*
X670Y1273D01*
X671Y1273D01*
X672Y1273D01*
X673Y1273D01*
X674Y1273D01*
X675Y1273D01*
X676Y1273D01*
X677Y1273D01*
X678Y1273D01*
X679Y1273D01*
X680Y1273D01*
X681Y1273D01*
X682Y1273D01*
X683Y1273D01*
X684Y1273D01*
X685Y1273D01*
X686Y1273D01*
X687Y1273D01*
X688Y1273D01*
X689Y1273D01*
X690Y1273D01*
X691Y1273D01*
X692Y1273D01*
X693Y1273D01*
X694Y1273D01*
X695Y1273D01*
X696Y1273D01*
X697Y1273D01*
X698Y1273D01*
X699Y1273D01*
X700Y1273D01*
X701Y1273D01*
X702Y1273D01*
X703Y1273D01*
X704Y1273D01*
X705Y1273D01*
X706Y1273D01*
X707Y1273D01*
X708Y1273D01*
X709Y1273D01*
X710Y1273D01*
X711Y1273D01*
X712Y1273D01*
X713Y1273D01*
X714Y1273D01*
X715Y1273D01*
X716Y1273D01*
X717Y1273D01*
X718Y1273D01*
X719Y1273D01*
X720Y1273D01*
X721Y1273D01*
X722Y1273D01*
X723Y1273D01*
X724Y1273D01*
X725Y1273D01*
X726Y1273D01*
X727Y1273D01*
X728Y1273D01*
X729Y1273D01*
X730Y1273D01*
X731Y1273D01*
X732Y1273D01*
X733Y1273D01*
X734Y1273D01*
X735Y1273D01*
X736Y1273D01*
X737Y1273D01*
X738Y1273D01*
X739Y1273D01*
X740Y1273D01*
X741Y1273D01*
X742Y1273D01*
X743Y1273D01*
X744Y1273D01*
X745Y1273D01*
X746Y1273D01*
X747Y1273D01*
X748Y1273D01*
X749Y1273D01*
X750Y1273D01*
X751Y1273D01*
X752Y1273D01*
X753Y1273D01*
X754Y1273D01*
X755Y1273D01*
X756Y1273D01*
X757Y1273D01*
X758Y1273D01*
X759Y1273D01*
X760Y1273D01*
X761Y1273D01*
X762Y1273D01*
X763Y1273D01*
X764Y1273D01*
X765Y1273D01*
X766Y1273D01*
X767Y1273D01*
X768Y1273D01*
X769Y1273D01*
X770Y1273D01*
X771Y1273D01*
X772Y1273D01*
X773Y1273D01*
X774Y1273D01*
X775Y1273D01*
X776Y1273D01*
X777Y1273D01*
X778Y1273D01*
X779Y1273D01*
X780Y1273D01*
X781Y1273D01*
X782Y1273D01*
X783Y1273D01*
X784Y1273D01*
X785Y1273D01*
X786Y1273D01*
X787Y1273D01*
X788Y1273D01*
X789Y1273D01*
X790Y1273D01*
X791Y1273D01*
X792Y1273D01*
X793Y1273D01*
X794Y1273D01*
X795Y1273D01*
X796Y1273D01*
X797Y1273D01*
X798Y1273D01*
X799Y1273D01*
X800Y1273D01*
X801Y1273D01*
X802Y1273D01*
X803Y1273D01*
X804Y1273D01*
X805Y1273D01*
X806Y1273D01*
X807Y1273D01*
X808Y1273D01*
X809Y1273D01*
X810Y1273D01*
X811Y1273D01*
X812Y1273D01*
X813Y1273D01*
X814Y1273D01*
X815Y1273D01*
X816Y1273D01*
X817Y1273D01*
X818Y1273D01*
X819Y1273D01*
X820Y1273D01*
X821Y1273D01*
X822Y1273D01*
X823Y1273D01*
X824Y1273D01*
X825Y1273D01*
X826Y1273D01*
X827Y1273D01*
X828Y1273D01*
X829Y1273D01*
X830Y1273D01*
X831Y1273D01*
X832Y1273D01*
X833Y1273D01*
X834Y1273D01*
X835Y1273D01*
X836Y1273D01*
X837Y1273D01*
X838Y1273D01*
X839Y1273D01*
X840Y1273D01*
X841Y1273D01*
X842Y1273D01*
X843Y1273D01*
X844Y1273D01*
X845Y1273D01*
X846Y1273D01*
X847Y1273D01*
X848Y1273D01*
X849Y1273D01*
X850Y1273D01*
X851Y1273D01*
X852Y1273D01*
X853Y1273D01*
X854Y1273D01*
X855Y1273D01*
X856Y1273D01*
X857Y1273D01*
X858Y1273D01*
X859Y1273D01*
X860Y1273D01*
X861Y1273D01*
X862Y1273D01*
X863Y1273D01*
X864Y1273D01*
X865Y1273D01*
X866Y1273D01*
X867Y1273D01*
X868Y1273D01*
X869Y1273D01*
X870Y1273D01*
X871Y1273D01*
X872Y1273D01*
X873Y1273D01*
X874Y1273D01*
X875Y1273D01*
X876Y1273D01*
X877Y1273D01*
X878Y1273D01*
X879Y1273D01*
X880Y1273D01*
X881Y1273D01*
X882Y1273D01*
X883Y1273D01*
X884Y1273D01*
X885Y1273D01*
X886Y1273D01*
X887Y1273D01*
X888Y1273D01*
X889Y1273D01*
X890Y1273D01*
X891Y1273D01*
X892Y1273D01*
X893Y1273D01*
X894Y1273D01*
X895Y1273D01*
X896Y1273D01*
X897Y1273D01*
X898Y1273D01*
X899Y1273D01*
X900Y1273D01*
X901Y1273D01*
X902Y1273D01*
X903Y1273D01*
X904Y1273D01*
X905Y1273D01*
X906Y1273D01*
X907Y1273D01*
X908Y1273D01*
X909Y1273D01*
X910Y1273D01*
X911Y1273D01*
X912Y1273D01*
X913Y1273D01*
X914Y1273D01*
X915Y1273D01*
X916Y1273D01*
X917Y1273D01*
X918Y1273D01*
X919Y1273D01*
X920Y1273D01*
X921Y1273D01*
X922Y1273D01*
X923Y1273D01*
X924Y1273D01*
X925Y1273D01*
X926Y1273D01*
X927Y1273D01*
X928Y1273D01*
X929Y1273D01*
X930Y1273D01*
X931Y1273D01*
X932Y1273D01*
X933Y1273D01*
X934Y1273D01*
X935Y1273D01*
X936Y1273D01*
X937Y1273D01*
X938Y1273D01*
X939Y1273D01*
X940Y1273D01*
X941Y1273D01*
X942Y1273D01*
X943Y1273D01*
X944Y1273D01*
X945Y1273D01*
X946Y1273D01*
X947Y1273D01*
X948Y1273D01*
X949Y1273D01*
X950Y1273D01*
X951Y1273D01*
X952Y1273D01*
X953Y1273D01*
X954Y1273D01*
X955Y1273D01*
X956Y1273D01*
X957Y1273D01*
X958Y1273D01*
X959Y1273D01*
X960Y1273D01*
X961Y1273D01*
X962Y1273D01*
X963Y1273D01*
X964Y1273D01*
X965Y1273D01*
X966Y1273D01*
X967Y1273D01*
X968Y1273D01*
X969Y1273D01*
X970Y1273D01*
X971Y1273D01*
X972Y1273D01*
X973Y1273D01*
X974Y1273D01*
X975Y1273D01*
X976Y1273D01*
X977Y1273D01*
X978Y1273D01*
X979Y1273D01*
X980Y1273D01*
X981Y1273D01*
X982Y1273D01*
X983Y1273D01*
X984Y1273D01*
X985Y1273D01*
X986Y1273D01*
X987Y1273D01*
X988Y1273D01*
X989Y1273D01*
X990Y1273D01*
X991Y1273D01*
X992Y1273D01*
X993Y1273D01*
X994Y1273D01*
X995Y1273D01*
X996Y1273D01*
X997Y1273D01*
X998Y1273D01*
X999Y1273D01*
X1000Y1273D01*
X1001Y1273D01*
X1002Y1273D01*
X1003Y1273D01*
X1004Y1273D01*
X1005Y1273D01*
X1006Y1273D01*
X1007Y1273D01*
X1008Y1273D01*
X1009Y1273D01*
X1010Y1273D01*
X1011Y1273D01*
X1012Y1273D01*
X1013Y1273D01*
X1014Y1273D01*
X1015Y1273D01*
X1016Y1273D01*
X1017Y1273D01*
X1018Y1273D01*
X1019Y1273D01*
X1020Y1273D01*
X1021Y1273D01*
X1022Y1273D01*
X1023Y1273D01*
X1024Y1273D01*
X1025Y1273D01*
X1026Y1273D01*
X1027Y1273D01*
X1028Y1273D01*
X1029Y1273D01*
X1030Y1273D01*
X1031Y1273D01*
X1032Y1273D01*
X1033Y1273D01*
X1034Y1273D01*
X1035Y1273D01*
X1036Y1273D01*
X1037Y1273D01*
X1038Y1273D01*
X1039Y1273D01*
X1040Y1273D01*
X1041Y1273D01*
X1042Y1273D01*
X1043Y1273D01*
X1044Y1273D01*
X1045Y1273D01*
X1046Y1273D01*
X1047Y1273D01*
X1048Y1273D01*
X1049Y1273D01*
X1050Y1273D01*
X1051Y1273D01*
X1052Y1273D01*
X1053Y1273D01*
X1054Y1273D01*
X1055Y1273D01*
X1056Y1273D01*
X1057Y1273D01*
X1058Y1273D01*
X1059Y1273D01*
X1060Y1273D01*
X1061Y1273D01*
X1062Y1273D01*
X1063Y1273D01*
X1064Y1273D01*
X1065Y1273D01*
X1066Y1273D01*
X1067Y1273D01*
X1068Y1273D01*
X1069Y1273D01*
X1070Y1273D01*
X1071Y1273D01*
X1072Y1273D01*
X1073Y1273D01*
X1074Y1273D01*
X1075Y1273D01*
X1076Y1273D01*
X1077Y1273D01*
X1078Y1273D01*
X1079Y1273D01*
X1080Y1273D01*
X1081Y1273D01*
X1082Y1273D01*
X1083Y1273D01*
X1084Y1273D01*
X1085Y1273D01*
X1086Y1273D01*
X1087Y1273D01*
X1088Y1273D01*
X1089Y1273D01*
X1090Y1273D01*
X1091Y1273D01*
X1092Y1273D01*
X1093Y1273D01*
X1094Y1273D01*
X1095Y1273D01*
X1096Y1273D01*
X1097Y1273D01*
X1098Y1273D01*
X1099Y1273D01*
X1100Y1273D01*
X1101Y1273D01*
X1102Y1273D01*
X1103Y1273D01*
X1104Y1273D01*
X1105Y1273D01*
X1106Y1273D01*
X1107Y1273D01*
X1108Y1273D01*
X1109Y1273D01*
X1110Y1273D01*
X1111Y1273D01*
X1112Y1273D01*
X1113Y1273D01*
X1114Y1273D01*
X1115Y1273D01*
X1116Y1273D01*
X1117Y1273D01*
X1118Y1273D01*
X1119Y1273D01*
X1120Y1273D01*
X1121Y1273D01*
X1122Y1273D01*
X1123Y1273D01*
X1124Y1273D01*
X1125Y1273D01*
X1126Y1273D01*
X1127Y1273D01*
X1128Y1273D01*
X1129Y1273D01*
X1130Y1273D01*
X1131Y1273D01*
X1132Y1273D01*
X1133Y1273D01*
X1134Y1273D01*
X1135Y1273D01*
X1136Y1273D01*
X1137Y1273D01*
X1138Y1273D01*
X1139Y1273D01*
X1140Y1273D01*
X1141Y1273D01*
X1142Y1273D01*
X1143Y1273D01*
X1144Y1273D01*
X1145Y1273D01*
X1146Y1273D01*
X1147Y1273D01*
X1148Y1273D01*
X1149Y1273D01*
X1150Y1273D01*
X1151Y1273D01*
X1152Y1273D01*
X1153Y1273D01*
X1154Y1273D01*
X1155Y1273D01*
X1156Y1273D01*
X1157Y1273D01*
X1158Y1273D01*
X1159Y1273D01*
X1160Y1273D01*
X1161Y1273D01*
X1162Y1273D01*
X1163Y1273D01*
X1164Y1273D01*
X1165Y1273D01*
X1166Y1273D01*
X1167Y1273D01*
X1168Y1273D01*
X1169Y1273D01*
X1170Y1273D01*
X1171Y1273D01*
X1172Y1273D01*
X1173Y1273D01*
X1174Y1273D01*
X1175Y1273D01*
X1176Y1273D01*
X1177Y1273D01*
X1178Y1273D01*
X1179Y1273D01*
X1180Y1273D01*
X1181Y1273D01*
X1182Y1273D01*
X1183Y1273D01*
X1184Y1273D01*
X1185Y1273D01*
X1186Y1273D01*
X1187Y1273D01*
X1188Y1273D01*
X1189Y1273D01*
X1190Y1273D01*
X1191Y1273D01*
X1192Y1273D01*
X1193Y1273D01*
X1194Y1273D01*
X1195Y1273D01*
X1196Y1273D01*
X1197Y1273D01*
X1198Y1273D01*
X1199Y1273D01*
X1200Y1273D01*
X1201Y1273D01*
X1202Y1273D01*
X1203Y1273D01*
X1204Y1273D01*
X1205Y1273D01*
X1206Y1273D01*
X1207Y1273D01*
X1208Y1273D01*
X1209Y1273D01*
X1210Y1273D01*
X1211Y1273D01*
X1212Y1273D01*
X1213Y1273D01*
X1214Y1273D01*
X1215Y1273D01*
X1216Y1273D01*
X1217Y1273D01*
X1218Y1273D01*
X1219Y1273D01*
X1220Y1273D01*
X1221Y1273D01*
X1222Y1273D01*
X1223Y1273D01*
X1224Y1273D01*
X1225Y1273D01*
X1226Y1273D01*
X1227Y1273D01*
X1228Y1273D01*
X1229Y1273D01*
X1230Y1273D01*
X1231Y1273D01*
X1232Y1273D01*
X1233Y1273D01*
X1234Y1273D01*
X1235Y1273D01*
X1236Y1273D01*
X1237Y1273D01*
X1238Y1273D01*
X1239Y1273D01*
X1240Y1273D01*
X1241Y1273D01*
X1242Y1273D01*
X1243Y1273D01*
X1244Y1273D01*
X1245Y1273D01*
X1246Y1273D01*
X1247Y1273D01*
X1248Y1273D01*
X1249Y1273D01*
X1250Y1273D01*
X1251Y1273D01*
X1252Y1273D01*
X1253Y1273D01*
X1254Y1273D01*
X1255Y1273D01*
X1256Y1273D01*
X1257Y1273D01*
X1258Y1273D01*
X1259Y1273D01*
X1260Y1273D01*
X1261Y1273D01*
X1262Y1273D01*
X1263Y1273D01*
X1264Y1273D01*
X1265Y1273D01*
X1266Y1273D01*
X1267Y1273D01*
X1268Y1273D01*
X1269Y1273D01*
X1270Y1273D01*
X1271Y1273D01*
X1272Y1273D01*
X1273Y1273D01*
X1274Y1273D01*
X1275Y1273D01*
X1276Y1273D01*
X1277Y1273D01*
X1278Y1273D01*
X1279Y1273D01*
X1280Y1273D01*
X1281Y1273D01*
X1282Y1273D01*
X1283Y1273D01*
X1284Y1273D01*
X1285Y1273D01*
X1286Y1273D01*
X1287Y1273D01*
X1288Y1273D01*
X1289Y1273D01*
X1290Y1273D01*
X1291Y1273D01*
X1292Y1273D01*
X1293Y1273D01*
X1294Y1273D01*
X1295Y1273D01*
X1296Y1273D01*
X1297Y1273D01*
X1298Y1273D01*
X1299Y1273D01*
X1300Y1273D01*
X1301Y1273D01*
X1302Y1273D01*
X1303Y1273D01*
X1304Y1273D01*
X1305Y1273D01*
X1306Y1273D01*
X1307Y1273D01*
X1308Y1273D01*
X1309Y1273D01*
X1310Y1273D01*
X1311Y1273D01*
X1312Y1273D01*
X1313Y1273D01*
X1314Y1273D01*
X1315Y1273D01*
X1316Y1273D01*
X1317Y1273D01*
X1318Y1273D01*
X1319Y1273D01*
X1320Y1273D01*
X1321Y1273D01*
X1322Y1273D01*
X1323Y1273D01*
X1324Y1273D01*
X1325Y1273D01*
X1326Y1273D01*
X1327Y1273D01*
X1328Y1273D01*
X1329Y1273D01*
X1330Y1273D01*
X1331Y1273D01*
X1332Y1273D01*
X1333Y1273D01*
X1334Y1273D01*
X1335Y1273D01*
X1336Y1273D01*
X1337Y1273D01*
X1338Y1273D01*
X1339Y1273D01*
X1340Y1273D01*
X1341Y1273D01*
X1342Y1273D01*
X1343Y1273D01*
X1344Y1273D01*
X1345Y1273D01*
X1346Y1273D01*
X1347Y1273D01*
X1348Y1273D01*
X1349Y1273D01*
X1350Y1273D01*
X1351Y1273D01*
X1352Y1273D01*
X1353Y1273D01*
X1354Y1273D01*
X1355Y1273D01*
X1356Y1273D01*
X1357Y1273D01*
X1358Y1273D01*
X1359Y1273D01*
X1360Y1273D01*
X1361Y1273D01*
X1362Y1273D01*
X1363Y1273D01*
X1364Y1273D01*
X1365Y1273D01*
X1366Y1273D01*
X1367Y1273D01*
X1368Y1273D01*
X1369Y1273D01*
X1370Y1273D01*
X1371Y1273D01*
X1372Y1273D01*
X1373Y1273D01*
X1374Y1273D01*
X1375Y1273D01*
X1376Y1273D01*
X1377Y1273D01*
X1378Y1273D01*
X1379Y1273D01*
X1380Y1273D01*
X1381Y1273D01*
X1382Y1273D01*
X1383Y1273D01*
X1384Y1273D01*
X1385Y1273D01*
X1386Y1273D01*
X1387Y1273D01*
X1388Y1273D01*
X1389Y1273D01*
X1390Y1273D01*
X1391Y1273D01*
X1392Y1273D01*
X1393Y1273D01*
X1394Y1273D01*
X1395Y1273D01*
X1396Y1273D01*
X1397Y1273D01*
X1398Y1273D01*
X1399Y1273D01*
X1400Y1273D01*
X1401Y1273D01*
X1402Y1273D01*
X1403Y1273D01*
X1404Y1273D01*
X1405Y1273D01*
X1406Y1273D01*
X1407Y1273D01*
X1408Y1273D01*
X1409Y1273D01*
X1410Y1273D01*
X1411Y1273D01*
X1412Y1273D01*
X1413Y1273D01*
X1414Y1273D01*
X1415Y1273D01*
X1416Y1273D01*
X1417Y1273D01*
X1418Y1273D01*
X1419Y1273D01*
X1420Y1273D01*
X1421Y1273D01*
X1422Y1273D01*
X1423Y1273D01*
X1424Y1273D01*
X1425Y1273D01*
X1426Y1273D01*
X1427Y1273D01*
X1428Y1273D01*
X1429Y1273D01*
X1430Y1273D01*
X1431Y1273D01*
X1432Y1273D01*
X1433Y1273D01*
X1434Y1273D01*
X1435Y1273D01*
X1436Y1273D01*
X1437Y1273D01*
X1438Y1273D01*
X1439Y1273D01*
X1440Y1273D01*
X1441Y1273D01*
X1442Y1273D01*
X1443Y1273D01*
X1444Y1273D01*
X1445Y1273D01*
X1446Y1273D01*
X1447Y1273D01*
X1448Y1273D01*
X1449Y1273D01*
X1450Y1273D01*
X1451Y1273D01*
X1452Y1273D01*
X1453Y1273D01*
X1454Y1273D01*
X1455Y1273D01*
X1456Y1273D01*
X1457Y1273D01*
X1458Y1273D01*
X1459Y1273D01*
X1460Y1273D01*
X1461Y1273D01*
X1462Y1273D01*
X1463Y1273D01*
X1464Y1273D01*
X1465Y1273D01*
X1466Y1273D01*
X1467Y1273D01*
X1468Y1273D01*
X1469Y1273D01*
X1470Y1273D01*
X1471Y1273D01*
X1472Y1273D01*
X1473Y1273D01*
X1474Y1273D01*
X1475Y1273D01*
X1476Y1273D01*
X1477Y1273D01*
X1478Y1273D01*
X1479Y1273D01*
X1480Y1273D01*
X1481Y1273D01*
X1482Y1273D01*
X1483Y1273D01*
X1484Y1273D01*
X1485Y1273D01*
X1486Y1273D01*
X1487Y1273D01*
X1488Y1273D01*
X1489Y1273D01*
X1490Y1273D01*
X1491Y1273D01*
X1492Y1273D01*
X1493Y1273D01*
X1494Y1273D01*
X1495Y1273D01*
X1496Y1273D01*
X1497Y1273D01*
X1498Y1273D01*
X1499Y1273D01*
X1500Y1273D01*
X1501Y1273D01*
X1502Y1273D01*
X1503Y1273D01*
X1504Y1273D01*
X1505Y1273D01*
X1506Y1273D01*
X1507Y1273D01*
X1508Y1273D01*
X1509Y1273D01*
X1510Y1273D01*
X1511Y1273D01*
X1512Y1273D01*
X1513Y1273D01*
X1514Y1273D01*
X1515Y1273D01*
X1516Y1273D01*
X1517Y1273D01*
X1518Y1273D01*
X1519Y1273D01*
X1520Y1273D01*
X1521Y1273D01*
X1522Y1273D01*
X1523Y1273D01*
X1524Y1273D01*
X1525Y1273D01*
X1526Y1273D01*
X1527Y1273D01*
X1528Y1273D01*
X1529Y1273D01*
X1530Y1273D01*
X1531Y1273D01*
X1532Y1273D01*
X1533Y1273D01*
X1534Y1273D01*
X1535Y1273D01*
X1536Y1273D01*
X1537Y1273D01*
X1538Y1273D01*
X1539Y1273D01*
X1540Y1273D01*
X1541Y1273D01*
X1542Y1273D01*
X1543Y1273D01*
X1544Y1273D01*
X1545Y1273D01*
X1546Y1273D01*
X1547Y1273D01*
X1548Y1273D01*
X1549Y1273D01*
X1550Y1273D01*
X1551Y1273D01*
X1552Y1273D01*
X1553Y1273D01*
X1554Y1273D01*
X1555Y1273D01*
X1556Y1273D01*
X1557Y1273D01*
X1558Y1273D01*
X1559Y1273D01*
X1560Y1273D01*
X1561Y1273D01*
X1562Y1273D01*
X1563Y1273D01*
X1564Y1273D01*
X1565Y1273D01*
X1566Y1273D01*
X1567Y1273D01*
X1568Y1273D01*
X1569Y1273D01*
X1570Y1273D01*
X1571Y1273D01*
X1572Y1273D01*
X1573Y1273D01*
X1574Y1273D01*
X1575Y1273D01*
X1576Y1273D01*
X1577Y1273D01*
X1578Y1273D01*
X1579Y1273D01*
X1580Y1273D01*
X1581Y1273D01*
X1582Y1273D01*
X1583Y1273D01*
X1584Y1273D01*
X1585Y1273D01*
X1586Y1273D01*
X1587Y1273D01*
X1588Y1273D01*
X1589Y1273D01*
X1590Y1273D01*
X1591Y1273D01*
X1592Y1273D01*
X1593Y1273D01*
X1594Y1273D01*
X1595Y1273D01*
X1596Y1273D01*
X1597Y1273D01*
X1598Y1273D01*
X1599Y1273D01*
X1600Y1273D01*
X1601Y1273D01*
X1602Y1273D01*
X1603Y1273D01*
X1604Y1273D01*
X1605Y1273D01*
X1606Y1273D01*
X1607Y1273D01*
X1608Y1273D01*
X1609Y1273D01*
X1610Y1273D01*
X1611Y1273D01*
X1612Y1273D01*
X1613Y1273D01*
X1614Y1273D01*
X1615Y1273D01*
X1616Y1273D01*
X1617Y1273D01*
X1618Y1273D01*
X1619Y1273D01*
X1620Y1273D01*
X1621Y1273D01*
X1622Y1273D01*
X1623Y1273D01*
X1624Y1273D01*
X1625Y1273D01*
X1626Y1273D01*
X1627Y1273D01*
X1628Y1273D01*
X1629Y1273D01*
X1630Y1273D01*
X1631Y1273D01*
X1632Y1273D01*
X1633Y1273D01*
X1634Y1273D01*
X1635Y1273D01*
X1636Y1273D01*
X1637Y1273D01*
X1638Y1273D01*
X1639Y1273D01*
X1640Y1273D01*
X1641Y1273D01*
X1642Y1273D01*
X1643Y1273D01*
X1644Y1273D01*
X1645Y1273D01*
X1646Y1273D01*
X1647Y1273D01*
X1648Y1273D01*
X1649Y1273D01*
X1650Y1273D01*
X1651Y1273D01*
X1652Y1273D01*
X1653Y1273D01*
X1654Y1273D01*
X1655Y1273D01*
X1656Y1273D01*
X1657Y1273D01*
X1658Y1273D01*
X1659Y1273D01*
X1660Y1273D01*
X1661Y1273D01*
X1662Y1273D01*
X1663Y1273D01*
X1664Y1273D01*
X1665Y1273D01*
X1666Y1273D01*
X1667Y1273D01*
X1668Y1273D01*
X1669Y1273D01*
X1670Y1273D01*
X1671Y1273D01*
X1672Y1273D01*
X1673Y1273D01*
X1674Y1273D01*
X1675Y1273D01*
X1676Y1273D01*
X1677Y1273D01*
X1678Y1273D01*
X1679Y1273D01*
X1680Y1273D01*
X1681Y1273D01*
X1682Y1273D01*
X1683Y1273D01*
X1684Y1273D01*
X1685Y1273D01*
X1686Y1273D01*
X1687Y1273D01*
X1688Y1273D01*
X1689Y1273D01*
X1690Y1273D01*
X1691Y1273D01*
X1692Y1273D01*
X1693Y1273D01*
X1694Y1273D01*
X1695Y1273D01*
X1696Y1273D01*
X1697Y1273D01*
X1698Y1273D01*
X1699Y1273D01*
X1700Y1273D01*
X1701Y1273D01*
X1702Y1273D01*
X1703Y1273D01*
X1704Y1273D01*
X1705Y1273D01*
X1706Y1273D01*
X1707Y1273D01*
X1708Y1273D01*
X1709Y1273D01*
X1710Y1273D01*
X1711Y1273D01*
X1712Y1273D01*
X1713Y1273D01*
X1714Y1273D01*
X1715Y1273D01*
X1716Y1273D01*
X1717Y1273D01*
X1718Y1273D01*
X1719Y1273D01*
X1720Y1273D01*
X1721Y1273D01*
X1722Y1273D01*
X1723Y1273D01*
X1724Y1273D01*
X1725Y1273D01*
X1726Y1273D01*
X1727Y1273D01*
X1728Y1273D01*
X1729Y1273D01*
X1730Y1273D01*
X1731Y1273D01*
X1732Y1273D01*
X1733Y1273D01*
X1734Y1273D01*
X1735Y1273D01*
X1736Y1273D01*
X1737Y1273D01*
X1738Y1273D01*
X1739Y1273D01*
X1740Y1273D01*
X1741Y1273D01*
X1742Y1273D01*
X1743Y1273D01*
X1744Y1273D01*
X1745Y1273D01*
X1746Y1273D01*
X1747Y1273D01*
X1748Y1273D01*
X1749Y1273D01*
X1750Y1273D01*
X1751Y1273D01*
X1752Y1273D01*
X1753Y1273D01*
X1754Y1273D01*
X1755Y1273D01*
X1756Y1273D01*
X1757Y1273D01*
X1758Y1273D01*
X1759Y1273D01*
X1760Y1273D01*
X1761Y1273D01*
X1762Y1273D01*
X1763Y1273D01*
X1764Y1273D01*
X1765Y1273D01*
X1766Y1273D01*
X1767Y1273D01*
X1768Y1273D01*
X1769Y1273D01*
X1770Y1273D01*
X1771Y1273D01*
X1772Y1273D01*
X1773Y1273D01*
X1774Y1273D01*
X1775Y1273D01*
X1776Y1273D01*
X1777Y1273D01*
X1778Y1273D01*
X1779Y1273D01*
X1780Y1273D01*
X1781Y1273D01*
X1782Y1273D01*
X1783Y1273D01*
X1784Y1273D01*
X1785Y1273D01*
X1786Y1273D01*
X1787Y1273D01*
X1788Y1273D01*
X1789Y1273D01*
X1790Y1273D01*
X1791Y1273D01*
X1792Y1273D01*
X1793Y1273D01*
X1794Y1273D01*
X1795Y1273D01*
X1796Y1273D01*
X1797Y1273D01*
X1798Y1273D01*
X1799Y1273D01*
X1800Y1273D01*
X1801Y1273D01*
X1802Y1273D01*
X1803Y1273D01*
X1804Y1273D01*
X1805Y1273D01*
X1806Y1273D01*
X1807Y1273D01*
X1808Y1273D01*
X1809Y1273D01*
X1810Y1273D01*
X1811Y1273D01*
X1812Y1273D01*
X1813Y1273D01*
X1814Y1273D01*
X1815Y1273D01*
X1816Y1273D01*
X1817Y1273D01*
X1818Y1273D01*
X1819Y1273D01*
X1820Y1273D01*
X1821Y1273D01*
X1822Y1273D01*
X1823Y1273D01*
X1824Y1273D01*
X1825Y1273D01*
X1826Y1273D01*
X1827Y1273D01*
X1828Y1273D01*
X1829Y1273D01*
X1830Y1273D01*
X1831Y1273D01*
X1832Y1273D01*
X1833Y1273D01*
X1834Y1273D01*
X1835Y1273D01*
X1836Y1273D01*
X1837Y1273D01*
X1838Y1273D01*
X1839Y1273D01*
X1840Y1273D01*
X1841Y1273D01*
X1842Y1273D01*
X1843Y1273D01*
X1844Y1273D01*
X1845Y1273D01*
X1846Y1273D01*
X1847Y1273D01*
X1848Y1273D01*
X1849Y1273D01*
X1850Y1273D01*
X1851Y1273D01*
X1852Y1273D01*
X1853Y1273D01*
X1854Y1273D01*
X1855Y1273D01*
X1856Y1273D01*
X1857Y1273D01*
X1858Y1273D01*
X1859Y1273D01*
X1860Y1273D01*
X1861Y1273D01*
X1862Y1273D01*
X1863Y1273D01*
X1864Y1273D01*
X1865Y1273D01*
X1866Y1273D01*
X1867Y1273D01*
X1868Y1273D01*
X1869Y1273D01*
X1870Y1273D01*
X1871Y1273D01*
X1872Y1273D01*
X1873Y1273D01*
X1874Y1273D01*
X1875Y1273D01*
X1876Y1273D01*
X1877Y1273D01*
X1878Y1273D01*
X1879Y1273D01*
X1880Y1273D01*
X1881Y1273D01*
X1882Y1273D01*
X1883Y1273D01*
X1884Y1273D01*
X1885Y1273D01*
X1886Y1273D01*
X1887Y1273D01*
X1888Y1273D01*
X1889Y1273D01*
X1890Y1273D01*
X1891Y1273D01*
X1892Y1273D01*
X1893Y1273D01*
X1894Y1273D01*
X1895Y1273D01*
X1896Y1273D01*
X1897Y1273D01*
X1898Y1273D01*
X1899Y1273D01*
X1900Y1273D01*
X1901Y1273D01*
X1902Y1273D01*
X1903Y1273D01*
X1904Y1273D01*
X1905Y1273D01*
X1906Y1273D01*
X1907Y1273D01*
X1908Y1273D01*
X1909Y1273D01*
X1910Y1273D01*
X1911Y1273D01*
X1912Y1273D01*
X1913Y1273D01*
X1914Y1273D01*
X1915Y1273D01*
X1916Y1273D01*
X1917Y1273D01*
X1918Y1273D01*
X1919Y1273D01*
X1920Y1273D01*
X1921Y1273D01*
X1922Y1273D01*
X1923Y1273D01*
X1924Y1273D01*
X1925Y1273D01*
X1926Y1273D01*
X1927Y1273D01*
X1928Y1273D01*
X1929Y1273D01*
X1930Y1273D01*
X1931Y1273D01*
X1932Y1273D01*
X1933Y1273D01*
X1934Y1273D01*
X1935Y1273D01*
X1936Y1273D01*
X1937Y1273D01*
X1938Y1273D01*
X1939Y1273D01*
X1940Y1273D01*
X1941Y1273D01*
X1942Y1273D01*
X1943Y1273D01*
X1944Y1273D01*
X1945Y1273D01*
X1946Y1273D01*
X1947Y1273D01*
X1948Y1273D01*
X1949Y1273D01*
X1950Y1273D01*
X1951Y1273D01*
X1952Y1273D01*
X1953Y1273D01*
X1954Y1273D01*
X1955Y1273D01*
X1956Y1273D01*
X1957Y1273D01*
X1958Y1273D01*
X1959Y1273D01*
X1960Y1273D01*
X1961Y1273D01*
X1962Y1273D01*
X1963Y1273D01*
X1964Y1273D01*
X1965Y1273D01*
X1966Y1273D01*
X1967Y1273D01*
X1968Y1273D01*
X1969Y1273D01*
X1970Y1273D01*
X1971Y1273D01*
X1972Y1273D01*
X1973Y1273D01*
X1974Y1273D01*
X1975Y1273D01*
X1976Y1273D01*
X1977Y1273D01*
X1978Y1273D01*
X1979Y1273D01*
X1980Y1273D01*
X1981Y1273D01*
X1982Y1273D01*
X1983Y1273D01*
X1984Y1273D01*
X1985Y1273D01*
X1986Y1273D01*
X1987Y1273D01*
X1988Y1273D01*
X1989Y1273D01*
X1990Y1273D01*
X1991Y1273D01*
X1992Y1273D01*
X1993Y1273D01*
X1994Y1273D01*
X1995Y1273D01*
X1996Y1273D01*
X1997Y1273D01*
X1998Y1273D01*
X1999Y1273D01*
X2000Y1273D01*
X2001Y1273D01*
X2002Y1273D01*
X2003Y1273D01*
X2004Y1273D01*
X2005Y1273D01*
X2006Y1273D01*
X2007Y1273D01*
X2008Y1273D01*
X2009Y1273D01*
X2010Y1273D01*
X2011Y1273D01*
X2012Y1273D01*
X2013Y1273D01*
X2014Y1273D01*
X2015Y1273D01*
X2016Y1273D01*
X2017Y1273D01*
X2018Y1273D01*
X2019Y1273D01*
X2020Y1273D01*
X2021Y1273D01*
X2022Y1273D01*
X2023Y1273D01*
X2024Y1273D01*
X2025Y1273D01*
X2026Y1273D01*
X2027Y1273D01*
X2028Y1273D01*
X2029Y1273D01*
X2030Y1273D01*
X2031Y1273D01*
X2032Y1273D01*
X2033Y1273D01*
X2034Y1273D01*
X2035Y1273D01*
X2036Y1273D01*
X2037Y1273D01*
X2038Y1273D01*
X2039Y1273D01*
X2040Y1273D01*
X2041Y1273D01*
X2042Y1273D01*
X2043Y1273D01*
X2044Y1273D01*
X2045Y1273D01*
X2046Y1273D01*
X2047Y1273D01*
X2048Y1273D01*
X2049Y1273D01*
X2050Y1273D01*
X2051Y1273D01*
X2052Y1273D01*
X2053Y1273D01*
X2054Y1273D01*
X2055Y1273D01*
X2056Y1273D01*
X2057Y1273D01*
X2058Y1273D01*
X2059Y1273D01*
X2060Y1273D01*
X2061Y1273D01*
X2062Y1273D01*
X2063Y1273D01*
X2064Y1273D01*
X2065Y1273D01*
X2066Y1273D01*
X2067Y1273D01*
X2068Y1273D01*
X2069Y1273D01*
X2070Y1273D01*
X2071Y1273D01*
X2072Y1273D01*
X2073Y1273D01*
X2074Y1273D01*
X2075Y1273D01*
X2076Y1273D01*
X2077Y1273D01*
X2078Y1273D01*
X2079Y1273D01*
X2080Y1273D01*
X2081Y1273D01*
X2082Y1273D01*
X2083Y1273D01*
X2084Y1273D01*
X2085Y1273D01*
X2086Y1273D01*
X2087Y1273D01*
X2088Y1273D01*
X2089Y1273D01*
X2090Y1273D01*
X2091Y1273D01*
X2092Y1273D01*
X2093Y1273D01*
X2094Y1273D01*
X2095Y1273D01*
X2096Y1273D01*
X2097Y1273D01*
X2098Y1273D01*
X2099Y1273D01*
X2100Y1273D01*
X2101Y1273D01*
X2102Y1273D01*
X2103Y1273D01*
X2104Y1273D01*
X2105Y1273D01*
X2106Y1273D01*
X2107Y1273D01*
X2108Y1273D01*
X2109Y1273D01*
X2110Y1273D01*
X2111Y1273D01*
X2112Y1273D01*
X2113Y1273D01*
X2114Y1273D01*
X2115Y1273D01*
X2116Y1273D01*
X2117Y1273D01*
X2118Y1273D01*
X2119Y1273D01*
X2120Y1273D01*
X2121Y1273D01*
X2122Y1273D01*
X2123Y1273D01*
X2124Y1273D01*
X2125Y1273D01*
X2126Y1273D01*
X2127Y1273D01*
X2128Y1273D01*
X2129Y1273D01*
X2130Y1273D01*
X2131Y1273D01*
X2132Y1273D01*
X2133Y1273D01*
X2134Y1273D01*
X2135Y1273D01*
X2136Y1273D01*
X2137Y1273D01*
X2138Y1273D01*
X2139Y1273D01*
X2140Y1273D01*
X2141Y1273D01*
X2142Y1273D01*
X2143Y1273D01*
X2144Y1273D01*
X2145Y1273D01*
X2146Y1273D01*
X2147Y1273D01*
X2148Y1273D01*
X2149Y1273D01*
X2150Y1273D01*
X2151Y1273D01*
X2152Y1273D01*
X2153Y1273D01*
X2154Y1273D01*
X2155Y1273D01*
X2156Y1273D01*
X2157Y1273D01*
X2158Y1273D01*
X2159Y1273D01*
X2160Y1273D01*
X2161Y1273D01*
X2162Y1273D01*
X2163Y1273D01*
X2164Y1273D01*
X2165Y1273D01*
X2166Y1273D01*
X2167Y1273D01*
X2168Y1273D01*
X2169Y1273D01*
X2170Y1273D01*
X2171Y1273D01*
X2172Y1273D01*
X2173Y1273D01*
X2174Y1273D01*
X2175Y1273D01*
X2176Y1273D01*
X2177Y1273D01*
X2178Y1273D01*
X2179Y1273D01*
X2180Y1273D01*
X2181Y1273D01*
X2182Y1273D01*
X2183Y1273D01*
X2184Y1273D01*
X2185Y1273D01*
X2186Y1273D01*
X2187Y1273D01*
X2188Y1273D01*
X2189Y1273D01*
X2190Y1273D01*
X2191Y1273D01*
X2192Y1273D01*
X2193Y1273D01*
X2194Y1273D01*
X2195Y1273D01*
X2196Y1273D01*
X2197Y1273D01*
X2198Y1273D01*
X2199Y1273D01*
X2200Y1273D01*
X2201Y1273D01*
X2202Y1273D01*
X2203Y1273D01*
X2204Y1273D01*
X2205Y1273D01*
X2206Y1273D01*
X2207Y1273D01*
X2208Y1273D01*
X2209Y1273D01*
X2210Y1273D01*
X2211Y1273D01*
X2212Y1273D01*
X2213Y1273D01*
X2214Y1273D01*
X2215Y1273D01*
X2216Y1273D01*
X2217Y1273D01*
X2218Y1273D01*
X2219Y1273D01*
X2220Y1273D01*
X2221Y1273D01*
X2222Y1273D01*
X2223Y1273D01*
X2224Y1273D01*
X2225Y1273D01*
X2226Y1273D01*
X2227Y1273D01*
X2228Y1273D01*
X2229Y1273D01*
X2230Y1273D01*
X2231Y1273D01*
X2232Y1273D01*
X2233Y1273D01*
X2234Y1273D01*
X2235Y1273D01*
X2236Y1273D01*
X2237Y1273D01*
X2238Y1273D01*
X2239Y1273D01*
X2240Y1273D01*
X2241Y1273D01*
X2242Y1273D01*
X2243Y1273D01*
X2244Y1273D01*
X2245Y1273D01*
X2246Y1273D01*
X2247Y1273D01*
X2248Y1273D01*
X2249Y1273D01*
X2250Y1273D01*
X2251Y1273D01*
X2252Y1273D01*
X2253Y1273D01*
X2254Y1273D01*
X2255Y1273D01*
X2256Y1273D01*
X2257Y1273D01*
X2258Y1273D01*
X2259Y1273D01*
X2260Y1273D01*
X2261Y1273D01*
X2262Y1273D01*
X2263Y1273D01*
X2264Y1273D01*
X2265Y1273D01*
X2266Y1273D01*
X2267Y1273D01*
X2268Y1273D01*
X2269Y1273D01*
X2270Y1273D01*
X2271Y1273D01*
X2272Y1273D01*
X2273Y1273D01*
X2274Y1273D01*
X2275Y1273D01*
X2276Y1273D01*
X2277Y1273D01*
X2278Y1273D01*
X2279Y1273D01*
X2280Y1273D01*
X2281Y1273D01*
X2282Y1273D01*
X2283Y1273D01*
X2284Y1273D01*
X2285Y1273D01*
X2286Y1273D01*
X2287Y1273D01*
X2288Y1273D01*
X2289Y1273D01*
X2290Y1273D01*
X2291Y1273D01*
X2292Y1273D01*
X2293Y1273D01*
X2294Y1273D01*
X2295Y1273D01*
X2296Y1273D01*
X2297Y1273D01*
X2298Y1273D01*
X2299Y1273D01*
X2300Y1273D01*
X2301Y1273D01*
X2302Y1273D01*
X2303Y1273D01*
X2304Y1273D01*
X2305Y1273D01*
X2306Y1273D01*
X2307Y1273D01*
X2308Y1273D01*
X2309Y1273D01*
X2310Y1273D01*
X2311Y1273D01*
X2312Y1273D01*
X2313Y1273D01*
X2314Y1273D01*
X2315Y1273D01*
X2316Y1273D01*
X2317Y1273D01*
X2318Y1273D01*
X2319Y1273D01*
X2320Y1273D01*
X2321Y1273D01*
X2322Y1273D01*
X2323Y1272D01*
X2324Y1272D01*
X2325Y1272D01*
X2326Y1272D01*
X2327Y1272D01*
X2328Y1272D01*
X2329Y1272D01*
X2330Y1272D01*
X2331Y1272D01*
X2332Y1272D01*
X2333Y1272D01*
X2334Y1272D01*
X2335Y1272D01*
X2336Y1272D01*
X2337Y1271D01*
X2338Y1271D01*
X2339Y1271D01*
X2340Y1271D01*
X2341Y1271D01*
X2342Y1271D01*
X2343Y1271D01*
X2344Y1271D01*
X2345Y1271D01*
X2346Y1271D01*
X2347Y1270D01*
X2348Y1270D01*
X2349Y1270D01*
X2350Y1270D01*
X2351Y1270D01*
X2352Y1270D01*
X2353Y1270D01*
X2354Y1270D01*
X2355Y1269D01*
X2356Y1269D01*
X2357Y1269D01*
X2358Y1269D01*
X2359Y1269D01*
X2360Y1269D01*
X2361Y1269D01*
X2362Y1268D01*
X2363Y1268D01*
X2364Y1268D01*
X2365Y1268D01*
X2366Y1268D01*
X2367Y1268D01*
X2368Y1268D01*
X2369Y1267D01*
X2370Y1267D01*
X2371Y1267D01*
X2372Y1267D01*
X2373Y1267D01*
X2374Y1266D01*
X2375Y1266D01*
X2376Y1266D01*
X2377Y1266D01*
X2378Y1266D01*
X2379Y1265D01*
X2380Y1265D01*
X2381Y1265D01*
X2382Y1265D01*
X2383Y1265D01*
X2384Y1264D01*
X2385Y1264D01*
X2386Y1264D01*
X2387Y1264D01*
X2388Y1264D01*
X2389Y1263D01*
X2390Y1263D01*
X2391Y1263D01*
X2392Y1263D01*
X2393Y1262D01*
X2394Y1262D01*
X2395Y1262D01*
X2396Y1262D01*
X2397Y1261D01*
X2398Y1261D01*
X2399Y1261D01*
X2400Y1261D01*
X2401Y1260D01*
X2402Y1260D01*
X2403Y1260D01*
X2404Y1260D01*
X2405Y1259D01*
X2406Y1259D01*
X2407Y1259D01*
X2408Y1259D01*
X2409Y1258D01*
X2410Y1258D01*
X2411Y1258D01*
X2412Y1257D01*
X2413Y1257D01*
X2414Y1257D01*
X2415Y1257D01*
X2416Y1256D01*
X2417Y1256D01*
X2418Y1256D01*
X2419Y1255D01*
X2420Y1255D01*
X2421Y1255D01*
X2422Y1254D01*
X2423Y1254D01*
X2424Y1254D01*
X2425Y1253D01*
X2426Y1253D01*
X2427Y1253D01*
X2428Y1252D01*
X2429Y1252D01*
X2430Y1252D01*
X2431Y1251D01*
X2432Y1251D01*
X2433Y1251D01*
X2434Y1250D01*
X2435Y1250D01*
X2436Y1250D01*
X2437Y1249D01*
X2438Y1249D01*
X2439Y1249D01*
X2440Y1248D01*
X2441Y1248D01*
X2442Y1247D01*
X2443Y1247D01*
X2444Y1247D01*
X2445Y1246D01*
X2446Y1246D01*
X2447Y1245D01*
X2448Y1245D01*
X2449Y1245D01*
X2450Y1244D01*
X2451Y1244D01*
X2452Y1243D01*
X2453Y1243D01*
X2454Y1243D01*
X2455Y1242D01*
X2456Y1242D01*
X2457Y1241D01*
X2458Y1241D01*
X2459Y1240D01*
X2460Y1240D01*
X2461Y1240D01*
X2462Y1239D01*
X2463Y1239D01*
X2464Y1238D01*
X2465Y1238D01*
X2466Y1237D01*
X2467Y1237D01*
X2468Y1236D01*
X2469Y1236D01*
X2470Y1235D01*
X2471Y1235D01*
X2472Y1235D01*
X2473Y1234D01*
X2474Y1234D01*
X2475Y1233D01*
X2476Y1233D01*
X2477Y1232D01*
X2478Y1232D01*
X2479Y1231D01*
X2480Y1230D01*
X2481Y1230D01*
X2482Y1229D01*
X2483Y1229D01*
X2484Y1228D01*
X2485Y1228D01*
X2486Y1227D01*
X2487Y1227D01*
X2488Y1226D01*
X2489Y1226D01*
X2490Y1225D01*
X2491Y1225D01*
X2492Y1224D01*
X2493Y1224D01*
X2494Y1223D01*
X2495Y1222D01*
X2496Y1222D01*
X2497Y1221D01*
X2498Y1221D01*
X2499Y1220D01*
X2500Y1220D01*
X2501Y1219D01*
X2502Y1218D01*
X2503Y1218D01*
X2504Y1217D01*
X2505Y1217D01*
X2506Y1216D01*
X2507Y1216D01*
X2508Y1215D01*
X2509Y1214D01*
X2510Y1214D01*
X2511Y1213D01*
X2512Y1212D01*
X2513Y1212D01*
X2514Y1211D01*
X2515Y1210D01*
X2516Y1210D01*
X2517Y1209D01*
X2518Y1208D01*
X2519Y1208D01*
X2520Y1207D01*
X2521Y1207D01*
X2522Y1206D01*
X2523Y1205D01*
X2524Y1205D01*
X2525Y1204D01*
X2526Y1203D01*
X2527Y1202D01*
X2528Y1202D01*
X2529Y1201D01*
X2530Y1200D01*
X2531Y1200D01*
X2532Y1199D01*
X2533Y1198D01*
X2534Y1197D01*
X2535Y1197D01*
X2536Y1196D01*
X2537Y1195D01*
X2538Y1195D01*
X2539Y1194D01*
X2540Y1193D01*
X2541Y1192D01*
X2542Y1191D01*
X2543Y1191D01*
X2544Y1190D01*
X2545Y1189D01*
X2546Y1188D01*
X2547Y1187D01*
X2548Y1187D01*
X2549Y1186D01*
X2550Y1185D01*
X2551Y1184D01*
X2552Y1183D01*
X2553Y1183D01*
X2554Y1182D01*
X2555Y1181D01*
X2556Y1180D01*
X2557Y1179D01*
X2558Y1178D01*
X2559Y1178D01*
X2560Y1177D01*
X2561Y1176D01*
X2562Y1175D01*
X2563Y1174D01*
X2564Y1173D01*
X2565Y1172D01*
X2566Y1171D01*
X2567Y1171D01*
X2568Y1170D01*
X2569Y1169D01*
X2570Y1168D01*
X2571Y1167D01*
X2572Y1166D01*
X2573Y1165D01*
X2574Y1164D01*
X2575Y1163D01*
X2576Y1162D01*
X2577Y1161D01*
X2578Y1160D01*
X2579Y1159D01*
X2580Y1158D01*
X2581Y1157D01*
X2582Y1156D01*
X2583Y1155D01*
X2584Y1154D01*
X2585Y1153D01*
X2586Y1152D01*
X2587Y1151D01*
X2588Y1150D01*
X2589Y1149D01*
X2590Y1148D01*
X2591Y1147D01*
X2592Y1146D01*
X2593Y1145D01*
X2593Y1144D01*
X2594Y1143D01*
X2595Y1142D01*
X2596Y1141D01*
X2597Y1140D01*
X2598Y1139D01*
X2599Y1138D01*
X2600Y1137D01*
X2600Y1136D01*
X2601Y1135D01*
X2602Y1134D01*
X2603Y1133D01*
X2604Y1132D01*
X2605Y1131D01*
X2606Y1130D01*
X2606Y1129D01*
X2607Y1128D01*
X2608Y1127D01*
X2609Y1126D01*
X2610Y1125D01*
X2610Y1124D01*
X2611Y1123D01*
X2612Y1122D01*
X2613Y1121D01*
X2613Y1120D01*
X2614Y1119D01*
X2615Y1118D01*
X2616Y1117D01*
X2617Y1116D01*
X2617Y1115D01*
X2618Y1114D01*
X2619Y1113D01*
X2619Y1112D01*
X2620Y1111D01*
X2621Y1110D01*
X2622Y1109D01*
X2622Y1108D01*
X2623Y1107D01*
X2624Y1106D01*
X2624Y1105D01*
X2625Y1104D01*
X2626Y1103D01*
X2627Y1102D01*
X2627Y1101D01*
X2628Y1100D01*
X2629Y1099D01*
X2629Y1098D01*
X2630Y1097D01*
X2631Y1096D01*
X2631Y1095D01*
X2632Y1094D01*
X2632Y1093D01*
X2633Y1092D01*
X2634Y1091D01*
X2634Y1090D01*
X2635Y1089D01*
X2636Y1088D01*
X2636Y1087D01*
X2637Y1086D01*
X2638Y1085D01*
X2638Y1084D01*
X2639Y1083D01*
X2639Y1082D01*
X2640Y1081D01*
X2641Y1080D01*
X2641Y1079D01*
X2642Y1078D01*
X2642Y1077D01*
X2643Y1076D01*
X2643Y1075D01*
X2644Y1074D01*
X2645Y1073D01*
X2645Y1072D01*
X2646Y1071D01*
X2646Y1070D01*
X2647Y1069D01*
X2647Y1068D01*
X2648Y1067D01*
X2649Y1066D01*
X2649Y1065D01*
X2650Y1064D01*
X2650Y1063D01*
X2651Y1062D01*
X2651Y1061D01*
X2652Y1060D01*
X2652Y1059D01*
X2653Y1058D01*
X2653Y1057D01*
X2654Y1056D01*
X2654Y1055D01*
X2655Y1054D01*
X2655Y1053D01*
X2656Y1052D01*
X2656Y1051D01*
X2657Y1050D01*
X2657Y1049D01*
X2658Y1048D01*
X2658Y1047D01*
X2659Y1046D01*
X2659Y1044D01*
X2660Y1043D01*
X2660Y1042D01*
X2661Y1041D01*
X2661Y1040D01*
X2662Y1039D01*
X2662Y1038D01*
X2663Y1037D01*
X2663Y1035D01*
X2664Y1034D01*
X2664Y1033D01*
X2665Y1032D01*
X2665Y1031D01*
X2666Y1030D01*
X2666Y1028D01*
X2667Y1027D01*
X2667Y1026D01*
X2668Y1025D01*
X2668Y1023D01*
X2669Y1022D01*
X2669Y1021D01*
X2670Y1020D01*
X2670Y1018D01*
X2671Y1017D01*
X2671Y1016D01*
X2672Y1015D01*
X2672Y1013D01*
X2673Y1012D01*
X2673Y1010D01*
X2674Y1009D01*
X2674Y1007D01*
X2675Y1006D01*
X2675Y1004D01*
X2676Y1003D01*
X2676Y1001D01*
X2677Y1000D01*
X2677Y998D01*
X2678Y997D01*
X2678Y995D01*
X2679Y994D01*
X2679Y992D01*
X2680Y991D01*
X2680Y988D01*
X2681Y987D01*
X2681Y985D01*
X2682Y984D01*
X2682Y981D01*
X2683Y980D01*
X2683Y977D01*
X2684Y976D01*
X2684Y973D01*
X2685Y972D01*
X2685Y969D01*
X2686Y968D01*
X2686Y965D01*
X2687Y964D01*
X2687Y960D01*
X2688Y959D01*
X2688Y955D01*
X2689Y954D01*
X2689Y950D01*
X2690Y949D01*
X2690Y944D01*
X2691Y943D01*
X2691Y938D01*
X2692Y937D01*
X2692Y931D01*
X2693Y930D01*
X2693Y923D01*
X2694Y922D01*
X2694Y912D01*
X2695Y911D01*
X2695Y898D01*
X2696Y897D01*
X2696Y378D01*
X2695Y377D01*
X2695Y364D01*
X2694Y363D01*
X2694Y353D01*
X2693Y352D01*
X2693Y345D01*
X2692Y344D01*
X2692Y338D01*
X2691Y337D01*
X2691Y332D01*
X2690Y331D01*
X2690Y326D01*
X2689Y325D01*
X2689Y321D01*
X2688Y320D01*
X2688Y316D01*
X2687Y315D01*
X2687Y311D01*
X2686Y310D01*
X2686Y307D01*
X2685Y306D01*
X2685Y303D01*
X2684Y302D01*
X2684Y299D01*
X2683Y298D01*
X2683Y295D01*
X2682Y294D01*
X2682Y291D01*
X2681Y290D01*
X2681Y288D01*
X2680Y287D01*
X2680Y284D01*
X2679Y283D01*
X2679Y281D01*
X2678Y280D01*
X2678Y278D01*
X2677Y277D01*
X2677Y275D01*
X2676Y274D01*
X2676Y272D01*
X2675Y271D01*
X2675Y269D01*
X2674Y268D01*
X2674Y266D01*
X2673Y265D01*
X2673Y263D01*
X2672Y262D01*
X2672Y260D01*
X2671Y259D01*
X2671Y258D01*
X2670Y257D01*
X2670Y255D01*
X2669Y254D01*
X2669Y253D01*
X2668Y252D01*
X2668Y250D01*
X2667Y249D01*
X2667Y248D01*
X2666Y247D01*
X2666Y245D01*
X2665Y244D01*
X2665Y243D01*
X2664Y242D01*
X2664Y241D01*
X2663Y240D01*
X2663Y238D01*
X2662Y237D01*
X2662Y236D01*
X2661Y235D01*
X2661Y234D01*
X2660Y233D01*
X2660Y232D01*
X2659Y231D01*
X2659Y229D01*
X2658Y228D01*
X2658Y227D01*
X2657Y226D01*
X2657Y225D01*
X2656Y224D01*
X2656Y223D01*
X2655Y222D01*
X2655Y221D01*
X2654Y220D01*
X2654Y219D01*
X2653Y218D01*
X2653Y217D01*
X2652Y216D01*
X2652Y215D01*
X2651Y214D01*
X2651Y213D01*
X2650Y212D01*
X2650Y211D01*
X2649Y210D01*
X2649Y209D01*
X2648Y208D01*
X2647Y207D01*
X2647Y206D01*
X2646Y205D01*
X2646Y204D01*
X2645Y203D01*
X2645Y202D01*
X2644Y201D01*
X2643Y200D01*
X2643Y199D01*
X2642Y198D01*
X2642Y197D01*
X2641Y196D01*
X2641Y195D01*
X2640Y194D01*
X2639Y193D01*
X2639Y192D01*
X2638Y191D01*
X2638Y190D01*
X2637Y189D01*
X2636Y188D01*
X2636Y187D01*
X2635Y186D01*
X2634Y185D01*
X2634Y184D01*
X2633Y183D01*
X2632Y182D01*
X2632Y181D01*
X2631Y180D01*
X2631Y179D01*
X2630Y178D01*
X2629Y177D01*
X2629Y176D01*
X2628Y175D01*
X2627Y174D01*
X2627Y173D01*
X2626Y172D01*
X2625Y171D01*
X2624Y170D01*
X2624Y169D01*
X2623Y168D01*
X2622Y167D01*
X2622Y166D01*
X2621Y165D01*
X2620Y164D01*
X2619Y163D01*
X2619Y162D01*
X2618Y161D01*
X2617Y160D01*
X2617Y159D01*
X2616Y158D01*
X2615Y157D01*
X2614Y156D01*
X2613Y155D01*
X2613Y154D01*
X2612Y153D01*
X2611Y152D01*
X2610Y151D01*
X2610Y150D01*
X2609Y149D01*
X2608Y148D01*
X2607Y147D01*
X2606Y146D01*
X2606Y145D01*
X2605Y144D01*
X2604Y143D01*
X2603Y142D01*
X2602Y141D01*
X2601Y140D01*
X2600Y139D01*
X2600Y138D01*
X2599Y137D01*
X2598Y136D01*
X2597Y135D01*
X2596Y134D01*
X2595Y133D01*
X2594Y132D01*
X2593Y131D01*
X2593Y130D01*
X2592Y129D01*
X2591Y128D01*
X2590Y127D01*
X2589Y126D01*
X2588Y125D01*
X2587Y124D01*
X2586Y123D01*
X2585Y122D01*
X2584Y121D01*
X2583Y120D01*
X2582Y119D01*
X2581Y118D01*
X2580Y117D01*
X2579Y116D01*
X2578Y115D01*
X2577Y114D01*
X2576Y113D01*
X2575Y112D01*
X2574Y111D01*
X2573Y110D01*
X2572Y109D01*
X2571Y108D01*
X2570Y107D01*
X2569Y106D01*
X2568Y105D01*
X2567Y104D01*
X2566Y104D01*
X2565Y103D01*
X2564Y102D01*
X2563Y101D01*
X2562Y100D01*
X2561Y99D01*
X2560Y98D01*
X2559Y97D01*
X2558Y97D01*
X2557Y96D01*
X2556Y95D01*
X2555Y94D01*
X2554Y93D01*
X2553Y92D01*
X2552Y92D01*
X2551Y91D01*
X2550Y90D01*
X2549Y89D01*
X2548Y88D01*
X2547Y88D01*
X2546Y87D01*
X2545Y86D01*
X2544Y85D01*
X2543Y84D01*
X2542Y84D01*
X2541Y83D01*
X2540Y82D01*
X2539Y81D01*
X2538Y80D01*
X2537Y80D01*
X2536Y79D01*
X2535Y78D01*
X2534Y78D01*
X2533Y77D01*
X2532Y76D01*
X2531Y75D01*
X2530Y75D01*
X2529Y74D01*
X2528Y73D01*
X2527Y73D01*
X2526Y72D01*
X2525Y71D01*
X2524Y70D01*
X2523Y70D01*
X2522Y69D01*
X2521Y68D01*
X2520Y68D01*
X2519Y67D01*
X2518Y67D01*
X2517Y66D01*
X2516Y65D01*
X2515Y65D01*
X2514Y64D01*
X2513Y63D01*
X2512Y63D01*
X2511Y62D01*
X2510Y61D01*
X2509Y61D01*
X2508Y60D01*
X2507Y59D01*
X2506Y59D01*
X2505Y58D01*
X2504Y58D01*
X2503Y57D01*
X2502Y57D01*
X2501Y56D01*
X2500Y55D01*
X2499Y55D01*
X2498Y54D01*
X2497Y54D01*
X2496Y53D01*
X2495Y53D01*
X2494Y52D01*
X2493Y51D01*
X2492Y51D01*
X2491Y50D01*
X2490Y50D01*
X2489Y49D01*
X2488Y49D01*
X2487Y48D01*
X2486Y48D01*
X2485Y47D01*
X2484Y47D01*
X2483Y46D01*
X2482Y46D01*
X2481Y45D01*
X2480Y45D01*
X2479Y44D01*
X2478Y44D01*
X2477Y43D01*
X2476Y42D01*
X2475Y42D01*
X2474Y41D01*
X2473Y41D01*
X2472Y41D01*
X2471Y40D01*
X2470Y40D01*
X2469Y39D01*
X2468Y39D01*
X2467Y38D01*
X2466Y38D01*
X2465Y37D01*
X2464Y37D01*
X2463Y36D01*
X2462Y36D01*
X2461Y36D01*
X2460Y35D01*
X2459Y35D01*
X2458Y34D01*
X2457Y34D01*
X2456Y33D01*
X2455Y33D01*
X2454Y32D01*
X2453Y32D01*
X2452Y32D01*
X2451Y31D01*
X2450Y31D01*
X2449Y30D01*
X2448Y30D01*
X2447Y30D01*
X2446Y29D01*
X2445Y29D01*
X2444Y28D01*
X2443Y28D01*
X2442Y28D01*
X2441Y27D01*
X2440Y27D01*
X2439Y26D01*
X2438Y26D01*
X2437Y26D01*
X2436Y25D01*
X2435Y25D01*
X2434Y25D01*
X2433Y24D01*
X2432Y24D01*
X2431Y24D01*
X2430Y23D01*
X2429Y23D01*
X2428Y23D01*
X2427Y22D01*
X2426Y22D01*
X2425Y22D01*
X2424Y21D01*
X2423Y21D01*
X2422Y21D01*
X2421Y20D01*
X2420Y20D01*
X2419Y20D01*
X2418Y19D01*
X2417Y19D01*
X2416Y19D01*
X2415Y18D01*
X2414Y18D01*
X2413Y18D01*
X2412Y18D01*
X2411Y17D01*
X2410Y17D01*
X2409Y17D01*
X2408Y16D01*
X2407Y16D01*
X2406Y16D01*
X2405Y16D01*
X2404Y15D01*
X2403Y15D01*
X2402Y15D01*
X2401Y15D01*
X2400Y14D01*
X2399Y14D01*
X2398Y14D01*
X2397Y14D01*
X2396Y13D01*
X2395Y13D01*
X2394Y13D01*
X2393Y13D01*
X2392Y12D01*
X2391Y12D01*
X2390Y12D01*
X2389Y12D01*
X2388Y11D01*
X2387Y11D01*
X2386Y11D01*
X2385Y11D01*
X2384Y11D01*
X2383Y10D01*
X2382Y10D01*
X2381Y10D01*
X2380Y10D01*
X2379Y10D01*
X2378Y9D01*
X2377Y9D01*
X2376Y9D01*
X2375Y9D01*
X2374Y9D01*
X2373Y8D01*
X2372Y8D01*
X2371Y8D01*
X2370Y8D01*
X2369Y8D01*
X2368Y7D01*
X2367Y7D01*
X2366Y7D01*
X2365Y7D01*
X2364Y7D01*
X2363Y7D01*
X2362Y7D01*
X2361Y6D01*
X2360Y6D01*
X2359Y6D01*
X2358Y6D01*
X2357Y6D01*
X2356Y6D01*
X2355Y6D01*
X2354Y5D01*
X2353Y5D01*
X2352Y5D01*
X2351Y5D01*
X2350Y5D01*
X2349Y5D01*
X2348Y5D01*
X2347Y5D01*
X2346Y4D01*
X2345Y4D01*
X2344Y4D01*
X2343Y4D01*
X2342Y4D01*
X2341Y4D01*
X2340Y4D01*
X2339Y4D01*
X2338Y4D01*
X2337Y4D01*
X2336Y3D01*
X2335Y3D01*
X2334Y3D01*
X2333Y3D01*
X2332Y3D01*
X2331Y3D01*
X2330Y3D01*
X2329Y3D01*
X2328Y3D01*
X2327Y3D01*
X2326Y3D01*
X2325Y3D01*
X2324Y3D01*
X2323Y3D01*
X2322Y2D01*
X2321Y2D01*
X2320Y2D01*
X2319Y2D01*
X2318Y2D01*
X2317Y2D01*
X2316Y2D01*
X2315Y2D01*
X2314Y2D01*
X2313Y2D01*
X2312Y2D01*
X2311Y2D01*
X2310Y2D01*
X2309Y2D01*
X2308Y2D01*
X2307Y2D01*
X2306Y2D01*
X2305Y2D01*
X2304Y2D01*
X2303Y2D01*
X2302Y2D01*
X2301Y2D01*
X2300Y2D01*
X2299Y2D01*
X2298Y2D01*
X2297Y2D01*
X2296Y2D01*
X2295Y2D01*
X2294Y2D01*
X2293Y2D01*
X2292Y2D01*
X2291Y2D01*
X2290Y2D01*
X2289Y2D01*
X2288Y2D01*
X2287Y2D01*
X2286Y2D01*
X2285Y2D01*
X2284Y2D01*
X2283Y2D01*
X2282Y2D01*
X2281Y2D01*
X2280Y2D01*
X2279Y2D01*
X2278Y2D01*
X2277Y2D01*
X2276Y2D01*
X2275Y2D01*
X2274Y2D01*
X2273Y2D01*
X2272Y2D01*
X2271Y2D01*
X2270Y2D01*
X2269Y2D01*
X2268Y2D01*
X2267Y2D01*
X2266Y2D01*
X2265Y2D01*
X2264Y2D01*
X2263Y2D01*
X2262Y2D01*
X2261Y2D01*
X2260Y2D01*
X2259Y2D01*
X2258Y2D01*
X2257Y2D01*
X2256Y2D01*
X2255Y2D01*
X2254Y2D01*
X2253Y2D01*
X2252Y2D01*
X2251Y2D01*
X2250Y2D01*
X2249Y2D01*
X2248Y2D01*
X2247Y2D01*
X2246Y2D01*
X2245Y2D01*
X2244Y2D01*
X2243Y2D01*
X2242Y2D01*
X2241Y2D01*
X2240Y2D01*
X2239Y2D01*
X2238Y2D01*
X2237Y2D01*
X2236Y2D01*
X2235Y2D01*
X2234Y2D01*
X2233Y2D01*
X2232Y2D01*
X2231Y2D01*
X2230Y2D01*
X2229Y2D01*
X2228Y2D01*
X2227Y2D01*
X2226Y2D01*
X2225Y2D01*
X2224Y2D01*
X2223Y2D01*
X2222Y2D01*
X2221Y2D01*
X2220Y2D01*
X2219Y2D01*
X2218Y2D01*
X2217Y2D01*
X2216Y2D01*
X2215Y2D01*
X2214Y2D01*
X2213Y2D01*
X2212Y2D01*
X2211Y2D01*
X2210Y2D01*
X2209Y2D01*
X2208Y2D01*
X2207Y2D01*
X2206Y2D01*
X2205Y2D01*
X2204Y2D01*
X2203Y2D01*
X2202Y2D01*
X2201Y2D01*
X2200Y2D01*
X2199Y2D01*
X2198Y2D01*
X2197Y2D01*
X2196Y2D01*
X2195Y2D01*
X2194Y2D01*
X2193Y2D01*
X2192Y2D01*
X2191Y2D01*
X2190Y2D01*
X2189Y2D01*
X2188Y2D01*
X2187Y2D01*
X2186Y2D01*
X2185Y2D01*
X2184Y2D01*
X2183Y2D01*
X2182Y2D01*
X2181Y2D01*
X2180Y2D01*
X2179Y2D01*
X2178Y2D01*
X2177Y2D01*
X2176Y2D01*
X2175Y2D01*
X2174Y2D01*
X2173Y2D01*
X2172Y2D01*
X2171Y2D01*
X2170Y2D01*
X2169Y2D01*
X2168Y2D01*
X2167Y2D01*
X2166Y2D01*
X2165Y2D01*
X2164Y2D01*
X2163Y2D01*
X2162Y2D01*
X2161Y2D01*
X2160Y2D01*
X2159Y2D01*
X2158Y2D01*
X2157Y2D01*
X2156Y2D01*
X2155Y2D01*
X2154Y2D01*
X2153Y2D01*
X2152Y2D01*
X2151Y2D01*
X2150Y2D01*
X2149Y2D01*
X2148Y2D01*
X2147Y2D01*
X2146Y2D01*
X2145Y2D01*
X2144Y2D01*
X2143Y2D01*
X2142Y2D01*
X2141Y2D01*
X2140Y2D01*
X2139Y2D01*
X2138Y2D01*
X2137Y2D01*
X2136Y2D01*
X2135Y2D01*
X2134Y2D01*
X2133Y2D01*
X2132Y2D01*
X2131Y2D01*
X2130Y2D01*
X2129Y2D01*
X2128Y2D01*
X2127Y2D01*
X2126Y2D01*
X2125Y2D01*
X2124Y2D01*
X2123Y2D01*
X2122Y2D01*
X2121Y2D01*
X2120Y2D01*
X2119Y2D01*
X2118Y2D01*
X2117Y2D01*
X2116Y2D01*
X2115Y2D01*
X2114Y2D01*
X2113Y2D01*
X2112Y2D01*
X2111Y2D01*
X2110Y2D01*
X2109Y2D01*
X2108Y2D01*
X2107Y2D01*
X2106Y2D01*
X2105Y2D01*
X2104Y2D01*
X2103Y2D01*
X2102Y2D01*
X2101Y2D01*
X2100Y2D01*
X2099Y2D01*
X2098Y2D01*
X2097Y2D01*
X2096Y2D01*
X2095Y2D01*
X2094Y2D01*
X2093Y2D01*
X2092Y2D01*
X2091Y2D01*
X2090Y2D01*
X2089Y2D01*
X2088Y2D01*
X2087Y2D01*
X2086Y2D01*
X2085Y2D01*
X2084Y2D01*
X2083Y2D01*
X2082Y2D01*
X2081Y2D01*
X2080Y2D01*
X2079Y2D01*
X2078Y2D01*
X2077Y2D01*
X2076Y2D01*
X2075Y2D01*
X2074Y2D01*
X2073Y2D01*
X2072Y2D01*
X2071Y2D01*
X2070Y2D01*
X2069Y2D01*
X2068Y2D01*
X2067Y2D01*
X2066Y2D01*
X2065Y2D01*
X2064Y2D01*
X2063Y2D01*
X2062Y2D01*
X2061Y2D01*
X2060Y2D01*
X2059Y2D01*
X2058Y2D01*
X2057Y2D01*
X2056Y2D01*
X2055Y2D01*
X2054Y2D01*
X2053Y2D01*
X2052Y2D01*
X2051Y2D01*
X2050Y2D01*
X2049Y2D01*
X2048Y2D01*
X2047Y2D01*
X2046Y2D01*
X2045Y2D01*
X2044Y2D01*
X2043Y2D01*
X2042Y2D01*
X2041Y2D01*
X2040Y2D01*
X2039Y2D01*
X2038Y2D01*
X2037Y2D01*
X2036Y2D01*
X2035Y2D01*
X2034Y2D01*
X2033Y2D01*
X2032Y2D01*
X2031Y2D01*
X2030Y2D01*
X2029Y2D01*
X2028Y2D01*
X2027Y2D01*
X2026Y2D01*
X2025Y2D01*
X2024Y2D01*
X2023Y2D01*
X2022Y2D01*
X2021Y2D01*
X2020Y2D01*
X2019Y2D01*
X2018Y2D01*
X2017Y2D01*
X2016Y2D01*
X2015Y2D01*
X2014Y2D01*
X2013Y2D01*
X2012Y2D01*
X2011Y2D01*
X2010Y2D01*
X2009Y2D01*
X2008Y2D01*
X2007Y2D01*
X2006Y2D01*
X2005Y2D01*
X2004Y2D01*
X2003Y2D01*
X2002Y2D01*
X2001Y2D01*
X2000Y2D01*
X1999Y2D01*
X1998Y2D01*
X1997Y2D01*
X1996Y2D01*
X1995Y2D01*
X1994Y2D01*
X1993Y2D01*
X1992Y2D01*
X1991Y2D01*
X1990Y2D01*
X1989Y2D01*
X1988Y2D01*
X1987Y2D01*
X1986Y2D01*
X1985Y2D01*
X1984Y2D01*
X1983Y2D01*
X1982Y2D01*
X1981Y2D01*
X1980Y2D01*
X1979Y2D01*
X1978Y2D01*
X1977Y2D01*
X1976Y2D01*
X1975Y2D01*
X1974Y2D01*
X1973Y2D01*
X1972Y2D01*
X1971Y2D01*
X1970Y2D01*
X1969Y2D01*
X1968Y2D01*
X1967Y2D01*
X1966Y2D01*
X1965Y2D01*
X1964Y2D01*
X1963Y2D01*
X1962Y2D01*
X1961Y2D01*
X1960Y2D01*
X1959Y2D01*
X1958Y2D01*
X1957Y2D01*
X1956Y2D01*
X1955Y2D01*
X1954Y2D01*
X1953Y2D01*
X1952Y2D01*
X1951Y2D01*
X1950Y2D01*
X1949Y2D01*
X1948Y2D01*
X1947Y2D01*
X1946Y2D01*
X1945Y2D01*
X1944Y2D01*
X1943Y2D01*
X1942Y2D01*
X1941Y2D01*
X1940Y2D01*
X1939Y2D01*
X1938Y2D01*
X1937Y2D01*
X1936Y2D01*
X1935Y2D01*
X1934Y2D01*
X1933Y2D01*
X1932Y2D01*
X1931Y2D01*
X1930Y2D01*
X1929Y2D01*
X1928Y2D01*
X1927Y2D01*
X1926Y2D01*
X1925Y2D01*
X1924Y2D01*
X1923Y2D01*
X1922Y2D01*
X1921Y2D01*
X1920Y2D01*
X1919Y2D01*
X1918Y2D01*
X1917Y2D01*
X1916Y2D01*
X1915Y2D01*
X1914Y2D01*
X1913Y2D01*
X1912Y2D01*
X1911Y2D01*
X1910Y2D01*
X1909Y2D01*
X1908Y2D01*
X1907Y2D01*
X1906Y2D01*
X1905Y2D01*
X1904Y2D01*
X1903Y2D01*
X1902Y2D01*
X1901Y2D01*
X1900Y2D01*
X1899Y2D01*
X1898Y2D01*
X1897Y2D01*
X1896Y2D01*
X1895Y2D01*
X1894Y2D01*
X1893Y2D01*
X1892Y2D01*
X1891Y2D01*
X1890Y2D01*
X1889Y2D01*
X1888Y2D01*
X1887Y2D01*
X1886Y2D01*
X1885Y2D01*
X1884Y2D01*
X1883Y2D01*
X1882Y2D01*
X1881Y2D01*
X1880Y2D01*
X1879Y2D01*
X1878Y2D01*
X1877Y2D01*
X1876Y2D01*
X1875Y2D01*
X1874Y2D01*
X1873Y2D01*
X1872Y2D01*
X1871Y2D01*
X1870Y2D01*
X1869Y2D01*
X1868Y2D01*
X1867Y2D01*
X1866Y2D01*
X1865Y2D01*
X1864Y2D01*
X1863Y2D01*
X1862Y2D01*
X1861Y2D01*
X1860Y2D01*
X1859Y2D01*
X1858Y2D01*
X1857Y2D01*
X1856Y2D01*
X1855Y2D01*
X1854Y2D01*
X1853Y2D01*
X1852Y2D01*
X1851Y2D01*
X1850Y2D01*
X1849Y2D01*
X1848Y2D01*
X1847Y2D01*
X1846Y2D01*
X1845Y2D01*
X1844Y2D01*
X1843Y2D01*
X1842Y2D01*
X1841Y2D01*
X1840Y2D01*
X1839Y2D01*
X1838Y2D01*
X1837Y2D01*
X1836Y2D01*
X1835Y2D01*
X1834Y2D01*
X1833Y2D01*
X1832Y2D01*
X1831Y2D01*
X1830Y2D01*
X1829Y2D01*
X1828Y2D01*
X1827Y2D01*
X1826Y2D01*
X1825Y2D01*
X1824Y2D01*
X1823Y2D01*
X1822Y2D01*
X1821Y2D01*
X1820Y2D01*
X1819Y2D01*
X1818Y2D01*
X1817Y2D01*
X1816Y2D01*
X1815Y2D01*
X1814Y2D01*
X1813Y2D01*
X1812Y2D01*
X1811Y2D01*
X1810Y2D01*
X1809Y2D01*
X1808Y2D01*
X1807Y2D01*
X1806Y2D01*
X1805Y2D01*
X1804Y2D01*
X1803Y2D01*
X1802Y2D01*
X1801Y2D01*
X1800Y2D01*
X1799Y2D01*
X1798Y2D01*
X1797Y2D01*
X1796Y2D01*
X1795Y2D01*
X1794Y2D01*
X1793Y2D01*
X1792Y2D01*
X1791Y2D01*
X1790Y2D01*
X1789Y2D01*
X1788Y2D01*
X1787Y2D01*
X1786Y2D01*
X1785Y2D01*
X1784Y2D01*
X1783Y2D01*
X1782Y2D01*
X1781Y2D01*
X1780Y2D01*
X1779Y2D01*
X1778Y2D01*
X1777Y2D01*
X1776Y2D01*
X1775Y2D01*
X1774Y2D01*
X1773Y2D01*
X1772Y2D01*
X1771Y2D01*
X1770Y2D01*
X1769Y2D01*
X1768Y2D01*
X1767Y2D01*
X1766Y2D01*
X1765Y2D01*
X1764Y2D01*
X1763Y2D01*
X1762Y2D01*
X1761Y2D01*
X1760Y2D01*
X1759Y2D01*
X1758Y2D01*
X1757Y2D01*
X1756Y2D01*
X1755Y2D01*
X1754Y2D01*
X1753Y2D01*
X1752Y2D01*
X1751Y2D01*
X1750Y2D01*
X1749Y2D01*
X1748Y2D01*
X1747Y2D01*
X1746Y2D01*
X1745Y2D01*
X1744Y2D01*
X1743Y2D01*
X1742Y2D01*
X1741Y2D01*
X1740Y2D01*
X1739Y2D01*
X1738Y2D01*
X1737Y2D01*
X1736Y2D01*
X1735Y2D01*
X1734Y2D01*
X1733Y2D01*
X1732Y2D01*
X1731Y2D01*
X1730Y2D01*
X1729Y2D01*
X1728Y2D01*
X1727Y2D01*
X1726Y2D01*
X1725Y2D01*
X1724Y2D01*
X1723Y2D01*
X1722Y2D01*
X1721Y2D01*
X1720Y2D01*
X1719Y2D01*
X1718Y2D01*
X1717Y2D01*
X1716Y2D01*
X1715Y2D01*
X1714Y2D01*
X1713Y2D01*
X1712Y2D01*
X1711Y2D01*
X1710Y2D01*
X1709Y2D01*
X1708Y2D01*
X1707Y2D01*
X1706Y2D01*
X1705Y2D01*
X1704Y2D01*
X1703Y2D01*
X1702Y2D01*
X1701Y2D01*
X1700Y2D01*
X1699Y2D01*
X1698Y2D01*
X1697Y2D01*
X1696Y2D01*
X1695Y2D01*
X1694Y2D01*
X1693Y2D01*
X1692Y2D01*
X1691Y2D01*
X1690Y2D01*
X1689Y2D01*
X1688Y2D01*
X1687Y2D01*
X1686Y2D01*
X1685Y2D01*
X1684Y2D01*
X1683Y2D01*
X1682Y2D01*
X1681Y2D01*
X1680Y2D01*
X1679Y2D01*
X1678Y2D01*
X1677Y2D01*
X1676Y2D01*
X1675Y2D01*
X1674Y2D01*
X1673Y2D01*
X1672Y2D01*
X1671Y2D01*
X1670Y2D01*
X1669Y2D01*
X1668Y2D01*
X1667Y2D01*
X1666Y2D01*
X1665Y2D01*
X1664Y2D01*
X1663Y2D01*
X1662Y2D01*
X1661Y2D01*
X1660Y2D01*
X1659Y2D01*
X1658Y2D01*
X1657Y2D01*
X1656Y2D01*
X1655Y2D01*
X1654Y2D01*
X1653Y2D01*
X1652Y2D01*
X1651Y2D01*
X1650Y2D01*
X1649Y2D01*
X1648Y2D01*
X1647Y2D01*
X1646Y2D01*
X1645Y2D01*
X1644Y2D01*
X1643Y2D01*
X1642Y2D01*
X1641Y2D01*
X1640Y2D01*
X1639Y2D01*
X1638Y2D01*
X1637Y2D01*
X1636Y2D01*
X1635Y2D01*
X1634Y2D01*
X1633Y2D01*
X1632Y2D01*
X1631Y2D01*
X1630Y2D01*
X1629Y2D01*
X1628Y2D01*
X1627Y2D01*
X1626Y2D01*
X1625Y2D01*
X1624Y2D01*
X1623Y2D01*
X1622Y2D01*
X1621Y2D01*
X1620Y2D01*
X1619Y2D01*
X1618Y2D01*
X1617Y2D01*
X1616Y2D01*
X1615Y2D01*
X1614Y2D01*
X1613Y2D01*
X1612Y2D01*
X1611Y2D01*
X1610Y2D01*
X1609Y2D01*
X1608Y2D01*
X1607Y2D01*
X1606Y2D01*
X1605Y2D01*
X1604Y2D01*
X1603Y2D01*
X1602Y2D01*
X1601Y2D01*
X1600Y2D01*
X1599Y2D01*
X1598Y2D01*
X1597Y2D01*
X1596Y2D01*
X1595Y2D01*
X1594Y2D01*
X1593Y2D01*
X1592Y2D01*
X1591Y2D01*
X1590Y2D01*
X1589Y2D01*
X1588Y2D01*
X1587Y2D01*
X1586Y2D01*
X1585Y2D01*
X1584Y2D01*
X1583Y2D01*
X1582Y2D01*
X1581Y2D01*
X1580Y2D01*
X1579Y2D01*
X1578Y2D01*
X1577Y2D01*
X1576Y2D01*
X1575Y2D01*
X1574Y2D01*
X1573Y2D01*
X1572Y2D01*
X1571Y2D01*
X1570Y2D01*
X1569Y2D01*
X1568Y2D01*
X1567Y2D01*
X1566Y2D01*
X1565Y2D01*
X1564Y2D01*
X1563Y2D01*
X1562Y2D01*
X1561Y2D01*
X1560Y2D01*
X1559Y2D01*
X1558Y2D01*
X1557Y2D01*
X1556Y2D01*
X1555Y2D01*
X1554Y2D01*
X1553Y2D01*
X1552Y2D01*
X1551Y2D01*
X1550Y2D01*
X1549Y2D01*
X1548Y2D01*
X1547Y2D01*
X1546Y2D01*
X1545Y2D01*
X1544Y2D01*
X1543Y2D01*
X1542Y2D01*
X1541Y2D01*
X1540Y2D01*
X1539Y2D01*
X1538Y2D01*
X1537Y2D01*
X1536Y2D01*
X1535Y2D01*
X1534Y2D01*
X1533Y2D01*
X1532Y2D01*
X1531Y2D01*
X1530Y2D01*
X1529Y2D01*
X1528Y2D01*
X1527Y2D01*
X1526Y2D01*
X1525Y2D01*
X1524Y2D01*
X1523Y2D01*
X1522Y2D01*
X1521Y2D01*
X1520Y2D01*
X1519Y2D01*
X1518Y2D01*
X1517Y2D01*
X1516Y2D01*
X1515Y2D01*
X1514Y2D01*
X1513Y2D01*
X1512Y2D01*
X1511Y2D01*
X1510Y2D01*
X1509Y2D01*
X1508Y2D01*
X1507Y2D01*
X1506Y2D01*
X1505Y2D01*
X1504Y2D01*
X1503Y2D01*
X1502Y2D01*
X1501Y2D01*
X1500Y2D01*
X1499Y2D01*
X1498Y2D01*
X1497Y2D01*
X1496Y2D01*
X1495Y2D01*
X1494Y2D01*
X1493Y2D01*
X1492Y2D01*
X1491Y2D01*
X1490Y2D01*
X1489Y2D01*
X1488Y2D01*
X1487Y2D01*
X1486Y2D01*
X1485Y2D01*
X1484Y2D01*
X1483Y2D01*
X1482Y2D01*
X1481Y2D01*
X1480Y2D01*
X1479Y2D01*
X1478Y2D01*
X1477Y2D01*
X1476Y2D01*
X1475Y2D01*
X1474Y2D01*
X1473Y2D01*
X1472Y2D01*
X1471Y2D01*
X1470Y2D01*
X1469Y2D01*
X1468Y2D01*
X1467Y2D01*
X1466Y2D01*
X1465Y2D01*
X1464Y2D01*
X1463Y2D01*
X1462Y2D01*
X1461Y2D01*
X1460Y2D01*
X1459Y2D01*
X1458Y2D01*
X1457Y2D01*
X1456Y2D01*
X1455Y2D01*
X1454Y2D01*
X1453Y2D01*
X1452Y2D01*
X1451Y2D01*
X1450Y2D01*
X1449Y2D01*
X1448Y2D01*
X1447Y2D01*
X1446Y2D01*
X1445Y2D01*
X1444Y2D01*
X1443Y2D01*
X1442Y2D01*
X1441Y2D01*
X1440Y2D01*
X1439Y2D01*
X1438Y2D01*
X1437Y2D01*
X1436Y2D01*
X1435Y2D01*
X1434Y2D01*
X1433Y2D01*
X1432Y2D01*
X1431Y2D01*
X1430Y2D01*
X1429Y2D01*
X1428Y2D01*
X1427Y2D01*
X1426Y2D01*
X1425Y2D01*
X1424Y2D01*
X1423Y2D01*
X1422Y2D01*
X1421Y2D01*
X1420Y2D01*
X1419Y2D01*
X1418Y2D01*
X1417Y2D01*
X1416Y2D01*
X1415Y2D01*
X1414Y2D01*
X1413Y2D01*
X1412Y2D01*
X1411Y2D01*
X1410Y2D01*
X1409Y2D01*
X1408Y2D01*
X1407Y2D01*
X1406Y2D01*
X1405Y2D01*
X1404Y2D01*
X1403Y2D01*
X1402Y2D01*
X1401Y2D01*
X1400Y2D01*
X1399Y2D01*
X1398Y2D01*
X1397Y2D01*
X1396Y2D01*
X1395Y2D01*
X1394Y2D01*
X1393Y2D01*
X1392Y2D01*
X1391Y2D01*
X1390Y2D01*
X1389Y2D01*
X1388Y2D01*
X1387Y2D01*
X1386Y2D01*
X1385Y2D01*
X1384Y2D01*
X1383Y2D01*
X1382Y2D01*
X1381Y2D01*
X1380Y2D01*
X1379Y2D01*
X1378Y2D01*
X1377Y2D01*
X1376Y2D01*
X1375Y2D01*
X1374Y2D01*
X1373Y2D01*
X1372Y2D01*
X1371Y2D01*
X1370Y2D01*
X1369Y2D01*
X1368Y2D01*
X1367Y2D01*
X1366Y2D01*
X1365Y2D01*
X1364Y2D01*
X1363Y2D01*
X1362Y2D01*
X1361Y2D01*
X1360Y2D01*
X1359Y2D01*
X1358Y2D01*
X1357Y2D01*
X1356Y2D01*
X1355Y2D01*
X1354Y2D01*
X1353Y2D01*
X1352Y2D01*
X1351Y2D01*
X1350Y2D01*
X1349Y2D01*
X1348Y2D01*
X1347Y2D01*
X1346Y2D01*
X1345Y2D01*
X1344Y2D01*
X1343Y2D01*
X1342Y2D01*
X1341Y2D01*
X1340Y2D01*
X1339Y2D01*
X1338Y2D01*
X1337Y2D01*
X1336Y2D01*
X1335Y2D01*
X1334Y2D01*
X1333Y2D01*
X1332Y2D01*
X1331Y2D01*
X1330Y2D01*
X1329Y2D01*
X1328Y2D01*
X1327Y2D01*
X1326Y2D01*
X1325Y2D01*
X1324Y2D01*
X1323Y2D01*
X1322Y2D01*
X1321Y2D01*
X1320Y2D01*
X1319Y2D01*
X1318Y2D01*
X1317Y2D01*
X1316Y2D01*
X1315Y2D01*
X1314Y2D01*
X1313Y2D01*
X1312Y2D01*
X1311Y2D01*
X1310Y2D01*
X1309Y2D01*
X1308Y2D01*
X1307Y2D01*
X1306Y2D01*
X1305Y2D01*
X1304Y2D01*
X1303Y2D01*
X1302Y2D01*
X1301Y2D01*
X1300Y2D01*
X1299Y2D01*
X1298Y2D01*
X1297Y2D01*
X1296Y2D01*
X1295Y2D01*
X1294Y2D01*
X1293Y2D01*
X1292Y2D01*
X1291Y2D01*
X1290Y2D01*
X1289Y2D01*
X1288Y2D01*
X1287Y2D01*
X1286Y2D01*
X1285Y2D01*
X1284Y2D01*
X1283Y2D01*
X1282Y2D01*
X1281Y2D01*
X1280Y2D01*
X1279Y2D01*
X1278Y2D01*
X1277Y2D01*
X1276Y2D01*
X1275Y2D01*
X1274Y2D01*
X1273Y2D01*
X1272Y2D01*
X1271Y2D01*
X1270Y2D01*
X1269Y2D01*
X1268Y2D01*
X1267Y2D01*
X1266Y2D01*
X1265Y2D01*
X1264Y2D01*
X1263Y2D01*
X1262Y2D01*
X1261Y2D01*
X1260Y2D01*
X1259Y2D01*
X1258Y2D01*
X1257Y2D01*
X1256Y2D01*
X1255Y2D01*
X1254Y2D01*
X1253Y2D01*
X1252Y2D01*
X1251Y2D01*
X1250Y2D01*
X1249Y2D01*
X1248Y2D01*
X1247Y2D01*
X1246Y2D01*
X1245Y2D01*
X1244Y2D01*
X1243Y2D01*
X1242Y2D01*
X1241Y2D01*
X1240Y2D01*
X1239Y2D01*
X1238Y2D01*
X1237Y2D01*
X1236Y2D01*
X1235Y2D01*
X1234Y2D01*
X1233Y2D01*
X1232Y2D01*
X1231Y2D01*
X1230Y2D01*
X1229Y2D01*
X1228Y2D01*
X1227Y2D01*
X1226Y2D01*
X1225Y2D01*
X1224Y2D01*
X1223Y2D01*
X1222Y2D01*
X1221Y2D01*
X1220Y2D01*
X1219Y2D01*
X1218Y2D01*
X1217Y2D01*
X1216Y2D01*
X1215Y2D01*
X1214Y2D01*
X1213Y2D01*
X1212Y2D01*
X1211Y2D01*
X1210Y2D01*
X1209Y2D01*
X1208Y2D01*
X1207Y2D01*
X1206Y2D01*
X1205Y2D01*
X1204Y2D01*
X1203Y2D01*
X1202Y2D01*
X1201Y2D01*
X1200Y2D01*
X1199Y2D01*
X1198Y2D01*
X1197Y2D01*
X1196Y2D01*
X1195Y2D01*
X1194Y2D01*
X1193Y2D01*
X1192Y2D01*
X1191Y2D01*
X1190Y2D01*
X1189Y2D01*
X1188Y2D01*
X1187Y2D01*
X1186Y2D01*
X1185Y2D01*
X1184Y2D01*
X1183Y2D01*
X1182Y2D01*
X1181Y2D01*
X1180Y2D01*
X1179Y2D01*
X1178Y2D01*
X1177Y2D01*
X1176Y2D01*
X1175Y2D01*
X1174Y2D01*
X1173Y2D01*
X1172Y2D01*
X1171Y2D01*
X1170Y2D01*
X1169Y2D01*
X1168Y2D01*
X1167Y2D01*
X1166Y2D01*
X1165Y2D01*
X1164Y2D01*
X1163Y2D01*
X1162Y2D01*
X1161Y2D01*
X1160Y2D01*
X1159Y2D01*
X1158Y2D01*
X1157Y2D01*
X1156Y2D01*
X1155Y2D01*
X1154Y2D01*
X1153Y2D01*
X1152Y2D01*
X1151Y2D01*
X1150Y2D01*
X1149Y2D01*
X1148Y2D01*
X1147Y2D01*
X1146Y2D01*
X1145Y2D01*
X1144Y2D01*
X1143Y2D01*
X1142Y2D01*
X1141Y2D01*
X1140Y2D01*
X1139Y2D01*
X1138Y2D01*
X1137Y2D01*
X1136Y2D01*
X1135Y2D01*
X1134Y2D01*
X1133Y2D01*
X1132Y2D01*
X1131Y2D01*
X1130Y2D01*
X1129Y2D01*
X1128Y2D01*
X1127Y2D01*
X1126Y2D01*
X1125Y2D01*
X1124Y2D01*
X1123Y2D01*
X1122Y2D01*
X1121Y2D01*
X1120Y2D01*
X1119Y2D01*
X1118Y2D01*
X1117Y2D01*
X1116Y2D01*
X1115Y2D01*
X1114Y2D01*
X1113Y2D01*
X1112Y2D01*
X1111Y2D01*
X1110Y2D01*
X1109Y2D01*
X1108Y2D01*
X1107Y2D01*
X1106Y2D01*
X1105Y2D01*
X1104Y2D01*
X1103Y2D01*
X1102Y2D01*
X1101Y2D01*
X1100Y2D01*
X1099Y2D01*
X1098Y2D01*
X1097Y2D01*
X1096Y2D01*
X1095Y2D01*
X1094Y2D01*
X1093Y2D01*
X1092Y2D01*
X1091Y2D01*
X1090Y2D01*
X1089Y2D01*
X1088Y2D01*
X1087Y2D01*
X1086Y2D01*
X1085Y2D01*
X1084Y2D01*
X1083Y2D01*
X1082Y2D01*
X1081Y2D01*
X1080Y2D01*
X1079Y2D01*
X1078Y2D01*
X1077Y2D01*
X1076Y2D01*
X1075Y2D01*
X1074Y2D01*
X1073Y2D01*
X1072Y2D01*
X1071Y2D01*
X1070Y2D01*
X1069Y2D01*
X1068Y2D01*
X1067Y2D01*
X1066Y2D01*
X1065Y2D01*
X1064Y2D01*
X1063Y2D01*
X1062Y2D01*
X1061Y2D01*
X1060Y2D01*
X1059Y2D01*
X1058Y2D01*
X1057Y2D01*
X1056Y2D01*
X1055Y2D01*
X1054Y2D01*
X1053Y2D01*
X1052Y2D01*
X1051Y2D01*
X1050Y2D01*
X1049Y2D01*
X1048Y2D01*
X1047Y2D01*
X1046Y2D01*
X1045Y2D01*
X1044Y2D01*
X1043Y2D01*
X1042Y2D01*
X1041Y2D01*
X1040Y2D01*
X1039Y2D01*
X1038Y2D01*
X1037Y2D01*
X1036Y2D01*
X1035Y2D01*
X1034Y2D01*
X1033Y2D01*
X1032Y2D01*
X1031Y2D01*
X1030Y2D01*
X1029Y2D01*
X1028Y2D01*
X1027Y2D01*
X1026Y2D01*
X1025Y2D01*
X1024Y2D01*
X1023Y2D01*
X1022Y2D01*
X1021Y2D01*
X1020Y2D01*
X1019Y2D01*
X1018Y2D01*
X1017Y2D01*
X1016Y2D01*
X1015Y2D01*
X1014Y2D01*
X1013Y2D01*
X1012Y2D01*
X1011Y2D01*
X1010Y2D01*
X1009Y2D01*
X1008Y2D01*
X1007Y2D01*
X1006Y2D01*
X1005Y2D01*
X1004Y2D01*
X1003Y2D01*
X1002Y2D01*
X1001Y2D01*
X1000Y2D01*
X999Y2D01*
X998Y2D01*
X997Y2D01*
X996Y2D01*
X995Y2D01*
X994Y2D01*
X993Y2D01*
X992Y2D01*
X991Y2D01*
X990Y2D01*
X989Y2D01*
X988Y2D01*
X987Y2D01*
X986Y2D01*
X985Y2D01*
X984Y2D01*
X983Y2D01*
X982Y2D01*
X981Y2D01*
X980Y2D01*
X979Y2D01*
X978Y2D01*
X977Y2D01*
X976Y2D01*
X975Y2D01*
X974Y2D01*
X973Y2D01*
X972Y2D01*
X971Y2D01*
X970Y2D01*
X969Y2D01*
X968Y2D01*
X967Y2D01*
X966Y2D01*
X965Y2D01*
X964Y2D01*
X963Y2D01*
X962Y2D01*
X961Y2D01*
X960Y2D01*
X959Y2D01*
X958Y2D01*
X957Y2D01*
X956Y2D01*
X955Y2D01*
X954Y2D01*
X953Y2D01*
X952Y2D01*
X951Y2D01*
X950Y2D01*
X949Y2D01*
X948Y2D01*
X947Y2D01*
X946Y2D01*
X945Y2D01*
X944Y2D01*
X943Y2D01*
X942Y2D01*
X941Y2D01*
X940Y2D01*
X939Y2D01*
X938Y2D01*
X937Y2D01*
X936Y2D01*
X935Y2D01*
X934Y2D01*
X933Y2D01*
X932Y2D01*
X931Y2D01*
X930Y2D01*
X929Y2D01*
X928Y2D01*
X927Y2D01*
X926Y2D01*
X925Y2D01*
X924Y2D01*
X923Y2D01*
X922Y2D01*
X921Y2D01*
X920Y2D01*
X919Y2D01*
X918Y2D01*
X917Y2D01*
X916Y2D01*
X915Y2D01*
X914Y2D01*
X913Y2D01*
X912Y2D01*
X911Y2D01*
X910Y2D01*
X909Y2D01*
X908Y2D01*
X907Y2D01*
X906Y2D01*
X905Y2D01*
X904Y2D01*
X903Y2D01*
X902Y2D01*
X901Y2D01*
X900Y2D01*
X899Y2D01*
X898Y2D01*
X897Y2D01*
X896Y2D01*
X895Y2D01*
X894Y2D01*
X893Y2D01*
X892Y2D01*
X891Y2D01*
X890Y2D01*
X889Y2D01*
X888Y2D01*
X887Y2D01*
X886Y2D01*
X885Y2D01*
X884Y2D01*
X883Y2D01*
X882Y2D01*
X881Y2D01*
X880Y2D01*
X879Y2D01*
X878Y2D01*
X877Y2D01*
X876Y2D01*
X875Y2D01*
X874Y2D01*
X873Y2D01*
X872Y2D01*
X871Y2D01*
X870Y2D01*
X869Y2D01*
X868Y2D01*
X867Y2D01*
X866Y2D01*
X865Y2D01*
X864Y2D01*
X863Y2D01*
X862Y2D01*
X861Y2D01*
X860Y2D01*
X859Y2D01*
X858Y2D01*
X857Y2D01*
X856Y2D01*
X855Y2D01*
X854Y2D01*
X853Y2D01*
X852Y2D01*
X851Y2D01*
X850Y2D01*
X849Y2D01*
X848Y2D01*
X847Y2D01*
X846Y2D01*
X845Y2D01*
X844Y2D01*
X843Y2D01*
X842Y2D01*
X841Y2D01*
X840Y2D01*
X839Y2D01*
X838Y2D01*
X837Y2D01*
X836Y2D01*
X835Y2D01*
X834Y2D01*
X833Y2D01*
X832Y2D01*
X831Y2D01*
X830Y2D01*
X829Y2D01*
X828Y2D01*
X827Y2D01*
X826Y2D01*
X825Y2D01*
X824Y2D01*
X823Y2D01*
X822Y2D01*
X821Y2D01*
X820Y2D01*
X819Y2D01*
X818Y2D01*
X817Y2D01*
X816Y2D01*
X815Y2D01*
X814Y2D01*
X813Y2D01*
X812Y2D01*
X811Y2D01*
X810Y2D01*
X809Y2D01*
X808Y2D01*
X807Y2D01*
X806Y2D01*
X805Y2D01*
X804Y2D01*
X803Y2D01*
X802Y2D01*
X801Y2D01*
X800Y2D01*
X799Y2D01*
X798Y2D01*
X797Y2D01*
X796Y2D01*
X795Y2D01*
X794Y2D01*
X793Y2D01*
X792Y2D01*
X791Y2D01*
X790Y2D01*
X789Y2D01*
X788Y2D01*
X787Y2D01*
X786Y2D01*
X785Y2D01*
X784Y2D01*
X783Y2D01*
X782Y2D01*
X781Y2D01*
X780Y2D01*
X779Y2D01*
X778Y2D01*
X777Y2D01*
X776Y2D01*
X775Y2D01*
X774Y2D01*
X773Y2D01*
X772Y2D01*
X771Y2D01*
X770Y2D01*
X769Y2D01*
X768Y2D01*
X767Y2D01*
X766Y2D01*
X765Y2D01*
X764Y2D01*
X763Y2D01*
X762Y2D01*
X761Y2D01*
X760Y2D01*
X759Y2D01*
X758Y2D01*
X757Y2D01*
X756Y2D01*
X755Y2D01*
X754Y2D01*
X753Y2D01*
X752Y2D01*
X751Y2D01*
X750Y2D01*
X749Y2D01*
X748Y2D01*
X747Y2D01*
X746Y2D01*
X745Y2D01*
X744Y2D01*
X743Y2D01*
X742Y2D01*
X741Y2D01*
X740Y2D01*
X739Y2D01*
X738Y2D01*
X737Y2D01*
X736Y2D01*
X735Y2D01*
X734Y2D01*
X733Y2D01*
X732Y2D01*
X731Y2D01*
X730Y2D01*
X729Y2D01*
X728Y2D01*
X727Y2D01*
X726Y2D01*
X725Y2D01*
X724Y2D01*
X723Y2D01*
X722Y2D01*
X721Y2D01*
X720Y2D01*
X719Y2D01*
X718Y2D01*
X717Y2D01*
X716Y2D01*
X715Y2D01*
X714Y2D01*
X713Y2D01*
X712Y2D01*
X711Y2D01*
X710Y2D01*
X709Y2D01*
X708Y2D01*
X707Y2D01*
X706Y2D01*
X705Y2D01*
X704Y2D01*
X703Y2D01*
X702Y2D01*
X701Y2D01*
X700Y2D01*
X699Y2D01*
X698Y2D01*
X697Y2D01*
X696Y2D01*
X695Y2D01*
X694Y2D01*
X693Y2D01*
X692Y2D01*
X691Y2D01*
X690Y2D01*
X689Y2D01*
X688Y2D01*
X687Y2D01*
X686Y2D01*
X685Y2D01*
X684Y2D01*
X683Y2D01*
X682Y2D01*
X681Y2D01*
X680Y2D01*
X679Y2D01*
X678Y2D01*
X677Y2D01*
X676Y2D01*
X675Y2D01*
X674Y2D01*
X673Y2D01*
X672Y2D01*
X671Y2D01*
X670Y2D01*
X669Y2D01*
X668Y2D01*
X667Y2D01*
X666Y2D01*
X665Y2D01*
X664Y2D01*
X663Y2D01*
X662Y2D01*
X661Y2D01*
X660Y2D01*
X659Y2D01*
X658Y2D01*
X657Y2D01*
X656Y2D01*
X655Y2D01*
X654Y2D01*
X653Y2D01*
X652Y2D01*
X651Y2D01*
X650Y2D01*
X649Y2D01*
X648Y2D01*
X647Y2D01*
X646Y2D01*
X645Y2D01*
X644Y2D01*
X643Y2D01*
X642Y2D01*
X641Y2D01*
X640Y2D01*
X639Y2D01*
X638Y2D01*
X637Y2D01*
X636Y2D01*
X635Y2D01*
X634Y2D01*
X633Y2D01*
X632Y2D01*
X631Y2D01*
X630Y2D01*
X629Y2D01*
X628Y2D01*
X627Y2D01*
X626Y2D01*
X625Y2D01*
X624Y2D01*
X623Y2D01*
X622Y2D01*
X621Y2D01*
X620Y2D01*
X619Y2D01*
X618Y2D01*
X617Y2D01*
X616Y2D01*
X615Y2D01*
X614Y2D01*
X613Y2D01*
X612Y2D01*
X611Y2D01*
X610Y2D01*
X609Y2D01*
X608Y2D01*
X607Y2D01*
X606Y2D01*
X605Y2D01*
X604Y2D01*
X603Y2D01*
X602Y2D01*
X601Y2D01*
X600Y2D01*
X599Y2D01*
X598Y2D01*
X597Y2D01*
X596Y2D01*
X595Y2D01*
X594Y2D01*
X593Y2D01*
X592Y2D01*
X591Y2D01*
X590Y2D01*
X589Y2D01*
X588Y2D01*
X587Y2D01*
X586Y2D01*
X585Y2D01*
X584Y2D01*
X583Y2D01*
X582Y2D01*
X581Y2D01*
X580Y2D01*
X579Y2D01*
X578Y2D01*
X577Y2D01*
X576Y2D01*
X575Y2D01*
X574Y2D01*
X573Y2D01*
X572Y2D01*
X571Y2D01*
X570Y2D01*
X569Y2D01*
X568Y2D01*
X567Y2D01*
X566Y2D01*
X565Y2D01*
X564Y2D01*
X563Y2D01*
X562Y2D01*
X561Y2D01*
X560Y2D01*
X559Y2D01*
X558Y2D01*
X557Y2D01*
X556Y2D01*
X555Y2D01*
X554Y2D01*
X553Y2D01*
X552Y2D01*
X551Y2D01*
X550Y2D01*
X549Y2D01*
X548Y2D01*
X547Y2D01*
X546Y2D01*
X545Y2D01*
X544Y2D01*
X543Y2D01*
X542Y2D01*
X541Y2D01*
X540Y2D01*
X539Y2D01*
X538Y2D01*
X537Y2D01*
X536Y2D01*
X535Y2D01*
X534Y2D01*
X533Y2D01*
X532Y2D01*
X531Y2D01*
X530Y2D01*
X529Y2D01*
X528Y2D01*
X527Y2D01*
X526Y2D01*
X525Y2D01*
X524Y2D01*
X523Y2D01*
X522Y2D01*
X521Y2D01*
X520Y2D01*
X519Y2D01*
X518Y2D01*
X517Y2D01*
X516Y2D01*
X515Y2D01*
X514Y2D01*
X513Y2D01*
X512Y2D01*
X511Y2D01*
X510Y2D01*
X509Y2D01*
X508Y2D01*
X507Y2D01*
X506Y2D01*
X505Y2D01*
X504Y2D01*
X503Y2D01*
X502Y2D01*
X501Y2D01*
X500Y2D01*
X499Y2D01*
X498Y2D01*
X497Y2D01*
X496Y2D01*
X495Y2D01*
X494Y2D01*
X493Y2D01*
X492Y2D01*
X491Y2D01*
X490Y2D01*
X489Y2D01*
X488Y2D01*
X487Y2D01*
X486Y2D01*
X485Y2D01*
X484Y2D01*
X483Y2D01*
X482Y2D01*
X481Y2D01*
X480Y2D01*
X479Y2D01*
X478Y2D01*
X477Y2D01*
X476Y2D01*
X475Y2D01*
X474Y2D01*
X473Y2D01*
X472Y2D01*
X471Y2D01*
X470Y2D01*
X469Y2D01*
X468Y2D01*
X467Y2D01*
X466Y2D01*
X465Y2D01*
X464Y2D01*
X463Y2D01*
X462Y2D01*
X461Y2D01*
X460Y2D01*
X459Y2D01*
X458Y2D01*
X457Y2D01*
X456Y2D01*
X455Y2D01*
X454Y2D01*
X453Y2D01*
X452Y2D01*
X451Y2D01*
X450Y2D01*
X449Y2D01*
X448Y2D01*
X447Y2D01*
X446Y2D01*
X445Y2D01*
X444Y2D01*
X443Y2D01*
X442Y2D01*
X441Y2D01*
X440Y2D01*
X439Y2D01*
X438Y2D01*
X437Y2D01*
X436Y2D01*
X435Y2D01*
X434Y2D01*
X433Y2D01*
X432Y2D01*
X431Y2D01*
X430Y2D01*
X429Y2D01*
X428Y2D01*
X427Y2D01*
X426Y2D01*
X425Y2D01*
X424Y2D01*
X423Y2D01*
X422Y2D01*
X421Y2D01*
X420Y2D01*
X419Y2D01*
X418Y2D01*
X417Y2D01*
X416Y2D01*
X415Y2D01*
X414Y2D01*
X413Y2D01*
X412Y2D01*
X411Y2D01*
X410Y2D01*
X409Y2D01*
X408Y2D01*
X407Y2D01*
X406Y2D01*
X405Y2D01*
X404Y2D01*
X403Y2D01*
X402Y2D01*
X401Y2D01*
X400Y2D01*
X399Y2D01*
X398Y2D01*
X397Y2D01*
X396Y2D01*
X395Y2D01*
X394Y2D01*
X393Y2D01*
X392Y2D01*
X391Y2D01*
X390Y2D01*
X389Y2D01*
X388Y2D01*
X387Y2D01*
X386Y2D01*
X385Y2D01*
X384Y2D01*
X383Y2D01*
X382Y2D01*
X381Y2D01*
X380Y2D01*
X379Y2D01*
X378Y2D01*
X377Y2D01*
X376Y2D01*
X375Y2D01*
X374Y2D01*
X373Y3D01*
X372Y3D01*
X371Y3D01*
X370Y3D01*
X369Y3D01*
X368Y3D01*
X367Y3D01*
X366Y3D01*
X365Y3D01*
X364Y3D01*
X363Y3D01*
X362Y3D01*
X361Y3D01*
X360Y3D01*
X359Y4D01*
X358Y4D01*
X357Y4D01*
X356Y4D01*
X355Y4D01*
X354Y4D01*
X353Y4D01*
X352Y4D01*
X351Y4D01*
X350Y4D01*
X349Y5D01*
X348Y5D01*
X347Y5D01*
X346Y5D01*
X345Y5D01*
X344Y5D01*
X343Y5D01*
X342Y5D01*
X341Y6D01*
X340Y6D01*
X339Y6D01*
X338Y6D01*
X337Y6D01*
X336Y6D01*
X335Y6D01*
X334Y7D01*
X333Y7D01*
X332Y7D01*
X331Y7D01*
X330Y7D01*
X329Y7D01*
X328Y7D01*
X327Y8D01*
X326Y8D01*
X325Y8D01*
X324Y8D01*
X323Y8D01*
X322Y9D01*
X321Y9D01*
X320Y9D01*
X319Y9D01*
X318Y9D01*
X317Y10D01*
X316Y10D01*
X315Y10D01*
X314Y10D01*
X313Y10D01*
X312Y11D01*
X311Y11D01*
X310Y11D01*
X309Y11D01*
X308Y11D01*
X307Y12D01*
X306Y12D01*
X305Y12D01*
X304Y12D01*
X303Y13D01*
X302Y13D01*
X301Y13D01*
X300Y13D01*
X299Y14D01*
X298Y14D01*
X297Y14D01*
X296Y14D01*
X295Y15D01*
X294Y15D01*
X293Y15D01*
X292Y15D01*
X291Y16D01*
X290Y16D01*
X289Y16D01*
X288Y16D01*
X287Y17D01*
X286Y17D01*
X285Y17D01*
X284Y18D01*
X283Y18D01*
X282Y18D01*
X281Y18D01*
X280Y19D01*
X279Y19D01*
X278Y19D01*
X277Y20D01*
X276Y20D01*
X275Y20D01*
X274Y21D01*
X273Y21D01*
X272Y21D01*
X271Y22D01*
X270Y22D01*
X269Y22D01*
X268Y23D01*
X267Y23D01*
X266Y23D01*
X265Y24D01*
X264Y24D01*
X263Y24D01*
X262Y25D01*
X261Y25D01*
X260Y25D01*
X259Y26D01*
X258Y26D01*
X257Y26D01*
X256Y27D01*
X255Y27D01*
X254Y28D01*
X253Y28D01*
X252Y28D01*
X251Y29D01*
X250Y29D01*
X249Y30D01*
X248Y30D01*
X247Y30D01*
X246Y31D01*
X245Y31D01*
X244Y32D01*
X243Y32D01*
X242Y32D01*
X241Y33D01*
X240Y33D01*
X239Y34D01*
X238Y34D01*
X237Y35D01*
X236Y35D01*
X235Y36D01*
X234Y36D01*
X233Y36D01*
X232Y37D01*
X231Y37D01*
X230Y38D01*
X229Y38D01*
X228Y39D01*
X227Y39D01*
X226Y40D01*
X225Y40D01*
X224Y40D01*
X223Y41D01*
X222Y41D01*
X221Y42D01*
X220Y42D01*
X219Y43D01*
X218Y44D01*
X217Y44D01*
X216Y45D01*
X215Y45D01*
X214Y46D01*
X213Y46D01*
X212Y47D01*
X211Y47D01*
X210Y48D01*
X209Y48D01*
X208Y49D01*
X207Y49D01*
X206Y50D01*
X205Y50D01*
X204Y51D01*
X203Y51D01*
X202Y52D01*
X201Y53D01*
X200Y53D01*
X199Y54D01*
X198Y54D01*
X197Y55D01*
X196Y55D01*
X195Y56D01*
X194Y57D01*
X193Y57D01*
X192Y58D01*
X191Y58D01*
X190Y59D01*
X189Y59D01*
X188Y60D01*
X187Y61D01*
X186Y61D01*
X185Y62D01*
X184Y63D01*
X183Y63D01*
X182Y64D01*
X181Y65D01*
X180Y65D01*
X179Y66D01*
X178Y67D01*
X177Y67D01*
X176Y68D01*
X175Y68D01*
X174Y69D01*
X173Y70D01*
X172Y70D01*
X171Y71D01*
X170Y72D01*
X169Y73D01*
X168Y73D01*
X167Y74D01*
X166Y75D01*
X165Y75D01*
X164Y76D01*
X163Y77D01*
X162Y78D01*
X161Y78D01*
X160Y79D01*
X159Y80D01*
X158Y80D01*
X157Y81D01*
X156Y82D01*
X155Y83D01*
X154Y84D01*
X153Y84D01*
X152Y85D01*
X151Y86D01*
X150Y87D01*
X149Y88D01*
X148Y88D01*
X147Y89D01*
X146Y90D01*
X145Y91D01*
X144Y92D01*
X143Y92D01*
X142Y93D01*
X141Y94D01*
X140Y95D01*
X139Y96D01*
X138Y97D01*
X137Y97D01*
X136Y98D01*
X135Y99D01*
X134Y100D01*
X133Y101D01*
X132Y102D01*
X131Y103D01*
X130Y104D01*
X129Y104D01*
X128Y105D01*
X127Y106D01*
X126Y107D01*
X125Y108D01*
X124Y109D01*
X123Y110D01*
X122Y111D01*
X121Y112D01*
X120Y113D01*
X119Y114D01*
X118Y115D01*
X117Y116D01*
X116Y117D01*
X115Y118D01*
X114Y119D01*
X113Y120D01*
X112Y121D01*
X111Y122D01*
X110Y123D01*
X109Y124D01*
X108Y125D01*
X107Y126D01*
X106Y127D01*
X105Y128D01*
X104Y129D01*
X103Y130D01*
X103Y131D01*
X102Y132D01*
X101Y133D01*
X100Y134D01*
X99Y135D01*
X98Y136D01*
X97Y137D01*
X96Y138D01*
X96Y139D01*
X95Y140D01*
X94Y141D01*
X93Y142D01*
X92Y143D01*
X91Y144D01*
X90Y145D01*
X90Y146D01*
X89Y147D01*
X88Y148D01*
X87Y149D01*
X86Y150D01*
X86Y151D01*
X85Y152D01*
X84Y153D01*
X83Y154D01*
X83Y155D01*
X82Y156D01*
X81Y157D01*
X80Y158D01*
X79Y159D01*
X79Y160D01*
X78Y161D01*
X77Y162D01*
X77Y163D01*
X76Y164D01*
X75Y165D01*
X74Y166D01*
X74Y167D01*
X73Y168D01*
X72Y169D01*
X72Y170D01*
X71Y171D01*
X70Y172D01*
X69Y173D01*
X69Y174D01*
X68Y175D01*
X67Y176D01*
X67Y177D01*
X66Y178D01*
X65Y179D01*
X65Y180D01*
X64Y181D01*
X64Y182D01*
X63Y183D01*
X62Y184D01*
X62Y185D01*
X61Y186D01*
X60Y187D01*
X60Y188D01*
X59Y189D01*
X58Y190D01*
X58Y191D01*
X57Y192D01*
X57Y193D01*
X56Y194D01*
X55Y195D01*
X55Y196D01*
X54Y197D01*
X54Y198D01*
X53Y199D01*
X53Y200D01*
X52Y201D01*
X51Y202D01*
X51Y203D01*
X50Y204D01*
X50Y205D01*
X49Y206D01*
X49Y207D01*
X48Y208D01*
X47Y209D01*
X47Y210D01*
X46Y211D01*
X46Y212D01*
X45Y213D01*
X45Y214D01*
X44Y215D01*
X44Y216D01*
X43Y217D01*
X43Y218D01*
X42Y219D01*
X42Y220D01*
X41Y221D01*
X41Y222D01*
X40Y223D01*
X40Y224D01*
X39Y225D01*
X39Y226D01*
X38Y227D01*
X38Y228D01*
X37Y229D01*
X37Y231D01*
X36Y232D01*
X36Y233D01*
X35Y234D01*
X35Y235D01*
X34Y236D01*
X34Y237D01*
X33Y238D01*
X33Y240D01*
X32Y241D01*
X32Y242D01*
X31Y243D01*
X31Y244D01*
X30Y245D01*
X30Y247D01*
X29Y248D01*
X29Y249D01*
X28Y250D01*
X28Y252D01*
X27Y253D01*
X27Y254D01*
X26Y255D01*
X26Y257D01*
X25Y258D01*
X25Y259D01*
X24Y260D01*
X24Y262D01*
X23Y263D01*
X23Y265D01*
X22Y266D01*
X22Y268D01*
X21Y269D01*
X21Y271D01*
X20Y272D01*
X20Y274D01*
X19Y275D01*
X19Y277D01*
X18Y278D01*
X18Y280D01*
X17Y281D01*
X17Y283D01*
X16Y284D01*
X16Y287D01*
X15Y288D01*
X15Y290D01*
X14Y291D01*
X14Y294D01*
X13Y295D01*
X13Y298D01*
X12Y299D01*
X12Y302D01*
X11Y303D01*
X11Y306D01*
X10Y307D01*
X10Y310D01*
X9Y311D01*
X9Y315D01*
X8Y316D01*
X8Y320D01*
X7Y321D01*
X7Y325D01*
X6Y326D01*
X6Y331D01*
X5Y332D01*
X5Y337D01*
X4Y338D01*
X4Y344D01*
X3Y345D01*
X3Y352D01*
X2Y353D01*
X2Y363D01*
X1Y364D01*
X1Y377D01*
X0Y378D01*
X0Y897D01*
X1Y898D01*
X1Y911D01*
X2Y912D01*
X2Y922D01*
X3Y923D01*
X3Y930D01*
X4Y931D01*
X4Y937D01*
X5Y938D01*
X5Y943D01*
X6Y944D01*
X6Y949D01*
X7Y950D01*
X7Y954D01*
X8Y955D01*
X8Y959D01*
X9Y960D01*
X9Y964D01*
X10Y965D01*
X10Y968D01*
X11Y969D01*
X11Y972D01*
X12Y973D01*
X12Y976D01*
X13Y977D01*
X13Y980D01*
X14Y981D01*
X14Y984D01*
X15Y985D01*
X15Y987D01*
X16Y988D01*
X16Y991D01*
X17Y992D01*
X17Y994D01*
X18Y995D01*
X18Y997D01*
X19Y998D01*
X19Y1000D01*
X20Y1001D01*
X20Y1003D01*
X21Y1004D01*
X21Y1006D01*
X22Y1007D01*
X22Y1009D01*
X23Y1010D01*
X23Y1012D01*
X24Y1013D01*
X24Y1015D01*
X25Y1016D01*
X25Y1017D01*
X26Y1018D01*
X26Y1020D01*
X27Y1021D01*
X27Y1022D01*
X28Y1023D01*
X28Y1025D01*
X29Y1026D01*
X29Y1027D01*
X30Y1028D01*
X30Y1030D01*
X31Y1031D01*
X31Y1032D01*
X32Y1033D01*
X32Y1034D01*
X33Y1035D01*
X33Y1037D01*
X34Y1038D01*
X34Y1039D01*
X35Y1040D01*
X35Y1041D01*
X36Y1042D01*
X36Y1043D01*
X37Y1044D01*
X37Y1046D01*
X38Y1047D01*
X38Y1048D01*
X39Y1049D01*
X39Y1050D01*
X40Y1051D01*
X40Y1052D01*
X41Y1053D01*
X41Y1054D01*
X42Y1055D01*
X42Y1056D01*
X43Y1057D01*
X43Y1058D01*
X44Y1059D01*
X44Y1060D01*
X45Y1061D01*
X45Y1062D01*
X46Y1063D01*
X46Y1064D01*
X47Y1065D01*
X47Y1066D01*
X48Y1067D01*
X49Y1068D01*
X49Y1069D01*
X50Y1070D01*
X50Y1071D01*
X51Y1072D01*
X51Y1073D01*
X52Y1074D01*
X53Y1075D01*
X53Y1076D01*
X54Y1077D01*
X54Y1078D01*
X55Y1079D01*
X55Y1080D01*
X56Y1081D01*
X57Y1082D01*
X57Y1083D01*
X58Y1084D01*
X58Y1085D01*
X59Y1086D01*
X60Y1087D01*
X60Y1088D01*
X61Y1089D01*
X62Y1090D01*
X62Y1091D01*
X63Y1092D01*
X64Y1093D01*
X64Y1094D01*
X65Y1095D01*
X65Y1096D01*
X66Y1097D01*
X67Y1098D01*
X67Y1099D01*
X68Y1100D01*
X69Y1101D01*
X69Y1102D01*
X70Y1103D01*
X71Y1104D01*
X72Y1105D01*
X72Y1106D01*
X73Y1107D01*
X74Y1108D01*
X74Y1109D01*
X75Y1110D01*
X76Y1111D01*
X77Y1112D01*
X77Y1113D01*
X78Y1114D01*
X79Y1115D01*
X79Y1116D01*
X80Y1117D01*
X81Y1118D01*
X82Y1119D01*
X83Y1120D01*
X83Y1121D01*
X84Y1122D01*
X85Y1123D01*
X86Y1124D01*
X86Y1125D01*
X87Y1126D01*
X88Y1127D01*
X89Y1128D01*
X90Y1129D01*
X90Y1130D01*
X91Y1131D01*
X92Y1132D01*
X93Y1133D01*
X94Y1134D01*
X95Y1135D01*
X96Y1136D01*
X96Y1137D01*
X97Y1138D01*
X98Y1139D01*
X99Y1140D01*
X100Y1141D01*
X101Y1142D01*
X102Y1143D01*
X103Y1144D01*
X103Y1145D01*
X104Y1146D01*
X105Y1147D01*
X106Y1148D01*
X107Y1149D01*
X108Y1150D01*
X109Y1151D01*
X110Y1152D01*
X111Y1153D01*
X112Y1154D01*
X113Y1155D01*
X114Y1156D01*
X115Y1157D01*
X116Y1158D01*
X117Y1159D01*
X118Y1160D01*
X119Y1161D01*
X120Y1162D01*
X121Y1163D01*
X122Y1164D01*
X123Y1165D01*
X124Y1166D01*
X125Y1167D01*
X126Y1168D01*
X127Y1169D01*
X128Y1170D01*
X129Y1171D01*
X130Y1171D01*
X131Y1172D01*
X132Y1173D01*
X133Y1174D01*
X134Y1175D01*
X135Y1176D01*
X136Y1177D01*
X137Y1178D01*
X138Y1178D01*
X139Y1179D01*
X140Y1180D01*
X141Y1181D01*
X142Y1182D01*
X143Y1183D01*
X144Y1184D01*
X145Y1184D01*
X146Y1185D01*
X147Y1186D01*
X148Y1187D01*
X149Y1187D01*
X150Y1188D01*
X151Y1189D01*
X152Y1190D01*
X153Y1191D01*
X154Y1191D01*
X155Y1192D01*
X156Y1193D01*
X157Y1194D01*
X158Y1195D01*
X159Y1195D01*
X160Y1196D01*
X161Y1197D01*
X162Y1197D01*
X163Y1198D01*
X164Y1199D01*
X165Y1200D01*
X166Y1200D01*
X167Y1201D01*
X168Y1202D01*
X169Y1202D01*
X170Y1203D01*
X171Y1204D01*
X172Y1205D01*
X173Y1205D01*
X174Y1206D01*
X175Y1207D01*
X176Y1207D01*
X177Y1208D01*
X178Y1208D01*
X179Y1209D01*
X180Y1210D01*
X181Y1210D01*
X182Y1211D01*
X183Y1212D01*
X184Y1212D01*
X185Y1213D01*
X186Y1214D01*
X187Y1214D01*
X188Y1215D01*
X189Y1216D01*
X190Y1216D01*
X191Y1217D01*
X192Y1217D01*
X193Y1218D01*
X194Y1218D01*
X195Y1219D01*
X196Y1220D01*
X197Y1220D01*
X198Y1221D01*
X199Y1221D01*
X200Y1222D01*
X201Y1222D01*
X202Y1223D01*
X203Y1224D01*
X204Y1224D01*
X205Y1225D01*
X206Y1225D01*
X207Y1226D01*
X208Y1226D01*
X209Y1227D01*
X210Y1227D01*
X211Y1228D01*
X212Y1228D01*
X213Y1229D01*
X214Y1229D01*
X215Y1230D01*
X216Y1230D01*
X217Y1231D01*
X218Y1232D01*
X219Y1232D01*
X220Y1233D01*
X221Y1233D01*
X222Y1234D01*
X223Y1234D01*
X224Y1235D01*
X225Y1235D01*
X226Y1235D01*
X227Y1236D01*
X228Y1236D01*
X229Y1237D01*
X230Y1237D01*
X231Y1238D01*
X232Y1238D01*
X233Y1239D01*
X234Y1239D01*
X235Y1240D01*
X236Y1240D01*
X237Y1240D01*
X238Y1241D01*
X239Y1241D01*
X240Y1242D01*
X241Y1242D01*
X242Y1243D01*
X243Y1243D01*
X244Y1243D01*
X245Y1244D01*
X246Y1244D01*
X247Y1245D01*
X248Y1245D01*
X249Y1245D01*
X250Y1246D01*
X251Y1246D01*
X252Y1247D01*
X253Y1247D01*
X254Y1247D01*
X255Y1248D01*
X256Y1248D01*
X257Y1249D01*
X258Y1249D01*
X259Y1249D01*
X260Y1250D01*
X261Y1250D01*
X262Y1250D01*
X263Y1251D01*
X264Y1251D01*
X265Y1251D01*
X266Y1252D01*
X267Y1252D01*
X268Y1252D01*
X269Y1253D01*
X270Y1253D01*
X271Y1253D01*
X272Y1254D01*
X273Y1254D01*
X274Y1254D01*
X275Y1255D01*
X276Y1255D01*
X277Y1255D01*
X278Y1256D01*
X279Y1256D01*
X280Y1256D01*
X281Y1257D01*
X282Y1257D01*
X283Y1257D01*
X284Y1257D01*
X285Y1258D01*
X286Y1258D01*
X287Y1258D01*
X288Y1259D01*
X289Y1259D01*
X290Y1259D01*
X291Y1259D01*
X292Y1260D01*
X293Y1260D01*
X294Y1260D01*
X295Y1260D01*
X296Y1261D01*
X297Y1261D01*
X298Y1261D01*
X299Y1261D01*
X300Y1262D01*
X301Y1262D01*
X302Y1262D01*
X303Y1262D01*
X304Y1263D01*
X305Y1263D01*
X306Y1263D01*
X307Y1263D01*
X308Y1264D01*
X309Y1264D01*
X310Y1264D01*
X311Y1264D01*
X312Y1264D01*
X313Y1265D01*
X314Y1265D01*
X315Y1265D01*
X316Y1265D01*
X317Y1265D01*
X318Y1266D01*
X319Y1266D01*
X320Y1266D01*
X321Y1266D01*
X322Y1266D01*
X323Y1267D01*
X324Y1267D01*
X325Y1267D01*
X326Y1267D01*
X327Y1267D01*
X328Y1268D01*
X329Y1268D01*
X330Y1268D01*
X331Y1268D01*
X332Y1268D01*
X333Y1268D01*
X334Y1268D01*
X335Y1269D01*
X336Y1269D01*
X337Y1269D01*
X338Y1269D01*
X339Y1269D01*
X340Y1269D01*
X341Y1269D01*
X342Y1270D01*
X343Y1270D01*
X344Y1270D01*
X345Y1270D01*
X346Y1270D01*
X347Y1270D01*
X348Y1270D01*
X349Y1270D01*
X350Y1271D01*
X351Y1271D01*
X352Y1271D01*
X353Y1271D01*
X354Y1271D01*
X355Y1271D01*
X356Y1271D01*
X357Y1271D01*
X358Y1271D01*
X359Y1271D01*
X360Y1272D01*
X361Y1272D01*
X362Y1272D01*
X363Y1272D01*
X364Y1272D01*
X365Y1272D01*
X366Y1272D01*
X367Y1272D01*
X368Y1272D01*
X369Y1272D01*
X370Y1272D01*
X371Y1272D01*
X372Y1272D01*
X373Y1272D01*
X374Y1273D01*
D02*
G04 End of contour*
M02*