G04 MADE WITH FRITZING*
G04 WWW.FRITZING.ORG*
G04 DOUBLE SIDED*
G04 HOLES PLATED*
G04 CONTOUR ON CENTER OF CONTOUR VECTOR*
%ASAXBY*%
%FSLAX23Y23*%
%MOIN*%
%OFA0B0*%
%SFA1.0B1.0*%
%ADD10C,0.010000*%
%ADD11C,0.008000*%
%ADD12C,0.004000*%
%ADD13R,0.001000X0.001000*%
%LNSILK1*%
G90*
G70*
G54D10*
X261Y217D02*
X2161Y217D01*
D02*
X2161Y217D02*
X2161Y1017D01*
D02*
X261Y1017D02*
X261Y217D01*
G54D11*
D02*
X561Y987D02*
X586Y987D01*
D02*
X561Y987D02*
X561Y962D01*
D02*
X661Y987D02*
X636Y987D01*
D02*
X661Y987D02*
X661Y962D01*
D02*
X786Y987D02*
X761Y987D01*
D02*
X761Y987D02*
X761Y962D01*
D02*
X861Y987D02*
X836Y987D01*
D02*
X861Y987D02*
X861Y962D01*
G54D10*
D02*
X2161Y1017D02*
X261Y1017D01*
G54D11*
D02*
X1961Y872D02*
X1961Y847D01*
D02*
X2061Y872D02*
X2061Y847D01*
D02*
X2061Y847D02*
X1961Y847D01*
G54D10*
D02*
X746Y492D02*
X746Y517D01*
D02*
X746Y492D02*
X771Y492D01*
D02*
X581Y517D02*
X581Y492D01*
D02*
X581Y492D02*
X556Y492D01*
D02*
X561Y867D02*
X561Y847D01*
D02*
X561Y847D02*
X861Y847D01*
D02*
X861Y847D02*
X861Y867D01*
G54D12*
D02*
X1974Y489D02*
X1883Y489D01*
D02*
X1883Y489D02*
X1883Y678D01*
D02*
X1883Y678D02*
X1950Y745D01*
D02*
X1950Y745D02*
X1974Y745D01*
D02*
X2049Y745D02*
X2072Y745D01*
D02*
X2072Y745D02*
X2139Y678D01*
D02*
X2139Y678D02*
X2139Y489D01*
D02*
X2139Y489D02*
X2049Y489D01*
G54D11*
D02*
X540Y737D02*
X540Y597D01*
D02*
X540Y597D02*
X282Y597D01*
D02*
X282Y597D02*
X282Y737D01*
D02*
X282Y737D02*
X540Y737D01*
G54D10*
D02*
X2211Y867D02*
X2211Y467D01*
D02*
X2211Y467D02*
X2611Y467D01*
D02*
X2611Y467D02*
X2611Y867D01*
D02*
X2211Y867D02*
X2361Y867D01*
D02*
X2461Y867D02*
X2611Y867D01*
D02*
X511Y1067D02*
X911Y1067D01*
D02*
X911Y1067D02*
X911Y1167D01*
D02*
X911Y1167D02*
X511Y1167D01*
D02*
X511Y1167D02*
X511Y1067D01*
D02*
X1911Y1067D02*
X2111Y1067D01*
D02*
X2111Y1067D02*
X2111Y1167D01*
D02*
X2111Y1167D02*
X1911Y1167D01*
D02*
X1911Y1167D02*
X1911Y1067D01*
D02*
X2211Y1067D02*
X2211Y967D01*
D02*
X2211Y967D02*
X2311Y967D01*
D02*
X2311Y967D02*
X2311Y1067D01*
D02*
X2311Y1067D02*
X2211Y1067D01*
G54D13*
X374Y1273D02*
X2322Y1273D01*
X360Y1272D02*
X2336Y1272D01*
X350Y1271D02*
X2346Y1271D01*
X342Y1270D02*
X2354Y1270D01*
X335Y1269D02*
X2361Y1269D01*
X328Y1268D02*
X2368Y1268D01*
X323Y1267D02*
X2373Y1267D01*
X318Y1266D02*
X2378Y1266D01*
X313Y1265D02*
X373Y1265D01*
X411Y1265D02*
X464Y1265D01*
X1811Y1265D02*
X1817Y1265D01*
X1835Y1265D02*
X1841Y1265D01*
X1858Y1265D02*
X1864Y1265D01*
X2323Y1265D02*
X2383Y1265D01*
X308Y1264D02*
X359Y1264D01*
X411Y1264D02*
X464Y1264D01*
X1811Y1264D02*
X1817Y1264D01*
X1835Y1264D02*
X1841Y1264D01*
X1858Y1264D02*
X1864Y1264D01*
X2337Y1264D02*
X2388Y1264D01*
X304Y1263D02*
X349Y1263D01*
X411Y1263D02*
X464Y1263D01*
X1811Y1263D02*
X1817Y1263D01*
X1835Y1263D02*
X1841Y1263D01*
X1858Y1263D02*
X1864Y1263D01*
X2347Y1263D02*
X2392Y1263D01*
X300Y1262D02*
X341Y1262D01*
X411Y1262D02*
X464Y1262D01*
X1811Y1262D02*
X1817Y1262D01*
X1835Y1262D02*
X1841Y1262D01*
X1858Y1262D02*
X1864Y1262D01*
X2355Y1262D02*
X2396Y1262D01*
X296Y1261D02*
X334Y1261D01*
X411Y1261D02*
X464Y1261D01*
X1811Y1261D02*
X1817Y1261D01*
X1835Y1261D02*
X1841Y1261D01*
X1858Y1261D02*
X1864Y1261D01*
X2362Y1261D02*
X2400Y1261D01*
X292Y1260D02*
X328Y1260D01*
X411Y1260D02*
X464Y1260D01*
X1811Y1260D02*
X1817Y1260D01*
X1835Y1260D02*
X1841Y1260D01*
X1858Y1260D02*
X1864Y1260D01*
X2368Y1260D02*
X2404Y1260D01*
X288Y1259D02*
X322Y1259D01*
X411Y1259D02*
X417Y1259D01*
X458Y1259D02*
X464Y1259D01*
X1811Y1259D02*
X1817Y1259D01*
X1835Y1259D02*
X1841Y1259D01*
X1858Y1259D02*
X1864Y1259D01*
X2374Y1259D02*
X2408Y1259D01*
X285Y1258D02*
X317Y1258D01*
X411Y1258D02*
X417Y1258D01*
X458Y1258D02*
X464Y1258D01*
X1811Y1258D02*
X1817Y1258D01*
X1835Y1258D02*
X1841Y1258D01*
X1858Y1258D02*
X1864Y1258D01*
X2379Y1258D02*
X2411Y1258D01*
X281Y1257D02*
X312Y1257D01*
X411Y1257D02*
X417Y1257D01*
X458Y1257D02*
X464Y1257D01*
X1811Y1257D02*
X1817Y1257D01*
X1835Y1257D02*
X1841Y1257D01*
X1858Y1257D02*
X1864Y1257D01*
X2384Y1257D02*
X2415Y1257D01*
X278Y1256D02*
X307Y1256D01*
X411Y1256D02*
X417Y1256D01*
X458Y1256D02*
X464Y1256D01*
X1811Y1256D02*
X1817Y1256D01*
X1835Y1256D02*
X1841Y1256D01*
X1858Y1256D02*
X1864Y1256D01*
X2389Y1256D02*
X2418Y1256D01*
X275Y1255D02*
X303Y1255D01*
X411Y1255D02*
X417Y1255D01*
X458Y1255D02*
X464Y1255D01*
X1811Y1255D02*
X1817Y1255D01*
X1835Y1255D02*
X1841Y1255D01*
X1858Y1255D02*
X1864Y1255D01*
X2393Y1255D02*
X2421Y1255D01*
X272Y1254D02*
X299Y1254D01*
X411Y1254D02*
X417Y1254D01*
X458Y1254D02*
X464Y1254D01*
X1811Y1254D02*
X1817Y1254D01*
X1835Y1254D02*
X1841Y1254D01*
X1858Y1254D02*
X1864Y1254D01*
X2397Y1254D02*
X2424Y1254D01*
X269Y1253D02*
X295Y1253D01*
X411Y1253D02*
X417Y1253D01*
X458Y1253D02*
X464Y1253D01*
X1811Y1253D02*
X1817Y1253D01*
X1835Y1253D02*
X1841Y1253D01*
X1858Y1253D02*
X1864Y1253D01*
X2401Y1253D02*
X2427Y1253D01*
X266Y1252D02*
X291Y1252D01*
X411Y1252D02*
X417Y1252D01*
X458Y1252D02*
X464Y1252D01*
X1811Y1252D02*
X1817Y1252D01*
X1835Y1252D02*
X1864Y1252D01*
X2405Y1252D02*
X2430Y1252D01*
X263Y1251D02*
X288Y1251D01*
X411Y1251D02*
X417Y1251D01*
X458Y1251D02*
X464Y1251D01*
X1811Y1251D02*
X1817Y1251D01*
X1835Y1251D02*
X1864Y1251D01*
X2408Y1251D02*
X2433Y1251D01*
X260Y1250D02*
X284Y1250D01*
X411Y1250D02*
X417Y1250D01*
X458Y1250D02*
X464Y1250D01*
X1811Y1250D02*
X1817Y1250D01*
X1835Y1250D02*
X1864Y1250D01*
X2412Y1250D02*
X2436Y1250D01*
X257Y1249D02*
X281Y1249D01*
X411Y1249D02*
X417Y1249D01*
X458Y1249D02*
X464Y1249D01*
X1811Y1249D02*
X1817Y1249D01*
X1836Y1249D02*
X1864Y1249D01*
X2415Y1249D02*
X2439Y1249D01*
X255Y1248D02*
X278Y1248D01*
X412Y1248D02*
X417Y1248D01*
X459Y1248D02*
X464Y1248D01*
X1812Y1248D02*
X1817Y1248D01*
X1837Y1248D02*
X1864Y1248D01*
X2418Y1248D02*
X2441Y1248D01*
X252Y1247D02*
X275Y1247D01*
X412Y1247D02*
X417Y1247D01*
X459Y1247D02*
X464Y1247D01*
X1812Y1247D02*
X1817Y1247D01*
X1838Y1247D02*
X1864Y1247D01*
X2421Y1247D02*
X2444Y1247D01*
X250Y1246D02*
X272Y1246D01*
X413Y1246D02*
X415Y1246D01*
X460Y1246D02*
X462Y1246D01*
X1813Y1246D02*
X1815Y1246D01*
X1840Y1246D02*
X1864Y1246D01*
X2424Y1246D02*
X2446Y1246D01*
X247Y1245D02*
X269Y1245D01*
X2427Y1245D02*
X2449Y1245D01*
X245Y1244D02*
X266Y1244D01*
X2430Y1244D02*
X2451Y1244D01*
X242Y1243D02*
X263Y1243D01*
X2433Y1243D02*
X2454Y1243D01*
X240Y1242D02*
X260Y1242D01*
X2436Y1242D02*
X2456Y1242D01*
X238Y1241D02*
X258Y1241D01*
X2438Y1241D02*
X2458Y1241D01*
X235Y1240D02*
X255Y1240D01*
X2441Y1240D02*
X2461Y1240D01*
X233Y1239D02*
X253Y1239D01*
X2443Y1239D02*
X2463Y1239D01*
X231Y1238D02*
X250Y1238D01*
X2446Y1238D02*
X2465Y1238D01*
X229Y1237D02*
X247Y1237D01*
X2449Y1237D02*
X2467Y1237D01*
X227Y1236D02*
X245Y1236D01*
X2451Y1236D02*
X2469Y1236D01*
X224Y1235D02*
X242Y1235D01*
X2454Y1235D02*
X2472Y1235D01*
X222Y1234D02*
X240Y1234D01*
X2456Y1234D02*
X2474Y1234D01*
X220Y1233D02*
X238Y1233D01*
X2458Y1233D02*
X2476Y1233D01*
X218Y1232D02*
X236Y1232D01*
X2460Y1232D02*
X2478Y1232D01*
X217Y1231D02*
X234Y1231D01*
X2462Y1231D02*
X2479Y1231D01*
X215Y1230D02*
X231Y1230D01*
X2465Y1230D02*
X2481Y1230D01*
X213Y1229D02*
X229Y1229D01*
X2467Y1229D02*
X2483Y1229D01*
X211Y1228D02*
X227Y1228D01*
X2469Y1228D02*
X2485Y1228D01*
X209Y1227D02*
X225Y1227D01*
X2471Y1227D02*
X2487Y1227D01*
X207Y1226D02*
X223Y1226D01*
X413Y1226D02*
X458Y1226D01*
X1813Y1226D02*
X1858Y1226D01*
X2473Y1226D02*
X2489Y1226D01*
X205Y1225D02*
X221Y1225D01*
X412Y1225D02*
X460Y1225D01*
X1812Y1225D02*
X1860Y1225D01*
X2475Y1225D02*
X2491Y1225D01*
X203Y1224D02*
X219Y1224D01*
X411Y1224D02*
X461Y1224D01*
X1811Y1224D02*
X1861Y1224D01*
X2477Y1224D02*
X2493Y1224D01*
X202Y1223D02*
X217Y1223D01*
X411Y1223D02*
X462Y1223D01*
X1811Y1223D02*
X1862Y1223D01*
X2479Y1223D02*
X2494Y1223D01*
X200Y1222D02*
X215Y1222D01*
X412Y1222D02*
X463Y1222D01*
X1812Y1222D02*
X1863Y1222D01*
X2481Y1222D02*
X2496Y1222D01*
X198Y1221D02*
X213Y1221D01*
X412Y1221D02*
X463Y1221D01*
X1812Y1221D02*
X1863Y1221D01*
X2483Y1221D02*
X2498Y1221D01*
X196Y1220D02*
X211Y1220D01*
X414Y1220D02*
X464Y1220D01*
X1814Y1220D02*
X1864Y1220D01*
X2485Y1220D02*
X2500Y1220D01*
X195Y1219D02*
X209Y1219D01*
X457Y1219D02*
X464Y1219D01*
X1857Y1219D02*
X1864Y1219D01*
X2487Y1219D02*
X2501Y1219D01*
X193Y1218D02*
X208Y1218D01*
X458Y1218D02*
X464Y1218D01*
X1858Y1218D02*
X1864Y1218D01*
X2488Y1218D02*
X2503Y1218D01*
X191Y1217D02*
X206Y1217D01*
X458Y1217D02*
X464Y1217D01*
X1858Y1217D02*
X1864Y1217D01*
X2490Y1217D02*
X2505Y1217D01*
X189Y1216D02*
X204Y1216D01*
X458Y1216D02*
X464Y1216D01*
X1858Y1216D02*
X1864Y1216D01*
X2492Y1216D02*
X2507Y1216D01*
X188Y1215D02*
X202Y1215D01*
X458Y1215D02*
X464Y1215D01*
X1858Y1215D02*
X1864Y1215D01*
X2494Y1215D02*
X2508Y1215D01*
X186Y1214D02*
X201Y1214D01*
X458Y1214D02*
X464Y1214D01*
X1858Y1214D02*
X1864Y1214D01*
X2495Y1214D02*
X2510Y1214D01*
X185Y1213D02*
X199Y1213D01*
X458Y1213D02*
X464Y1213D01*
X1858Y1213D02*
X1864Y1213D01*
X2497Y1213D02*
X2511Y1213D01*
X183Y1212D02*
X197Y1212D01*
X458Y1212D02*
X464Y1212D01*
X1858Y1212D02*
X1864Y1212D01*
X2499Y1212D02*
X2513Y1212D01*
X182Y1211D02*
X196Y1211D01*
X458Y1211D02*
X464Y1211D01*
X1858Y1211D02*
X1864Y1211D01*
X2500Y1211D02*
X2514Y1211D01*
X180Y1210D02*
X194Y1210D01*
X458Y1210D02*
X464Y1210D01*
X1858Y1210D02*
X1864Y1210D01*
X2502Y1210D02*
X2516Y1210D01*
X179Y1209D02*
X192Y1209D01*
X458Y1209D02*
X464Y1209D01*
X1858Y1209D02*
X1864Y1209D01*
X2504Y1209D02*
X2517Y1209D01*
X177Y1208D02*
X191Y1208D01*
X458Y1208D02*
X464Y1208D01*
X1858Y1208D02*
X1864Y1208D01*
X2505Y1208D02*
X2519Y1208D01*
X175Y1207D02*
X189Y1207D01*
X457Y1207D02*
X464Y1207D01*
X1857Y1207D02*
X1864Y1207D01*
X2507Y1207D02*
X2521Y1207D01*
X174Y1206D02*
X187Y1206D01*
X444Y1206D02*
X464Y1206D01*
X1844Y1206D02*
X1864Y1206D01*
X2509Y1206D02*
X2522Y1206D01*
X172Y1205D02*
X186Y1205D01*
X442Y1205D02*
X463Y1205D01*
X1842Y1205D02*
X1863Y1205D01*
X2510Y1205D02*
X2524Y1205D01*
X171Y1204D02*
X184Y1204D01*
X441Y1204D02*
X463Y1204D01*
X1841Y1204D02*
X1863Y1204D01*
X2512Y1204D02*
X2525Y1204D01*
X170Y1203D02*
X183Y1203D01*
X441Y1203D02*
X462Y1203D01*
X1841Y1203D02*
X1862Y1203D01*
X2513Y1203D02*
X2526Y1203D01*
X168Y1202D02*
X181Y1202D01*
X441Y1202D02*
X461Y1202D01*
X1841Y1202D02*
X1861Y1202D01*
X2515Y1202D02*
X2528Y1202D01*
X167Y1201D02*
X180Y1201D01*
X441Y1201D02*
X460Y1201D01*
X1841Y1201D02*
X1860Y1201D01*
X2516Y1201D02*
X2529Y1201D01*
X165Y1200D02*
X178Y1200D01*
X442Y1200D02*
X458Y1200D01*
X1842Y1200D02*
X1858Y1200D01*
X2518Y1200D02*
X2531Y1200D01*
X164Y1199D02*
X177Y1199D01*
X2519Y1199D02*
X2532Y1199D01*
X163Y1198D02*
X175Y1198D01*
X2521Y1198D02*
X2533Y1198D01*
X161Y1197D02*
X174Y1197D01*
X2522Y1197D02*
X2535Y1197D01*
X160Y1196D02*
X173Y1196D01*
X2523Y1196D02*
X2536Y1196D01*
X158Y1195D02*
X171Y1195D01*
X2525Y1195D02*
X2538Y1195D01*
X157Y1194D02*
X170Y1194D01*
X2526Y1194D02*
X2539Y1194D01*
X156Y1193D02*
X168Y1193D01*
X2528Y1193D02*
X2540Y1193D01*
X155Y1192D02*
X167Y1192D01*
X2529Y1192D02*
X2541Y1192D01*
X153Y1191D02*
X166Y1191D01*
X2530Y1191D02*
X2543Y1191D01*
X152Y1190D02*
X164Y1190D01*
X2532Y1190D02*
X2544Y1190D01*
X151Y1189D02*
X163Y1189D01*
X2533Y1189D02*
X2545Y1189D01*
X150Y1188D02*
X161Y1188D01*
X2535Y1188D02*
X2546Y1188D01*
X148Y1187D02*
X160Y1187D01*
X2536Y1187D02*
X2548Y1187D01*
X147Y1186D02*
X159Y1186D01*
X2537Y1186D02*
X2549Y1186D01*
X146Y1185D02*
X158Y1185D01*
X2538Y1185D02*
X2550Y1185D01*
X144Y1184D02*
X156Y1184D01*
X2540Y1184D02*
X2551Y1184D01*
X143Y1183D02*
X155Y1183D01*
X2541Y1183D02*
X2553Y1183D01*
X142Y1182D02*
X154Y1182D01*
X2542Y1182D02*
X2554Y1182D01*
X141Y1181D02*
X153Y1181D01*
X2543Y1181D02*
X2555Y1181D01*
X140Y1180D02*
X151Y1180D01*
X2545Y1180D02*
X2556Y1180D01*
X139Y1179D02*
X150Y1179D01*
X2546Y1179D02*
X2557Y1179D01*
X137Y1178D02*
X149Y1178D01*
X2547Y1178D02*
X2559Y1178D01*
X136Y1177D02*
X147Y1177D01*
X2549Y1177D02*
X2560Y1177D01*
X135Y1176D02*
X146Y1176D01*
X2550Y1176D02*
X2561Y1176D01*
X134Y1175D02*
X145Y1175D01*
X2551Y1175D02*
X2562Y1175D01*
X133Y1174D02*
X144Y1174D01*
X2552Y1174D02*
X2563Y1174D01*
X132Y1173D02*
X143Y1173D01*
X2553Y1173D02*
X2564Y1173D01*
X131Y1172D02*
X142Y1172D01*
X2554Y1172D02*
X2565Y1172D01*
X129Y1171D02*
X141Y1171D01*
X2555Y1171D02*
X2567Y1171D01*
X128Y1170D02*
X139Y1170D01*
X2557Y1170D02*
X2568Y1170D01*
X127Y1169D02*
X138Y1169D01*
X2558Y1169D02*
X2569Y1169D01*
X126Y1168D02*
X137Y1168D01*
X2559Y1168D02*
X2570Y1168D01*
X125Y1167D02*
X136Y1167D01*
X2365Y1167D02*
X2368Y1167D01*
X2391Y1167D02*
X2418Y1167D01*
X2560Y1167D02*
X2571Y1167D01*
X124Y1166D02*
X135Y1166D01*
X2364Y1166D02*
X2369Y1166D01*
X2390Y1166D02*
X2420Y1166D01*
X2561Y1166D02*
X2572Y1166D01*
X123Y1165D02*
X134Y1165D01*
X2363Y1165D02*
X2369Y1165D01*
X2389Y1165D02*
X2421Y1165D01*
X2562Y1165D02*
X2573Y1165D01*
X122Y1164D02*
X133Y1164D01*
X2363Y1164D02*
X2369Y1164D01*
X2389Y1164D02*
X2422Y1164D01*
X2563Y1164D02*
X2574Y1164D01*
X121Y1163D02*
X132Y1163D01*
X2363Y1163D02*
X2369Y1163D01*
X2389Y1163D02*
X2422Y1163D01*
X2564Y1163D02*
X2575Y1163D01*
X120Y1162D02*
X131Y1162D01*
X2363Y1162D02*
X2369Y1162D01*
X2390Y1162D02*
X2422Y1162D01*
X2565Y1162D02*
X2576Y1162D01*
X119Y1161D02*
X130Y1161D01*
X2363Y1161D02*
X2369Y1161D01*
X2391Y1161D02*
X2423Y1161D01*
X2566Y1161D02*
X2577Y1161D01*
X118Y1160D02*
X128Y1160D01*
X2363Y1160D02*
X2369Y1160D01*
X2417Y1160D02*
X2423Y1160D01*
X2568Y1160D02*
X2578Y1160D01*
X117Y1159D02*
X127Y1159D01*
X2363Y1159D02*
X2369Y1159D01*
X2417Y1159D02*
X2423Y1159D01*
X2569Y1159D02*
X2579Y1159D01*
X116Y1158D02*
X126Y1158D01*
X2363Y1158D02*
X2369Y1158D01*
X2417Y1158D02*
X2423Y1158D01*
X2570Y1158D02*
X2580Y1158D01*
X115Y1157D02*
X125Y1157D01*
X2363Y1157D02*
X2369Y1157D01*
X2417Y1157D02*
X2423Y1157D01*
X2571Y1157D02*
X2581Y1157D01*
X114Y1156D02*
X124Y1156D01*
X2363Y1156D02*
X2369Y1156D01*
X2417Y1156D02*
X2423Y1156D01*
X2572Y1156D02*
X2582Y1156D01*
X113Y1155D02*
X123Y1155D01*
X2363Y1155D02*
X2369Y1155D01*
X2417Y1155D02*
X2423Y1155D01*
X2573Y1155D02*
X2583Y1155D01*
X112Y1154D02*
X122Y1154D01*
X2363Y1154D02*
X2369Y1154D01*
X2417Y1154D02*
X2423Y1154D01*
X2574Y1154D02*
X2584Y1154D01*
X111Y1153D02*
X121Y1153D01*
X2363Y1153D02*
X2369Y1153D01*
X2417Y1153D02*
X2423Y1153D01*
X2575Y1153D02*
X2585Y1153D01*
X110Y1152D02*
X120Y1152D01*
X2363Y1152D02*
X2369Y1152D01*
X2417Y1152D02*
X2423Y1152D01*
X2576Y1152D02*
X2586Y1152D01*
X109Y1151D02*
X119Y1151D01*
X2363Y1151D02*
X2369Y1151D01*
X2417Y1151D02*
X2423Y1151D01*
X2577Y1151D02*
X2587Y1151D01*
X108Y1150D02*
X118Y1150D01*
X2363Y1150D02*
X2369Y1150D01*
X2417Y1150D02*
X2423Y1150D01*
X2578Y1150D02*
X2588Y1150D01*
X107Y1149D02*
X117Y1149D01*
X2363Y1149D02*
X2369Y1149D01*
X2417Y1149D02*
X2423Y1149D01*
X2579Y1149D02*
X2589Y1149D01*
X106Y1148D02*
X116Y1148D01*
X2363Y1148D02*
X2369Y1148D01*
X2417Y1148D02*
X2423Y1148D01*
X2580Y1148D02*
X2590Y1148D01*
X105Y1147D02*
X115Y1147D01*
X2363Y1147D02*
X2369Y1147D01*
X2416Y1147D02*
X2423Y1147D01*
X2581Y1147D02*
X2591Y1147D01*
X104Y1146D02*
X114Y1146D01*
X2363Y1146D02*
X2369Y1146D01*
X2416Y1146D02*
X2422Y1146D01*
X2582Y1146D02*
X2592Y1146D01*
X103Y1145D02*
X113Y1145D01*
X2363Y1145D02*
X2369Y1145D01*
X2415Y1145D02*
X2422Y1145D01*
X2583Y1145D02*
X2593Y1145D01*
X103Y1144D02*
X113Y1144D01*
X2363Y1144D02*
X2369Y1144D01*
X2399Y1144D02*
X2422Y1144D01*
X2583Y1144D02*
X2593Y1144D01*
X102Y1143D02*
X112Y1143D01*
X2363Y1143D02*
X2369Y1143D01*
X2397Y1143D02*
X2421Y1143D01*
X2584Y1143D02*
X2594Y1143D01*
X101Y1142D02*
X111Y1142D01*
X2363Y1142D02*
X2369Y1142D01*
X2396Y1142D02*
X2421Y1142D01*
X2585Y1142D02*
X2595Y1142D01*
X100Y1141D02*
X110Y1141D01*
X2363Y1141D02*
X2369Y1141D01*
X2396Y1141D02*
X2420Y1141D01*
X2586Y1141D02*
X2596Y1141D01*
X99Y1140D02*
X109Y1140D01*
X2363Y1140D02*
X2369Y1140D01*
X2396Y1140D02*
X2420Y1140D01*
X2587Y1140D02*
X2597Y1140D01*
X98Y1139D02*
X108Y1139D01*
X2363Y1139D02*
X2369Y1139D01*
X2396Y1139D02*
X2421Y1139D01*
X2588Y1139D02*
X2598Y1139D01*
X97Y1138D02*
X107Y1138D01*
X2345Y1138D02*
X2346Y1138D01*
X2363Y1138D02*
X2369Y1138D01*
X2397Y1138D02*
X2422Y1138D01*
X2589Y1138D02*
X2599Y1138D01*
X96Y1137D02*
X106Y1137D01*
X2343Y1137D02*
X2348Y1137D01*
X2363Y1137D02*
X2369Y1137D01*
X2414Y1137D02*
X2422Y1137D01*
X2590Y1137D02*
X2600Y1137D01*
X96Y1136D02*
X105Y1136D01*
X2343Y1136D02*
X2348Y1136D01*
X2363Y1136D02*
X2369Y1136D01*
X2415Y1136D02*
X2422Y1136D01*
X2591Y1136D02*
X2600Y1136D01*
X95Y1135D02*
X104Y1135D01*
X2342Y1135D02*
X2348Y1135D01*
X2363Y1135D02*
X2369Y1135D01*
X2416Y1135D02*
X2422Y1135D01*
X2592Y1135D02*
X2601Y1135D01*
X94Y1134D02*
X103Y1134D01*
X2342Y1134D02*
X2348Y1134D01*
X2363Y1134D02*
X2369Y1134D01*
X2416Y1134D02*
X2423Y1134D01*
X2593Y1134D02*
X2602Y1134D01*
X93Y1133D02*
X103Y1133D01*
X2342Y1133D02*
X2348Y1133D01*
X2363Y1133D02*
X2369Y1133D01*
X2417Y1133D02*
X2423Y1133D01*
X2593Y1133D02*
X2603Y1133D01*
X92Y1132D02*
X102Y1132D01*
X2342Y1132D02*
X2348Y1132D01*
X2363Y1132D02*
X2369Y1132D01*
X2417Y1132D02*
X2423Y1132D01*
X2594Y1132D02*
X2604Y1132D01*
X91Y1131D02*
X101Y1131D01*
X2342Y1131D02*
X2348Y1131D01*
X2363Y1131D02*
X2369Y1131D01*
X2417Y1131D02*
X2423Y1131D01*
X2595Y1131D02*
X2605Y1131D01*
X90Y1130D02*
X100Y1130D01*
X2342Y1130D02*
X2348Y1130D01*
X2363Y1130D02*
X2369Y1130D01*
X2417Y1130D02*
X2423Y1130D01*
X2596Y1130D02*
X2606Y1130D01*
X90Y1129D02*
X99Y1129D01*
X2342Y1129D02*
X2348Y1129D01*
X2363Y1129D02*
X2369Y1129D01*
X2417Y1129D02*
X2423Y1129D01*
X2597Y1129D02*
X2606Y1129D01*
X89Y1128D02*
X98Y1128D01*
X2342Y1128D02*
X2348Y1128D01*
X2363Y1128D02*
X2369Y1128D01*
X2417Y1128D02*
X2423Y1128D01*
X2598Y1128D02*
X2607Y1128D01*
X88Y1127D02*
X97Y1127D01*
X2342Y1127D02*
X2348Y1127D01*
X2363Y1127D02*
X2369Y1127D01*
X2417Y1127D02*
X2423Y1127D01*
X2599Y1127D02*
X2608Y1127D01*
X87Y1126D02*
X97Y1126D01*
X2342Y1126D02*
X2348Y1126D01*
X2363Y1126D02*
X2369Y1126D01*
X2417Y1126D02*
X2423Y1126D01*
X2599Y1126D02*
X2609Y1126D01*
X86Y1125D02*
X96Y1125D01*
X2342Y1125D02*
X2348Y1125D01*
X2363Y1125D02*
X2369Y1125D01*
X2417Y1125D02*
X2423Y1125D01*
X2600Y1125D02*
X2610Y1125D01*
X86Y1124D02*
X95Y1124D01*
X2342Y1124D02*
X2348Y1124D01*
X2363Y1124D02*
X2369Y1124D01*
X2417Y1124D02*
X2423Y1124D01*
X2601Y1124D02*
X2610Y1124D01*
X85Y1123D02*
X94Y1123D01*
X2342Y1123D02*
X2349Y1123D01*
X2363Y1123D02*
X2369Y1123D01*
X2417Y1123D02*
X2423Y1123D01*
X2602Y1123D02*
X2611Y1123D01*
X84Y1122D02*
X93Y1122D01*
X2343Y1122D02*
X2349Y1122D01*
X2362Y1122D02*
X2369Y1122D01*
X2417Y1122D02*
X2423Y1122D01*
X2603Y1122D02*
X2612Y1122D01*
X83Y1121D02*
X92Y1121D01*
X2343Y1121D02*
X2350Y1121D01*
X2361Y1121D02*
X2369Y1121D01*
X2417Y1121D02*
X2423Y1121D01*
X2604Y1121D02*
X2613Y1121D01*
X83Y1120D02*
X92Y1120D01*
X2343Y1120D02*
X2368Y1120D01*
X2391Y1120D02*
X2423Y1120D01*
X2604Y1120D02*
X2613Y1120D01*
X82Y1119D02*
X91Y1119D01*
X2344Y1119D02*
X2368Y1119D01*
X2390Y1119D02*
X2422Y1119D01*
X2605Y1119D02*
X2614Y1119D01*
X81Y1118D02*
X90Y1118D01*
X2344Y1118D02*
X2367Y1118D01*
X2389Y1118D02*
X2422Y1118D01*
X2606Y1118D02*
X2615Y1118D01*
X80Y1117D02*
X89Y1117D01*
X2345Y1117D02*
X2366Y1117D01*
X2389Y1117D02*
X2422Y1117D01*
X2607Y1117D02*
X2616Y1117D01*
X79Y1116D02*
X89Y1116D01*
X2346Y1116D02*
X2365Y1116D01*
X2389Y1116D02*
X2421Y1116D01*
X2607Y1116D02*
X2617Y1116D01*
X79Y1115D02*
X88Y1115D01*
X2348Y1115D02*
X2364Y1115D01*
X2390Y1115D02*
X2420Y1115D01*
X2608Y1115D02*
X2617Y1115D01*
X78Y1114D02*
X87Y1114D01*
X2350Y1114D02*
X2361Y1114D01*
X2391Y1114D02*
X2418Y1114D01*
X2609Y1114D02*
X2618Y1114D01*
X77Y1113D02*
X86Y1113D01*
X2610Y1113D02*
X2619Y1113D01*
X77Y1112D02*
X85Y1112D01*
X2611Y1112D02*
X2619Y1112D01*
X76Y1111D02*
X85Y1111D01*
X2611Y1111D02*
X2620Y1111D01*
X75Y1110D02*
X84Y1110D01*
X2612Y1110D02*
X2621Y1110D01*
X74Y1109D02*
X83Y1109D01*
X2613Y1109D02*
X2622Y1109D01*
X74Y1108D02*
X82Y1108D01*
X2614Y1108D02*
X2622Y1108D01*
X73Y1107D02*
X82Y1107D01*
X2614Y1107D02*
X2623Y1107D01*
X72Y1106D02*
X81Y1106D01*
X2615Y1106D02*
X2624Y1106D01*
X72Y1105D02*
X80Y1105D01*
X2616Y1105D02*
X2624Y1105D01*
X71Y1104D02*
X80Y1104D01*
X512Y1104D02*
X513Y1104D01*
X1912Y1104D02*
X1913Y1104D01*
X2616Y1104D02*
X2625Y1104D01*
X70Y1103D02*
X79Y1103D01*
X511Y1103D02*
X514Y1103D01*
X1911Y1103D02*
X1914Y1103D01*
X2617Y1103D02*
X2626Y1103D01*
X69Y1102D02*
X78Y1102D01*
X510Y1102D02*
X515Y1102D01*
X1910Y1102D02*
X1915Y1102D01*
X2618Y1102D02*
X2627Y1102D01*
X69Y1101D02*
X77Y1101D01*
X510Y1101D02*
X516Y1101D01*
X1910Y1101D02*
X1916Y1101D01*
X2619Y1101D02*
X2627Y1101D01*
X68Y1100D02*
X77Y1100D01*
X510Y1100D02*
X517Y1100D01*
X1910Y1100D02*
X1917Y1100D01*
X2619Y1100D02*
X2628Y1100D01*
X67Y1099D02*
X76Y1099D01*
X511Y1099D02*
X518Y1099D01*
X1911Y1099D02*
X1918Y1099D01*
X2620Y1099D02*
X2629Y1099D01*
X67Y1098D02*
X75Y1098D01*
X512Y1098D02*
X519Y1098D01*
X1912Y1098D02*
X1919Y1098D01*
X2621Y1098D02*
X2629Y1098D01*
X66Y1097D02*
X75Y1097D01*
X513Y1097D02*
X520Y1097D01*
X1913Y1097D02*
X1920Y1097D01*
X2169Y1097D02*
X2196Y1097D01*
X2370Y1097D02*
X2389Y1097D01*
X2621Y1097D02*
X2630Y1097D01*
X65Y1096D02*
X74Y1096D01*
X514Y1096D02*
X521Y1096D01*
X1914Y1096D02*
X1921Y1096D01*
X2169Y1096D02*
X2198Y1096D01*
X2370Y1096D02*
X2389Y1096D01*
X2622Y1096D02*
X2631Y1096D01*
X65Y1095D02*
X73Y1095D01*
X515Y1095D02*
X522Y1095D01*
X1915Y1095D02*
X1922Y1095D01*
X2169Y1095D02*
X2199Y1095D01*
X2369Y1095D02*
X2389Y1095D01*
X2623Y1095D02*
X2631Y1095D01*
X64Y1094D02*
X73Y1094D01*
X516Y1094D02*
X523Y1094D01*
X1916Y1094D02*
X1923Y1094D01*
X2169Y1094D02*
X2200Y1094D01*
X2327Y1094D02*
X2330Y1094D01*
X2369Y1094D02*
X2389Y1094D01*
X2623Y1094D02*
X2632Y1094D01*
X64Y1093D02*
X72Y1093D01*
X517Y1093D02*
X524Y1093D01*
X1917Y1093D02*
X1924Y1093D01*
X2169Y1093D02*
X2201Y1093D01*
X2326Y1093D02*
X2331Y1093D01*
X2369Y1093D02*
X2389Y1093D01*
X2624Y1093D02*
X2632Y1093D01*
X63Y1092D02*
X71Y1092D01*
X518Y1092D02*
X525Y1092D01*
X1918Y1092D02*
X1925Y1092D01*
X2169Y1092D02*
X2201Y1092D01*
X2326Y1092D02*
X2332Y1092D01*
X2370Y1092D02*
X2389Y1092D01*
X2625Y1092D02*
X2633Y1092D01*
X62Y1091D02*
X71Y1091D01*
X519Y1091D02*
X525Y1091D01*
X1919Y1091D02*
X1925Y1091D01*
X2169Y1091D02*
X2202Y1091D01*
X2326Y1091D02*
X2332Y1091D01*
X2371Y1091D02*
X2389Y1091D01*
X2625Y1091D02*
X2634Y1091D01*
X62Y1090D02*
X70Y1090D01*
X520Y1090D02*
X526Y1090D01*
X1920Y1090D02*
X1926Y1090D01*
X2169Y1090D02*
X2175Y1090D01*
X2195Y1090D02*
X2202Y1090D01*
X2326Y1090D02*
X2332Y1090D01*
X2383Y1090D02*
X2389Y1090D01*
X2626Y1090D02*
X2634Y1090D01*
X61Y1089D02*
X69Y1089D01*
X521Y1089D02*
X527Y1089D01*
X1921Y1089D02*
X1927Y1089D01*
X2169Y1089D02*
X2175Y1089D01*
X2196Y1089D02*
X2202Y1089D01*
X2326Y1089D02*
X2332Y1089D01*
X2383Y1089D02*
X2389Y1089D01*
X2627Y1089D02*
X2635Y1089D01*
X60Y1088D02*
X69Y1088D01*
X522Y1088D02*
X528Y1088D01*
X1922Y1088D02*
X1928Y1088D01*
X2169Y1088D02*
X2175Y1088D01*
X2196Y1088D02*
X2203Y1088D01*
X2326Y1088D02*
X2332Y1088D01*
X2383Y1088D02*
X2389Y1088D01*
X2627Y1088D02*
X2636Y1088D01*
X60Y1087D02*
X68Y1087D01*
X523Y1087D02*
X529Y1087D01*
X1923Y1087D02*
X1929Y1087D01*
X2169Y1087D02*
X2175Y1087D01*
X2197Y1087D02*
X2203Y1087D01*
X2326Y1087D02*
X2332Y1087D01*
X2383Y1087D02*
X2389Y1087D01*
X2628Y1087D02*
X2636Y1087D01*
X59Y1086D02*
X67Y1086D01*
X524Y1086D02*
X530Y1086D01*
X1924Y1086D02*
X1930Y1086D01*
X2169Y1086D02*
X2175Y1086D01*
X2197Y1086D02*
X2203Y1086D01*
X2326Y1086D02*
X2332Y1086D01*
X2383Y1086D02*
X2389Y1086D01*
X2629Y1086D02*
X2637Y1086D01*
X58Y1085D02*
X67Y1085D01*
X525Y1085D02*
X531Y1085D01*
X1925Y1085D02*
X1931Y1085D01*
X2169Y1085D02*
X2175Y1085D01*
X2197Y1085D02*
X2203Y1085D01*
X2326Y1085D02*
X2332Y1085D01*
X2383Y1085D02*
X2389Y1085D01*
X2629Y1085D02*
X2638Y1085D01*
X58Y1084D02*
X66Y1084D01*
X526Y1084D02*
X532Y1084D01*
X1926Y1084D02*
X1932Y1084D01*
X2169Y1084D02*
X2175Y1084D01*
X2197Y1084D02*
X2203Y1084D01*
X2326Y1084D02*
X2332Y1084D01*
X2383Y1084D02*
X2389Y1084D01*
X2630Y1084D02*
X2638Y1084D01*
X57Y1083D02*
X66Y1083D01*
X527Y1083D02*
X533Y1083D01*
X1927Y1083D02*
X1933Y1083D01*
X2169Y1083D02*
X2175Y1083D01*
X2197Y1083D02*
X2203Y1083D01*
X2229Y1083D02*
X2241Y1083D01*
X2286Y1083D02*
X2292Y1083D01*
X2323Y1083D02*
X2346Y1083D01*
X2383Y1083D02*
X2389Y1083D01*
X2630Y1083D02*
X2639Y1083D01*
X57Y1082D02*
X65Y1082D01*
X528Y1082D02*
X535Y1082D01*
X1928Y1082D02*
X1935Y1082D01*
X2169Y1082D02*
X2175Y1082D01*
X2197Y1082D02*
X2203Y1082D01*
X2227Y1082D02*
X2246Y1082D01*
X2270Y1082D02*
X2274Y1082D01*
X2284Y1082D02*
X2297Y1082D01*
X2320Y1082D02*
X2348Y1082D01*
X2383Y1082D02*
X2389Y1082D01*
X2631Y1082D02*
X2639Y1082D01*
X56Y1081D02*
X64Y1081D01*
X529Y1081D02*
X536Y1081D01*
X1929Y1081D02*
X1936Y1081D01*
X2169Y1081D02*
X2175Y1081D01*
X2197Y1081D02*
X2203Y1081D01*
X2226Y1081D02*
X2247Y1081D01*
X2269Y1081D02*
X2275Y1081D01*
X2283Y1081D02*
X2298Y1081D01*
X2319Y1081D02*
X2349Y1081D01*
X2383Y1081D02*
X2389Y1081D01*
X2632Y1081D02*
X2640Y1081D01*
X55Y1080D02*
X64Y1080D01*
X530Y1080D02*
X537Y1080D01*
X1930Y1080D02*
X1937Y1080D01*
X2169Y1080D02*
X2175Y1080D01*
X2197Y1080D02*
X2203Y1080D01*
X2226Y1080D02*
X2249Y1080D01*
X2269Y1080D02*
X2275Y1080D01*
X2281Y1080D02*
X2299Y1080D01*
X2319Y1080D02*
X2349Y1080D01*
X2383Y1080D02*
X2389Y1080D01*
X2632Y1080D02*
X2641Y1080D01*
X55Y1079D02*
X63Y1079D01*
X531Y1079D02*
X538Y1079D01*
X1931Y1079D02*
X1938Y1079D01*
X2169Y1079D02*
X2175Y1079D01*
X2197Y1079D02*
X2203Y1079D01*
X2226Y1079D02*
X2249Y1079D01*
X2269Y1079D02*
X2275Y1079D01*
X2280Y1079D02*
X2300Y1079D01*
X2319Y1079D02*
X2349Y1079D01*
X2383Y1079D02*
X2389Y1079D01*
X2633Y1079D02*
X2641Y1079D01*
X54Y1078D02*
X62Y1078D01*
X532Y1078D02*
X539Y1078D01*
X1932Y1078D02*
X1939Y1078D01*
X2169Y1078D02*
X2175Y1078D01*
X2197Y1078D02*
X2203Y1078D01*
X2226Y1078D02*
X2250Y1078D01*
X2269Y1078D02*
X2275Y1078D01*
X2279Y1078D02*
X2301Y1078D01*
X2319Y1078D02*
X2349Y1078D01*
X2383Y1078D02*
X2389Y1078D01*
X2634Y1078D02*
X2642Y1078D01*
X54Y1077D02*
X62Y1077D01*
X533Y1077D02*
X540Y1077D01*
X1933Y1077D02*
X1940Y1077D01*
X2169Y1077D02*
X2175Y1077D01*
X2197Y1077D02*
X2203Y1077D01*
X2227Y1077D02*
X2251Y1077D01*
X2269Y1077D02*
X2275Y1077D01*
X2278Y1077D02*
X2302Y1077D01*
X2320Y1077D02*
X2348Y1077D01*
X2383Y1077D02*
X2389Y1077D01*
X2634Y1077D02*
X2642Y1077D01*
X53Y1076D02*
X61Y1076D01*
X534Y1076D02*
X541Y1076D01*
X1934Y1076D02*
X1941Y1076D01*
X2169Y1076D02*
X2175Y1076D01*
X2197Y1076D02*
X2203Y1076D01*
X2230Y1076D02*
X2251Y1076D01*
X2269Y1076D02*
X2275Y1076D01*
X2277Y1076D02*
X2302Y1076D01*
X2323Y1076D02*
X2345Y1076D01*
X2383Y1076D02*
X2389Y1076D01*
X2635Y1076D02*
X2643Y1076D01*
X53Y1075D02*
X61Y1075D01*
X535Y1075D02*
X542Y1075D01*
X1935Y1075D02*
X1942Y1075D01*
X2169Y1075D02*
X2175Y1075D01*
X2197Y1075D02*
X2203Y1075D01*
X2245Y1075D02*
X2251Y1075D01*
X2269Y1075D02*
X2285Y1075D01*
X2295Y1075D02*
X2302Y1075D01*
X2326Y1075D02*
X2332Y1075D01*
X2383Y1075D02*
X2389Y1075D01*
X2635Y1075D02*
X2643Y1075D01*
X52Y1074D02*
X60Y1074D01*
X536Y1074D02*
X543Y1074D01*
X1936Y1074D02*
X1943Y1074D01*
X2169Y1074D02*
X2175Y1074D01*
X2196Y1074D02*
X2203Y1074D01*
X2245Y1074D02*
X2252Y1074D01*
X2269Y1074D02*
X2284Y1074D01*
X2296Y1074D02*
X2302Y1074D01*
X2326Y1074D02*
X2332Y1074D01*
X2383Y1074D02*
X2389Y1074D01*
X2636Y1074D02*
X2644Y1074D01*
X51Y1073D02*
X59Y1073D01*
X537Y1073D02*
X544Y1073D01*
X1937Y1073D02*
X1944Y1073D01*
X2169Y1073D02*
X2175Y1073D01*
X2196Y1073D02*
X2202Y1073D01*
X2245Y1073D02*
X2252Y1073D01*
X2269Y1073D02*
X2283Y1073D01*
X2296Y1073D02*
X2303Y1073D01*
X2326Y1073D02*
X2332Y1073D01*
X2383Y1073D02*
X2389Y1073D01*
X2637Y1073D02*
X2645Y1073D01*
X51Y1072D02*
X59Y1072D01*
X538Y1072D02*
X545Y1072D01*
X1938Y1072D02*
X1945Y1072D01*
X2169Y1072D02*
X2175Y1072D01*
X2195Y1072D02*
X2202Y1072D01*
X2246Y1072D02*
X2252Y1072D01*
X2269Y1072D02*
X2282Y1072D01*
X2297Y1072D02*
X2303Y1072D01*
X2326Y1072D02*
X2332Y1072D01*
X2383Y1072D02*
X2389Y1072D01*
X2637Y1072D02*
X2645Y1072D01*
X50Y1071D02*
X58Y1071D01*
X539Y1071D02*
X546Y1071D01*
X1939Y1071D02*
X1946Y1071D01*
X2169Y1071D02*
X2202Y1071D01*
X2246Y1071D02*
X2252Y1071D01*
X2269Y1071D02*
X2281Y1071D01*
X2297Y1071D02*
X2303Y1071D01*
X2326Y1071D02*
X2332Y1071D01*
X2383Y1071D02*
X2389Y1071D01*
X2638Y1071D02*
X2646Y1071D01*
X50Y1070D02*
X58Y1070D01*
X540Y1070D02*
X547Y1070D01*
X1940Y1070D02*
X1947Y1070D01*
X2169Y1070D02*
X2201Y1070D01*
X2246Y1070D02*
X2252Y1070D01*
X2269Y1070D02*
X2280Y1070D01*
X2297Y1070D02*
X2302Y1070D01*
X2326Y1070D02*
X2332Y1070D01*
X2383Y1070D02*
X2389Y1070D01*
X2638Y1070D02*
X2646Y1070D01*
X49Y1069D02*
X57Y1069D01*
X541Y1069D02*
X546Y1069D01*
X1941Y1069D02*
X1946Y1069D01*
X2169Y1069D02*
X2201Y1069D01*
X2244Y1069D02*
X2244Y1069D01*
X2246Y1069D02*
X2252Y1069D01*
X2269Y1069D02*
X2278Y1069D01*
X2297Y1069D02*
X2302Y1069D01*
X2326Y1069D02*
X2332Y1069D01*
X2383Y1069D02*
X2389Y1069D01*
X2639Y1069D02*
X2647Y1069D01*
X49Y1068D02*
X57Y1068D01*
X542Y1068D02*
X545Y1068D01*
X1942Y1068D02*
X1945Y1068D01*
X2169Y1068D02*
X2200Y1068D01*
X2227Y1068D02*
X2252Y1068D01*
X2269Y1068D02*
X2277Y1068D01*
X2298Y1068D02*
X2301Y1068D01*
X2326Y1068D02*
X2332Y1068D01*
X2383Y1068D02*
X2389Y1068D01*
X2399Y1068D02*
X2400Y1068D01*
X2639Y1068D02*
X2647Y1068D01*
X48Y1067D02*
X56Y1067D01*
X543Y1067D02*
X544Y1067D01*
X1943Y1067D02*
X1944Y1067D01*
X2169Y1067D02*
X2199Y1067D01*
X2224Y1067D02*
X2252Y1067D01*
X2269Y1067D02*
X2276Y1067D01*
X2326Y1067D02*
X2332Y1067D01*
X2383Y1067D02*
X2389Y1067D01*
X2397Y1067D02*
X2402Y1067D01*
X2640Y1067D02*
X2648Y1067D01*
X47Y1066D02*
X55Y1066D01*
X2169Y1066D02*
X2198Y1066D01*
X2223Y1066D02*
X2252Y1066D01*
X2269Y1066D02*
X2275Y1066D01*
X2326Y1066D02*
X2332Y1066D01*
X2383Y1066D02*
X2389Y1066D01*
X2397Y1066D02*
X2402Y1066D01*
X2641Y1066D02*
X2649Y1066D01*
X47Y1065D02*
X55Y1065D01*
X2169Y1065D02*
X2196Y1065D01*
X2222Y1065D02*
X2252Y1065D01*
X2269Y1065D02*
X2275Y1065D01*
X2326Y1065D02*
X2332Y1065D01*
X2383Y1065D02*
X2389Y1065D01*
X2397Y1065D02*
X2403Y1065D01*
X2641Y1065D02*
X2649Y1065D01*
X46Y1064D02*
X54Y1064D01*
X2169Y1064D02*
X2175Y1064D01*
X2221Y1064D02*
X2252Y1064D01*
X2269Y1064D02*
X2275Y1064D01*
X2326Y1064D02*
X2332Y1064D01*
X2383Y1064D02*
X2389Y1064D01*
X2397Y1064D02*
X2403Y1064D01*
X2642Y1064D02*
X2650Y1064D01*
X46Y1063D02*
X54Y1063D01*
X2169Y1063D02*
X2175Y1063D01*
X2220Y1063D02*
X2252Y1063D01*
X2269Y1063D02*
X2275Y1063D01*
X2326Y1063D02*
X2332Y1063D01*
X2383Y1063D02*
X2389Y1063D01*
X2397Y1063D02*
X2403Y1063D01*
X2642Y1063D02*
X2650Y1063D01*
X45Y1062D02*
X53Y1062D01*
X2169Y1062D02*
X2175Y1062D01*
X2220Y1062D02*
X2252Y1062D01*
X2269Y1062D02*
X2275Y1062D01*
X2326Y1062D02*
X2332Y1062D01*
X2383Y1062D02*
X2389Y1062D01*
X2397Y1062D02*
X2403Y1062D01*
X2643Y1062D02*
X2651Y1062D01*
X45Y1061D02*
X53Y1061D01*
X2169Y1061D02*
X2175Y1061D01*
X2219Y1061D02*
X2227Y1061D01*
X2236Y1061D02*
X2242Y1061D01*
X2244Y1061D02*
X2252Y1061D01*
X2269Y1061D02*
X2275Y1061D01*
X2326Y1061D02*
X2332Y1061D01*
X2383Y1061D02*
X2389Y1061D01*
X2397Y1061D02*
X2403Y1061D01*
X2643Y1061D02*
X2651Y1061D01*
X44Y1060D02*
X52Y1060D01*
X2169Y1060D02*
X2175Y1060D01*
X2219Y1060D02*
X2226Y1060D01*
X2235Y1060D02*
X2241Y1060D01*
X2245Y1060D02*
X2248Y1060D01*
X2274Y1060D02*
X2275Y1060D01*
X2326Y1060D02*
X2332Y1060D01*
X2383Y1060D02*
X2389Y1060D01*
X2397Y1060D02*
X2403Y1060D01*
X2644Y1060D02*
X2652Y1060D01*
X44Y1059D02*
X52Y1059D01*
X2169Y1059D02*
X2175Y1059D01*
X2219Y1059D02*
X2225Y1059D01*
X2234Y1059D02*
X2240Y1059D01*
X2326Y1059D02*
X2332Y1059D01*
X2383Y1059D02*
X2389Y1059D01*
X2397Y1059D02*
X2403Y1059D01*
X2644Y1059D02*
X2652Y1059D01*
X43Y1058D02*
X51Y1058D01*
X2169Y1058D02*
X2175Y1058D01*
X2219Y1058D02*
X2225Y1058D01*
X2233Y1058D02*
X2239Y1058D01*
X2326Y1058D02*
X2332Y1058D01*
X2383Y1058D02*
X2389Y1058D01*
X2397Y1058D02*
X2403Y1058D01*
X2645Y1058D02*
X2653Y1058D01*
X43Y1057D02*
X51Y1057D01*
X2169Y1057D02*
X2175Y1057D01*
X2219Y1057D02*
X2225Y1057D01*
X2232Y1057D02*
X2238Y1057D01*
X2326Y1057D02*
X2332Y1057D01*
X2383Y1057D02*
X2389Y1057D01*
X2397Y1057D02*
X2403Y1057D01*
X2645Y1057D02*
X2653Y1057D01*
X42Y1056D02*
X50Y1056D01*
X2169Y1056D02*
X2175Y1056D01*
X2219Y1056D02*
X2225Y1056D01*
X2231Y1056D02*
X2237Y1056D01*
X2326Y1056D02*
X2332Y1056D01*
X2348Y1056D02*
X2351Y1056D01*
X2383Y1056D02*
X2389Y1056D01*
X2397Y1056D02*
X2403Y1056D01*
X2646Y1056D02*
X2654Y1056D01*
X42Y1055D02*
X50Y1055D01*
X2169Y1055D02*
X2175Y1055D01*
X2219Y1055D02*
X2225Y1055D01*
X2230Y1055D02*
X2236Y1055D01*
X2326Y1055D02*
X2332Y1055D01*
X2347Y1055D02*
X2352Y1055D01*
X2383Y1055D02*
X2389Y1055D01*
X2397Y1055D02*
X2403Y1055D01*
X2646Y1055D02*
X2654Y1055D01*
X41Y1054D02*
X49Y1054D01*
X2169Y1054D02*
X2175Y1054D01*
X2219Y1054D02*
X2225Y1054D01*
X2229Y1054D02*
X2235Y1054D01*
X2326Y1054D02*
X2332Y1054D01*
X2347Y1054D02*
X2352Y1054D01*
X2383Y1054D02*
X2389Y1054D01*
X2397Y1054D02*
X2403Y1054D01*
X2647Y1054D02*
X2655Y1054D01*
X41Y1053D02*
X49Y1053D01*
X2169Y1053D02*
X2175Y1053D01*
X2219Y1053D02*
X2225Y1053D01*
X2228Y1053D02*
X2234Y1053D01*
X2326Y1053D02*
X2332Y1053D01*
X2346Y1053D02*
X2353Y1053D01*
X2383Y1053D02*
X2389Y1053D01*
X2397Y1053D02*
X2403Y1053D01*
X2647Y1053D02*
X2655Y1053D01*
X40Y1052D02*
X48Y1052D01*
X2169Y1052D02*
X2175Y1052D01*
X2219Y1052D02*
X2232Y1052D01*
X2326Y1052D02*
X2333Y1052D01*
X2346Y1052D02*
X2352Y1052D01*
X2383Y1052D02*
X2389Y1052D01*
X2397Y1052D02*
X2403Y1052D01*
X2648Y1052D02*
X2656Y1052D01*
X40Y1051D02*
X48Y1051D01*
X2169Y1051D02*
X2175Y1051D01*
X2219Y1051D02*
X2231Y1051D01*
X2326Y1051D02*
X2334Y1051D01*
X2345Y1051D02*
X2352Y1051D01*
X2383Y1051D02*
X2389Y1051D01*
X2397Y1051D02*
X2403Y1051D01*
X2648Y1051D02*
X2656Y1051D01*
X39Y1050D02*
X47Y1050D01*
X2169Y1050D02*
X2175Y1050D01*
X2220Y1050D02*
X2230Y1050D01*
X2327Y1050D02*
X2352Y1050D01*
X2371Y1050D02*
X2403Y1050D01*
X2649Y1050D02*
X2657Y1050D01*
X39Y1049D02*
X47Y1049D01*
X2169Y1049D02*
X2175Y1049D01*
X2220Y1049D02*
X2229Y1049D01*
X2327Y1049D02*
X2351Y1049D01*
X2370Y1049D02*
X2403Y1049D01*
X2649Y1049D02*
X2657Y1049D01*
X38Y1048D02*
X46Y1048D01*
X2169Y1048D02*
X2175Y1048D01*
X2221Y1048D02*
X2228Y1048D01*
X2328Y1048D02*
X2351Y1048D01*
X2369Y1048D02*
X2403Y1048D01*
X2650Y1048D02*
X2658Y1048D01*
X38Y1047D02*
X46Y1047D01*
X2169Y1047D02*
X2175Y1047D01*
X2222Y1047D02*
X2227Y1047D01*
X2329Y1047D02*
X2350Y1047D01*
X2369Y1047D02*
X2403Y1047D01*
X2650Y1047D02*
X2658Y1047D01*
X37Y1046D02*
X45Y1046D01*
X2169Y1046D02*
X2175Y1046D01*
X2221Y1046D02*
X2226Y1046D01*
X2330Y1046D02*
X2349Y1046D01*
X2369Y1046D02*
X2402Y1046D01*
X2651Y1046D02*
X2659Y1046D01*
X37Y1045D02*
X45Y1045D01*
X2170Y1045D02*
X2174Y1045D01*
X2220Y1045D02*
X2226Y1045D01*
X2331Y1045D02*
X2347Y1045D01*
X2370Y1045D02*
X2402Y1045D01*
X2651Y1045D02*
X2659Y1045D01*
X37Y1044D02*
X44Y1044D01*
X2171Y1044D02*
X2173Y1044D01*
X2219Y1044D02*
X2225Y1044D01*
X2333Y1044D02*
X2345Y1044D01*
X2371Y1044D02*
X2401Y1044D01*
X2652Y1044D02*
X2659Y1044D01*
X36Y1043D02*
X44Y1043D01*
X2218Y1043D02*
X2224Y1043D01*
X2652Y1043D02*
X2660Y1043D01*
X36Y1042D02*
X43Y1042D01*
X2217Y1042D02*
X2223Y1042D01*
X2653Y1042D02*
X2660Y1042D01*
X35Y1041D02*
X43Y1041D01*
X2216Y1041D02*
X2222Y1041D01*
X2653Y1041D02*
X2661Y1041D01*
X35Y1040D02*
X42Y1040D01*
X2215Y1040D02*
X2221Y1040D01*
X2654Y1040D02*
X2661Y1040D01*
X34Y1039D02*
X42Y1039D01*
X2214Y1039D02*
X2220Y1039D01*
X2654Y1039D02*
X2662Y1039D01*
X34Y1038D02*
X41Y1038D01*
X2213Y1038D02*
X2219Y1038D01*
X2655Y1038D02*
X2662Y1038D01*
X33Y1037D02*
X41Y1037D01*
X2212Y1037D02*
X2218Y1037D01*
X2655Y1037D02*
X2663Y1037D01*
X33Y1036D02*
X41Y1036D01*
X2211Y1036D02*
X2217Y1036D01*
X2655Y1036D02*
X2663Y1036D01*
X33Y1035D02*
X40Y1035D01*
X2210Y1035D02*
X2216Y1035D01*
X2656Y1035D02*
X2663Y1035D01*
X32Y1034D02*
X40Y1034D01*
X2210Y1034D02*
X2215Y1034D01*
X2656Y1034D02*
X2664Y1034D01*
X32Y1033D02*
X39Y1033D01*
X2211Y1033D02*
X2214Y1033D01*
X2657Y1033D02*
X2664Y1033D01*
X31Y1032D02*
X39Y1032D01*
X2212Y1032D02*
X2213Y1032D01*
X2657Y1032D02*
X2665Y1032D01*
X31Y1031D02*
X38Y1031D01*
X2658Y1031D02*
X2665Y1031D01*
X30Y1030D02*
X38Y1030D01*
X2658Y1030D02*
X2666Y1030D01*
X30Y1029D02*
X37Y1029D01*
X2659Y1029D02*
X2666Y1029D01*
X30Y1028D02*
X37Y1028D01*
X2659Y1028D02*
X2666Y1028D01*
X29Y1027D02*
X37Y1027D01*
X2659Y1027D02*
X2667Y1027D01*
X29Y1026D02*
X36Y1026D01*
X2660Y1026D02*
X2667Y1026D01*
X28Y1025D02*
X36Y1025D01*
X2660Y1025D02*
X2668Y1025D01*
X28Y1024D02*
X35Y1024D01*
X2661Y1024D02*
X2668Y1024D01*
X28Y1023D02*
X35Y1023D01*
X2661Y1023D02*
X2668Y1023D01*
X27Y1022D02*
X35Y1022D01*
X2661Y1022D02*
X2669Y1022D01*
X27Y1021D02*
X34Y1021D01*
X2662Y1021D02*
X2669Y1021D01*
X26Y1020D02*
X34Y1020D01*
X2662Y1020D02*
X2670Y1020D01*
X26Y1019D02*
X33Y1019D01*
X2663Y1019D02*
X2670Y1019D01*
X26Y1018D02*
X33Y1018D01*
X2663Y1018D02*
X2670Y1018D01*
X25Y1017D02*
X33Y1017D01*
X261Y1017D02*
X2160Y1017D01*
X2663Y1017D02*
X2671Y1017D01*
X25Y1016D02*
X32Y1016D01*
X261Y1016D02*
X2160Y1016D01*
X2664Y1016D02*
X2671Y1016D01*
X24Y1015D02*
X32Y1015D01*
X261Y1015D02*
X2160Y1015D01*
X2664Y1015D02*
X2672Y1015D01*
X24Y1014D02*
X32Y1014D01*
X261Y1014D02*
X2160Y1014D01*
X2664Y1014D02*
X2672Y1014D01*
X24Y1013D02*
X31Y1013D01*
X261Y1013D02*
X2160Y1013D01*
X2665Y1013D02*
X2672Y1013D01*
X23Y1012D02*
X31Y1012D01*
X261Y1012D02*
X2160Y1012D01*
X2665Y1012D02*
X2673Y1012D01*
X23Y1011D02*
X30Y1011D01*
X261Y1011D02*
X2160Y1011D01*
X2666Y1011D02*
X2673Y1011D01*
X23Y1010D02*
X30Y1010D01*
X261Y1010D02*
X2160Y1010D01*
X2666Y1010D02*
X2673Y1010D01*
X22Y1009D02*
X30Y1009D01*
X261Y1009D02*
X268Y1009D01*
X2153Y1009D02*
X2160Y1009D01*
X2666Y1009D02*
X2674Y1009D01*
X22Y1008D02*
X29Y1008D01*
X261Y1008D02*
X268Y1008D01*
X2153Y1008D02*
X2160Y1008D01*
X2667Y1008D02*
X2674Y1008D01*
X22Y1007D02*
X29Y1007D01*
X261Y1007D02*
X268Y1007D01*
X2153Y1007D02*
X2160Y1007D01*
X2667Y1007D02*
X2674Y1007D01*
X21Y1006D02*
X29Y1006D01*
X261Y1006D02*
X268Y1006D01*
X2153Y1006D02*
X2160Y1006D01*
X2667Y1006D02*
X2675Y1006D01*
X21Y1005D02*
X28Y1005D01*
X261Y1005D02*
X268Y1005D01*
X2153Y1005D02*
X2160Y1005D01*
X2668Y1005D02*
X2675Y1005D01*
X21Y1004D02*
X28Y1004D01*
X261Y1004D02*
X268Y1004D01*
X2153Y1004D02*
X2160Y1004D01*
X2668Y1004D02*
X2675Y1004D01*
X20Y1003D02*
X28Y1003D01*
X261Y1003D02*
X268Y1003D01*
X2153Y1003D02*
X2160Y1003D01*
X2668Y1003D02*
X2676Y1003D01*
X20Y1002D02*
X27Y1002D01*
X261Y1002D02*
X268Y1002D01*
X2153Y1002D02*
X2160Y1002D01*
X2669Y1002D02*
X2676Y1002D01*
X20Y1001D02*
X27Y1001D01*
X261Y1001D02*
X268Y1001D01*
X2153Y1001D02*
X2160Y1001D01*
X2669Y1001D02*
X2676Y1001D01*
X19Y1000D02*
X27Y1000D01*
X261Y1000D02*
X268Y1000D01*
X2153Y1000D02*
X2160Y1000D01*
X2669Y1000D02*
X2677Y1000D01*
X19Y999D02*
X26Y999D01*
X261Y999D02*
X268Y999D01*
X2153Y999D02*
X2160Y999D01*
X2670Y999D02*
X2677Y999D01*
X19Y998D02*
X26Y998D01*
X261Y998D02*
X268Y998D01*
X2153Y998D02*
X2160Y998D01*
X2670Y998D02*
X2677Y998D01*
X18Y997D02*
X26Y997D01*
X261Y997D02*
X268Y997D01*
X2153Y997D02*
X2160Y997D01*
X2670Y997D02*
X2678Y997D01*
X18Y996D02*
X25Y996D01*
X261Y996D02*
X268Y996D01*
X2153Y996D02*
X2160Y996D01*
X2671Y996D02*
X2678Y996D01*
X18Y995D02*
X25Y995D01*
X261Y995D02*
X268Y995D01*
X2153Y995D02*
X2160Y995D01*
X2671Y995D02*
X2678Y995D01*
X17Y994D02*
X25Y994D01*
X261Y994D02*
X268Y994D01*
X2153Y994D02*
X2160Y994D01*
X2671Y994D02*
X2679Y994D01*
X17Y993D02*
X24Y993D01*
X261Y993D02*
X268Y993D01*
X2153Y993D02*
X2160Y993D01*
X2672Y993D02*
X2679Y993D01*
X17Y992D02*
X24Y992D01*
X261Y992D02*
X268Y992D01*
X2153Y992D02*
X2160Y992D01*
X2672Y992D02*
X2679Y992D01*
X16Y991D02*
X24Y991D01*
X261Y991D02*
X268Y991D01*
X2153Y991D02*
X2160Y991D01*
X2672Y991D02*
X2680Y991D01*
X16Y990D02*
X23Y990D01*
X261Y990D02*
X268Y990D01*
X2153Y990D02*
X2160Y990D01*
X2673Y990D02*
X2680Y990D01*
X16Y989D02*
X23Y989D01*
X261Y989D02*
X268Y989D01*
X2153Y989D02*
X2160Y989D01*
X2673Y989D02*
X2680Y989D01*
X16Y988D02*
X23Y988D01*
X261Y988D02*
X268Y988D01*
X2153Y988D02*
X2160Y988D01*
X2673Y988D02*
X2680Y988D01*
X15Y987D02*
X23Y987D01*
X261Y987D02*
X268Y987D01*
X2153Y987D02*
X2160Y987D01*
X2673Y987D02*
X2681Y987D01*
X15Y986D02*
X22Y986D01*
X261Y986D02*
X268Y986D01*
X2153Y986D02*
X2160Y986D01*
X2674Y986D02*
X2681Y986D01*
X15Y985D02*
X22Y985D01*
X261Y985D02*
X268Y985D01*
X2153Y985D02*
X2160Y985D01*
X2674Y985D02*
X2681Y985D01*
X14Y984D02*
X22Y984D01*
X261Y984D02*
X268Y984D01*
X2153Y984D02*
X2160Y984D01*
X2674Y984D02*
X2682Y984D01*
X14Y983D02*
X21Y983D01*
X261Y983D02*
X268Y983D01*
X2153Y983D02*
X2160Y983D01*
X2675Y983D02*
X2682Y983D01*
X14Y982D02*
X21Y982D01*
X261Y982D02*
X268Y982D01*
X2153Y982D02*
X2160Y982D01*
X2675Y982D02*
X2682Y982D01*
X14Y981D02*
X21Y981D01*
X261Y981D02*
X268Y981D01*
X2153Y981D02*
X2160Y981D01*
X2675Y981D02*
X2682Y981D01*
X13Y980D02*
X21Y980D01*
X261Y980D02*
X268Y980D01*
X2153Y980D02*
X2160Y980D01*
X2675Y980D02*
X2683Y980D01*
X13Y979D02*
X20Y979D01*
X261Y979D02*
X268Y979D01*
X2153Y979D02*
X2160Y979D01*
X2676Y979D02*
X2683Y979D01*
X13Y978D02*
X20Y978D01*
X261Y978D02*
X268Y978D01*
X2153Y978D02*
X2160Y978D01*
X2676Y978D02*
X2683Y978D01*
X13Y977D02*
X20Y977D01*
X261Y977D02*
X268Y977D01*
X2153Y977D02*
X2160Y977D01*
X2676Y977D02*
X2683Y977D01*
X12Y976D02*
X19Y976D01*
X261Y976D02*
X268Y976D01*
X2153Y976D02*
X2160Y976D01*
X2677Y976D02*
X2684Y976D01*
X12Y975D02*
X19Y975D01*
X261Y975D02*
X268Y975D01*
X2153Y975D02*
X2160Y975D01*
X2677Y975D02*
X2684Y975D01*
X12Y974D02*
X19Y974D01*
X261Y974D02*
X268Y974D01*
X2153Y974D02*
X2160Y974D01*
X2677Y974D02*
X2684Y974D01*
X12Y973D02*
X19Y973D01*
X261Y973D02*
X268Y973D01*
X2153Y973D02*
X2160Y973D01*
X2677Y973D02*
X2684Y973D01*
X11Y972D02*
X18Y972D01*
X261Y972D02*
X268Y972D01*
X2153Y972D02*
X2160Y972D01*
X2678Y972D02*
X2685Y972D01*
X11Y971D02*
X18Y971D01*
X261Y971D02*
X268Y971D01*
X2153Y971D02*
X2160Y971D01*
X2678Y971D02*
X2685Y971D01*
X11Y970D02*
X18Y970D01*
X261Y970D02*
X268Y970D01*
X2153Y970D02*
X2160Y970D01*
X2678Y970D02*
X2685Y970D01*
X11Y969D02*
X18Y969D01*
X261Y969D02*
X268Y969D01*
X2153Y969D02*
X2160Y969D01*
X2678Y969D02*
X2685Y969D01*
X10Y968D02*
X17Y968D01*
X261Y968D02*
X268Y968D01*
X2153Y968D02*
X2160Y968D01*
X2679Y968D02*
X2686Y968D01*
X10Y967D02*
X17Y967D01*
X261Y967D02*
X268Y967D01*
X2153Y967D02*
X2160Y967D01*
X2679Y967D02*
X2686Y967D01*
X10Y966D02*
X17Y966D01*
X261Y966D02*
X268Y966D01*
X2153Y966D02*
X2160Y966D01*
X2679Y966D02*
X2686Y966D01*
X10Y965D02*
X17Y965D01*
X261Y965D02*
X268Y965D01*
X2153Y965D02*
X2160Y965D01*
X2679Y965D02*
X2686Y965D01*
X9Y964D02*
X17Y964D01*
X261Y964D02*
X268Y964D01*
X2153Y964D02*
X2160Y964D01*
X2679Y964D02*
X2687Y964D01*
X9Y963D02*
X16Y963D01*
X261Y963D02*
X268Y963D01*
X2153Y963D02*
X2160Y963D01*
X2680Y963D02*
X2687Y963D01*
X9Y962D02*
X16Y962D01*
X261Y962D02*
X268Y962D01*
X2153Y962D02*
X2160Y962D01*
X2680Y962D02*
X2687Y962D01*
X9Y961D02*
X16Y961D01*
X261Y961D02*
X268Y961D01*
X2153Y961D02*
X2160Y961D01*
X2680Y961D02*
X2687Y961D01*
X9Y960D02*
X16Y960D01*
X261Y960D02*
X268Y960D01*
X2153Y960D02*
X2160Y960D01*
X2680Y960D02*
X2687Y960D01*
X8Y959D02*
X15Y959D01*
X261Y959D02*
X268Y959D01*
X2153Y959D02*
X2160Y959D01*
X2681Y959D02*
X2688Y959D01*
X8Y958D02*
X15Y958D01*
X261Y958D02*
X268Y958D01*
X2153Y958D02*
X2160Y958D01*
X2681Y958D02*
X2688Y958D01*
X8Y957D02*
X15Y957D01*
X261Y957D02*
X268Y957D01*
X2153Y957D02*
X2160Y957D01*
X2630Y957D02*
X2661Y957D01*
X2681Y957D02*
X2688Y957D01*
X8Y956D02*
X15Y956D01*
X261Y956D02*
X268Y956D01*
X2153Y956D02*
X2160Y956D01*
X2629Y956D02*
X2662Y956D01*
X2681Y956D02*
X2688Y956D01*
X8Y955D02*
X15Y955D01*
X261Y955D02*
X268Y955D01*
X2153Y955D02*
X2160Y955D01*
X2629Y955D02*
X2662Y955D01*
X2681Y955D02*
X2688Y955D01*
X7Y954D02*
X14Y954D01*
X261Y954D02*
X268Y954D01*
X2153Y954D02*
X2160Y954D01*
X2629Y954D02*
X2663Y954D01*
X7Y953D02*
X14Y953D01*
X261Y953D02*
X268Y953D01*
X2153Y953D02*
X2160Y953D01*
X2629Y953D02*
X2662Y953D01*
X7Y952D02*
X14Y952D01*
X261Y952D02*
X268Y952D01*
X2153Y952D02*
X2160Y952D01*
X2630Y952D02*
X2662Y952D01*
X7Y951D02*
X14Y951D01*
X261Y951D02*
X268Y951D01*
X2153Y951D02*
X2160Y951D01*
X2631Y951D02*
X2660Y951D01*
X7Y950D02*
X14Y950D01*
X261Y950D02*
X268Y950D01*
X2153Y950D02*
X2160Y950D01*
X2643Y950D02*
X2649Y950D01*
X2682Y950D02*
X2694Y950D01*
X6Y949D02*
X13Y949D01*
X261Y949D02*
X268Y949D01*
X2153Y949D02*
X2160Y949D01*
X2643Y949D02*
X2649Y949D01*
X2682Y949D02*
X2693Y949D01*
X6Y948D02*
X13Y948D01*
X261Y948D02*
X268Y948D01*
X2153Y948D02*
X2160Y948D01*
X2643Y948D02*
X2649Y948D01*
X2683Y948D02*
X2693Y948D01*
X6Y947D02*
X13Y947D01*
X261Y947D02*
X268Y947D01*
X2153Y947D02*
X2160Y947D01*
X2643Y947D02*
X2649Y947D01*
X2683Y947D02*
X2692Y947D01*
X6Y946D02*
X13Y946D01*
X261Y946D02*
X268Y946D01*
X2153Y946D02*
X2160Y946D01*
X2643Y946D02*
X2649Y946D01*
X2683Y946D02*
X2692Y946D01*
X6Y945D02*
X13Y945D01*
X261Y945D02*
X268Y945D01*
X2153Y945D02*
X2160Y945D01*
X2643Y945D02*
X2649Y945D01*
X2683Y945D02*
X2691Y945D01*
X6Y944D02*
X13Y944D01*
X261Y944D02*
X268Y944D01*
X2153Y944D02*
X2160Y944D01*
X2643Y944D02*
X2649Y944D01*
X2683Y944D02*
X2691Y944D01*
X5Y943D02*
X12Y943D01*
X261Y943D02*
X268Y943D01*
X2153Y943D02*
X2160Y943D01*
X2643Y943D02*
X2649Y943D01*
X2683Y943D02*
X2691Y943D01*
X5Y942D02*
X12Y942D01*
X261Y942D02*
X268Y942D01*
X2153Y942D02*
X2160Y942D01*
X2643Y942D02*
X2649Y942D01*
X2683Y942D02*
X2691Y942D01*
X5Y941D02*
X12Y941D01*
X261Y941D02*
X268Y941D01*
X2153Y941D02*
X2160Y941D01*
X2643Y941D02*
X2649Y941D01*
X2682Y941D02*
X2691Y941D01*
X5Y940D02*
X12Y940D01*
X261Y940D02*
X268Y940D01*
X2153Y940D02*
X2160Y940D01*
X2643Y940D02*
X2649Y940D01*
X2682Y940D02*
X2691Y940D01*
X5Y939D02*
X12Y939D01*
X261Y939D02*
X268Y939D01*
X2153Y939D02*
X2160Y939D01*
X2643Y939D02*
X2649Y939D01*
X2681Y939D02*
X2691Y939D01*
X5Y938D02*
X12Y938D01*
X261Y938D02*
X268Y938D01*
X2153Y938D02*
X2160Y938D01*
X2643Y938D02*
X2649Y938D01*
X2681Y938D02*
X2691Y938D01*
X4Y937D02*
X11Y937D01*
X261Y937D02*
X268Y937D01*
X2153Y937D02*
X2160Y937D01*
X2643Y937D02*
X2649Y937D01*
X2680Y937D02*
X2692Y937D01*
X4Y936D02*
X11Y936D01*
X261Y936D02*
X268Y936D01*
X2153Y936D02*
X2160Y936D01*
X2643Y936D02*
X2649Y936D01*
X2680Y936D02*
X2692Y936D01*
X4Y935D02*
X11Y935D01*
X261Y935D02*
X268Y935D01*
X2153Y935D02*
X2160Y935D01*
X2643Y935D02*
X2649Y935D01*
X2680Y935D02*
X2692Y935D01*
X4Y934D02*
X11Y934D01*
X261Y934D02*
X268Y934D01*
X2153Y934D02*
X2160Y934D01*
X2643Y934D02*
X2649Y934D01*
X2679Y934D02*
X2692Y934D01*
X4Y933D02*
X11Y933D01*
X261Y933D02*
X268Y933D01*
X2153Y933D02*
X2160Y933D01*
X2643Y933D02*
X2649Y933D01*
X2679Y933D02*
X2692Y933D01*
X4Y932D02*
X11Y932D01*
X261Y932D02*
X268Y932D01*
X2153Y932D02*
X2160Y932D01*
X2643Y932D02*
X2649Y932D01*
X2679Y932D02*
X2692Y932D01*
X4Y931D02*
X11Y931D01*
X261Y931D02*
X268Y931D01*
X2153Y931D02*
X2160Y931D01*
X2643Y931D02*
X2649Y931D01*
X2679Y931D02*
X2692Y931D01*
X3Y930D02*
X10Y930D01*
X261Y930D02*
X268Y930D01*
X2153Y930D02*
X2160Y930D01*
X2643Y930D02*
X2649Y930D01*
X2679Y930D02*
X2693Y930D01*
X3Y929D02*
X10Y929D01*
X261Y929D02*
X268Y929D01*
X2153Y929D02*
X2160Y929D01*
X2643Y929D02*
X2649Y929D01*
X2679Y929D02*
X2693Y929D01*
X3Y928D02*
X10Y928D01*
X261Y928D02*
X268Y928D01*
X2153Y928D02*
X2160Y928D01*
X2643Y928D02*
X2649Y928D01*
X2679Y928D02*
X2693Y928D01*
X3Y927D02*
X10Y927D01*
X261Y927D02*
X268Y927D01*
X2153Y927D02*
X2160Y927D01*
X2643Y927D02*
X2649Y927D01*
X2679Y927D02*
X2693Y927D01*
X3Y926D02*
X10Y926D01*
X261Y926D02*
X268Y926D01*
X2153Y926D02*
X2160Y926D01*
X2643Y926D02*
X2649Y926D01*
X2680Y926D02*
X2693Y926D01*
X3Y925D02*
X10Y925D01*
X261Y925D02*
X268Y925D01*
X2153Y925D02*
X2160Y925D01*
X2643Y925D02*
X2649Y925D01*
X2680Y925D02*
X2693Y925D01*
X3Y924D02*
X10Y924D01*
X261Y924D02*
X268Y924D01*
X2153Y924D02*
X2160Y924D01*
X2643Y924D02*
X2649Y924D01*
X2681Y924D02*
X2693Y924D01*
X3Y923D02*
X10Y923D01*
X261Y923D02*
X268Y923D01*
X2153Y923D02*
X2160Y923D01*
X2643Y923D02*
X2649Y923D01*
X2681Y923D02*
X2693Y923D01*
X2Y922D02*
X10Y922D01*
X261Y922D02*
X268Y922D01*
X2153Y922D02*
X2160Y922D01*
X2643Y922D02*
X2649Y922D01*
X2681Y922D02*
X2694Y922D01*
X2Y921D02*
X9Y921D01*
X261Y921D02*
X268Y921D01*
X2153Y921D02*
X2160Y921D01*
X2643Y921D02*
X2649Y921D01*
X2682Y921D02*
X2694Y921D01*
X2Y920D02*
X9Y920D01*
X261Y920D02*
X268Y920D01*
X2153Y920D02*
X2160Y920D01*
X2643Y920D02*
X2649Y920D01*
X2682Y920D02*
X2694Y920D01*
X2Y919D02*
X9Y919D01*
X261Y919D02*
X268Y919D01*
X2153Y919D02*
X2160Y919D01*
X2643Y919D02*
X2649Y919D01*
X2683Y919D02*
X2694Y919D01*
X2Y918D02*
X9Y918D01*
X261Y918D02*
X268Y918D01*
X2153Y918D02*
X2160Y918D01*
X2643Y918D02*
X2649Y918D01*
X2683Y918D02*
X2694Y918D01*
X2Y917D02*
X9Y917D01*
X261Y917D02*
X268Y917D01*
X2153Y917D02*
X2160Y917D01*
X2643Y917D02*
X2649Y917D01*
X2684Y917D02*
X2694Y917D01*
X2Y916D02*
X9Y916D01*
X261Y916D02*
X268Y916D01*
X2153Y916D02*
X2160Y916D01*
X2643Y916D02*
X2649Y916D01*
X2684Y916D02*
X2694Y916D01*
X2Y915D02*
X9Y915D01*
X261Y915D02*
X268Y915D01*
X2153Y915D02*
X2160Y915D01*
X2643Y915D02*
X2649Y915D01*
X2685Y915D02*
X2694Y915D01*
X2Y914D02*
X9Y914D01*
X261Y914D02*
X268Y914D01*
X2153Y914D02*
X2160Y914D01*
X2643Y914D02*
X2649Y914D01*
X2685Y914D02*
X2694Y914D01*
X2Y913D02*
X9Y913D01*
X261Y913D02*
X268Y913D01*
X2153Y913D02*
X2160Y913D01*
X2643Y913D02*
X2649Y913D01*
X2686Y913D02*
X2694Y913D01*
X2Y912D02*
X9Y912D01*
X261Y912D02*
X268Y912D01*
X2153Y912D02*
X2160Y912D01*
X2643Y912D02*
X2649Y912D01*
X2686Y912D02*
X2694Y912D01*
X1Y911D02*
X8Y911D01*
X261Y911D02*
X268Y911D01*
X2153Y911D02*
X2160Y911D01*
X2643Y911D02*
X2649Y911D01*
X2687Y911D02*
X2695Y911D01*
X1Y910D02*
X8Y910D01*
X261Y910D02*
X268Y910D01*
X2153Y910D02*
X2160Y910D01*
X2631Y910D02*
X2661Y910D01*
X1Y909D02*
X8Y909D01*
X261Y909D02*
X268Y909D01*
X2153Y909D02*
X2160Y909D01*
X2630Y909D02*
X2662Y909D01*
X1Y908D02*
X8Y908D01*
X261Y908D02*
X268Y908D01*
X2153Y908D02*
X2160Y908D01*
X2629Y908D02*
X2662Y908D01*
X1Y907D02*
X8Y907D01*
X261Y907D02*
X268Y907D01*
X2153Y907D02*
X2160Y907D01*
X2629Y907D02*
X2663Y907D01*
X1Y906D02*
X8Y906D01*
X261Y906D02*
X268Y906D01*
X2153Y906D02*
X2160Y906D01*
X2629Y906D02*
X2662Y906D01*
X1Y905D02*
X8Y905D01*
X261Y905D02*
X268Y905D01*
X2153Y905D02*
X2160Y905D01*
X2630Y905D02*
X2662Y905D01*
X1Y904D02*
X8Y904D01*
X261Y904D02*
X268Y904D01*
X2153Y904D02*
X2160Y904D01*
X2631Y904D02*
X2660Y904D01*
X1Y903D02*
X8Y903D01*
X261Y903D02*
X268Y903D01*
X2153Y903D02*
X2160Y903D01*
X2688Y903D02*
X2695Y903D01*
X1Y902D02*
X8Y902D01*
X261Y902D02*
X268Y902D01*
X2153Y902D02*
X2160Y902D01*
X2688Y902D02*
X2695Y902D01*
X1Y901D02*
X8Y901D01*
X261Y901D02*
X268Y901D01*
X2153Y901D02*
X2160Y901D01*
X2688Y901D02*
X2695Y901D01*
X1Y900D02*
X8Y900D01*
X261Y900D02*
X268Y900D01*
X2153Y900D02*
X2160Y900D01*
X2688Y900D02*
X2695Y900D01*
X1Y899D02*
X8Y899D01*
X261Y899D02*
X268Y899D01*
X2153Y899D02*
X2160Y899D01*
X2688Y899D02*
X2695Y899D01*
X1Y898D02*
X8Y898D01*
X261Y898D02*
X268Y898D01*
X2153Y898D02*
X2160Y898D01*
X2688Y898D02*
X2695Y898D01*
X0Y897D02*
X7Y897D01*
X261Y897D02*
X268Y897D01*
X2153Y897D02*
X2160Y897D01*
X2689Y897D02*
X2696Y897D01*
X0Y896D02*
X7Y896D01*
X261Y896D02*
X268Y896D01*
X2153Y896D02*
X2160Y896D01*
X2689Y896D02*
X2696Y896D01*
X0Y895D02*
X7Y895D01*
X261Y895D02*
X268Y895D01*
X2153Y895D02*
X2160Y895D01*
X2689Y895D02*
X2696Y895D01*
X0Y894D02*
X7Y894D01*
X261Y894D02*
X268Y894D01*
X2153Y894D02*
X2160Y894D01*
X2689Y894D02*
X2696Y894D01*
X0Y893D02*
X7Y893D01*
X261Y893D02*
X268Y893D01*
X2153Y893D02*
X2160Y893D01*
X2689Y893D02*
X2696Y893D01*
X0Y892D02*
X7Y892D01*
X261Y892D02*
X268Y892D01*
X2153Y892D02*
X2160Y892D01*
X2689Y892D02*
X2696Y892D01*
X0Y891D02*
X7Y891D01*
X261Y891D02*
X268Y891D01*
X2153Y891D02*
X2160Y891D01*
X2689Y891D02*
X2696Y891D01*
X0Y890D02*
X7Y890D01*
X261Y890D02*
X268Y890D01*
X2153Y890D02*
X2160Y890D01*
X2689Y890D02*
X2696Y890D01*
X0Y889D02*
X7Y889D01*
X261Y889D02*
X268Y889D01*
X2153Y889D02*
X2160Y889D01*
X2689Y889D02*
X2696Y889D01*
X0Y888D02*
X7Y888D01*
X261Y888D02*
X268Y888D01*
X2153Y888D02*
X2160Y888D01*
X2689Y888D02*
X2696Y888D01*
X0Y887D02*
X7Y887D01*
X261Y887D02*
X268Y887D01*
X2153Y887D02*
X2160Y887D01*
X2689Y887D02*
X2696Y887D01*
X0Y886D02*
X7Y886D01*
X261Y886D02*
X268Y886D01*
X2153Y886D02*
X2160Y886D01*
X2689Y886D02*
X2696Y886D01*
X0Y885D02*
X7Y885D01*
X261Y885D02*
X268Y885D01*
X2153Y885D02*
X2160Y885D01*
X2689Y885D02*
X2696Y885D01*
X0Y884D02*
X7Y884D01*
X261Y884D02*
X268Y884D01*
X2153Y884D02*
X2160Y884D01*
X2689Y884D02*
X2696Y884D01*
X0Y883D02*
X7Y883D01*
X261Y883D02*
X268Y883D01*
X2153Y883D02*
X2160Y883D01*
X2689Y883D02*
X2696Y883D01*
X0Y882D02*
X7Y882D01*
X261Y882D02*
X268Y882D01*
X2153Y882D02*
X2160Y882D01*
X2689Y882D02*
X2696Y882D01*
X0Y881D02*
X7Y881D01*
X261Y881D02*
X268Y881D01*
X2153Y881D02*
X2160Y881D01*
X2689Y881D02*
X2696Y881D01*
X0Y880D02*
X7Y880D01*
X261Y880D02*
X268Y880D01*
X2153Y880D02*
X2160Y880D01*
X2689Y880D02*
X2696Y880D01*
X0Y879D02*
X7Y879D01*
X261Y879D02*
X268Y879D01*
X2153Y879D02*
X2160Y879D01*
X2689Y879D02*
X2696Y879D01*
X0Y878D02*
X7Y878D01*
X261Y878D02*
X268Y878D01*
X2153Y878D02*
X2160Y878D01*
X2689Y878D02*
X2696Y878D01*
X0Y877D02*
X7Y877D01*
X261Y877D02*
X268Y877D01*
X2153Y877D02*
X2160Y877D01*
X2689Y877D02*
X2696Y877D01*
X0Y876D02*
X7Y876D01*
X261Y876D02*
X268Y876D01*
X2153Y876D02*
X2160Y876D01*
X2689Y876D02*
X2696Y876D01*
X0Y875D02*
X7Y875D01*
X261Y875D02*
X268Y875D01*
X2153Y875D02*
X2160Y875D01*
X2689Y875D02*
X2696Y875D01*
X0Y874D02*
X7Y874D01*
X261Y874D02*
X268Y874D01*
X2153Y874D02*
X2160Y874D01*
X2689Y874D02*
X2696Y874D01*
X0Y873D02*
X7Y873D01*
X261Y873D02*
X268Y873D01*
X2153Y873D02*
X2160Y873D01*
X2689Y873D02*
X2696Y873D01*
X0Y872D02*
X7Y872D01*
X261Y872D02*
X268Y872D01*
X2153Y872D02*
X2160Y872D01*
X2689Y872D02*
X2696Y872D01*
X0Y871D02*
X7Y871D01*
X261Y871D02*
X268Y871D01*
X2153Y871D02*
X2160Y871D01*
X2689Y871D02*
X2696Y871D01*
X0Y870D02*
X7Y870D01*
X261Y870D02*
X268Y870D01*
X2153Y870D02*
X2160Y870D01*
X2689Y870D02*
X2696Y870D01*
X0Y869D02*
X7Y869D01*
X261Y869D02*
X268Y869D01*
X2153Y869D02*
X2160Y869D01*
X2689Y869D02*
X2696Y869D01*
X0Y868D02*
X7Y868D01*
X261Y868D02*
X268Y868D01*
X2153Y868D02*
X2160Y868D01*
X2689Y868D02*
X2696Y868D01*
X0Y867D02*
X7Y867D01*
X261Y867D02*
X268Y867D01*
X2153Y867D02*
X2160Y867D01*
X2689Y867D02*
X2696Y867D01*
X0Y866D02*
X7Y866D01*
X261Y866D02*
X268Y866D01*
X2153Y866D02*
X2160Y866D01*
X2689Y866D02*
X2696Y866D01*
X0Y865D02*
X7Y865D01*
X261Y865D02*
X268Y865D01*
X2153Y865D02*
X2160Y865D01*
X2689Y865D02*
X2696Y865D01*
X0Y864D02*
X7Y864D01*
X261Y864D02*
X268Y864D01*
X2153Y864D02*
X2160Y864D01*
X2689Y864D02*
X2696Y864D01*
X0Y863D02*
X7Y863D01*
X261Y863D02*
X268Y863D01*
X2153Y863D02*
X2160Y863D01*
X2689Y863D02*
X2696Y863D01*
X0Y862D02*
X7Y862D01*
X261Y862D02*
X268Y862D01*
X2153Y862D02*
X2160Y862D01*
X2689Y862D02*
X2696Y862D01*
X0Y861D02*
X7Y861D01*
X261Y861D02*
X268Y861D01*
X2153Y861D02*
X2160Y861D01*
X2689Y861D02*
X2696Y861D01*
X0Y860D02*
X7Y860D01*
X261Y860D02*
X268Y860D01*
X2153Y860D02*
X2160Y860D01*
X2689Y860D02*
X2696Y860D01*
X0Y859D02*
X7Y859D01*
X261Y859D02*
X268Y859D01*
X2153Y859D02*
X2160Y859D01*
X2689Y859D02*
X2696Y859D01*
X0Y858D02*
X7Y858D01*
X261Y858D02*
X268Y858D01*
X2153Y858D02*
X2160Y858D01*
X2689Y858D02*
X2696Y858D01*
X0Y857D02*
X7Y857D01*
X261Y857D02*
X268Y857D01*
X2153Y857D02*
X2160Y857D01*
X2689Y857D02*
X2696Y857D01*
X0Y856D02*
X7Y856D01*
X261Y856D02*
X268Y856D01*
X2153Y856D02*
X2160Y856D01*
X2689Y856D02*
X2696Y856D01*
X0Y855D02*
X7Y855D01*
X261Y855D02*
X268Y855D01*
X2153Y855D02*
X2160Y855D01*
X2689Y855D02*
X2696Y855D01*
X0Y854D02*
X7Y854D01*
X261Y854D02*
X268Y854D01*
X2153Y854D02*
X2160Y854D01*
X2689Y854D02*
X2696Y854D01*
X0Y853D02*
X7Y853D01*
X261Y853D02*
X268Y853D01*
X2153Y853D02*
X2160Y853D01*
X2689Y853D02*
X2696Y853D01*
X0Y852D02*
X7Y852D01*
X261Y852D02*
X268Y852D01*
X2153Y852D02*
X2160Y852D01*
X2689Y852D02*
X2696Y852D01*
X0Y851D02*
X7Y851D01*
X261Y851D02*
X268Y851D01*
X2153Y851D02*
X2160Y851D01*
X2689Y851D02*
X2696Y851D01*
X0Y850D02*
X7Y850D01*
X261Y850D02*
X268Y850D01*
X2153Y850D02*
X2160Y850D01*
X2689Y850D02*
X2696Y850D01*
X0Y849D02*
X7Y849D01*
X261Y849D02*
X268Y849D01*
X2153Y849D02*
X2160Y849D01*
X2689Y849D02*
X2696Y849D01*
X0Y848D02*
X7Y848D01*
X261Y848D02*
X268Y848D01*
X2153Y848D02*
X2160Y848D01*
X2689Y848D02*
X2696Y848D01*
X0Y847D02*
X7Y847D01*
X261Y847D02*
X268Y847D01*
X2153Y847D02*
X2160Y847D01*
X2689Y847D02*
X2696Y847D01*
X0Y846D02*
X7Y846D01*
X261Y846D02*
X268Y846D01*
X2153Y846D02*
X2160Y846D01*
X2689Y846D02*
X2696Y846D01*
X0Y845D02*
X7Y845D01*
X261Y845D02*
X268Y845D01*
X2153Y845D02*
X2160Y845D01*
X2689Y845D02*
X2696Y845D01*
X0Y844D02*
X7Y844D01*
X261Y844D02*
X268Y844D01*
X2153Y844D02*
X2160Y844D01*
X2689Y844D02*
X2696Y844D01*
X0Y843D02*
X7Y843D01*
X261Y843D02*
X268Y843D01*
X2153Y843D02*
X2160Y843D01*
X2689Y843D02*
X2696Y843D01*
X0Y842D02*
X7Y842D01*
X261Y842D02*
X268Y842D01*
X2153Y842D02*
X2160Y842D01*
X2689Y842D02*
X2696Y842D01*
X0Y841D02*
X7Y841D01*
X261Y841D02*
X268Y841D01*
X2153Y841D02*
X2160Y841D01*
X2689Y841D02*
X2696Y841D01*
X0Y840D02*
X7Y840D01*
X261Y840D02*
X268Y840D01*
X2153Y840D02*
X2160Y840D01*
X2689Y840D02*
X2696Y840D01*
X0Y839D02*
X7Y839D01*
X261Y839D02*
X268Y839D01*
X2153Y839D02*
X2160Y839D01*
X2689Y839D02*
X2696Y839D01*
X0Y838D02*
X7Y838D01*
X261Y838D02*
X268Y838D01*
X2153Y838D02*
X2160Y838D01*
X2689Y838D02*
X2696Y838D01*
X0Y837D02*
X7Y837D01*
X261Y837D02*
X268Y837D01*
X2153Y837D02*
X2160Y837D01*
X2689Y837D02*
X2696Y837D01*
X0Y836D02*
X7Y836D01*
X261Y836D02*
X268Y836D01*
X2153Y836D02*
X2160Y836D01*
X2689Y836D02*
X2696Y836D01*
X0Y835D02*
X7Y835D01*
X261Y835D02*
X268Y835D01*
X2153Y835D02*
X2160Y835D01*
X2689Y835D02*
X2696Y835D01*
X0Y834D02*
X7Y834D01*
X261Y834D02*
X268Y834D01*
X2153Y834D02*
X2160Y834D01*
X2689Y834D02*
X2696Y834D01*
X0Y833D02*
X7Y833D01*
X261Y833D02*
X268Y833D01*
X1811Y833D02*
X1811Y833D01*
X2153Y833D02*
X2160Y833D01*
X2689Y833D02*
X2696Y833D01*
X0Y832D02*
X7Y832D01*
X261Y832D02*
X268Y832D01*
X1800Y832D02*
X1821Y832D01*
X2153Y832D02*
X2160Y832D01*
X2689Y832D02*
X2696Y832D01*
X0Y831D02*
X7Y831D01*
X261Y831D02*
X268Y831D01*
X1796Y831D02*
X1826Y831D01*
X2153Y831D02*
X2160Y831D01*
X2689Y831D02*
X2696Y831D01*
X0Y830D02*
X7Y830D01*
X261Y830D02*
X268Y830D01*
X1792Y830D02*
X1830Y830D01*
X2153Y830D02*
X2160Y830D01*
X2689Y830D02*
X2696Y830D01*
X0Y829D02*
X7Y829D01*
X261Y829D02*
X268Y829D01*
X1789Y829D02*
X1832Y829D01*
X2153Y829D02*
X2160Y829D01*
X2689Y829D02*
X2696Y829D01*
X0Y828D02*
X7Y828D01*
X261Y828D02*
X268Y828D01*
X1786Y828D02*
X1835Y828D01*
X2153Y828D02*
X2160Y828D01*
X2689Y828D02*
X2696Y828D01*
X0Y827D02*
X7Y827D01*
X261Y827D02*
X268Y827D01*
X1784Y827D02*
X1837Y827D01*
X2153Y827D02*
X2160Y827D01*
X2689Y827D02*
X2696Y827D01*
X0Y826D02*
X7Y826D01*
X261Y826D02*
X268Y826D01*
X1782Y826D02*
X1839Y826D01*
X2153Y826D02*
X2160Y826D01*
X2689Y826D02*
X2696Y826D01*
X0Y825D02*
X7Y825D01*
X261Y825D02*
X268Y825D01*
X1780Y825D02*
X1810Y825D01*
X1812Y825D02*
X1841Y825D01*
X2153Y825D02*
X2160Y825D01*
X2689Y825D02*
X2696Y825D01*
X0Y824D02*
X7Y824D01*
X261Y824D02*
X268Y824D01*
X1778Y824D02*
X1799Y824D01*
X1822Y824D02*
X1843Y824D01*
X2153Y824D02*
X2160Y824D01*
X2689Y824D02*
X2696Y824D01*
X0Y823D02*
X7Y823D01*
X261Y823D02*
X268Y823D01*
X1777Y823D02*
X1795Y823D01*
X1826Y823D02*
X1845Y823D01*
X2153Y823D02*
X2160Y823D01*
X2689Y823D02*
X2696Y823D01*
X0Y822D02*
X7Y822D01*
X261Y822D02*
X268Y822D01*
X1775Y822D02*
X1792Y822D01*
X1830Y822D02*
X1846Y822D01*
X2153Y822D02*
X2160Y822D01*
X2689Y822D02*
X2696Y822D01*
X0Y821D02*
X7Y821D01*
X261Y821D02*
X268Y821D01*
X1774Y821D02*
X1789Y821D01*
X1832Y821D02*
X1848Y821D01*
X2153Y821D02*
X2160Y821D01*
X2689Y821D02*
X2696Y821D01*
X0Y820D02*
X7Y820D01*
X261Y820D02*
X268Y820D01*
X1772Y820D02*
X1787Y820D01*
X1835Y820D02*
X1849Y820D01*
X2153Y820D02*
X2160Y820D01*
X2689Y820D02*
X2696Y820D01*
X0Y819D02*
X7Y819D01*
X261Y819D02*
X268Y819D01*
X1771Y819D02*
X1785Y819D01*
X1837Y819D02*
X1850Y819D01*
X2153Y819D02*
X2160Y819D01*
X2689Y819D02*
X2696Y819D01*
X0Y818D02*
X7Y818D01*
X261Y818D02*
X268Y818D01*
X1770Y818D02*
X1783Y818D01*
X1839Y818D02*
X1852Y818D01*
X2153Y818D02*
X2160Y818D01*
X2689Y818D02*
X2696Y818D01*
X0Y817D02*
X7Y817D01*
X261Y817D02*
X268Y817D01*
X1768Y817D02*
X1781Y817D01*
X1840Y817D02*
X1853Y817D01*
X2153Y817D02*
X2160Y817D01*
X2689Y817D02*
X2696Y817D01*
X0Y816D02*
X7Y816D01*
X261Y816D02*
X268Y816D01*
X1767Y816D02*
X1779Y816D01*
X1842Y816D02*
X1854Y816D01*
X2153Y816D02*
X2160Y816D01*
X2689Y816D02*
X2696Y816D01*
X0Y815D02*
X7Y815D01*
X261Y815D02*
X268Y815D01*
X1766Y815D02*
X1778Y815D01*
X1843Y815D02*
X1855Y815D01*
X2153Y815D02*
X2160Y815D01*
X2689Y815D02*
X2696Y815D01*
X0Y814D02*
X7Y814D01*
X261Y814D02*
X268Y814D01*
X1765Y814D02*
X1776Y814D01*
X1845Y814D02*
X1856Y814D01*
X2153Y814D02*
X2160Y814D01*
X2689Y814D02*
X2696Y814D01*
X0Y813D02*
X7Y813D01*
X261Y813D02*
X268Y813D01*
X1764Y813D02*
X1775Y813D01*
X1846Y813D02*
X1857Y813D01*
X2153Y813D02*
X2160Y813D01*
X2689Y813D02*
X2696Y813D01*
X0Y812D02*
X7Y812D01*
X261Y812D02*
X268Y812D01*
X1763Y812D02*
X1774Y812D01*
X1847Y812D02*
X1858Y812D01*
X2153Y812D02*
X2160Y812D01*
X2689Y812D02*
X2696Y812D01*
X0Y811D02*
X7Y811D01*
X261Y811D02*
X268Y811D01*
X1762Y811D02*
X1773Y811D01*
X1849Y811D02*
X1859Y811D01*
X2153Y811D02*
X2160Y811D01*
X2689Y811D02*
X2696Y811D01*
X0Y810D02*
X7Y810D01*
X261Y810D02*
X268Y810D01*
X1762Y810D02*
X1772Y810D01*
X1850Y810D02*
X1860Y810D01*
X2153Y810D02*
X2160Y810D01*
X2689Y810D02*
X2696Y810D01*
X0Y809D02*
X7Y809D01*
X261Y809D02*
X268Y809D01*
X1761Y809D02*
X1771Y809D01*
X1851Y809D02*
X1861Y809D01*
X2153Y809D02*
X2160Y809D01*
X2689Y809D02*
X2696Y809D01*
X0Y808D02*
X7Y808D01*
X261Y808D02*
X268Y808D01*
X1760Y808D02*
X1770Y808D01*
X1852Y808D02*
X1861Y808D01*
X2153Y808D02*
X2160Y808D01*
X2689Y808D02*
X2696Y808D01*
X0Y807D02*
X7Y807D01*
X261Y807D02*
X268Y807D01*
X1759Y807D02*
X1769Y807D01*
X1853Y807D02*
X1862Y807D01*
X2153Y807D02*
X2160Y807D01*
X2689Y807D02*
X2696Y807D01*
X0Y806D02*
X7Y806D01*
X261Y806D02*
X268Y806D01*
X1758Y806D02*
X1768Y806D01*
X1854Y806D02*
X1863Y806D01*
X2153Y806D02*
X2160Y806D01*
X2689Y806D02*
X2696Y806D01*
X0Y805D02*
X7Y805D01*
X261Y805D02*
X268Y805D01*
X1758Y805D02*
X1767Y805D01*
X1854Y805D02*
X1864Y805D01*
X2153Y805D02*
X2160Y805D01*
X2689Y805D02*
X2696Y805D01*
X0Y804D02*
X7Y804D01*
X261Y804D02*
X268Y804D01*
X1757Y804D02*
X1766Y804D01*
X1855Y804D02*
X1864Y804D01*
X2153Y804D02*
X2160Y804D01*
X2689Y804D02*
X2696Y804D01*
X0Y803D02*
X7Y803D01*
X261Y803D02*
X268Y803D01*
X1756Y803D02*
X1765Y803D01*
X1856Y803D02*
X1865Y803D01*
X2153Y803D02*
X2160Y803D01*
X2689Y803D02*
X2696Y803D01*
X0Y802D02*
X7Y802D01*
X261Y802D02*
X268Y802D01*
X1756Y802D02*
X1764Y802D01*
X1857Y802D02*
X1865Y802D01*
X2153Y802D02*
X2160Y802D01*
X2689Y802D02*
X2696Y802D01*
X0Y801D02*
X7Y801D01*
X261Y801D02*
X268Y801D01*
X1755Y801D02*
X1764Y801D01*
X1858Y801D02*
X1866Y801D01*
X2153Y801D02*
X2160Y801D01*
X2689Y801D02*
X2696Y801D01*
X0Y800D02*
X7Y800D01*
X261Y800D02*
X268Y800D01*
X1755Y800D02*
X1763Y800D01*
X1858Y800D02*
X1867Y800D01*
X2153Y800D02*
X2160Y800D01*
X2689Y800D02*
X2696Y800D01*
X0Y799D02*
X7Y799D01*
X261Y799D02*
X268Y799D01*
X1754Y799D02*
X1762Y799D01*
X1859Y799D02*
X1867Y799D01*
X2153Y799D02*
X2160Y799D01*
X2689Y799D02*
X2696Y799D01*
X0Y798D02*
X7Y798D01*
X261Y798D02*
X268Y798D01*
X1754Y798D02*
X1762Y798D01*
X1860Y798D02*
X1868Y798D01*
X2153Y798D02*
X2160Y798D01*
X2689Y798D02*
X2696Y798D01*
X0Y797D02*
X7Y797D01*
X261Y797D02*
X268Y797D01*
X1753Y797D02*
X1761Y797D01*
X1860Y797D02*
X1868Y797D01*
X2153Y797D02*
X2160Y797D01*
X2689Y797D02*
X2696Y797D01*
X0Y796D02*
X7Y796D01*
X261Y796D02*
X268Y796D01*
X1753Y796D02*
X1760Y796D01*
X1861Y796D02*
X1869Y796D01*
X2153Y796D02*
X2160Y796D01*
X2689Y796D02*
X2696Y796D01*
X0Y795D02*
X7Y795D01*
X261Y795D02*
X268Y795D01*
X1752Y795D02*
X1760Y795D01*
X1861Y795D02*
X1869Y795D01*
X2153Y795D02*
X2160Y795D01*
X2689Y795D02*
X2696Y795D01*
X0Y794D02*
X7Y794D01*
X261Y794D02*
X268Y794D01*
X1752Y794D02*
X1759Y794D01*
X1862Y794D02*
X1870Y794D01*
X2153Y794D02*
X2160Y794D01*
X2689Y794D02*
X2696Y794D01*
X0Y793D02*
X7Y793D01*
X261Y793D02*
X268Y793D01*
X1751Y793D02*
X1759Y793D01*
X1862Y793D02*
X1870Y793D01*
X2153Y793D02*
X2160Y793D01*
X2689Y793D02*
X2696Y793D01*
X0Y792D02*
X7Y792D01*
X261Y792D02*
X268Y792D01*
X1751Y792D02*
X1758Y792D01*
X1863Y792D02*
X1870Y792D01*
X2153Y792D02*
X2160Y792D01*
X2689Y792D02*
X2696Y792D01*
X0Y791D02*
X7Y791D01*
X261Y791D02*
X268Y791D01*
X1750Y791D02*
X1758Y791D01*
X1863Y791D02*
X1871Y791D01*
X2153Y791D02*
X2160Y791D01*
X2689Y791D02*
X2696Y791D01*
X0Y790D02*
X7Y790D01*
X261Y790D02*
X268Y790D01*
X1750Y790D02*
X1757Y790D01*
X1864Y790D02*
X1871Y790D01*
X2153Y790D02*
X2160Y790D01*
X2689Y790D02*
X2696Y790D01*
X0Y789D02*
X7Y789D01*
X261Y789D02*
X268Y789D01*
X1750Y789D02*
X1757Y789D01*
X1864Y789D02*
X1872Y789D01*
X2153Y789D02*
X2160Y789D01*
X2689Y789D02*
X2696Y789D01*
X0Y788D02*
X7Y788D01*
X261Y788D02*
X268Y788D01*
X1749Y788D02*
X1757Y788D01*
X1865Y788D02*
X1872Y788D01*
X2153Y788D02*
X2160Y788D01*
X2689Y788D02*
X2696Y788D01*
X0Y787D02*
X7Y787D01*
X261Y787D02*
X268Y787D01*
X1749Y787D02*
X1756Y787D01*
X1865Y787D02*
X1872Y787D01*
X2153Y787D02*
X2160Y787D01*
X2689Y787D02*
X2696Y787D01*
X0Y786D02*
X7Y786D01*
X261Y786D02*
X268Y786D01*
X1749Y786D02*
X1756Y786D01*
X1865Y786D02*
X1873Y786D01*
X2153Y786D02*
X2160Y786D01*
X2689Y786D02*
X2696Y786D01*
X0Y785D02*
X7Y785D01*
X261Y785D02*
X268Y785D01*
X1749Y785D02*
X1756Y785D01*
X1866Y785D02*
X1873Y785D01*
X2153Y785D02*
X2160Y785D01*
X2689Y785D02*
X2696Y785D01*
X0Y784D02*
X7Y784D01*
X261Y784D02*
X268Y784D01*
X1748Y784D02*
X1755Y784D01*
X1866Y784D02*
X1873Y784D01*
X2153Y784D02*
X2160Y784D01*
X2689Y784D02*
X2696Y784D01*
X0Y783D02*
X7Y783D01*
X261Y783D02*
X268Y783D01*
X1748Y783D02*
X1755Y783D01*
X1866Y783D02*
X1873Y783D01*
X2153Y783D02*
X2160Y783D01*
X2689Y783D02*
X2696Y783D01*
X0Y782D02*
X7Y782D01*
X261Y782D02*
X268Y782D01*
X1748Y782D02*
X1755Y782D01*
X1866Y782D02*
X1874Y782D01*
X2153Y782D02*
X2160Y782D01*
X2689Y782D02*
X2696Y782D01*
X0Y781D02*
X7Y781D01*
X261Y781D02*
X268Y781D01*
X1747Y781D02*
X1755Y781D01*
X1867Y781D02*
X1874Y781D01*
X2153Y781D02*
X2160Y781D01*
X2689Y781D02*
X2696Y781D01*
X0Y780D02*
X7Y780D01*
X261Y780D02*
X268Y780D01*
X1747Y780D02*
X1754Y780D01*
X1867Y780D02*
X1874Y780D01*
X2153Y780D02*
X2160Y780D01*
X2689Y780D02*
X2696Y780D01*
X0Y779D02*
X7Y779D01*
X261Y779D02*
X268Y779D01*
X1747Y779D02*
X1754Y779D01*
X1867Y779D02*
X1874Y779D01*
X2153Y779D02*
X2160Y779D01*
X2689Y779D02*
X2696Y779D01*
X0Y778D02*
X7Y778D01*
X261Y778D02*
X268Y778D01*
X1747Y778D02*
X1754Y778D01*
X1867Y778D02*
X1874Y778D01*
X2153Y778D02*
X2160Y778D01*
X2689Y778D02*
X2696Y778D01*
X0Y777D02*
X7Y777D01*
X261Y777D02*
X268Y777D01*
X1747Y777D02*
X1754Y777D01*
X1867Y777D02*
X1874Y777D01*
X2153Y777D02*
X2160Y777D01*
X2689Y777D02*
X2696Y777D01*
X0Y776D02*
X7Y776D01*
X261Y776D02*
X268Y776D01*
X1747Y776D02*
X1754Y776D01*
X1868Y776D02*
X1875Y776D01*
X2153Y776D02*
X2160Y776D01*
X2689Y776D02*
X2696Y776D01*
X0Y775D02*
X7Y775D01*
X261Y775D02*
X268Y775D01*
X1747Y775D02*
X1754Y775D01*
X1868Y775D02*
X1875Y775D01*
X2153Y775D02*
X2160Y775D01*
X2689Y775D02*
X2696Y775D01*
X0Y774D02*
X7Y774D01*
X261Y774D02*
X268Y774D01*
X1746Y774D02*
X1753Y774D01*
X1868Y774D02*
X1875Y774D01*
X2153Y774D02*
X2160Y774D01*
X2689Y774D02*
X2696Y774D01*
X0Y773D02*
X7Y773D01*
X261Y773D02*
X268Y773D01*
X1746Y773D02*
X1753Y773D01*
X1868Y773D02*
X1875Y773D01*
X2153Y773D02*
X2160Y773D01*
X2689Y773D02*
X2696Y773D01*
X0Y772D02*
X7Y772D01*
X261Y772D02*
X268Y772D01*
X1746Y772D02*
X1753Y772D01*
X1868Y772D02*
X1875Y772D01*
X2153Y772D02*
X2160Y772D01*
X2689Y772D02*
X2696Y772D01*
X0Y771D02*
X7Y771D01*
X261Y771D02*
X268Y771D01*
X1746Y771D02*
X1753Y771D01*
X1868Y771D02*
X1875Y771D01*
X2153Y771D02*
X2160Y771D01*
X2689Y771D02*
X2696Y771D01*
X0Y770D02*
X7Y770D01*
X261Y770D02*
X268Y770D01*
X1746Y770D02*
X1753Y770D01*
X1868Y770D02*
X1875Y770D01*
X2153Y770D02*
X2160Y770D01*
X2689Y770D02*
X2696Y770D01*
X0Y769D02*
X7Y769D01*
X261Y769D02*
X268Y769D01*
X1746Y769D02*
X1753Y769D01*
X1868Y769D02*
X1875Y769D01*
X2153Y769D02*
X2160Y769D01*
X2689Y769D02*
X2696Y769D01*
X0Y768D02*
X7Y768D01*
X261Y768D02*
X268Y768D01*
X1746Y768D02*
X1753Y768D01*
X1868Y768D02*
X1875Y768D01*
X2153Y768D02*
X2160Y768D01*
X2689Y768D02*
X2696Y768D01*
X0Y767D02*
X7Y767D01*
X261Y767D02*
X268Y767D01*
X1746Y767D02*
X1753Y767D01*
X1868Y767D02*
X1875Y767D01*
X2153Y767D02*
X2160Y767D01*
X2689Y767D02*
X2696Y767D01*
X0Y766D02*
X7Y766D01*
X261Y766D02*
X268Y766D01*
X1746Y766D02*
X1753Y766D01*
X1868Y766D02*
X1875Y766D01*
X2153Y766D02*
X2160Y766D01*
X2689Y766D02*
X2696Y766D01*
X0Y765D02*
X7Y765D01*
X261Y765D02*
X268Y765D01*
X1746Y765D02*
X1753Y765D01*
X1868Y765D02*
X1875Y765D01*
X2153Y765D02*
X2160Y765D01*
X2689Y765D02*
X2696Y765D01*
X0Y764D02*
X7Y764D01*
X261Y764D02*
X268Y764D01*
X1746Y764D02*
X1753Y764D01*
X1868Y764D02*
X1875Y764D01*
X2153Y764D02*
X2160Y764D01*
X2689Y764D02*
X2696Y764D01*
X0Y763D02*
X7Y763D01*
X261Y763D02*
X268Y763D01*
X1746Y763D02*
X1753Y763D01*
X1868Y763D02*
X1875Y763D01*
X2153Y763D02*
X2160Y763D01*
X2689Y763D02*
X2696Y763D01*
X0Y762D02*
X7Y762D01*
X261Y762D02*
X268Y762D01*
X1746Y762D02*
X1753Y762D01*
X1868Y762D02*
X1875Y762D01*
X2153Y762D02*
X2160Y762D01*
X2689Y762D02*
X2696Y762D01*
X0Y761D02*
X7Y761D01*
X261Y761D02*
X268Y761D01*
X1747Y761D02*
X1754Y761D01*
X1868Y761D02*
X1875Y761D01*
X2153Y761D02*
X2160Y761D01*
X2689Y761D02*
X2696Y761D01*
X0Y760D02*
X7Y760D01*
X261Y760D02*
X268Y760D01*
X1747Y760D02*
X1754Y760D01*
X1868Y760D02*
X1875Y760D01*
X2153Y760D02*
X2160Y760D01*
X2689Y760D02*
X2696Y760D01*
X0Y759D02*
X7Y759D01*
X261Y759D02*
X268Y759D01*
X1747Y759D02*
X1754Y759D01*
X1867Y759D02*
X1874Y759D01*
X2153Y759D02*
X2160Y759D01*
X2689Y759D02*
X2696Y759D01*
X0Y758D02*
X7Y758D01*
X261Y758D02*
X268Y758D01*
X1747Y758D02*
X1754Y758D01*
X1867Y758D02*
X1874Y758D01*
X2153Y758D02*
X2160Y758D01*
X2689Y758D02*
X2696Y758D01*
X0Y757D02*
X7Y757D01*
X261Y757D02*
X268Y757D01*
X1747Y757D02*
X1754Y757D01*
X1867Y757D02*
X1874Y757D01*
X2153Y757D02*
X2160Y757D01*
X2689Y757D02*
X2696Y757D01*
X0Y756D02*
X7Y756D01*
X261Y756D02*
X268Y756D01*
X1747Y756D02*
X1754Y756D01*
X1867Y756D02*
X1874Y756D01*
X2153Y756D02*
X2160Y756D01*
X2689Y756D02*
X2696Y756D01*
X0Y755D02*
X7Y755D01*
X261Y755D02*
X268Y755D01*
X1748Y755D02*
X1755Y755D01*
X1867Y755D02*
X1874Y755D01*
X2153Y755D02*
X2160Y755D01*
X2689Y755D02*
X2696Y755D01*
X0Y754D02*
X7Y754D01*
X261Y754D02*
X268Y754D01*
X1748Y754D02*
X1755Y754D01*
X1866Y754D02*
X1874Y754D01*
X2153Y754D02*
X2160Y754D01*
X2689Y754D02*
X2696Y754D01*
X0Y753D02*
X7Y753D01*
X261Y753D02*
X268Y753D01*
X1748Y753D02*
X1755Y753D01*
X1866Y753D02*
X1873Y753D01*
X2153Y753D02*
X2160Y753D01*
X2689Y753D02*
X2696Y753D01*
X0Y752D02*
X7Y752D01*
X261Y752D02*
X268Y752D01*
X1748Y752D02*
X1755Y752D01*
X1866Y752D02*
X1873Y752D01*
X2153Y752D02*
X2160Y752D01*
X2689Y752D02*
X2696Y752D01*
X0Y751D02*
X7Y751D01*
X261Y751D02*
X268Y751D01*
X1749Y751D02*
X1756Y751D01*
X1866Y751D02*
X1873Y751D01*
X2153Y751D02*
X2160Y751D01*
X2689Y751D02*
X2696Y751D01*
X0Y750D02*
X7Y750D01*
X261Y750D02*
X268Y750D01*
X1749Y750D02*
X1756Y750D01*
X1865Y750D02*
X1872Y750D01*
X2153Y750D02*
X2160Y750D01*
X2689Y750D02*
X2696Y750D01*
X0Y749D02*
X7Y749D01*
X261Y749D02*
X268Y749D01*
X1749Y749D02*
X1756Y749D01*
X1865Y749D02*
X1872Y749D01*
X2153Y749D02*
X2160Y749D01*
X2689Y749D02*
X2696Y749D01*
X0Y748D02*
X7Y748D01*
X261Y748D02*
X268Y748D01*
X1749Y748D02*
X1757Y748D01*
X1865Y748D02*
X1872Y748D01*
X2153Y748D02*
X2160Y748D01*
X2689Y748D02*
X2696Y748D01*
X0Y747D02*
X7Y747D01*
X261Y747D02*
X268Y747D01*
X1750Y747D02*
X1757Y747D01*
X1864Y747D02*
X1872Y747D01*
X2153Y747D02*
X2160Y747D01*
X2689Y747D02*
X2696Y747D01*
X0Y746D02*
X7Y746D01*
X261Y746D02*
X268Y746D01*
X1750Y746D02*
X1758Y746D01*
X1864Y746D02*
X1871Y746D01*
X2153Y746D02*
X2160Y746D01*
X2689Y746D02*
X2696Y746D01*
X0Y745D02*
X7Y745D01*
X261Y745D02*
X268Y745D01*
X1751Y745D02*
X1758Y745D01*
X1863Y745D02*
X1871Y745D01*
X2153Y745D02*
X2160Y745D01*
X2689Y745D02*
X2696Y745D01*
X0Y744D02*
X7Y744D01*
X261Y744D02*
X268Y744D01*
X1751Y744D02*
X1758Y744D01*
X1863Y744D02*
X1870Y744D01*
X2153Y744D02*
X2160Y744D01*
X2689Y744D02*
X2696Y744D01*
X0Y743D02*
X7Y743D01*
X261Y743D02*
X268Y743D01*
X1751Y743D02*
X1759Y743D01*
X1862Y743D02*
X1870Y743D01*
X2153Y743D02*
X2160Y743D01*
X2689Y743D02*
X2696Y743D01*
X0Y742D02*
X7Y742D01*
X261Y742D02*
X268Y742D01*
X1752Y742D02*
X1759Y742D01*
X1862Y742D02*
X1870Y742D01*
X2153Y742D02*
X2160Y742D01*
X2689Y742D02*
X2696Y742D01*
X0Y741D02*
X7Y741D01*
X261Y741D02*
X268Y741D01*
X1752Y741D02*
X1760Y741D01*
X1861Y741D02*
X1869Y741D01*
X2153Y741D02*
X2160Y741D01*
X2689Y741D02*
X2696Y741D01*
X0Y740D02*
X7Y740D01*
X261Y740D02*
X268Y740D01*
X1753Y740D02*
X1761Y740D01*
X1861Y740D02*
X1869Y740D01*
X2153Y740D02*
X2160Y740D01*
X2689Y740D02*
X2696Y740D01*
X0Y739D02*
X7Y739D01*
X261Y739D02*
X268Y739D01*
X1753Y739D02*
X1761Y739D01*
X1860Y739D02*
X1868Y739D01*
X2153Y739D02*
X2160Y739D01*
X2689Y739D02*
X2696Y739D01*
X0Y738D02*
X7Y738D01*
X261Y738D02*
X268Y738D01*
X1754Y738D02*
X1762Y738D01*
X1860Y738D02*
X1868Y738D01*
X2153Y738D02*
X2160Y738D01*
X2689Y738D02*
X2696Y738D01*
X0Y737D02*
X7Y737D01*
X261Y737D02*
X268Y737D01*
X1754Y737D02*
X1762Y737D01*
X1859Y737D02*
X1867Y737D01*
X2153Y737D02*
X2160Y737D01*
X2689Y737D02*
X2696Y737D01*
X0Y736D02*
X7Y736D01*
X261Y736D02*
X268Y736D01*
X1755Y736D02*
X1763Y736D01*
X1858Y736D02*
X1867Y736D01*
X2153Y736D02*
X2160Y736D01*
X2689Y736D02*
X2696Y736D01*
X0Y735D02*
X7Y735D01*
X261Y735D02*
X268Y735D01*
X1755Y735D02*
X1764Y735D01*
X1858Y735D02*
X1866Y735D01*
X1970Y735D02*
X1972Y735D01*
X2049Y735D02*
X2051Y735D01*
X2153Y735D02*
X2160Y735D01*
X2689Y735D02*
X2696Y735D01*
X0Y734D02*
X7Y734D01*
X261Y734D02*
X268Y734D01*
X1756Y734D02*
X1765Y734D01*
X1857Y734D02*
X1865Y734D01*
X1967Y734D02*
X1973Y734D01*
X2048Y734D02*
X2054Y734D01*
X2153Y734D02*
X2160Y734D01*
X2689Y734D02*
X2696Y734D01*
X0Y733D02*
X7Y733D01*
X261Y733D02*
X268Y733D01*
X1757Y733D02*
X1765Y733D01*
X1856Y733D02*
X1865Y733D01*
X1965Y733D02*
X1973Y733D01*
X2048Y733D02*
X2057Y733D01*
X2153Y733D02*
X2160Y733D01*
X2689Y733D02*
X2696Y733D01*
X0Y732D02*
X7Y732D01*
X261Y732D02*
X268Y732D01*
X1757Y732D02*
X1766Y732D01*
X1855Y732D02*
X1864Y732D01*
X1962Y732D02*
X1973Y732D01*
X2049Y732D02*
X2059Y732D01*
X2153Y732D02*
X2160Y732D01*
X2689Y732D02*
X2696Y732D01*
X0Y731D02*
X7Y731D01*
X261Y731D02*
X268Y731D01*
X1758Y731D02*
X1767Y731D01*
X1854Y731D02*
X1863Y731D01*
X1960Y731D02*
X1970Y731D01*
X2052Y731D02*
X2061Y731D01*
X2153Y731D02*
X2160Y731D01*
X2689Y731D02*
X2696Y731D01*
X0Y730D02*
X7Y730D01*
X261Y730D02*
X268Y730D01*
X1759Y730D02*
X1768Y730D01*
X1853Y730D02*
X1863Y730D01*
X1958Y730D02*
X1967Y730D01*
X2054Y730D02*
X2063Y730D01*
X2153Y730D02*
X2160Y730D01*
X2689Y730D02*
X2696Y730D01*
X0Y729D02*
X7Y729D01*
X261Y729D02*
X268Y729D01*
X1759Y729D02*
X1769Y729D01*
X1853Y729D02*
X1862Y729D01*
X1956Y729D02*
X1964Y729D01*
X2057Y729D02*
X2065Y729D01*
X2153Y729D02*
X2160Y729D01*
X2689Y729D02*
X2696Y729D01*
X0Y728D02*
X7Y728D01*
X261Y728D02*
X268Y728D01*
X1760Y728D02*
X1770Y728D01*
X1852Y728D02*
X1861Y728D01*
X1954Y728D02*
X1962Y728D01*
X2059Y728D02*
X2067Y728D01*
X2153Y728D02*
X2160Y728D01*
X2689Y728D02*
X2696Y728D01*
X0Y727D02*
X7Y727D01*
X261Y727D02*
X268Y727D01*
X1761Y727D02*
X1771Y727D01*
X1851Y727D02*
X1860Y727D01*
X1952Y727D02*
X1960Y727D01*
X2061Y727D02*
X2069Y727D01*
X2153Y727D02*
X2160Y727D01*
X2689Y727D02*
X2696Y727D01*
X0Y726D02*
X7Y726D01*
X261Y726D02*
X268Y726D01*
X1762Y726D02*
X1772Y726D01*
X1849Y726D02*
X1860Y726D01*
X1950Y726D02*
X1958Y726D01*
X2064Y726D02*
X2071Y726D01*
X2153Y726D02*
X2160Y726D01*
X2689Y726D02*
X2696Y726D01*
X0Y725D02*
X7Y725D01*
X261Y725D02*
X268Y725D01*
X1763Y725D02*
X1773Y725D01*
X1848Y725D02*
X1859Y725D01*
X1948Y725D02*
X1956Y725D01*
X2066Y725D02*
X2073Y725D01*
X2153Y725D02*
X2160Y725D01*
X2689Y725D02*
X2696Y725D01*
X0Y724D02*
X7Y724D01*
X261Y724D02*
X268Y724D01*
X1763Y724D02*
X1774Y724D01*
X1847Y724D02*
X1858Y724D01*
X1947Y724D02*
X1954Y724D01*
X2068Y724D02*
X2075Y724D01*
X2153Y724D02*
X2160Y724D01*
X2689Y724D02*
X2696Y724D01*
X0Y723D02*
X7Y723D01*
X261Y723D02*
X268Y723D01*
X1764Y723D02*
X1775Y723D01*
X1846Y723D02*
X1857Y723D01*
X1945Y723D02*
X1952Y723D01*
X2069Y723D02*
X2076Y723D01*
X2153Y723D02*
X2160Y723D01*
X2689Y723D02*
X2696Y723D01*
X0Y722D02*
X7Y722D01*
X261Y722D02*
X268Y722D01*
X1765Y722D02*
X1777Y722D01*
X1845Y722D02*
X1856Y722D01*
X1944Y722D02*
X1950Y722D01*
X2071Y722D02*
X2078Y722D01*
X2153Y722D02*
X2160Y722D01*
X2689Y722D02*
X2696Y722D01*
X0Y721D02*
X7Y721D01*
X261Y721D02*
X268Y721D01*
X1766Y721D02*
X1778Y721D01*
X1843Y721D02*
X1855Y721D01*
X1942Y721D02*
X1948Y721D01*
X2073Y721D02*
X2079Y721D01*
X2153Y721D02*
X2160Y721D01*
X2689Y721D02*
X2696Y721D01*
X0Y720D02*
X7Y720D01*
X261Y720D02*
X268Y720D01*
X1768Y720D02*
X1780Y720D01*
X1842Y720D02*
X1854Y720D01*
X1941Y720D02*
X1947Y720D01*
X2075Y720D02*
X2081Y720D01*
X2153Y720D02*
X2160Y720D01*
X2689Y720D02*
X2696Y720D01*
X0Y719D02*
X7Y719D01*
X261Y719D02*
X268Y719D01*
X1769Y719D02*
X1781Y719D01*
X1840Y719D02*
X1853Y719D01*
X1939Y719D02*
X1945Y719D01*
X2076Y719D02*
X2082Y719D01*
X2153Y719D02*
X2160Y719D01*
X2689Y719D02*
X2696Y719D01*
X0Y718D02*
X7Y718D01*
X261Y718D02*
X268Y718D01*
X1770Y718D02*
X1783Y718D01*
X1838Y718D02*
X1852Y718D01*
X1938Y718D02*
X1944Y718D01*
X2078Y718D02*
X2084Y718D01*
X2153Y718D02*
X2160Y718D01*
X2689Y718D02*
X2696Y718D01*
X0Y717D02*
X7Y717D01*
X261Y717D02*
X268Y717D01*
X1771Y717D02*
X1785Y717D01*
X1836Y717D02*
X1850Y717D01*
X1937Y717D02*
X1942Y717D01*
X2079Y717D02*
X2085Y717D01*
X2153Y717D02*
X2160Y717D01*
X2689Y717D02*
X2696Y717D01*
X0Y716D02*
X7Y716D01*
X261Y716D02*
X268Y716D01*
X1772Y716D02*
X1787Y716D01*
X1834Y716D02*
X1849Y716D01*
X1935Y716D02*
X1941Y716D01*
X2081Y716D02*
X2086Y716D01*
X2153Y716D02*
X2160Y716D01*
X2689Y716D02*
X2696Y716D01*
X0Y715D02*
X7Y715D01*
X261Y715D02*
X268Y715D01*
X1774Y715D02*
X1789Y715D01*
X1832Y715D02*
X1848Y715D01*
X1934Y715D02*
X1939Y715D01*
X2082Y715D02*
X2087Y715D01*
X2153Y715D02*
X2160Y715D01*
X2689Y715D02*
X2696Y715D01*
X0Y714D02*
X7Y714D01*
X261Y714D02*
X268Y714D01*
X1775Y714D02*
X1792Y714D01*
X1829Y714D02*
X1846Y714D01*
X1933Y714D02*
X1938Y714D01*
X2083Y714D02*
X2089Y714D01*
X2153Y714D02*
X2160Y714D01*
X2689Y714D02*
X2696Y714D01*
X0Y713D02*
X7Y713D01*
X261Y713D02*
X268Y713D01*
X1777Y713D02*
X1796Y713D01*
X1826Y713D02*
X1844Y713D01*
X1931Y713D02*
X1937Y713D01*
X2085Y713D02*
X2090Y713D01*
X2153Y713D02*
X2160Y713D01*
X2689Y713D02*
X2696Y713D01*
X0Y712D02*
X7Y712D01*
X261Y712D02*
X268Y712D01*
X1779Y712D02*
X1800Y712D01*
X1821Y712D02*
X1843Y712D01*
X1930Y712D02*
X1935Y712D01*
X2086Y712D02*
X2091Y712D01*
X2153Y712D02*
X2160Y712D01*
X2689Y712D02*
X2696Y712D01*
X0Y711D02*
X7Y711D01*
X261Y711D02*
X268Y711D01*
X1780Y711D02*
X1841Y711D01*
X1929Y711D02*
X1934Y711D01*
X2087Y711D02*
X2092Y711D01*
X2153Y711D02*
X2160Y711D01*
X2689Y711D02*
X2696Y711D01*
X0Y710D02*
X7Y710D01*
X261Y710D02*
X268Y710D01*
X1782Y710D02*
X1839Y710D01*
X1928Y710D02*
X1933Y710D01*
X2088Y710D02*
X2093Y710D01*
X2153Y710D02*
X2160Y710D01*
X2689Y710D02*
X2696Y710D01*
X0Y709D02*
X7Y709D01*
X261Y709D02*
X268Y709D01*
X1784Y709D02*
X1837Y709D01*
X1927Y709D02*
X1932Y709D01*
X2090Y709D02*
X2094Y709D01*
X2153Y709D02*
X2160Y709D01*
X2689Y709D02*
X2696Y709D01*
X0Y708D02*
X7Y708D01*
X261Y708D02*
X268Y708D01*
X1787Y708D02*
X1835Y708D01*
X1926Y708D02*
X1931Y708D01*
X2091Y708D02*
X2095Y708D01*
X2153Y708D02*
X2160Y708D01*
X2689Y708D02*
X2696Y708D01*
X0Y707D02*
X7Y707D01*
X261Y707D02*
X268Y707D01*
X1789Y707D02*
X1832Y707D01*
X1925Y707D02*
X1930Y707D01*
X2092Y707D02*
X2096Y707D01*
X2153Y707D02*
X2160Y707D01*
X2689Y707D02*
X2696Y707D01*
X0Y706D02*
X7Y706D01*
X261Y706D02*
X268Y706D01*
X1792Y706D02*
X1829Y706D01*
X1924Y706D02*
X1928Y706D01*
X2093Y706D02*
X2097Y706D01*
X2153Y706D02*
X2160Y706D01*
X2689Y706D02*
X2696Y706D01*
X0Y705D02*
X7Y705D01*
X261Y705D02*
X268Y705D01*
X1796Y705D02*
X1825Y705D01*
X1923Y705D02*
X1927Y705D01*
X2094Y705D02*
X2098Y705D01*
X2153Y705D02*
X2160Y705D01*
X2689Y705D02*
X2696Y705D01*
X0Y704D02*
X7Y704D01*
X261Y704D02*
X268Y704D01*
X1801Y704D02*
X1820Y704D01*
X1922Y704D02*
X1926Y704D01*
X2095Y704D02*
X2099Y704D01*
X2153Y704D02*
X2160Y704D01*
X2689Y704D02*
X2696Y704D01*
X0Y703D02*
X7Y703D01*
X261Y703D02*
X268Y703D01*
X1921Y703D02*
X1925Y703D01*
X2096Y703D02*
X2100Y703D01*
X2153Y703D02*
X2160Y703D01*
X2689Y703D02*
X2696Y703D01*
X0Y702D02*
X7Y702D01*
X261Y702D02*
X268Y702D01*
X1920Y702D02*
X1924Y702D01*
X2097Y702D02*
X2101Y702D01*
X2153Y702D02*
X2160Y702D01*
X2689Y702D02*
X2696Y702D01*
X0Y701D02*
X7Y701D01*
X261Y701D02*
X268Y701D01*
X1919Y701D02*
X1923Y701D01*
X2098Y701D02*
X2102Y701D01*
X2153Y701D02*
X2160Y701D01*
X2689Y701D02*
X2696Y701D01*
X0Y700D02*
X7Y700D01*
X261Y700D02*
X268Y700D01*
X1918Y700D02*
X1922Y700D01*
X2099Y700D02*
X2103Y700D01*
X2153Y700D02*
X2160Y700D01*
X2689Y700D02*
X2696Y700D01*
X0Y699D02*
X7Y699D01*
X261Y699D02*
X268Y699D01*
X1917Y699D02*
X1922Y699D01*
X2100Y699D02*
X2104Y699D01*
X2153Y699D02*
X2160Y699D01*
X2689Y699D02*
X2696Y699D01*
X0Y698D02*
X7Y698D01*
X261Y698D02*
X268Y698D01*
X1916Y698D02*
X1921Y698D01*
X2101Y698D02*
X2105Y698D01*
X2153Y698D02*
X2160Y698D01*
X2689Y698D02*
X2696Y698D01*
X0Y697D02*
X7Y697D01*
X261Y697D02*
X268Y697D01*
X1916Y697D02*
X1920Y697D01*
X2102Y697D02*
X2106Y697D01*
X2153Y697D02*
X2160Y697D01*
X2689Y697D02*
X2696Y697D01*
X0Y696D02*
X7Y696D01*
X261Y696D02*
X268Y696D01*
X1915Y696D02*
X1919Y696D01*
X2103Y696D02*
X2106Y696D01*
X2153Y696D02*
X2160Y696D01*
X2689Y696D02*
X2696Y696D01*
X0Y695D02*
X7Y695D01*
X261Y695D02*
X268Y695D01*
X1914Y695D02*
X1918Y695D01*
X2103Y695D02*
X2107Y695D01*
X2153Y695D02*
X2160Y695D01*
X2689Y695D02*
X2696Y695D01*
X0Y694D02*
X7Y694D01*
X261Y694D02*
X268Y694D01*
X1913Y694D02*
X1917Y694D01*
X2104Y694D02*
X2108Y694D01*
X2153Y694D02*
X2160Y694D01*
X2689Y694D02*
X2696Y694D01*
X0Y693D02*
X7Y693D01*
X261Y693D02*
X268Y693D01*
X1912Y693D02*
X1916Y693D01*
X2105Y693D02*
X2109Y693D01*
X2153Y693D02*
X2160Y693D01*
X2689Y693D02*
X2696Y693D01*
X0Y692D02*
X7Y692D01*
X261Y692D02*
X268Y692D01*
X1912Y692D02*
X1916Y692D01*
X2106Y692D02*
X2110Y692D01*
X2153Y692D02*
X2160Y692D01*
X2689Y692D02*
X2696Y692D01*
X0Y691D02*
X7Y691D01*
X261Y691D02*
X268Y691D01*
X1911Y691D02*
X1915Y691D01*
X2106Y691D02*
X2110Y691D01*
X2153Y691D02*
X2160Y691D01*
X2689Y691D02*
X2696Y691D01*
X0Y690D02*
X7Y690D01*
X261Y690D02*
X268Y690D01*
X1910Y690D02*
X1914Y690D01*
X2107Y690D02*
X2111Y690D01*
X2153Y690D02*
X2160Y690D01*
X2689Y690D02*
X2696Y690D01*
X0Y689D02*
X7Y689D01*
X261Y689D02*
X268Y689D01*
X1910Y689D02*
X1913Y689D01*
X2108Y689D02*
X2112Y689D01*
X2153Y689D02*
X2160Y689D01*
X2689Y689D02*
X2696Y689D01*
X0Y688D02*
X7Y688D01*
X261Y688D02*
X268Y688D01*
X1909Y688D02*
X1913Y688D01*
X2109Y688D02*
X2112Y688D01*
X2153Y688D02*
X2160Y688D01*
X2689Y688D02*
X2696Y688D01*
X0Y687D02*
X7Y687D01*
X261Y687D02*
X268Y687D01*
X1908Y687D02*
X1912Y687D01*
X2109Y687D02*
X2113Y687D01*
X2153Y687D02*
X2160Y687D01*
X2689Y687D02*
X2696Y687D01*
X0Y686D02*
X7Y686D01*
X261Y686D02*
X268Y686D01*
X1908Y686D02*
X1911Y686D01*
X2110Y686D02*
X2114Y686D01*
X2153Y686D02*
X2160Y686D01*
X2689Y686D02*
X2696Y686D01*
X0Y685D02*
X7Y685D01*
X261Y685D02*
X268Y685D01*
X1907Y685D02*
X1910Y685D01*
X2111Y685D02*
X2114Y685D01*
X2153Y685D02*
X2160Y685D01*
X2689Y685D02*
X2696Y685D01*
X0Y684D02*
X7Y684D01*
X261Y684D02*
X268Y684D01*
X1906Y684D02*
X1910Y684D01*
X2111Y684D02*
X2115Y684D01*
X2153Y684D02*
X2160Y684D01*
X2689Y684D02*
X2696Y684D01*
X0Y683D02*
X7Y683D01*
X261Y683D02*
X268Y683D01*
X859Y683D02*
X862Y683D01*
X1906Y683D02*
X1909Y683D01*
X2112Y683D02*
X2116Y683D01*
X2153Y683D02*
X2160Y683D01*
X2689Y683D02*
X2696Y683D01*
X0Y682D02*
X7Y682D01*
X261Y682D02*
X268Y682D01*
X850Y682D02*
X872Y682D01*
X1905Y682D02*
X1908Y682D01*
X2113Y682D02*
X2116Y682D01*
X2153Y682D02*
X2160Y682D01*
X2689Y682D02*
X2696Y682D01*
X0Y681D02*
X7Y681D01*
X261Y681D02*
X268Y681D01*
X845Y681D02*
X876Y681D01*
X1904Y681D02*
X1908Y681D01*
X2113Y681D02*
X2117Y681D01*
X2153Y681D02*
X2160Y681D01*
X2689Y681D02*
X2696Y681D01*
X0Y680D02*
X7Y680D01*
X261Y680D02*
X268Y680D01*
X841Y680D02*
X880Y680D01*
X1904Y680D02*
X1907Y680D01*
X2114Y680D02*
X2117Y680D01*
X2153Y680D02*
X2160Y680D01*
X2689Y680D02*
X2696Y680D01*
X0Y679D02*
X7Y679D01*
X261Y679D02*
X268Y679D01*
X839Y679D02*
X883Y679D01*
X1903Y679D02*
X1907Y679D01*
X2115Y679D02*
X2118Y679D01*
X2153Y679D02*
X2160Y679D01*
X2689Y679D02*
X2696Y679D01*
X0Y678D02*
X7Y678D01*
X261Y678D02*
X268Y678D01*
X836Y678D02*
X885Y678D01*
X1903Y678D02*
X1906Y678D01*
X2115Y678D02*
X2119Y678D01*
X2153Y678D02*
X2160Y678D01*
X2689Y678D02*
X2696Y678D01*
X0Y677D02*
X7Y677D01*
X261Y677D02*
X268Y677D01*
X834Y677D02*
X887Y677D01*
X1902Y677D02*
X1906Y677D01*
X2116Y677D02*
X2119Y677D01*
X2153Y677D02*
X2160Y677D01*
X2689Y677D02*
X2696Y677D01*
X0Y676D02*
X7Y676D01*
X261Y676D02*
X268Y676D01*
X832Y676D02*
X889Y676D01*
X1902Y676D02*
X1905Y676D01*
X2116Y676D02*
X2120Y676D01*
X2153Y676D02*
X2160Y676D01*
X2689Y676D02*
X2696Y676D01*
X0Y675D02*
X7Y675D01*
X261Y675D02*
X268Y675D01*
X830Y675D02*
X858Y675D01*
X863Y675D02*
X891Y675D01*
X1901Y675D02*
X1904Y675D01*
X2117Y675D02*
X2120Y675D01*
X2153Y675D02*
X2160Y675D01*
X2689Y675D02*
X2696Y675D01*
X0Y674D02*
X7Y674D01*
X261Y674D02*
X268Y674D01*
X828Y674D02*
X849Y674D01*
X873Y674D02*
X893Y674D01*
X1901Y674D02*
X1904Y674D01*
X2117Y674D02*
X2121Y674D01*
X2153Y674D02*
X2160Y674D01*
X2689Y674D02*
X2696Y674D01*
X0Y673D02*
X7Y673D01*
X261Y673D02*
X268Y673D01*
X827Y673D02*
X845Y673D01*
X877Y673D02*
X895Y673D01*
X1900Y673D02*
X1903Y673D01*
X2118Y673D02*
X2121Y673D01*
X2153Y673D02*
X2160Y673D01*
X2689Y673D02*
X2696Y673D01*
X0Y672D02*
X7Y672D01*
X261Y672D02*
X268Y672D01*
X825Y672D02*
X841Y672D01*
X880Y672D02*
X896Y672D01*
X1900Y672D02*
X1903Y672D01*
X2118Y672D02*
X2122Y672D01*
X2153Y672D02*
X2160Y672D01*
X2689Y672D02*
X2696Y672D01*
X0Y671D02*
X7Y671D01*
X261Y671D02*
X268Y671D01*
X823Y671D02*
X839Y671D01*
X883Y671D02*
X898Y671D01*
X1899Y671D02*
X1902Y671D01*
X2119Y671D02*
X2122Y671D01*
X2153Y671D02*
X2160Y671D01*
X2689Y671D02*
X2696Y671D01*
X0Y670D02*
X7Y670D01*
X261Y670D02*
X268Y670D01*
X822Y670D02*
X836Y670D01*
X885Y670D02*
X899Y670D01*
X1899Y670D02*
X1902Y670D01*
X2119Y670D02*
X2123Y670D01*
X2153Y670D02*
X2160Y670D01*
X2689Y670D02*
X2696Y670D01*
X0Y669D02*
X7Y669D01*
X261Y669D02*
X268Y669D01*
X821Y669D02*
X834Y669D01*
X887Y669D02*
X900Y669D01*
X1898Y669D02*
X1901Y669D01*
X2120Y669D02*
X2123Y669D01*
X2153Y669D02*
X2160Y669D01*
X2689Y669D02*
X2696Y669D01*
X0Y668D02*
X7Y668D01*
X261Y668D02*
X268Y668D01*
X820Y668D02*
X832Y668D01*
X889Y668D02*
X902Y668D01*
X1898Y668D02*
X1901Y668D01*
X2120Y668D02*
X2124Y668D01*
X2153Y668D02*
X2160Y668D01*
X2689Y668D02*
X2696Y668D01*
X0Y667D02*
X7Y667D01*
X261Y667D02*
X268Y667D01*
X818Y667D02*
X831Y667D01*
X890Y667D02*
X903Y667D01*
X1897Y667D02*
X1901Y667D01*
X2121Y667D02*
X2124Y667D01*
X2153Y667D02*
X2160Y667D01*
X2689Y667D02*
X2696Y667D01*
X0Y666D02*
X7Y666D01*
X261Y666D02*
X268Y666D01*
X817Y666D02*
X829Y666D01*
X892Y666D02*
X904Y666D01*
X1897Y666D02*
X1900Y666D01*
X2121Y666D02*
X2124Y666D01*
X2153Y666D02*
X2160Y666D01*
X2689Y666D02*
X2696Y666D01*
X0Y665D02*
X7Y665D01*
X261Y665D02*
X268Y665D01*
X816Y665D02*
X828Y665D01*
X894Y665D02*
X905Y665D01*
X1896Y665D02*
X1900Y665D01*
X2122Y665D02*
X2125Y665D01*
X2153Y665D02*
X2160Y665D01*
X2689Y665D02*
X2696Y665D01*
X0Y664D02*
X7Y664D01*
X261Y664D02*
X268Y664D01*
X815Y664D02*
X826Y664D01*
X895Y664D02*
X906Y664D01*
X1896Y664D02*
X1899Y664D01*
X2122Y664D02*
X2125Y664D01*
X2153Y664D02*
X2160Y664D01*
X2689Y664D02*
X2696Y664D01*
X0Y663D02*
X7Y663D01*
X261Y663D02*
X268Y663D01*
X814Y663D02*
X825Y663D01*
X896Y663D02*
X907Y663D01*
X1896Y663D02*
X1899Y663D01*
X2122Y663D02*
X2126Y663D01*
X2153Y663D02*
X2160Y663D01*
X2689Y663D02*
X2696Y663D01*
X0Y662D02*
X7Y662D01*
X261Y662D02*
X268Y662D01*
X813Y662D02*
X824Y662D01*
X898Y662D02*
X908Y662D01*
X1895Y662D02*
X1898Y662D01*
X2123Y662D02*
X2126Y662D01*
X2153Y662D02*
X2160Y662D01*
X2689Y662D02*
X2696Y662D01*
X0Y661D02*
X7Y661D01*
X261Y661D02*
X268Y661D01*
X812Y661D02*
X823Y661D01*
X899Y661D02*
X909Y661D01*
X1895Y661D02*
X1898Y661D01*
X2123Y661D02*
X2126Y661D01*
X2153Y661D02*
X2160Y661D01*
X2689Y661D02*
X2696Y661D01*
X0Y660D02*
X7Y660D01*
X261Y660D02*
X268Y660D01*
X811Y660D02*
X822Y660D01*
X900Y660D02*
X910Y660D01*
X1895Y660D02*
X1898Y660D01*
X2124Y660D02*
X2127Y660D01*
X2153Y660D02*
X2160Y660D01*
X2689Y660D02*
X2696Y660D01*
X0Y659D02*
X7Y659D01*
X261Y659D02*
X268Y659D01*
X811Y659D02*
X820Y659D01*
X901Y659D02*
X911Y659D01*
X1894Y659D02*
X1897Y659D01*
X2124Y659D02*
X2127Y659D01*
X2153Y659D02*
X2160Y659D01*
X2689Y659D02*
X2696Y659D01*
X0Y658D02*
X7Y658D01*
X261Y658D02*
X268Y658D01*
X810Y658D02*
X819Y658D01*
X902Y658D02*
X911Y658D01*
X1894Y658D02*
X1897Y658D01*
X2124Y658D02*
X2127Y658D01*
X2153Y658D02*
X2160Y658D01*
X2689Y658D02*
X2696Y658D01*
X0Y657D02*
X7Y657D01*
X261Y657D02*
X268Y657D01*
X809Y657D02*
X819Y657D01*
X903Y657D02*
X912Y657D01*
X1893Y657D02*
X1897Y657D01*
X2125Y657D02*
X2128Y657D01*
X2153Y657D02*
X2160Y657D01*
X2689Y657D02*
X2696Y657D01*
X0Y656D02*
X7Y656D01*
X261Y656D02*
X268Y656D01*
X808Y656D02*
X818Y656D01*
X904Y656D02*
X913Y656D01*
X1893Y656D02*
X1896Y656D01*
X2125Y656D02*
X2128Y656D01*
X2153Y656D02*
X2160Y656D01*
X2689Y656D02*
X2696Y656D01*
X0Y655D02*
X7Y655D01*
X261Y655D02*
X268Y655D01*
X808Y655D02*
X817Y655D01*
X905Y655D02*
X914Y655D01*
X1893Y655D02*
X1896Y655D01*
X2125Y655D02*
X2128Y655D01*
X2153Y655D02*
X2160Y655D01*
X2689Y655D02*
X2696Y655D01*
X0Y654D02*
X7Y654D01*
X261Y654D02*
X268Y654D01*
X807Y654D02*
X816Y654D01*
X905Y654D02*
X914Y654D01*
X1893Y654D02*
X1896Y654D01*
X2126Y654D02*
X2129Y654D01*
X2153Y654D02*
X2160Y654D01*
X2689Y654D02*
X2696Y654D01*
X0Y653D02*
X7Y653D01*
X261Y653D02*
X268Y653D01*
X806Y653D02*
X815Y653D01*
X906Y653D02*
X915Y653D01*
X1892Y653D02*
X1895Y653D01*
X2126Y653D02*
X2129Y653D01*
X2153Y653D02*
X2160Y653D01*
X2689Y653D02*
X2696Y653D01*
X0Y652D02*
X7Y652D01*
X261Y652D02*
X268Y652D01*
X806Y652D02*
X814Y652D01*
X907Y652D02*
X915Y652D01*
X1892Y652D02*
X1895Y652D01*
X2126Y652D02*
X2129Y652D01*
X2153Y652D02*
X2160Y652D01*
X2689Y652D02*
X2696Y652D01*
X0Y651D02*
X7Y651D01*
X261Y651D02*
X268Y651D01*
X805Y651D02*
X814Y651D01*
X908Y651D02*
X916Y651D01*
X1892Y651D02*
X1895Y651D01*
X2127Y651D02*
X2130Y651D01*
X2153Y651D02*
X2160Y651D01*
X2689Y651D02*
X2696Y651D01*
X0Y650D02*
X7Y650D01*
X261Y650D02*
X268Y650D01*
X805Y650D02*
X813Y650D01*
X908Y650D02*
X917Y650D01*
X1891Y650D02*
X1894Y650D01*
X2127Y650D02*
X2130Y650D01*
X2153Y650D02*
X2160Y650D01*
X2689Y650D02*
X2696Y650D01*
X0Y649D02*
X7Y649D01*
X261Y649D02*
X268Y649D01*
X804Y649D02*
X812Y649D01*
X909Y649D02*
X917Y649D01*
X1891Y649D02*
X1894Y649D01*
X2127Y649D02*
X2130Y649D01*
X2153Y649D02*
X2160Y649D01*
X2689Y649D02*
X2696Y649D01*
X0Y648D02*
X7Y648D01*
X261Y648D02*
X268Y648D01*
X804Y648D02*
X812Y648D01*
X910Y648D02*
X918Y648D01*
X1891Y648D02*
X1894Y648D01*
X2127Y648D02*
X2130Y648D01*
X2153Y648D02*
X2160Y648D01*
X2689Y648D02*
X2696Y648D01*
X0Y647D02*
X7Y647D01*
X261Y647D02*
X268Y647D01*
X803Y647D02*
X811Y647D01*
X910Y647D02*
X918Y647D01*
X1891Y647D02*
X1894Y647D01*
X2128Y647D02*
X2131Y647D01*
X2153Y647D02*
X2160Y647D01*
X2689Y647D02*
X2696Y647D01*
X0Y646D02*
X7Y646D01*
X261Y646D02*
X268Y646D01*
X803Y646D02*
X810Y646D01*
X911Y646D02*
X919Y646D01*
X1890Y646D02*
X1893Y646D01*
X2128Y646D02*
X2131Y646D01*
X2153Y646D02*
X2160Y646D01*
X2689Y646D02*
X2696Y646D01*
X0Y645D02*
X7Y645D01*
X261Y645D02*
X268Y645D01*
X802Y645D02*
X810Y645D01*
X911Y645D02*
X919Y645D01*
X1890Y645D02*
X1893Y645D01*
X2128Y645D02*
X2131Y645D01*
X2153Y645D02*
X2160Y645D01*
X2689Y645D02*
X2696Y645D01*
X0Y644D02*
X7Y644D01*
X261Y644D02*
X268Y644D01*
X802Y644D02*
X809Y644D01*
X912Y644D02*
X920Y644D01*
X1890Y644D02*
X1893Y644D01*
X2128Y644D02*
X2131Y644D01*
X2153Y644D02*
X2160Y644D01*
X2689Y644D02*
X2696Y644D01*
X0Y643D02*
X7Y643D01*
X261Y643D02*
X268Y643D01*
X801Y643D02*
X809Y643D01*
X912Y643D02*
X920Y643D01*
X1890Y643D02*
X1893Y643D01*
X2128Y643D02*
X2132Y643D01*
X2153Y643D02*
X2160Y643D01*
X2689Y643D02*
X2696Y643D01*
X0Y642D02*
X7Y642D01*
X261Y642D02*
X268Y642D01*
X801Y642D02*
X808Y642D01*
X913Y642D02*
X920Y642D01*
X1890Y642D02*
X1893Y642D01*
X2129Y642D02*
X2132Y642D01*
X2153Y642D02*
X2160Y642D01*
X2689Y642D02*
X2696Y642D01*
X0Y641D02*
X7Y641D01*
X261Y641D02*
X268Y641D01*
X800Y641D02*
X808Y641D01*
X913Y641D02*
X921Y641D01*
X1889Y641D02*
X1892Y641D01*
X2129Y641D02*
X2132Y641D01*
X2153Y641D02*
X2160Y641D01*
X2689Y641D02*
X2696Y641D01*
X0Y640D02*
X7Y640D01*
X261Y640D02*
X268Y640D01*
X800Y640D02*
X807Y640D01*
X914Y640D02*
X921Y640D01*
X1889Y640D02*
X1892Y640D01*
X2129Y640D02*
X2132Y640D01*
X2153Y640D02*
X2160Y640D01*
X2689Y640D02*
X2696Y640D01*
X0Y639D02*
X7Y639D01*
X261Y639D02*
X268Y639D01*
X800Y639D02*
X807Y639D01*
X914Y639D02*
X922Y639D01*
X1889Y639D02*
X1892Y639D01*
X2129Y639D02*
X2132Y639D01*
X2153Y639D02*
X2160Y639D01*
X2689Y639D02*
X2696Y639D01*
X0Y638D02*
X7Y638D01*
X261Y638D02*
X268Y638D01*
X799Y638D02*
X807Y638D01*
X915Y638D02*
X922Y638D01*
X1889Y638D02*
X1892Y638D01*
X2130Y638D02*
X2133Y638D01*
X2153Y638D02*
X2160Y638D01*
X2689Y638D02*
X2696Y638D01*
X0Y637D02*
X7Y637D01*
X261Y637D02*
X268Y637D01*
X799Y637D02*
X806Y637D01*
X915Y637D02*
X922Y637D01*
X1889Y637D02*
X1892Y637D01*
X2130Y637D02*
X2133Y637D01*
X2153Y637D02*
X2160Y637D01*
X2689Y637D02*
X2696Y637D01*
X0Y636D02*
X7Y636D01*
X261Y636D02*
X268Y636D01*
X799Y636D02*
X806Y636D01*
X915Y636D02*
X923Y636D01*
X1888Y636D02*
X1891Y636D01*
X2130Y636D02*
X2133Y636D01*
X2153Y636D02*
X2160Y636D01*
X2689Y636D02*
X2696Y636D01*
X0Y635D02*
X7Y635D01*
X261Y635D02*
X268Y635D01*
X798Y635D02*
X806Y635D01*
X916Y635D02*
X923Y635D01*
X1888Y635D02*
X1891Y635D01*
X2130Y635D02*
X2133Y635D01*
X2153Y635D02*
X2160Y635D01*
X2689Y635D02*
X2696Y635D01*
X0Y634D02*
X7Y634D01*
X261Y634D02*
X268Y634D01*
X798Y634D02*
X805Y634D01*
X916Y634D02*
X923Y634D01*
X1888Y634D02*
X1891Y634D01*
X2130Y634D02*
X2133Y634D01*
X2153Y634D02*
X2160Y634D01*
X2689Y634D02*
X2696Y634D01*
X0Y633D02*
X7Y633D01*
X261Y633D02*
X268Y633D01*
X798Y633D02*
X805Y633D01*
X916Y633D02*
X923Y633D01*
X1888Y633D02*
X1891Y633D01*
X2130Y633D02*
X2133Y633D01*
X2153Y633D02*
X2160Y633D01*
X2689Y633D02*
X2696Y633D01*
X0Y632D02*
X7Y632D01*
X261Y632D02*
X268Y632D01*
X798Y632D02*
X805Y632D01*
X916Y632D02*
X924Y632D01*
X1888Y632D02*
X1891Y632D01*
X2130Y632D02*
X2133Y632D01*
X2153Y632D02*
X2160Y632D01*
X2689Y632D02*
X2696Y632D01*
X0Y631D02*
X7Y631D01*
X261Y631D02*
X268Y631D01*
X797Y631D02*
X805Y631D01*
X917Y631D02*
X924Y631D01*
X1888Y631D02*
X1891Y631D01*
X2130Y631D02*
X2133Y631D01*
X2153Y631D02*
X2160Y631D01*
X2689Y631D02*
X2696Y631D01*
X0Y630D02*
X7Y630D01*
X261Y630D02*
X268Y630D01*
X797Y630D02*
X804Y630D01*
X917Y630D02*
X924Y630D01*
X1888Y630D02*
X1891Y630D01*
X2131Y630D02*
X2134Y630D01*
X2153Y630D02*
X2160Y630D01*
X2689Y630D02*
X2696Y630D01*
X0Y629D02*
X7Y629D01*
X261Y629D02*
X268Y629D01*
X797Y629D02*
X804Y629D01*
X917Y629D02*
X924Y629D01*
X1888Y629D02*
X1891Y629D01*
X2131Y629D02*
X2134Y629D01*
X2153Y629D02*
X2160Y629D01*
X2689Y629D02*
X2696Y629D01*
X0Y628D02*
X7Y628D01*
X261Y628D02*
X268Y628D01*
X797Y628D02*
X804Y628D01*
X917Y628D02*
X924Y628D01*
X1888Y628D02*
X1891Y628D01*
X2131Y628D02*
X2134Y628D01*
X2153Y628D02*
X2160Y628D01*
X2689Y628D02*
X2696Y628D01*
X0Y627D02*
X7Y627D01*
X261Y627D02*
X268Y627D01*
X797Y627D02*
X804Y627D01*
X917Y627D02*
X924Y627D01*
X1887Y627D02*
X1890Y627D01*
X2131Y627D02*
X2134Y627D01*
X2153Y627D02*
X2160Y627D01*
X2689Y627D02*
X2696Y627D01*
X0Y626D02*
X7Y626D01*
X261Y626D02*
X268Y626D01*
X797Y626D02*
X804Y626D01*
X918Y626D02*
X925Y626D01*
X1887Y626D02*
X1890Y626D01*
X2131Y626D02*
X2134Y626D01*
X2153Y626D02*
X2160Y626D01*
X2689Y626D02*
X2696Y626D01*
X0Y625D02*
X7Y625D01*
X261Y625D02*
X268Y625D01*
X797Y625D02*
X804Y625D01*
X918Y625D02*
X925Y625D01*
X1887Y625D02*
X1890Y625D01*
X2131Y625D02*
X2134Y625D01*
X2153Y625D02*
X2160Y625D01*
X2689Y625D02*
X2696Y625D01*
X0Y624D02*
X7Y624D01*
X261Y624D02*
X268Y624D01*
X796Y624D02*
X803Y624D01*
X918Y624D02*
X925Y624D01*
X1887Y624D02*
X1890Y624D01*
X2131Y624D02*
X2134Y624D01*
X2153Y624D02*
X2160Y624D01*
X2689Y624D02*
X2696Y624D01*
X0Y623D02*
X7Y623D01*
X261Y623D02*
X268Y623D01*
X796Y623D02*
X803Y623D01*
X918Y623D02*
X925Y623D01*
X1887Y623D02*
X1890Y623D01*
X2131Y623D02*
X2134Y623D01*
X2153Y623D02*
X2160Y623D01*
X2689Y623D02*
X2696Y623D01*
X0Y622D02*
X7Y622D01*
X261Y622D02*
X268Y622D01*
X796Y622D02*
X803Y622D01*
X918Y622D02*
X925Y622D01*
X1887Y622D02*
X1890Y622D01*
X2131Y622D02*
X2134Y622D01*
X2153Y622D02*
X2160Y622D01*
X2689Y622D02*
X2696Y622D01*
X0Y621D02*
X7Y621D01*
X261Y621D02*
X268Y621D01*
X796Y621D02*
X803Y621D01*
X918Y621D02*
X925Y621D01*
X1887Y621D02*
X1890Y621D01*
X2131Y621D02*
X2134Y621D01*
X2153Y621D02*
X2160Y621D01*
X2689Y621D02*
X2696Y621D01*
X0Y620D02*
X7Y620D01*
X261Y620D02*
X268Y620D01*
X796Y620D02*
X803Y620D01*
X918Y620D02*
X925Y620D01*
X1887Y620D02*
X1890Y620D01*
X2131Y620D02*
X2134Y620D01*
X2153Y620D02*
X2160Y620D01*
X2689Y620D02*
X2696Y620D01*
X0Y619D02*
X7Y619D01*
X261Y619D02*
X268Y619D01*
X796Y619D02*
X803Y619D01*
X918Y619D02*
X925Y619D01*
X1887Y619D02*
X1890Y619D01*
X2131Y619D02*
X2134Y619D01*
X2153Y619D02*
X2160Y619D01*
X2689Y619D02*
X2696Y619D01*
X0Y618D02*
X7Y618D01*
X261Y618D02*
X268Y618D01*
X796Y618D02*
X803Y618D01*
X918Y618D02*
X925Y618D01*
X1887Y618D02*
X1890Y618D01*
X2131Y618D02*
X2134Y618D01*
X2153Y618D02*
X2160Y618D01*
X2689Y618D02*
X2696Y618D01*
X0Y617D02*
X7Y617D01*
X261Y617D02*
X268Y617D01*
X796Y617D02*
X803Y617D01*
X918Y617D02*
X925Y617D01*
X1887Y617D02*
X1890Y617D01*
X2131Y617D02*
X2134Y617D01*
X2153Y617D02*
X2160Y617D01*
X2689Y617D02*
X2696Y617D01*
X0Y616D02*
X7Y616D01*
X261Y616D02*
X268Y616D01*
X796Y616D02*
X803Y616D01*
X918Y616D02*
X925Y616D01*
X1887Y616D02*
X1890Y616D01*
X2131Y616D02*
X2134Y616D01*
X2153Y616D02*
X2160Y616D01*
X2689Y616D02*
X2696Y616D01*
X0Y615D02*
X7Y615D01*
X261Y615D02*
X268Y615D01*
X796Y615D02*
X803Y615D01*
X918Y615D02*
X925Y615D01*
X1887Y615D02*
X1890Y615D01*
X2131Y615D02*
X2134Y615D01*
X2153Y615D02*
X2160Y615D01*
X2689Y615D02*
X2696Y615D01*
X0Y614D02*
X7Y614D01*
X261Y614D02*
X268Y614D01*
X796Y614D02*
X803Y614D01*
X918Y614D02*
X925Y614D01*
X1887Y614D02*
X1890Y614D01*
X2131Y614D02*
X2134Y614D01*
X2153Y614D02*
X2160Y614D01*
X2689Y614D02*
X2696Y614D01*
X0Y613D02*
X7Y613D01*
X261Y613D02*
X268Y613D01*
X796Y613D02*
X803Y613D01*
X918Y613D02*
X925Y613D01*
X1887Y613D02*
X1890Y613D01*
X2131Y613D02*
X2134Y613D01*
X2153Y613D02*
X2160Y613D01*
X2689Y613D02*
X2696Y613D01*
X0Y612D02*
X7Y612D01*
X261Y612D02*
X268Y612D01*
X796Y612D02*
X803Y612D01*
X918Y612D02*
X925Y612D01*
X1887Y612D02*
X1890Y612D01*
X2131Y612D02*
X2134Y612D01*
X2153Y612D02*
X2160Y612D01*
X2689Y612D02*
X2696Y612D01*
X0Y611D02*
X7Y611D01*
X261Y611D02*
X268Y611D01*
X797Y611D02*
X804Y611D01*
X918Y611D02*
X925Y611D01*
X1887Y611D02*
X1890Y611D01*
X2131Y611D02*
X2134Y611D01*
X2153Y611D02*
X2160Y611D01*
X2689Y611D02*
X2696Y611D01*
X0Y610D02*
X7Y610D01*
X261Y610D02*
X268Y610D01*
X797Y610D02*
X804Y610D01*
X918Y610D02*
X925Y610D01*
X1887Y610D02*
X1890Y610D01*
X2131Y610D02*
X2134Y610D01*
X2153Y610D02*
X2160Y610D01*
X2689Y610D02*
X2696Y610D01*
X0Y609D02*
X7Y609D01*
X261Y609D02*
X268Y609D01*
X797Y609D02*
X804Y609D01*
X917Y609D02*
X924Y609D01*
X1887Y609D02*
X1890Y609D01*
X2131Y609D02*
X2134Y609D01*
X2153Y609D02*
X2160Y609D01*
X2689Y609D02*
X2696Y609D01*
X0Y608D02*
X7Y608D01*
X261Y608D02*
X268Y608D01*
X797Y608D02*
X804Y608D01*
X917Y608D02*
X924Y608D01*
X1888Y608D02*
X1891Y608D01*
X2131Y608D02*
X2134Y608D01*
X2153Y608D02*
X2160Y608D01*
X2689Y608D02*
X2696Y608D01*
X0Y607D02*
X7Y607D01*
X261Y607D02*
X268Y607D01*
X797Y607D02*
X804Y607D01*
X917Y607D02*
X924Y607D01*
X1888Y607D02*
X1891Y607D01*
X2131Y607D02*
X2134Y607D01*
X2153Y607D02*
X2160Y607D01*
X2689Y607D02*
X2696Y607D01*
X0Y606D02*
X7Y606D01*
X261Y606D02*
X268Y606D01*
X797Y606D02*
X804Y606D01*
X917Y606D02*
X924Y606D01*
X1888Y606D02*
X1891Y606D01*
X2130Y606D02*
X2133Y606D01*
X2153Y606D02*
X2160Y606D01*
X2689Y606D02*
X2696Y606D01*
X0Y605D02*
X7Y605D01*
X261Y605D02*
X268Y605D01*
X798Y605D02*
X805Y605D01*
X917Y605D02*
X924Y605D01*
X1888Y605D02*
X1891Y605D01*
X2130Y605D02*
X2133Y605D01*
X2153Y605D02*
X2160Y605D01*
X2689Y605D02*
X2696Y605D01*
X0Y604D02*
X7Y604D01*
X261Y604D02*
X268Y604D01*
X798Y604D02*
X805Y604D01*
X916Y604D02*
X924Y604D01*
X1888Y604D02*
X1891Y604D01*
X2130Y604D02*
X2133Y604D01*
X2153Y604D02*
X2160Y604D01*
X2689Y604D02*
X2696Y604D01*
X0Y603D02*
X7Y603D01*
X261Y603D02*
X268Y603D01*
X798Y603D02*
X805Y603D01*
X916Y603D02*
X923Y603D01*
X1888Y603D02*
X1891Y603D01*
X2130Y603D02*
X2133Y603D01*
X2153Y603D02*
X2160Y603D01*
X2689Y603D02*
X2696Y603D01*
X0Y602D02*
X7Y602D01*
X261Y602D02*
X268Y602D01*
X798Y602D02*
X805Y602D01*
X916Y602D02*
X923Y602D01*
X1888Y602D02*
X1891Y602D01*
X2130Y602D02*
X2133Y602D01*
X2153Y602D02*
X2160Y602D01*
X2689Y602D02*
X2696Y602D01*
X0Y601D02*
X7Y601D01*
X261Y601D02*
X268Y601D01*
X799Y601D02*
X806Y601D01*
X916Y601D02*
X923Y601D01*
X1888Y601D02*
X1891Y601D01*
X2130Y601D02*
X2133Y601D01*
X2153Y601D02*
X2160Y601D01*
X2689Y601D02*
X2696Y601D01*
X0Y600D02*
X7Y600D01*
X261Y600D02*
X268Y600D01*
X799Y600D02*
X806Y600D01*
X915Y600D02*
X922Y600D01*
X1889Y600D02*
X1892Y600D01*
X2130Y600D02*
X2133Y600D01*
X2153Y600D02*
X2160Y600D01*
X2689Y600D02*
X2696Y600D01*
X0Y599D02*
X7Y599D01*
X261Y599D02*
X268Y599D01*
X799Y599D02*
X806Y599D01*
X915Y599D02*
X922Y599D01*
X1889Y599D02*
X1892Y599D01*
X2130Y599D02*
X2133Y599D01*
X2153Y599D02*
X2160Y599D01*
X2689Y599D02*
X2696Y599D01*
X0Y598D02*
X7Y598D01*
X261Y598D02*
X268Y598D01*
X799Y598D02*
X807Y598D01*
X914Y598D02*
X922Y598D01*
X1889Y598D02*
X1892Y598D01*
X2129Y598D02*
X2132Y598D01*
X2153Y598D02*
X2160Y598D01*
X2689Y598D02*
X2696Y598D01*
X0Y597D02*
X7Y597D01*
X261Y597D02*
X268Y597D01*
X800Y597D02*
X807Y597D01*
X914Y597D02*
X921Y597D01*
X1889Y597D02*
X1892Y597D01*
X2129Y597D02*
X2132Y597D01*
X2153Y597D02*
X2160Y597D01*
X2689Y597D02*
X2696Y597D01*
X0Y596D02*
X7Y596D01*
X261Y596D02*
X268Y596D01*
X577Y596D02*
X577Y596D01*
X748Y596D02*
X749Y596D01*
X800Y596D02*
X808Y596D01*
X914Y596D02*
X921Y596D01*
X1889Y596D02*
X1892Y596D01*
X2129Y596D02*
X2132Y596D01*
X2153Y596D02*
X2160Y596D01*
X2689Y596D02*
X2696Y596D01*
X0Y595D02*
X7Y595D01*
X261Y595D02*
X268Y595D01*
X576Y595D02*
X578Y595D01*
X748Y595D02*
X751Y595D01*
X801Y595D02*
X808Y595D01*
X913Y595D02*
X921Y595D01*
X1889Y595D02*
X1892Y595D01*
X2129Y595D02*
X2132Y595D01*
X2153Y595D02*
X2160Y595D01*
X2689Y595D02*
X2696Y595D01*
X0Y594D02*
X7Y594D01*
X261Y594D02*
X268Y594D01*
X575Y594D02*
X579Y594D01*
X747Y594D02*
X752Y594D01*
X801Y594D02*
X809Y594D01*
X913Y594D02*
X920Y594D01*
X1890Y594D02*
X1893Y594D01*
X2129Y594D02*
X2132Y594D01*
X2153Y594D02*
X2160Y594D01*
X2689Y594D02*
X2696Y594D01*
X0Y593D02*
X7Y593D01*
X261Y593D02*
X268Y593D01*
X574Y593D02*
X580Y593D01*
X746Y593D02*
X753Y593D01*
X801Y593D02*
X809Y593D01*
X912Y593D02*
X920Y593D01*
X1890Y593D02*
X1893Y593D01*
X2128Y593D02*
X2131Y593D01*
X2153Y593D02*
X2160Y593D01*
X2689Y593D02*
X2696Y593D01*
X0Y592D02*
X7Y592D01*
X261Y592D02*
X268Y592D01*
X573Y592D02*
X581Y592D01*
X745Y592D02*
X754Y592D01*
X802Y592D02*
X809Y592D01*
X912Y592D02*
X920Y592D01*
X1890Y592D02*
X1893Y592D01*
X2128Y592D02*
X2131Y592D01*
X2153Y592D02*
X2160Y592D01*
X2689Y592D02*
X2696Y592D01*
X0Y591D02*
X7Y591D01*
X261Y591D02*
X268Y591D01*
X573Y591D02*
X582Y591D01*
X744Y591D02*
X755Y591D01*
X802Y591D02*
X810Y591D01*
X911Y591D02*
X919Y591D01*
X1890Y591D02*
X1893Y591D01*
X2128Y591D02*
X2131Y591D01*
X2153Y591D02*
X2160Y591D01*
X2689Y591D02*
X2696Y591D01*
X0Y590D02*
X7Y590D01*
X261Y590D02*
X268Y590D01*
X572Y590D02*
X583Y590D01*
X744Y590D02*
X756Y590D01*
X803Y590D02*
X811Y590D01*
X911Y590D02*
X919Y590D01*
X1890Y590D02*
X1893Y590D01*
X2128Y590D02*
X2131Y590D01*
X2153Y590D02*
X2160Y590D01*
X2689Y590D02*
X2696Y590D01*
X0Y589D02*
X7Y589D01*
X261Y589D02*
X268Y589D01*
X571Y589D02*
X583Y589D01*
X743Y589D02*
X757Y589D01*
X803Y589D02*
X811Y589D01*
X910Y589D02*
X918Y589D01*
X1891Y589D02*
X1894Y589D01*
X2128Y589D02*
X2131Y589D01*
X2153Y589D02*
X2160Y589D01*
X2689Y589D02*
X2696Y589D01*
X0Y588D02*
X7Y588D01*
X261Y588D02*
X268Y588D01*
X570Y588D02*
X582Y588D01*
X744Y588D02*
X757Y588D01*
X804Y588D02*
X812Y588D01*
X910Y588D02*
X918Y588D01*
X1891Y588D02*
X1894Y588D01*
X2127Y588D02*
X2130Y588D01*
X2153Y588D02*
X2160Y588D01*
X2689Y588D02*
X2696Y588D01*
X0Y587D02*
X7Y587D01*
X261Y587D02*
X268Y587D01*
X570Y587D02*
X581Y587D01*
X746Y587D02*
X758Y587D01*
X804Y587D02*
X812Y587D01*
X909Y587D02*
X917Y587D01*
X1891Y587D02*
X1894Y587D01*
X2127Y587D02*
X2130Y587D01*
X2153Y587D02*
X2160Y587D01*
X2689Y587D02*
X2696Y587D01*
X0Y586D02*
X7Y586D01*
X261Y586D02*
X268Y586D01*
X569Y586D02*
X580Y586D01*
X747Y586D02*
X759Y586D01*
X805Y586D02*
X813Y586D01*
X908Y586D02*
X917Y586D01*
X1891Y586D02*
X1895Y586D01*
X2127Y586D02*
X2130Y586D01*
X2153Y586D02*
X2160Y586D01*
X2689Y586D02*
X2696Y586D01*
X0Y585D02*
X7Y585D01*
X261Y585D02*
X268Y585D01*
X568Y585D02*
X579Y585D01*
X748Y585D02*
X760Y585D01*
X805Y585D02*
X814Y585D01*
X907Y585D02*
X916Y585D01*
X1892Y585D02*
X1895Y585D01*
X2126Y585D02*
X2130Y585D01*
X2153Y585D02*
X2160Y585D01*
X2689Y585D02*
X2696Y585D01*
X0Y584D02*
X7Y584D01*
X261Y584D02*
X268Y584D01*
X567Y584D02*
X579Y584D01*
X749Y584D02*
X761Y584D01*
X806Y584D02*
X815Y584D01*
X907Y584D02*
X915Y584D01*
X1892Y584D02*
X1895Y584D01*
X2126Y584D02*
X2129Y584D01*
X2153Y584D02*
X2160Y584D01*
X2689Y584D02*
X2696Y584D01*
X0Y583D02*
X7Y583D01*
X261Y583D02*
X268Y583D01*
X567Y583D02*
X578Y583D01*
X750Y583D02*
X761Y583D01*
X807Y583D02*
X815Y583D01*
X906Y583D02*
X915Y583D01*
X1892Y583D02*
X1895Y583D01*
X2126Y583D02*
X2129Y583D01*
X2153Y583D02*
X2160Y583D01*
X2689Y583D02*
X2696Y583D01*
X0Y582D02*
X7Y582D01*
X261Y582D02*
X268Y582D01*
X566Y582D02*
X577Y582D01*
X751Y582D02*
X762Y582D01*
X807Y582D02*
X816Y582D01*
X905Y582D02*
X914Y582D01*
X1893Y582D02*
X1896Y582D01*
X2126Y582D02*
X2129Y582D01*
X2153Y582D02*
X2160Y582D01*
X2689Y582D02*
X2696Y582D01*
X0Y581D02*
X7Y581D01*
X261Y581D02*
X268Y581D01*
X566Y581D02*
X576Y581D01*
X751Y581D02*
X763Y581D01*
X808Y581D02*
X817Y581D01*
X904Y581D02*
X913Y581D01*
X1893Y581D02*
X1896Y581D01*
X2125Y581D02*
X2128Y581D01*
X2153Y581D02*
X2160Y581D01*
X2689Y581D02*
X2696Y581D01*
X0Y580D02*
X7Y580D01*
X261Y580D02*
X268Y580D01*
X565Y580D02*
X576Y580D01*
X752Y580D02*
X763Y580D01*
X809Y580D02*
X818Y580D01*
X903Y580D02*
X913Y580D01*
X1893Y580D02*
X1896Y580D01*
X2125Y580D02*
X2128Y580D01*
X2153Y580D02*
X2160Y580D01*
X2689Y580D02*
X2696Y580D01*
X0Y579D02*
X7Y579D01*
X261Y579D02*
X268Y579D01*
X565Y579D02*
X575Y579D01*
X753Y579D02*
X764Y579D01*
X809Y579D02*
X819Y579D01*
X902Y579D02*
X912Y579D01*
X1894Y579D02*
X1897Y579D01*
X2125Y579D02*
X2128Y579D01*
X2153Y579D02*
X2160Y579D01*
X2689Y579D02*
X2696Y579D01*
X0Y578D02*
X7Y578D01*
X261Y578D02*
X268Y578D01*
X564Y578D02*
X574Y578D01*
X754Y578D02*
X765Y578D01*
X810Y578D02*
X820Y578D01*
X902Y578D02*
X911Y578D01*
X1894Y578D02*
X1897Y578D01*
X2124Y578D02*
X2127Y578D01*
X2153Y578D02*
X2160Y578D01*
X2689Y578D02*
X2696Y578D01*
X0Y577D02*
X7Y577D01*
X261Y577D02*
X268Y577D01*
X564Y577D02*
X574Y577D01*
X755Y577D02*
X765Y577D01*
X811Y577D02*
X821Y577D01*
X900Y577D02*
X910Y577D01*
X1894Y577D02*
X1897Y577D01*
X2124Y577D02*
X2127Y577D01*
X2153Y577D02*
X2160Y577D01*
X2689Y577D02*
X2696Y577D01*
X0Y576D02*
X7Y576D01*
X261Y576D02*
X268Y576D01*
X563Y576D02*
X573Y576D01*
X755Y576D02*
X766Y576D01*
X812Y576D02*
X822Y576D01*
X899Y576D02*
X910Y576D01*
X1895Y576D02*
X1898Y576D01*
X2123Y576D02*
X2127Y576D01*
X2153Y576D02*
X2160Y576D01*
X2689Y576D02*
X2696Y576D01*
X0Y575D02*
X7Y575D01*
X261Y575D02*
X268Y575D01*
X563Y575D02*
X573Y575D01*
X756Y575D02*
X766Y575D01*
X813Y575D02*
X823Y575D01*
X898Y575D02*
X909Y575D01*
X1895Y575D02*
X1898Y575D01*
X2123Y575D02*
X2126Y575D01*
X2153Y575D02*
X2160Y575D01*
X2689Y575D02*
X2696Y575D01*
X0Y574D02*
X7Y574D01*
X261Y574D02*
X268Y574D01*
X562Y574D02*
X572Y574D01*
X757Y574D02*
X767Y574D01*
X814Y574D02*
X824Y574D01*
X897Y574D02*
X908Y574D01*
X1895Y574D02*
X1899Y574D01*
X2123Y574D02*
X2126Y574D01*
X2153Y574D02*
X2160Y574D01*
X2689Y574D02*
X2696Y574D01*
X0Y573D02*
X7Y573D01*
X261Y573D02*
X268Y573D01*
X562Y573D02*
X572Y573D01*
X757Y573D02*
X767Y573D01*
X814Y573D02*
X825Y573D01*
X896Y573D02*
X907Y573D01*
X1896Y573D02*
X1899Y573D01*
X2122Y573D02*
X2125Y573D01*
X2153Y573D02*
X2160Y573D01*
X2689Y573D02*
X2696Y573D01*
X0Y572D02*
X7Y572D01*
X261Y572D02*
X268Y572D01*
X561Y572D02*
X571Y572D01*
X758Y572D02*
X768Y572D01*
X815Y572D02*
X827Y572D01*
X895Y572D02*
X906Y572D01*
X1896Y572D02*
X1899Y572D01*
X2122Y572D02*
X2125Y572D01*
X2153Y572D02*
X2160Y572D01*
X2689Y572D02*
X2696Y572D01*
X0Y571D02*
X7Y571D01*
X261Y571D02*
X268Y571D01*
X561Y571D02*
X571Y571D01*
X758Y571D02*
X768Y571D01*
X817Y571D02*
X828Y571D01*
X893Y571D02*
X905Y571D01*
X1897Y571D02*
X1900Y571D01*
X2122Y571D02*
X2125Y571D01*
X2153Y571D02*
X2160Y571D01*
X2689Y571D02*
X2696Y571D01*
X0Y570D02*
X7Y570D01*
X261Y570D02*
X268Y570D01*
X561Y570D02*
X570Y570D01*
X759Y570D02*
X769Y570D01*
X818Y570D02*
X830Y570D01*
X892Y570D02*
X904Y570D01*
X1897Y570D02*
X1900Y570D01*
X2121Y570D02*
X2124Y570D01*
X2153Y570D02*
X2160Y570D01*
X2689Y570D02*
X2696Y570D01*
X0Y569D02*
X7Y569D01*
X261Y569D02*
X268Y569D01*
X560Y569D02*
X570Y569D01*
X759Y569D02*
X769Y569D01*
X819Y569D02*
X831Y569D01*
X890Y569D02*
X903Y569D01*
X1897Y569D02*
X1901Y569D01*
X2121Y569D02*
X2124Y569D01*
X2153Y569D02*
X2160Y569D01*
X2689Y569D02*
X2696Y569D01*
X0Y568D02*
X7Y568D01*
X261Y568D02*
X268Y568D01*
X560Y568D02*
X569Y568D01*
X760Y568D02*
X769Y568D01*
X820Y568D02*
X833Y568D01*
X888Y568D02*
X901Y568D01*
X1898Y568D02*
X1901Y568D01*
X2120Y568D02*
X2123Y568D01*
X2153Y568D02*
X2160Y568D01*
X2689Y568D02*
X2696Y568D01*
X0Y567D02*
X7Y567D01*
X261Y567D02*
X268Y567D01*
X559Y567D02*
X569Y567D01*
X760Y567D02*
X770Y567D01*
X821Y567D02*
X835Y567D01*
X886Y567D02*
X900Y567D01*
X1898Y567D02*
X1902Y567D01*
X2120Y567D02*
X2123Y567D01*
X2153Y567D02*
X2160Y567D01*
X2689Y567D02*
X2696Y567D01*
X0Y566D02*
X7Y566D01*
X261Y566D02*
X268Y566D01*
X559Y566D02*
X568Y566D01*
X761Y566D02*
X770Y566D01*
X823Y566D02*
X837Y566D01*
X884Y566D02*
X899Y566D01*
X1899Y566D02*
X1902Y566D01*
X2119Y566D02*
X2122Y566D01*
X2153Y566D02*
X2160Y566D01*
X2689Y566D02*
X2696Y566D01*
X0Y565D02*
X7Y565D01*
X261Y565D02*
X268Y565D01*
X559Y565D02*
X568Y565D01*
X761Y565D02*
X770Y565D01*
X824Y565D02*
X840Y565D01*
X882Y565D02*
X897Y565D01*
X1899Y565D02*
X1903Y565D01*
X2119Y565D02*
X2122Y565D01*
X2153Y565D02*
X2160Y565D01*
X2689Y565D02*
X2696Y565D01*
X0Y564D02*
X7Y564D01*
X261Y564D02*
X268Y564D01*
X558Y564D02*
X568Y564D01*
X761Y564D02*
X771Y564D01*
X825Y564D02*
X842Y564D01*
X879Y564D02*
X896Y564D01*
X1900Y564D02*
X1903Y564D01*
X2118Y564D02*
X2122Y564D01*
X2153Y564D02*
X2160Y564D01*
X2689Y564D02*
X2696Y564D01*
X0Y563D02*
X7Y563D01*
X261Y563D02*
X268Y563D01*
X558Y563D02*
X567Y563D01*
X762Y563D02*
X771Y563D01*
X827Y563D02*
X846Y563D01*
X875Y563D02*
X894Y563D01*
X1900Y563D02*
X1903Y563D01*
X2118Y563D02*
X2121Y563D01*
X2153Y563D02*
X2160Y563D01*
X2689Y563D02*
X2696Y563D01*
X0Y562D02*
X7Y562D01*
X261Y562D02*
X268Y562D01*
X558Y562D02*
X567Y562D01*
X762Y562D02*
X771Y562D01*
X829Y562D02*
X851Y562D01*
X871Y562D02*
X893Y562D01*
X1901Y562D02*
X1904Y562D01*
X2117Y562D02*
X2121Y562D01*
X2153Y562D02*
X2160Y562D01*
X2689Y562D02*
X2696Y562D01*
X0Y561D02*
X7Y561D01*
X261Y561D02*
X268Y561D01*
X558Y561D02*
X567Y561D01*
X762Y561D02*
X772Y561D01*
X830Y561D02*
X891Y561D01*
X1901Y561D02*
X1905Y561D01*
X2117Y561D02*
X2120Y561D01*
X2153Y561D02*
X2160Y561D01*
X2689Y561D02*
X2696Y561D01*
X0Y560D02*
X7Y560D01*
X261Y560D02*
X268Y560D01*
X557Y560D02*
X567Y560D01*
X763Y560D02*
X772Y560D01*
X832Y560D02*
X889Y560D01*
X1902Y560D02*
X1905Y560D01*
X2116Y560D02*
X2120Y560D01*
X2153Y560D02*
X2160Y560D01*
X2689Y560D02*
X2696Y560D01*
X0Y559D02*
X7Y559D01*
X261Y559D02*
X268Y559D01*
X557Y559D02*
X566Y559D01*
X763Y559D02*
X772Y559D01*
X835Y559D02*
X887Y559D01*
X1902Y559D02*
X1906Y559D01*
X2116Y559D02*
X2119Y559D01*
X2153Y559D02*
X2160Y559D01*
X2689Y559D02*
X2696Y559D01*
X0Y558D02*
X7Y558D01*
X261Y558D02*
X268Y558D01*
X557Y558D02*
X566Y558D01*
X763Y558D02*
X772Y558D01*
X837Y558D02*
X884Y558D01*
X1903Y558D02*
X1906Y558D01*
X2115Y558D02*
X2118Y558D01*
X2153Y558D02*
X2160Y558D01*
X2689Y558D02*
X2696Y558D01*
X0Y557D02*
X7Y557D01*
X261Y557D02*
X268Y557D01*
X557Y557D02*
X566Y557D01*
X764Y557D02*
X773Y557D01*
X840Y557D02*
X882Y557D01*
X1903Y557D02*
X1907Y557D01*
X2114Y557D02*
X2118Y557D01*
X2153Y557D02*
X2160Y557D01*
X2689Y557D02*
X2696Y557D01*
X0Y556D02*
X7Y556D01*
X261Y556D02*
X268Y556D01*
X557Y556D02*
X566Y556D01*
X764Y556D02*
X773Y556D01*
X842Y556D02*
X879Y556D01*
X1904Y556D02*
X1907Y556D01*
X2114Y556D02*
X2117Y556D01*
X2153Y556D02*
X2160Y556D01*
X2689Y556D02*
X2696Y556D01*
X0Y555D02*
X7Y555D01*
X261Y555D02*
X268Y555D01*
X556Y555D02*
X565Y555D01*
X764Y555D02*
X773Y555D01*
X846Y555D02*
X875Y555D01*
X1905Y555D02*
X1908Y555D01*
X2113Y555D02*
X2117Y555D01*
X2153Y555D02*
X2160Y555D01*
X2689Y555D02*
X2696Y555D01*
X0Y554D02*
X7Y554D01*
X261Y554D02*
X268Y554D01*
X556Y554D02*
X565Y554D01*
X764Y554D02*
X773Y554D01*
X852Y554D02*
X870Y554D01*
X1905Y554D02*
X1909Y554D01*
X2113Y554D02*
X2116Y554D01*
X2153Y554D02*
X2160Y554D01*
X2689Y554D02*
X2696Y554D01*
X0Y553D02*
X7Y553D01*
X261Y553D02*
X268Y553D01*
X556Y553D02*
X565Y553D01*
X764Y553D02*
X773Y553D01*
X1906Y553D02*
X1909Y553D01*
X2112Y553D02*
X2116Y553D01*
X2153Y553D02*
X2160Y553D01*
X2689Y553D02*
X2696Y553D01*
X0Y552D02*
X7Y552D01*
X261Y552D02*
X268Y552D01*
X556Y552D02*
X565Y552D01*
X764Y552D02*
X774Y552D01*
X1906Y552D02*
X1910Y552D01*
X2111Y552D02*
X2115Y552D01*
X2153Y552D02*
X2160Y552D01*
X2689Y552D02*
X2696Y552D01*
X0Y551D02*
X7Y551D01*
X261Y551D02*
X268Y551D01*
X556Y551D02*
X565Y551D01*
X765Y551D02*
X774Y551D01*
X1907Y551D02*
X1911Y551D01*
X2111Y551D02*
X2114Y551D01*
X2153Y551D02*
X2160Y551D01*
X2689Y551D02*
X2696Y551D01*
X0Y550D02*
X7Y550D01*
X261Y550D02*
X268Y550D01*
X556Y550D02*
X565Y550D01*
X765Y550D02*
X774Y550D01*
X1908Y550D02*
X1911Y550D01*
X2110Y550D02*
X2114Y550D01*
X2153Y550D02*
X2160Y550D01*
X2689Y550D02*
X2696Y550D01*
X0Y549D02*
X7Y549D01*
X261Y549D02*
X268Y549D01*
X556Y549D02*
X565Y549D01*
X765Y549D02*
X774Y549D01*
X1908Y549D02*
X1912Y549D01*
X2109Y549D02*
X2113Y549D01*
X2153Y549D02*
X2160Y549D01*
X2689Y549D02*
X2696Y549D01*
X0Y548D02*
X7Y548D01*
X261Y548D02*
X268Y548D01*
X556Y548D02*
X565Y548D01*
X765Y548D02*
X774Y548D01*
X1909Y548D02*
X1913Y548D01*
X2109Y548D02*
X2112Y548D01*
X2153Y548D02*
X2160Y548D01*
X2689Y548D02*
X2696Y548D01*
X0Y547D02*
X7Y547D01*
X261Y547D02*
X268Y547D01*
X556Y547D02*
X565Y547D01*
X765Y547D02*
X774Y547D01*
X1910Y547D02*
X1913Y547D01*
X2108Y547D02*
X2111Y547D01*
X2153Y547D02*
X2160Y547D01*
X2689Y547D02*
X2696Y547D01*
X0Y546D02*
X7Y546D01*
X261Y546D02*
X268Y546D01*
X556Y546D02*
X565Y546D01*
X765Y546D02*
X774Y546D01*
X1910Y546D02*
X1914Y546D01*
X2107Y546D02*
X2111Y546D01*
X2153Y546D02*
X2160Y546D01*
X2689Y546D02*
X2696Y546D01*
X0Y545D02*
X7Y545D01*
X261Y545D02*
X268Y545D01*
X556Y545D02*
X565Y545D01*
X765Y545D02*
X774Y545D01*
X1911Y545D02*
X1915Y545D01*
X2106Y545D02*
X2110Y545D01*
X2153Y545D02*
X2160Y545D01*
X2689Y545D02*
X2696Y545D01*
X0Y544D02*
X7Y544D01*
X261Y544D02*
X268Y544D01*
X555Y544D02*
X564Y544D01*
X765Y544D02*
X774Y544D01*
X1912Y544D02*
X1916Y544D01*
X2105Y544D02*
X2109Y544D01*
X2153Y544D02*
X2160Y544D01*
X2689Y544D02*
X2696Y544D01*
X0Y543D02*
X7Y543D01*
X261Y543D02*
X268Y543D01*
X555Y543D02*
X564Y543D01*
X765Y543D02*
X774Y543D01*
X1913Y543D02*
X1917Y543D01*
X2105Y543D02*
X2109Y543D01*
X2153Y543D02*
X2160Y543D01*
X2689Y543D02*
X2696Y543D01*
X0Y542D02*
X7Y542D01*
X261Y542D02*
X268Y542D01*
X555Y542D02*
X564Y542D01*
X765Y542D02*
X774Y542D01*
X1914Y542D02*
X1917Y542D01*
X2104Y542D02*
X2108Y542D01*
X2153Y542D02*
X2160Y542D01*
X2689Y542D02*
X2696Y542D01*
X0Y541D02*
X7Y541D01*
X261Y541D02*
X268Y541D01*
X556Y541D02*
X565Y541D01*
X765Y541D02*
X774Y541D01*
X1914Y541D02*
X1918Y541D01*
X2103Y541D02*
X2107Y541D01*
X2153Y541D02*
X2160Y541D01*
X2689Y541D02*
X2696Y541D01*
X0Y540D02*
X7Y540D01*
X261Y540D02*
X268Y540D01*
X556Y540D02*
X565Y540D01*
X765Y540D02*
X774Y540D01*
X1915Y540D02*
X1919Y540D01*
X2102Y540D02*
X2106Y540D01*
X2153Y540D02*
X2160Y540D01*
X2689Y540D02*
X2696Y540D01*
X0Y539D02*
X7Y539D01*
X261Y539D02*
X268Y539D01*
X556Y539D02*
X565Y539D01*
X765Y539D02*
X774Y539D01*
X1916Y539D02*
X1920Y539D01*
X2101Y539D02*
X2105Y539D01*
X2153Y539D02*
X2160Y539D01*
X2689Y539D02*
X2696Y539D01*
X0Y538D02*
X7Y538D01*
X261Y538D02*
X268Y538D01*
X556Y538D02*
X565Y538D01*
X765Y538D02*
X774Y538D01*
X1917Y538D02*
X1921Y538D01*
X2100Y538D02*
X2105Y538D01*
X2153Y538D02*
X2160Y538D01*
X2689Y538D02*
X2696Y538D01*
X0Y537D02*
X7Y537D01*
X261Y537D02*
X268Y537D01*
X556Y537D02*
X565Y537D01*
X765Y537D02*
X774Y537D01*
X1918Y537D02*
X1922Y537D01*
X2100Y537D02*
X2104Y537D01*
X2153Y537D02*
X2160Y537D01*
X2689Y537D02*
X2696Y537D01*
X0Y536D02*
X7Y536D01*
X261Y536D02*
X268Y536D01*
X556Y536D02*
X565Y536D01*
X765Y536D02*
X774Y536D01*
X1918Y536D02*
X1923Y536D01*
X2099Y536D02*
X2103Y536D01*
X2153Y536D02*
X2160Y536D01*
X2689Y536D02*
X2696Y536D01*
X0Y535D02*
X7Y535D01*
X261Y535D02*
X268Y535D01*
X556Y535D02*
X565Y535D01*
X765Y535D02*
X774Y535D01*
X1919Y535D02*
X1924Y535D01*
X2098Y535D02*
X2102Y535D01*
X2153Y535D02*
X2160Y535D01*
X2689Y535D02*
X2696Y535D01*
X0Y534D02*
X7Y534D01*
X261Y534D02*
X268Y534D01*
X556Y534D02*
X565Y534D01*
X764Y534D02*
X774Y534D01*
X1920Y534D02*
X1925Y534D01*
X2097Y534D02*
X2101Y534D01*
X2153Y534D02*
X2160Y534D01*
X2689Y534D02*
X2696Y534D01*
X0Y533D02*
X7Y533D01*
X261Y533D02*
X268Y533D01*
X556Y533D02*
X565Y533D01*
X764Y533D02*
X773Y533D01*
X1921Y533D02*
X1926Y533D01*
X2096Y533D02*
X2100Y533D01*
X2153Y533D02*
X2160Y533D01*
X2689Y533D02*
X2696Y533D01*
X0Y532D02*
X7Y532D01*
X261Y532D02*
X268Y532D01*
X556Y532D02*
X565Y532D01*
X764Y532D02*
X773Y532D01*
X1922Y532D02*
X1927Y532D01*
X2095Y532D02*
X2099Y532D01*
X2153Y532D02*
X2160Y532D01*
X2689Y532D02*
X2696Y532D01*
X0Y531D02*
X7Y531D01*
X261Y531D02*
X268Y531D01*
X557Y531D02*
X566Y531D01*
X764Y531D02*
X773Y531D01*
X1923Y531D02*
X1928Y531D01*
X2094Y531D02*
X2098Y531D01*
X2153Y531D02*
X2160Y531D01*
X2689Y531D02*
X2696Y531D01*
X0Y530D02*
X7Y530D01*
X261Y530D02*
X268Y530D01*
X557Y530D02*
X566Y530D01*
X764Y530D02*
X773Y530D01*
X1924Y530D02*
X1929Y530D01*
X2093Y530D02*
X2097Y530D01*
X2153Y530D02*
X2160Y530D01*
X2689Y530D02*
X2696Y530D01*
X0Y529D02*
X7Y529D01*
X261Y529D02*
X268Y529D01*
X557Y529D02*
X566Y529D01*
X763Y529D02*
X773Y529D01*
X1925Y529D02*
X1930Y529D01*
X2091Y529D02*
X2096Y529D01*
X2153Y529D02*
X2160Y529D01*
X2689Y529D02*
X2696Y529D01*
X0Y528D02*
X7Y528D01*
X261Y528D02*
X268Y528D01*
X557Y528D02*
X566Y528D01*
X763Y528D02*
X772Y528D01*
X1926Y528D02*
X1931Y528D01*
X2090Y528D02*
X2095Y528D01*
X2153Y528D02*
X2160Y528D01*
X2689Y528D02*
X2696Y528D01*
X0Y527D02*
X7Y527D01*
X261Y527D02*
X268Y527D01*
X557Y527D02*
X566Y527D01*
X763Y527D02*
X772Y527D01*
X1927Y527D02*
X1932Y527D01*
X2089Y527D02*
X2094Y527D01*
X2153Y527D02*
X2160Y527D01*
X2689Y527D02*
X2696Y527D01*
X0Y526D02*
X7Y526D01*
X261Y526D02*
X268Y526D01*
X558Y526D02*
X567Y526D01*
X763Y526D02*
X772Y526D01*
X1928Y526D02*
X1933Y526D01*
X2088Y526D02*
X2093Y526D01*
X2153Y526D02*
X2160Y526D01*
X2689Y526D02*
X2696Y526D01*
X0Y525D02*
X7Y525D01*
X261Y525D02*
X268Y525D01*
X558Y525D02*
X567Y525D01*
X762Y525D02*
X772Y525D01*
X1930Y525D02*
X1935Y525D01*
X2087Y525D02*
X2092Y525D01*
X2153Y525D02*
X2160Y525D01*
X2689Y525D02*
X2696Y525D01*
X0Y524D02*
X7Y524D01*
X261Y524D02*
X268Y524D01*
X558Y524D02*
X567Y524D01*
X762Y524D02*
X771Y524D01*
X1931Y524D02*
X1936Y524D01*
X2085Y524D02*
X2091Y524D01*
X2153Y524D02*
X2160Y524D01*
X2689Y524D02*
X2696Y524D01*
X0Y523D02*
X7Y523D01*
X261Y523D02*
X268Y523D01*
X558Y523D02*
X568Y523D01*
X762Y523D02*
X771Y523D01*
X1932Y523D02*
X1937Y523D01*
X2084Y523D02*
X2089Y523D01*
X2153Y523D02*
X2160Y523D01*
X2689Y523D02*
X2696Y523D01*
X0Y522D02*
X7Y522D01*
X261Y522D02*
X268Y522D01*
X559Y522D02*
X568Y522D01*
X761Y522D02*
X771Y522D01*
X1933Y522D02*
X1938Y522D01*
X2083Y522D02*
X2088Y522D01*
X2153Y522D02*
X2160Y522D01*
X2689Y522D02*
X2696Y522D01*
X0Y521D02*
X7Y521D01*
X261Y521D02*
X268Y521D01*
X559Y521D02*
X568Y521D01*
X761Y521D02*
X770Y521D01*
X1934Y521D02*
X1940Y521D01*
X2082Y521D02*
X2087Y521D01*
X2153Y521D02*
X2160Y521D01*
X2689Y521D02*
X2696Y521D01*
X0Y520D02*
X7Y520D01*
X261Y520D02*
X268Y520D01*
X559Y520D02*
X569Y520D01*
X760Y520D02*
X770Y520D01*
X1936Y520D02*
X1941Y520D01*
X2080Y520D02*
X2086Y520D01*
X2153Y520D02*
X2160Y520D01*
X2689Y520D02*
X2696Y520D01*
X0Y519D02*
X7Y519D01*
X261Y519D02*
X268Y519D01*
X560Y519D02*
X569Y519D01*
X760Y519D02*
X770Y519D01*
X1937Y519D02*
X1943Y519D01*
X2079Y519D02*
X2084Y519D01*
X2153Y519D02*
X2160Y519D01*
X2689Y519D02*
X2696Y519D01*
X0Y518D02*
X7Y518D01*
X261Y518D02*
X268Y518D01*
X560Y518D02*
X569Y518D01*
X760Y518D02*
X769Y518D01*
X1938Y518D02*
X1944Y518D01*
X2077Y518D02*
X2083Y518D01*
X2153Y518D02*
X2160Y518D01*
X2689Y518D02*
X2696Y518D01*
X0Y517D02*
X7Y517D01*
X261Y517D02*
X268Y517D01*
X560Y517D02*
X570Y517D01*
X759Y517D02*
X769Y517D01*
X1940Y517D02*
X1946Y517D01*
X2076Y517D02*
X2082Y517D01*
X2153Y517D02*
X2160Y517D01*
X2689Y517D02*
X2696Y517D01*
X0Y516D02*
X7Y516D01*
X261Y516D02*
X268Y516D01*
X561Y516D02*
X570Y516D01*
X759Y516D02*
X768Y516D01*
X1941Y516D02*
X1947Y516D01*
X2074Y516D02*
X2080Y516D01*
X2153Y516D02*
X2160Y516D01*
X2689Y516D02*
X2696Y516D01*
X0Y515D02*
X7Y515D01*
X261Y515D02*
X268Y515D01*
X561Y515D02*
X571Y515D01*
X758Y515D02*
X768Y515D01*
X1943Y515D02*
X1949Y515D01*
X2072Y515D02*
X2079Y515D01*
X2153Y515D02*
X2160Y515D01*
X2689Y515D02*
X2696Y515D01*
X0Y514D02*
X7Y514D01*
X261Y514D02*
X268Y514D01*
X561Y514D02*
X571Y514D01*
X757Y514D02*
X768Y514D01*
X1944Y514D02*
X1951Y514D01*
X2071Y514D02*
X2077Y514D01*
X2153Y514D02*
X2160Y514D01*
X2689Y514D02*
X2696Y514D01*
X0Y513D02*
X7Y513D01*
X261Y513D02*
X268Y513D01*
X562Y513D02*
X572Y513D01*
X757Y513D02*
X767Y513D01*
X1946Y513D02*
X1953Y513D01*
X2069Y513D02*
X2076Y513D01*
X2153Y513D02*
X2160Y513D01*
X2689Y513D02*
X2696Y513D01*
X0Y512D02*
X7Y512D01*
X261Y512D02*
X268Y512D01*
X562Y512D02*
X572Y512D01*
X756Y512D02*
X767Y512D01*
X1947Y512D02*
X1954Y512D01*
X2067Y512D02*
X2074Y512D01*
X2153Y512D02*
X2160Y512D01*
X2689Y512D02*
X2696Y512D01*
X0Y511D02*
X7Y511D01*
X261Y511D02*
X268Y511D01*
X563Y511D02*
X573Y511D01*
X756Y511D02*
X766Y511D01*
X1949Y511D02*
X1956Y511D01*
X2065Y511D02*
X2072Y511D01*
X2153Y511D02*
X2160Y511D01*
X2689Y511D02*
X2696Y511D01*
X0Y510D02*
X7Y510D01*
X261Y510D02*
X268Y510D01*
X563Y510D02*
X573Y510D01*
X755Y510D02*
X765Y510D01*
X1951Y510D02*
X1958Y510D01*
X2063Y510D02*
X2070Y510D01*
X2153Y510D02*
X2160Y510D01*
X2689Y510D02*
X2696Y510D01*
X0Y509D02*
X7Y509D01*
X261Y509D02*
X268Y509D01*
X564Y509D02*
X574Y509D01*
X754Y509D02*
X765Y509D01*
X1953Y509D02*
X1961Y509D01*
X2061Y509D02*
X2069Y509D01*
X2153Y509D02*
X2160Y509D01*
X2689Y509D02*
X2696Y509D01*
X0Y508D02*
X7Y508D01*
X261Y508D02*
X268Y508D01*
X564Y508D02*
X575Y508D01*
X754Y508D02*
X764Y508D01*
X1954Y508D02*
X1963Y508D01*
X2059Y508D02*
X2067Y508D01*
X2153Y508D02*
X2160Y508D01*
X2689Y508D02*
X2696Y508D01*
X0Y507D02*
X7Y507D01*
X261Y507D02*
X268Y507D01*
X565Y507D02*
X575Y507D01*
X753Y507D02*
X764Y507D01*
X1956Y507D02*
X1965Y507D01*
X2056Y507D02*
X2065Y507D01*
X2153Y507D02*
X2160Y507D01*
X2689Y507D02*
X2696Y507D01*
X0Y506D02*
X7Y506D01*
X261Y506D02*
X268Y506D01*
X565Y506D02*
X576Y506D01*
X752Y506D02*
X763Y506D01*
X1959Y506D02*
X1968Y506D01*
X2053Y506D02*
X2063Y506D01*
X2153Y506D02*
X2160Y506D01*
X2689Y506D02*
X2696Y506D01*
X0Y505D02*
X7Y505D01*
X261Y505D02*
X268Y505D01*
X566Y505D02*
X577Y505D01*
X751Y505D02*
X762Y505D01*
X1961Y505D02*
X1971Y505D01*
X2051Y505D02*
X2061Y505D01*
X2153Y505D02*
X2160Y505D01*
X2689Y505D02*
X2696Y505D01*
X0Y504D02*
X7Y504D01*
X261Y504D02*
X268Y504D01*
X567Y504D02*
X577Y504D01*
X750Y504D02*
X762Y504D01*
X1963Y504D02*
X1973Y504D01*
X2048Y504D02*
X2058Y504D01*
X2153Y504D02*
X2160Y504D01*
X2689Y504D02*
X2696Y504D01*
X0Y503D02*
X7Y503D01*
X261Y503D02*
X268Y503D01*
X567Y503D02*
X578Y503D01*
X749Y503D02*
X761Y503D01*
X1965Y503D02*
X1973Y503D01*
X2048Y503D02*
X2056Y503D01*
X2153Y503D02*
X2160Y503D01*
X2689Y503D02*
X2696Y503D01*
X0Y502D02*
X7Y502D01*
X261Y502D02*
X268Y502D01*
X568Y502D02*
X579Y502D01*
X748Y502D02*
X760Y502D01*
X1968Y502D02*
X1973Y502D01*
X2049Y502D02*
X2053Y502D01*
X2153Y502D02*
X2160Y502D01*
X2689Y502D02*
X2696Y502D01*
X0Y501D02*
X7Y501D01*
X261Y501D02*
X268Y501D01*
X568Y501D02*
X580Y501D01*
X747Y501D02*
X760Y501D01*
X1971Y501D02*
X1972Y501D01*
X2049Y501D02*
X2050Y501D01*
X2153Y501D02*
X2160Y501D01*
X2689Y501D02*
X2696Y501D01*
X0Y500D02*
X7Y500D01*
X261Y500D02*
X268Y500D01*
X569Y500D02*
X581Y500D01*
X746Y500D02*
X759Y500D01*
X2153Y500D02*
X2160Y500D01*
X2689Y500D02*
X2696Y500D01*
X0Y499D02*
X7Y499D01*
X261Y499D02*
X268Y499D01*
X570Y499D02*
X582Y499D01*
X745Y499D02*
X758Y499D01*
X2153Y499D02*
X2160Y499D01*
X2689Y499D02*
X2696Y499D01*
X0Y498D02*
X7Y498D01*
X261Y498D02*
X268Y498D01*
X571Y498D02*
X583Y498D01*
X744Y498D02*
X757Y498D01*
X2153Y498D02*
X2160Y498D01*
X2689Y498D02*
X2696Y498D01*
X0Y497D02*
X7Y497D01*
X261Y497D02*
X268Y497D01*
X571Y497D02*
X583Y497D01*
X743Y497D02*
X756Y497D01*
X2153Y497D02*
X2160Y497D01*
X2689Y497D02*
X2696Y497D01*
X0Y496D02*
X7Y496D01*
X261Y496D02*
X268Y496D01*
X572Y496D02*
X583Y496D01*
X744Y496D02*
X755Y496D01*
X2153Y496D02*
X2160Y496D01*
X2689Y496D02*
X2696Y496D01*
X0Y495D02*
X7Y495D01*
X261Y495D02*
X268Y495D01*
X573Y495D02*
X582Y495D01*
X745Y495D02*
X754Y495D01*
X2153Y495D02*
X2160Y495D01*
X2689Y495D02*
X2696Y495D01*
X0Y494D02*
X7Y494D01*
X261Y494D02*
X268Y494D01*
X574Y494D02*
X581Y494D01*
X746Y494D02*
X753Y494D01*
X2153Y494D02*
X2160Y494D01*
X2689Y494D02*
X2696Y494D01*
X0Y493D02*
X7Y493D01*
X261Y493D02*
X268Y493D01*
X575Y493D02*
X580Y493D01*
X746Y493D02*
X752Y493D01*
X2153Y493D02*
X2160Y493D01*
X2689Y493D02*
X2696Y493D01*
X0Y492D02*
X7Y492D01*
X261Y492D02*
X268Y492D01*
X576Y492D02*
X579Y492D01*
X747Y492D02*
X751Y492D01*
X2153Y492D02*
X2160Y492D01*
X2689Y492D02*
X2696Y492D01*
X0Y491D02*
X7Y491D01*
X261Y491D02*
X268Y491D01*
X576Y491D02*
X578Y491D01*
X748Y491D02*
X750Y491D01*
X2153Y491D02*
X2160Y491D01*
X2689Y491D02*
X2696Y491D01*
X0Y490D02*
X7Y490D01*
X261Y490D02*
X268Y490D01*
X577Y490D02*
X577Y490D01*
X749Y490D02*
X749Y490D01*
X2153Y490D02*
X2160Y490D01*
X2689Y490D02*
X2696Y490D01*
X0Y489D02*
X7Y489D01*
X261Y489D02*
X268Y489D01*
X2153Y489D02*
X2160Y489D01*
X2689Y489D02*
X2696Y489D01*
X0Y488D02*
X7Y488D01*
X261Y488D02*
X268Y488D01*
X2153Y488D02*
X2160Y488D01*
X2689Y488D02*
X2696Y488D01*
X0Y487D02*
X7Y487D01*
X261Y487D02*
X268Y487D01*
X2153Y487D02*
X2160Y487D01*
X2689Y487D02*
X2696Y487D01*
X0Y486D02*
X7Y486D01*
X261Y486D02*
X268Y486D01*
X2153Y486D02*
X2160Y486D01*
X2689Y486D02*
X2696Y486D01*
X0Y485D02*
X7Y485D01*
X261Y485D02*
X268Y485D01*
X2153Y485D02*
X2160Y485D01*
X2689Y485D02*
X2696Y485D01*
X0Y484D02*
X7Y484D01*
X261Y484D02*
X268Y484D01*
X2153Y484D02*
X2160Y484D01*
X2689Y484D02*
X2696Y484D01*
X0Y483D02*
X7Y483D01*
X261Y483D02*
X268Y483D01*
X2153Y483D02*
X2160Y483D01*
X2689Y483D02*
X2696Y483D01*
X0Y482D02*
X7Y482D01*
X261Y482D02*
X268Y482D01*
X2153Y482D02*
X2160Y482D01*
X2689Y482D02*
X2696Y482D01*
X0Y481D02*
X7Y481D01*
X261Y481D02*
X268Y481D01*
X2153Y481D02*
X2160Y481D01*
X2689Y481D02*
X2696Y481D01*
X0Y480D02*
X7Y480D01*
X261Y480D02*
X268Y480D01*
X2153Y480D02*
X2160Y480D01*
X2689Y480D02*
X2696Y480D01*
X0Y479D02*
X7Y479D01*
X261Y479D02*
X268Y479D01*
X2153Y479D02*
X2160Y479D01*
X2689Y479D02*
X2696Y479D01*
X0Y478D02*
X7Y478D01*
X261Y478D02*
X268Y478D01*
X2153Y478D02*
X2160Y478D01*
X2689Y478D02*
X2696Y478D01*
X0Y477D02*
X7Y477D01*
X261Y477D02*
X268Y477D01*
X2153Y477D02*
X2160Y477D01*
X2689Y477D02*
X2696Y477D01*
X0Y476D02*
X7Y476D01*
X261Y476D02*
X268Y476D01*
X2153Y476D02*
X2160Y476D01*
X2689Y476D02*
X2696Y476D01*
X0Y475D02*
X7Y475D01*
X261Y475D02*
X268Y475D01*
X2153Y475D02*
X2160Y475D01*
X2689Y475D02*
X2696Y475D01*
X0Y474D02*
X7Y474D01*
X261Y474D02*
X268Y474D01*
X2153Y474D02*
X2160Y474D01*
X2689Y474D02*
X2696Y474D01*
X0Y473D02*
X7Y473D01*
X261Y473D02*
X268Y473D01*
X2153Y473D02*
X2160Y473D01*
X2689Y473D02*
X2696Y473D01*
X0Y472D02*
X7Y472D01*
X261Y472D02*
X268Y472D01*
X2153Y472D02*
X2160Y472D01*
X2689Y472D02*
X2696Y472D01*
X0Y471D02*
X7Y471D01*
X261Y471D02*
X268Y471D01*
X2153Y471D02*
X2160Y471D01*
X2689Y471D02*
X2696Y471D01*
X0Y470D02*
X7Y470D01*
X261Y470D02*
X268Y470D01*
X2153Y470D02*
X2160Y470D01*
X2689Y470D02*
X2696Y470D01*
X0Y469D02*
X7Y469D01*
X261Y469D02*
X268Y469D01*
X2153Y469D02*
X2160Y469D01*
X2689Y469D02*
X2696Y469D01*
X0Y468D02*
X7Y468D01*
X261Y468D02*
X268Y468D01*
X2153Y468D02*
X2160Y468D01*
X2689Y468D02*
X2696Y468D01*
X0Y467D02*
X7Y467D01*
X261Y467D02*
X268Y467D01*
X2153Y467D02*
X2160Y467D01*
X2689Y467D02*
X2696Y467D01*
X0Y466D02*
X7Y466D01*
X261Y466D02*
X268Y466D01*
X2153Y466D02*
X2160Y466D01*
X2689Y466D02*
X2696Y466D01*
X0Y465D02*
X7Y465D01*
X261Y465D02*
X268Y465D01*
X2153Y465D02*
X2160Y465D01*
X2689Y465D02*
X2696Y465D01*
X0Y464D02*
X7Y464D01*
X261Y464D02*
X268Y464D01*
X2153Y464D02*
X2160Y464D01*
X2689Y464D02*
X2696Y464D01*
X0Y463D02*
X7Y463D01*
X261Y463D02*
X268Y463D01*
X2153Y463D02*
X2160Y463D01*
X2689Y463D02*
X2696Y463D01*
X0Y462D02*
X7Y462D01*
X261Y462D02*
X268Y462D01*
X2153Y462D02*
X2160Y462D01*
X2689Y462D02*
X2696Y462D01*
X0Y461D02*
X7Y461D01*
X261Y461D02*
X268Y461D01*
X2153Y461D02*
X2160Y461D01*
X2689Y461D02*
X2696Y461D01*
X0Y460D02*
X7Y460D01*
X261Y460D02*
X268Y460D01*
X2153Y460D02*
X2160Y460D01*
X2689Y460D02*
X2696Y460D01*
X0Y459D02*
X7Y459D01*
X261Y459D02*
X268Y459D01*
X2153Y459D02*
X2160Y459D01*
X2689Y459D02*
X2696Y459D01*
X0Y458D02*
X7Y458D01*
X261Y458D02*
X268Y458D01*
X2153Y458D02*
X2160Y458D01*
X2689Y458D02*
X2696Y458D01*
X0Y457D02*
X7Y457D01*
X261Y457D02*
X268Y457D01*
X2153Y457D02*
X2160Y457D01*
X2689Y457D02*
X2696Y457D01*
X0Y456D02*
X7Y456D01*
X261Y456D02*
X268Y456D01*
X2153Y456D02*
X2160Y456D01*
X2689Y456D02*
X2696Y456D01*
X0Y455D02*
X7Y455D01*
X261Y455D02*
X268Y455D01*
X2153Y455D02*
X2160Y455D01*
X2689Y455D02*
X2696Y455D01*
X0Y454D02*
X7Y454D01*
X261Y454D02*
X268Y454D01*
X2153Y454D02*
X2160Y454D01*
X2689Y454D02*
X2696Y454D01*
X0Y453D02*
X7Y453D01*
X261Y453D02*
X268Y453D01*
X2153Y453D02*
X2160Y453D01*
X2689Y453D02*
X2696Y453D01*
X0Y452D02*
X7Y452D01*
X261Y452D02*
X268Y452D01*
X2153Y452D02*
X2160Y452D01*
X2689Y452D02*
X2696Y452D01*
X0Y451D02*
X7Y451D01*
X261Y451D02*
X268Y451D01*
X2153Y451D02*
X2160Y451D01*
X2689Y451D02*
X2696Y451D01*
X0Y450D02*
X7Y450D01*
X261Y450D02*
X268Y450D01*
X2153Y450D02*
X2160Y450D01*
X2689Y450D02*
X2696Y450D01*
X0Y449D02*
X7Y449D01*
X261Y449D02*
X268Y449D01*
X2153Y449D02*
X2160Y449D01*
X2689Y449D02*
X2696Y449D01*
X0Y448D02*
X7Y448D01*
X261Y448D02*
X268Y448D01*
X2153Y448D02*
X2160Y448D01*
X2689Y448D02*
X2696Y448D01*
X0Y447D02*
X7Y447D01*
X261Y447D02*
X268Y447D01*
X2153Y447D02*
X2160Y447D01*
X2689Y447D02*
X2696Y447D01*
X0Y446D02*
X7Y446D01*
X261Y446D02*
X268Y446D01*
X2153Y446D02*
X2160Y446D01*
X2689Y446D02*
X2696Y446D01*
X0Y445D02*
X7Y445D01*
X261Y445D02*
X268Y445D01*
X2153Y445D02*
X2160Y445D01*
X2689Y445D02*
X2696Y445D01*
X0Y444D02*
X7Y444D01*
X261Y444D02*
X268Y444D01*
X2153Y444D02*
X2160Y444D01*
X2689Y444D02*
X2696Y444D01*
X0Y443D02*
X7Y443D01*
X261Y443D02*
X268Y443D01*
X2153Y443D02*
X2160Y443D01*
X2689Y443D02*
X2696Y443D01*
X0Y442D02*
X7Y442D01*
X261Y442D02*
X268Y442D01*
X2153Y442D02*
X2160Y442D01*
X2689Y442D02*
X2696Y442D01*
X0Y441D02*
X7Y441D01*
X261Y441D02*
X268Y441D01*
X2153Y441D02*
X2160Y441D01*
X2689Y441D02*
X2696Y441D01*
X0Y440D02*
X7Y440D01*
X261Y440D02*
X268Y440D01*
X2153Y440D02*
X2160Y440D01*
X2689Y440D02*
X2696Y440D01*
X0Y439D02*
X7Y439D01*
X261Y439D02*
X268Y439D01*
X2153Y439D02*
X2160Y439D01*
X2689Y439D02*
X2696Y439D01*
X0Y438D02*
X7Y438D01*
X261Y438D02*
X268Y438D01*
X2153Y438D02*
X2160Y438D01*
X2689Y438D02*
X2696Y438D01*
X0Y437D02*
X7Y437D01*
X261Y437D02*
X268Y437D01*
X2153Y437D02*
X2160Y437D01*
X2689Y437D02*
X2696Y437D01*
X0Y436D02*
X7Y436D01*
X261Y436D02*
X268Y436D01*
X2153Y436D02*
X2160Y436D01*
X2689Y436D02*
X2696Y436D01*
X0Y435D02*
X7Y435D01*
X261Y435D02*
X268Y435D01*
X2153Y435D02*
X2160Y435D01*
X2689Y435D02*
X2696Y435D01*
X0Y434D02*
X7Y434D01*
X261Y434D02*
X268Y434D01*
X2153Y434D02*
X2160Y434D01*
X2689Y434D02*
X2696Y434D01*
X0Y433D02*
X7Y433D01*
X261Y433D02*
X268Y433D01*
X2153Y433D02*
X2160Y433D01*
X2689Y433D02*
X2696Y433D01*
X0Y432D02*
X7Y432D01*
X261Y432D02*
X268Y432D01*
X2153Y432D02*
X2160Y432D01*
X2689Y432D02*
X2696Y432D01*
X0Y431D02*
X7Y431D01*
X261Y431D02*
X268Y431D01*
X2153Y431D02*
X2160Y431D01*
X2689Y431D02*
X2696Y431D01*
X0Y430D02*
X7Y430D01*
X261Y430D02*
X268Y430D01*
X2153Y430D02*
X2160Y430D01*
X2689Y430D02*
X2696Y430D01*
X0Y429D02*
X7Y429D01*
X261Y429D02*
X268Y429D01*
X2153Y429D02*
X2160Y429D01*
X2689Y429D02*
X2696Y429D01*
X0Y428D02*
X7Y428D01*
X261Y428D02*
X268Y428D01*
X2153Y428D02*
X2160Y428D01*
X2689Y428D02*
X2696Y428D01*
X0Y427D02*
X7Y427D01*
X261Y427D02*
X268Y427D01*
X2153Y427D02*
X2160Y427D01*
X2689Y427D02*
X2696Y427D01*
X0Y426D02*
X7Y426D01*
X261Y426D02*
X268Y426D01*
X2153Y426D02*
X2160Y426D01*
X2689Y426D02*
X2696Y426D01*
X0Y425D02*
X7Y425D01*
X261Y425D02*
X268Y425D01*
X2153Y425D02*
X2160Y425D01*
X2689Y425D02*
X2696Y425D01*
X0Y424D02*
X7Y424D01*
X261Y424D02*
X268Y424D01*
X2153Y424D02*
X2160Y424D01*
X2689Y424D02*
X2696Y424D01*
X0Y423D02*
X7Y423D01*
X261Y423D02*
X268Y423D01*
X2153Y423D02*
X2160Y423D01*
X2689Y423D02*
X2696Y423D01*
X0Y422D02*
X7Y422D01*
X261Y422D02*
X268Y422D01*
X2153Y422D02*
X2160Y422D01*
X2689Y422D02*
X2696Y422D01*
X0Y421D02*
X7Y421D01*
X261Y421D02*
X268Y421D01*
X2153Y421D02*
X2160Y421D01*
X2689Y421D02*
X2696Y421D01*
X0Y420D02*
X7Y420D01*
X261Y420D02*
X268Y420D01*
X2153Y420D02*
X2160Y420D01*
X2689Y420D02*
X2696Y420D01*
X0Y419D02*
X7Y419D01*
X261Y419D02*
X268Y419D01*
X2153Y419D02*
X2160Y419D01*
X2689Y419D02*
X2696Y419D01*
X0Y418D02*
X7Y418D01*
X261Y418D02*
X268Y418D01*
X2153Y418D02*
X2160Y418D01*
X2689Y418D02*
X2696Y418D01*
X0Y417D02*
X7Y417D01*
X261Y417D02*
X268Y417D01*
X2153Y417D02*
X2160Y417D01*
X2689Y417D02*
X2696Y417D01*
X0Y416D02*
X7Y416D01*
X261Y416D02*
X268Y416D01*
X2153Y416D02*
X2160Y416D01*
X2689Y416D02*
X2696Y416D01*
X0Y415D02*
X7Y415D01*
X261Y415D02*
X268Y415D01*
X2153Y415D02*
X2160Y415D01*
X2689Y415D02*
X2696Y415D01*
X0Y414D02*
X7Y414D01*
X261Y414D02*
X268Y414D01*
X2153Y414D02*
X2160Y414D01*
X2689Y414D02*
X2696Y414D01*
X0Y413D02*
X7Y413D01*
X261Y413D02*
X268Y413D01*
X2153Y413D02*
X2160Y413D01*
X2689Y413D02*
X2696Y413D01*
X0Y412D02*
X7Y412D01*
X261Y412D02*
X268Y412D01*
X2153Y412D02*
X2160Y412D01*
X2689Y412D02*
X2696Y412D01*
X0Y411D02*
X7Y411D01*
X261Y411D02*
X268Y411D01*
X2153Y411D02*
X2160Y411D01*
X2689Y411D02*
X2696Y411D01*
X0Y410D02*
X7Y410D01*
X261Y410D02*
X268Y410D01*
X2153Y410D02*
X2160Y410D01*
X2689Y410D02*
X2696Y410D01*
X0Y409D02*
X7Y409D01*
X261Y409D02*
X268Y409D01*
X2153Y409D02*
X2160Y409D01*
X2689Y409D02*
X2696Y409D01*
X0Y408D02*
X7Y408D01*
X261Y408D02*
X268Y408D01*
X2153Y408D02*
X2160Y408D01*
X2689Y408D02*
X2696Y408D01*
X0Y407D02*
X7Y407D01*
X261Y407D02*
X268Y407D01*
X2153Y407D02*
X2160Y407D01*
X2689Y407D02*
X2696Y407D01*
X0Y406D02*
X7Y406D01*
X261Y406D02*
X268Y406D01*
X2153Y406D02*
X2160Y406D01*
X2689Y406D02*
X2696Y406D01*
X0Y405D02*
X7Y405D01*
X261Y405D02*
X268Y405D01*
X2153Y405D02*
X2160Y405D01*
X2689Y405D02*
X2696Y405D01*
X0Y404D02*
X7Y404D01*
X261Y404D02*
X268Y404D01*
X2153Y404D02*
X2160Y404D01*
X2689Y404D02*
X2696Y404D01*
X0Y403D02*
X7Y403D01*
X261Y403D02*
X268Y403D01*
X2153Y403D02*
X2160Y403D01*
X2689Y403D02*
X2696Y403D01*
X0Y402D02*
X7Y402D01*
X261Y402D02*
X268Y402D01*
X2153Y402D02*
X2160Y402D01*
X2689Y402D02*
X2696Y402D01*
X0Y401D02*
X7Y401D01*
X261Y401D02*
X268Y401D01*
X2153Y401D02*
X2160Y401D01*
X2689Y401D02*
X2696Y401D01*
X0Y400D02*
X7Y400D01*
X261Y400D02*
X268Y400D01*
X2153Y400D02*
X2160Y400D01*
X2689Y400D02*
X2696Y400D01*
X0Y399D02*
X7Y399D01*
X261Y399D02*
X268Y399D01*
X2153Y399D02*
X2160Y399D01*
X2689Y399D02*
X2696Y399D01*
X0Y398D02*
X7Y398D01*
X261Y398D02*
X268Y398D01*
X2153Y398D02*
X2160Y398D01*
X2689Y398D02*
X2696Y398D01*
X0Y397D02*
X7Y397D01*
X261Y397D02*
X268Y397D01*
X2153Y397D02*
X2160Y397D01*
X2689Y397D02*
X2696Y397D01*
X0Y396D02*
X7Y396D01*
X261Y396D02*
X268Y396D01*
X2153Y396D02*
X2160Y396D01*
X2689Y396D02*
X2696Y396D01*
X0Y395D02*
X7Y395D01*
X261Y395D02*
X268Y395D01*
X2153Y395D02*
X2160Y395D01*
X2689Y395D02*
X2696Y395D01*
X0Y394D02*
X7Y394D01*
X261Y394D02*
X268Y394D01*
X2153Y394D02*
X2160Y394D01*
X2689Y394D02*
X2696Y394D01*
X0Y393D02*
X7Y393D01*
X261Y393D02*
X268Y393D01*
X2153Y393D02*
X2160Y393D01*
X2689Y393D02*
X2696Y393D01*
X0Y392D02*
X7Y392D01*
X261Y392D02*
X268Y392D01*
X2153Y392D02*
X2160Y392D01*
X2689Y392D02*
X2696Y392D01*
X0Y391D02*
X7Y391D01*
X261Y391D02*
X268Y391D01*
X2153Y391D02*
X2160Y391D01*
X2689Y391D02*
X2696Y391D01*
X0Y390D02*
X7Y390D01*
X261Y390D02*
X268Y390D01*
X2153Y390D02*
X2160Y390D01*
X2689Y390D02*
X2696Y390D01*
X0Y389D02*
X7Y389D01*
X261Y389D02*
X268Y389D01*
X2153Y389D02*
X2160Y389D01*
X2689Y389D02*
X2696Y389D01*
X0Y388D02*
X7Y388D01*
X261Y388D02*
X268Y388D01*
X2153Y388D02*
X2160Y388D01*
X2689Y388D02*
X2696Y388D01*
X0Y387D02*
X7Y387D01*
X261Y387D02*
X268Y387D01*
X2153Y387D02*
X2160Y387D01*
X2689Y387D02*
X2696Y387D01*
X0Y386D02*
X7Y386D01*
X261Y386D02*
X268Y386D01*
X2153Y386D02*
X2160Y386D01*
X2689Y386D02*
X2696Y386D01*
X0Y385D02*
X7Y385D01*
X261Y385D02*
X268Y385D01*
X2153Y385D02*
X2160Y385D01*
X2689Y385D02*
X2696Y385D01*
X0Y384D02*
X7Y384D01*
X261Y384D02*
X268Y384D01*
X2153Y384D02*
X2160Y384D01*
X2689Y384D02*
X2696Y384D01*
X0Y383D02*
X7Y383D01*
X261Y383D02*
X268Y383D01*
X2153Y383D02*
X2160Y383D01*
X2689Y383D02*
X2696Y383D01*
X0Y382D02*
X7Y382D01*
X261Y382D02*
X268Y382D01*
X2153Y382D02*
X2160Y382D01*
X2689Y382D02*
X2696Y382D01*
X0Y381D02*
X7Y381D01*
X261Y381D02*
X268Y381D01*
X2153Y381D02*
X2160Y381D01*
X2689Y381D02*
X2696Y381D01*
X0Y380D02*
X7Y380D01*
X261Y380D02*
X268Y380D01*
X2153Y380D02*
X2160Y380D01*
X2689Y380D02*
X2696Y380D01*
X0Y379D02*
X7Y379D01*
X261Y379D02*
X268Y379D01*
X2153Y379D02*
X2160Y379D01*
X2689Y379D02*
X2696Y379D01*
X0Y378D02*
X7Y378D01*
X261Y378D02*
X268Y378D01*
X2153Y378D02*
X2160Y378D01*
X2689Y378D02*
X2696Y378D01*
X1Y377D02*
X8Y377D01*
X261Y377D02*
X268Y377D01*
X2153Y377D02*
X2160Y377D01*
X2688Y377D02*
X2695Y377D01*
X1Y376D02*
X8Y376D01*
X261Y376D02*
X268Y376D01*
X2153Y376D02*
X2160Y376D01*
X2688Y376D02*
X2695Y376D01*
X1Y375D02*
X8Y375D01*
X261Y375D02*
X268Y375D01*
X2153Y375D02*
X2160Y375D01*
X2688Y375D02*
X2695Y375D01*
X1Y374D02*
X8Y374D01*
X261Y374D02*
X268Y374D01*
X2153Y374D02*
X2160Y374D01*
X2688Y374D02*
X2695Y374D01*
X1Y373D02*
X8Y373D01*
X261Y373D02*
X268Y373D01*
X2153Y373D02*
X2160Y373D01*
X2688Y373D02*
X2695Y373D01*
X1Y372D02*
X8Y372D01*
X261Y372D02*
X268Y372D01*
X2153Y372D02*
X2160Y372D01*
X2688Y372D02*
X2695Y372D01*
X1Y371D02*
X8Y371D01*
X261Y371D02*
X268Y371D01*
X2153Y371D02*
X2160Y371D01*
X2688Y371D02*
X2695Y371D01*
X1Y370D02*
X8Y370D01*
X261Y370D02*
X268Y370D01*
X2153Y370D02*
X2160Y370D01*
X2688Y370D02*
X2695Y370D01*
X1Y369D02*
X8Y369D01*
X261Y369D02*
X268Y369D01*
X2153Y369D02*
X2160Y369D01*
X2688Y369D02*
X2695Y369D01*
X1Y368D02*
X8Y368D01*
X261Y368D02*
X268Y368D01*
X2153Y368D02*
X2160Y368D01*
X2688Y368D02*
X2695Y368D01*
X1Y367D02*
X8Y367D01*
X261Y367D02*
X268Y367D01*
X2153Y367D02*
X2160Y367D01*
X2688Y367D02*
X2695Y367D01*
X1Y366D02*
X8Y366D01*
X261Y366D02*
X268Y366D01*
X2153Y366D02*
X2160Y366D01*
X2688Y366D02*
X2695Y366D01*
X1Y365D02*
X8Y365D01*
X261Y365D02*
X268Y365D01*
X2153Y365D02*
X2160Y365D01*
X2688Y365D02*
X2695Y365D01*
X1Y364D02*
X8Y364D01*
X261Y364D02*
X268Y364D01*
X2153Y364D02*
X2160Y364D01*
X2688Y364D02*
X2695Y364D01*
X2Y363D02*
X9Y363D01*
X261Y363D02*
X268Y363D01*
X2153Y363D02*
X2160Y363D01*
X2687Y363D02*
X2694Y363D01*
X2Y362D02*
X9Y362D01*
X261Y362D02*
X268Y362D01*
X2153Y362D02*
X2160Y362D01*
X2687Y362D02*
X2694Y362D01*
X2Y361D02*
X9Y361D01*
X261Y361D02*
X268Y361D01*
X2153Y361D02*
X2160Y361D01*
X2687Y361D02*
X2694Y361D01*
X2Y360D02*
X9Y360D01*
X261Y360D02*
X268Y360D01*
X2153Y360D02*
X2160Y360D01*
X2687Y360D02*
X2694Y360D01*
X2Y359D02*
X9Y359D01*
X261Y359D02*
X268Y359D01*
X2153Y359D02*
X2160Y359D01*
X2687Y359D02*
X2694Y359D01*
X2Y358D02*
X9Y358D01*
X261Y358D02*
X268Y358D01*
X2153Y358D02*
X2160Y358D01*
X2687Y358D02*
X2694Y358D01*
X2Y357D02*
X9Y357D01*
X261Y357D02*
X268Y357D01*
X2153Y357D02*
X2160Y357D01*
X2687Y357D02*
X2694Y357D01*
X2Y356D02*
X9Y356D01*
X261Y356D02*
X268Y356D01*
X2153Y356D02*
X2160Y356D01*
X2687Y356D02*
X2694Y356D01*
X2Y355D02*
X9Y355D01*
X261Y355D02*
X268Y355D01*
X2153Y355D02*
X2160Y355D01*
X2687Y355D02*
X2694Y355D01*
X2Y354D02*
X9Y354D01*
X261Y354D02*
X268Y354D01*
X2153Y354D02*
X2160Y354D01*
X2687Y354D02*
X2694Y354D01*
X2Y353D02*
X10Y353D01*
X261Y353D02*
X268Y353D01*
X2153Y353D02*
X2160Y353D01*
X2686Y353D02*
X2694Y353D01*
X3Y352D02*
X10Y352D01*
X261Y352D02*
X268Y352D01*
X2153Y352D02*
X2160Y352D01*
X2686Y352D02*
X2693Y352D01*
X3Y351D02*
X10Y351D01*
X261Y351D02*
X268Y351D01*
X2153Y351D02*
X2160Y351D01*
X2686Y351D02*
X2693Y351D01*
X3Y350D02*
X10Y350D01*
X261Y350D02*
X268Y350D01*
X2153Y350D02*
X2160Y350D01*
X2686Y350D02*
X2693Y350D01*
X3Y349D02*
X10Y349D01*
X261Y349D02*
X268Y349D01*
X2153Y349D02*
X2160Y349D01*
X2686Y349D02*
X2693Y349D01*
X3Y348D02*
X10Y348D01*
X261Y348D02*
X268Y348D01*
X2153Y348D02*
X2160Y348D01*
X2686Y348D02*
X2693Y348D01*
X3Y347D02*
X10Y347D01*
X261Y347D02*
X268Y347D01*
X2153Y347D02*
X2160Y347D01*
X2686Y347D02*
X2693Y347D01*
X3Y346D02*
X10Y346D01*
X261Y346D02*
X268Y346D01*
X2153Y346D02*
X2160Y346D01*
X2686Y346D02*
X2693Y346D01*
X3Y345D02*
X10Y345D01*
X261Y345D02*
X268Y345D01*
X2153Y345D02*
X2160Y345D01*
X2686Y345D02*
X2693Y345D01*
X4Y344D02*
X11Y344D01*
X261Y344D02*
X268Y344D01*
X2153Y344D02*
X2160Y344D01*
X2685Y344D02*
X2692Y344D01*
X4Y343D02*
X11Y343D01*
X261Y343D02*
X268Y343D01*
X2153Y343D02*
X2160Y343D01*
X2685Y343D02*
X2692Y343D01*
X4Y342D02*
X11Y342D01*
X261Y342D02*
X268Y342D01*
X2153Y342D02*
X2160Y342D01*
X2685Y342D02*
X2692Y342D01*
X4Y341D02*
X11Y341D01*
X261Y341D02*
X268Y341D01*
X2153Y341D02*
X2160Y341D01*
X2685Y341D02*
X2692Y341D01*
X4Y340D02*
X11Y340D01*
X261Y340D02*
X268Y340D01*
X2153Y340D02*
X2160Y340D01*
X2685Y340D02*
X2692Y340D01*
X4Y339D02*
X11Y339D01*
X261Y339D02*
X268Y339D01*
X2153Y339D02*
X2160Y339D01*
X2685Y339D02*
X2692Y339D01*
X4Y338D02*
X11Y338D01*
X261Y338D02*
X268Y338D01*
X2153Y338D02*
X2160Y338D01*
X2685Y338D02*
X2692Y338D01*
X5Y337D02*
X12Y337D01*
X261Y337D02*
X268Y337D01*
X2153Y337D02*
X2160Y337D01*
X2684Y337D02*
X2691Y337D01*
X5Y336D02*
X12Y336D01*
X261Y336D02*
X268Y336D01*
X2153Y336D02*
X2160Y336D01*
X2684Y336D02*
X2691Y336D01*
X5Y335D02*
X12Y335D01*
X261Y335D02*
X268Y335D01*
X2153Y335D02*
X2160Y335D01*
X2684Y335D02*
X2691Y335D01*
X5Y334D02*
X12Y334D01*
X261Y334D02*
X268Y334D01*
X2153Y334D02*
X2160Y334D01*
X2684Y334D02*
X2691Y334D01*
X5Y333D02*
X12Y333D01*
X261Y333D02*
X268Y333D01*
X2153Y333D02*
X2160Y333D01*
X2684Y333D02*
X2691Y333D01*
X5Y332D02*
X12Y332D01*
X261Y332D02*
X268Y332D01*
X2153Y332D02*
X2160Y332D01*
X2684Y332D02*
X2691Y332D01*
X6Y331D02*
X13Y331D01*
X261Y331D02*
X268Y331D01*
X2153Y331D02*
X2160Y331D01*
X2683Y331D02*
X2690Y331D01*
X6Y330D02*
X13Y330D01*
X261Y330D02*
X268Y330D01*
X2153Y330D02*
X2160Y330D01*
X2683Y330D02*
X2690Y330D01*
X6Y329D02*
X13Y329D01*
X261Y329D02*
X268Y329D01*
X2153Y329D02*
X2160Y329D01*
X2683Y329D02*
X2690Y329D01*
X6Y328D02*
X13Y328D01*
X261Y328D02*
X268Y328D01*
X2153Y328D02*
X2160Y328D01*
X2683Y328D02*
X2690Y328D01*
X6Y327D02*
X13Y327D01*
X261Y327D02*
X268Y327D01*
X2153Y327D02*
X2160Y327D01*
X2683Y327D02*
X2690Y327D01*
X6Y326D02*
X13Y326D01*
X261Y326D02*
X268Y326D01*
X2153Y326D02*
X2160Y326D01*
X2682Y326D02*
X2690Y326D01*
X7Y325D02*
X14Y325D01*
X261Y325D02*
X268Y325D01*
X2153Y325D02*
X2160Y325D01*
X2682Y325D02*
X2689Y325D01*
X7Y324D02*
X14Y324D01*
X261Y324D02*
X268Y324D01*
X2153Y324D02*
X2160Y324D01*
X2682Y324D02*
X2689Y324D01*
X7Y323D02*
X14Y323D01*
X261Y323D02*
X268Y323D01*
X2153Y323D02*
X2160Y323D01*
X2682Y323D02*
X2689Y323D01*
X7Y322D02*
X14Y322D01*
X261Y322D02*
X268Y322D01*
X2153Y322D02*
X2160Y322D01*
X2682Y322D02*
X2689Y322D01*
X7Y321D02*
X14Y321D01*
X261Y321D02*
X268Y321D01*
X2153Y321D02*
X2160Y321D01*
X2682Y321D02*
X2689Y321D01*
X8Y320D02*
X15Y320D01*
X261Y320D02*
X268Y320D01*
X2153Y320D02*
X2160Y320D01*
X2681Y320D02*
X2688Y320D01*
X8Y319D02*
X15Y319D01*
X261Y319D02*
X268Y319D01*
X2153Y319D02*
X2160Y319D01*
X2681Y319D02*
X2688Y319D01*
X8Y318D02*
X15Y318D01*
X261Y318D02*
X268Y318D01*
X2153Y318D02*
X2160Y318D01*
X2681Y318D02*
X2688Y318D01*
X8Y317D02*
X15Y317D01*
X261Y317D02*
X268Y317D01*
X2153Y317D02*
X2160Y317D01*
X2681Y317D02*
X2688Y317D01*
X8Y316D02*
X15Y316D01*
X261Y316D02*
X268Y316D01*
X2153Y316D02*
X2160Y316D01*
X2681Y316D02*
X2688Y316D01*
X9Y315D02*
X16Y315D01*
X261Y315D02*
X268Y315D01*
X2153Y315D02*
X2160Y315D01*
X2680Y315D02*
X2687Y315D01*
X9Y314D02*
X16Y314D01*
X261Y314D02*
X268Y314D01*
X2153Y314D02*
X2160Y314D01*
X2680Y314D02*
X2687Y314D01*
X9Y313D02*
X16Y313D01*
X261Y313D02*
X268Y313D01*
X2153Y313D02*
X2160Y313D01*
X2680Y313D02*
X2687Y313D01*
X9Y312D02*
X16Y312D01*
X261Y312D02*
X268Y312D01*
X2153Y312D02*
X2160Y312D01*
X2680Y312D02*
X2687Y312D01*
X9Y311D02*
X17Y311D01*
X261Y311D02*
X268Y311D01*
X2153Y311D02*
X2160Y311D01*
X2679Y311D02*
X2687Y311D01*
X10Y310D02*
X17Y310D01*
X261Y310D02*
X268Y310D01*
X2153Y310D02*
X2160Y310D01*
X2679Y310D02*
X2686Y310D01*
X10Y309D02*
X17Y309D01*
X261Y309D02*
X268Y309D01*
X2153Y309D02*
X2160Y309D01*
X2679Y309D02*
X2686Y309D01*
X10Y308D02*
X17Y308D01*
X261Y308D02*
X268Y308D01*
X2153Y308D02*
X2160Y308D01*
X2679Y308D02*
X2686Y308D01*
X10Y307D02*
X17Y307D01*
X261Y307D02*
X268Y307D01*
X2153Y307D02*
X2160Y307D01*
X2679Y307D02*
X2686Y307D01*
X11Y306D02*
X18Y306D01*
X261Y306D02*
X268Y306D01*
X2153Y306D02*
X2160Y306D01*
X2678Y306D02*
X2685Y306D01*
X11Y305D02*
X18Y305D01*
X261Y305D02*
X268Y305D01*
X2153Y305D02*
X2160Y305D01*
X2678Y305D02*
X2685Y305D01*
X11Y304D02*
X18Y304D01*
X261Y304D02*
X268Y304D01*
X2153Y304D02*
X2160Y304D01*
X2678Y304D02*
X2685Y304D01*
X11Y303D02*
X18Y303D01*
X261Y303D02*
X268Y303D01*
X2153Y303D02*
X2160Y303D01*
X2678Y303D02*
X2685Y303D01*
X12Y302D02*
X19Y302D01*
X261Y302D02*
X268Y302D01*
X2153Y302D02*
X2160Y302D01*
X2677Y302D02*
X2684Y302D01*
X12Y301D02*
X19Y301D01*
X261Y301D02*
X268Y301D01*
X2153Y301D02*
X2160Y301D01*
X2677Y301D02*
X2684Y301D01*
X12Y300D02*
X19Y300D01*
X261Y300D02*
X268Y300D01*
X2153Y300D02*
X2160Y300D01*
X2677Y300D02*
X2684Y300D01*
X12Y299D02*
X19Y299D01*
X261Y299D02*
X268Y299D01*
X2153Y299D02*
X2160Y299D01*
X2677Y299D02*
X2684Y299D01*
X13Y298D02*
X20Y298D01*
X261Y298D02*
X268Y298D01*
X2153Y298D02*
X2160Y298D01*
X2676Y298D02*
X2683Y298D01*
X13Y297D02*
X20Y297D01*
X261Y297D02*
X268Y297D01*
X2153Y297D02*
X2160Y297D01*
X2676Y297D02*
X2683Y297D01*
X13Y296D02*
X20Y296D01*
X261Y296D02*
X268Y296D01*
X2153Y296D02*
X2160Y296D01*
X2676Y296D02*
X2683Y296D01*
X13Y295D02*
X21Y295D01*
X261Y295D02*
X268Y295D01*
X2153Y295D02*
X2160Y295D01*
X2675Y295D02*
X2683Y295D01*
X14Y294D02*
X21Y294D01*
X261Y294D02*
X268Y294D01*
X2153Y294D02*
X2160Y294D01*
X2675Y294D02*
X2682Y294D01*
X14Y293D02*
X21Y293D01*
X261Y293D02*
X268Y293D01*
X2153Y293D02*
X2160Y293D01*
X2675Y293D02*
X2682Y293D01*
X14Y292D02*
X21Y292D01*
X261Y292D02*
X268Y292D01*
X2153Y292D02*
X2160Y292D01*
X2675Y292D02*
X2682Y292D01*
X14Y291D02*
X22Y291D01*
X261Y291D02*
X268Y291D01*
X2153Y291D02*
X2160Y291D01*
X2674Y291D02*
X2682Y291D01*
X15Y290D02*
X22Y290D01*
X261Y290D02*
X268Y290D01*
X2153Y290D02*
X2160Y290D01*
X2674Y290D02*
X2681Y290D01*
X15Y289D02*
X22Y289D01*
X261Y289D02*
X268Y289D01*
X2153Y289D02*
X2160Y289D01*
X2674Y289D02*
X2681Y289D01*
X15Y288D02*
X23Y288D01*
X261Y288D02*
X268Y288D01*
X2153Y288D02*
X2160Y288D01*
X2673Y288D02*
X2681Y288D01*
X16Y287D02*
X23Y287D01*
X261Y287D02*
X268Y287D01*
X2153Y287D02*
X2160Y287D01*
X2673Y287D02*
X2680Y287D01*
X16Y286D02*
X23Y286D01*
X261Y286D02*
X268Y286D01*
X2153Y286D02*
X2160Y286D01*
X2673Y286D02*
X2680Y286D01*
X16Y285D02*
X23Y285D01*
X261Y285D02*
X268Y285D01*
X2153Y285D02*
X2160Y285D01*
X2673Y285D02*
X2680Y285D01*
X16Y284D02*
X24Y284D01*
X261Y284D02*
X268Y284D01*
X2153Y284D02*
X2160Y284D01*
X2672Y284D02*
X2680Y284D01*
X17Y283D02*
X24Y283D01*
X261Y283D02*
X268Y283D01*
X2153Y283D02*
X2160Y283D01*
X2672Y283D02*
X2679Y283D01*
X17Y282D02*
X24Y282D01*
X261Y282D02*
X268Y282D01*
X2153Y282D02*
X2160Y282D01*
X2672Y282D02*
X2679Y282D01*
X17Y281D02*
X25Y281D01*
X261Y281D02*
X268Y281D01*
X2153Y281D02*
X2160Y281D01*
X2671Y281D02*
X2679Y281D01*
X18Y280D02*
X25Y280D01*
X261Y280D02*
X268Y280D01*
X2153Y280D02*
X2160Y280D01*
X2671Y280D02*
X2678Y280D01*
X18Y279D02*
X25Y279D01*
X261Y279D02*
X268Y279D01*
X2153Y279D02*
X2160Y279D01*
X2671Y279D02*
X2678Y279D01*
X18Y278D02*
X26Y278D01*
X261Y278D02*
X268Y278D01*
X2153Y278D02*
X2160Y278D01*
X2670Y278D02*
X2678Y278D01*
X19Y277D02*
X26Y277D01*
X261Y277D02*
X268Y277D01*
X2153Y277D02*
X2160Y277D01*
X2670Y277D02*
X2677Y277D01*
X19Y276D02*
X26Y276D01*
X261Y276D02*
X268Y276D01*
X2153Y276D02*
X2160Y276D01*
X2670Y276D02*
X2677Y276D01*
X19Y275D02*
X27Y275D01*
X261Y275D02*
X268Y275D01*
X2153Y275D02*
X2160Y275D01*
X2669Y275D02*
X2677Y275D01*
X20Y274D02*
X27Y274D01*
X261Y274D02*
X268Y274D01*
X2153Y274D02*
X2160Y274D01*
X2669Y274D02*
X2676Y274D01*
X20Y273D02*
X27Y273D01*
X261Y273D02*
X268Y273D01*
X2153Y273D02*
X2160Y273D01*
X2669Y273D02*
X2676Y273D01*
X20Y272D02*
X28Y272D01*
X261Y272D02*
X268Y272D01*
X2153Y272D02*
X2160Y272D01*
X2668Y272D02*
X2676Y272D01*
X21Y271D02*
X28Y271D01*
X261Y271D02*
X268Y271D01*
X2153Y271D02*
X2160Y271D01*
X2668Y271D02*
X2675Y271D01*
X21Y270D02*
X28Y270D01*
X261Y270D02*
X268Y270D01*
X2153Y270D02*
X2160Y270D01*
X2668Y270D02*
X2675Y270D01*
X21Y269D02*
X29Y269D01*
X261Y269D02*
X268Y269D01*
X2153Y269D02*
X2160Y269D01*
X2667Y269D02*
X2675Y269D01*
X22Y268D02*
X29Y268D01*
X261Y268D02*
X268Y268D01*
X2153Y268D02*
X2160Y268D01*
X2667Y268D02*
X2674Y268D01*
X22Y267D02*
X29Y267D01*
X261Y267D02*
X268Y267D01*
X2153Y267D02*
X2160Y267D01*
X2667Y267D02*
X2674Y267D01*
X22Y266D02*
X30Y266D01*
X261Y266D02*
X268Y266D01*
X2153Y266D02*
X2160Y266D01*
X2666Y266D02*
X2674Y266D01*
X23Y265D02*
X30Y265D01*
X261Y265D02*
X268Y265D01*
X2153Y265D02*
X2160Y265D01*
X2666Y265D02*
X2673Y265D01*
X23Y264D02*
X30Y264D01*
X261Y264D02*
X268Y264D01*
X2153Y264D02*
X2160Y264D01*
X2666Y264D02*
X2673Y264D01*
X23Y263D02*
X31Y263D01*
X261Y263D02*
X268Y263D01*
X2153Y263D02*
X2160Y263D01*
X2665Y263D02*
X2673Y263D01*
X24Y262D02*
X31Y262D01*
X261Y262D02*
X268Y262D01*
X2153Y262D02*
X2160Y262D01*
X2665Y262D02*
X2672Y262D01*
X24Y261D02*
X32Y261D01*
X261Y261D02*
X268Y261D01*
X2153Y261D02*
X2160Y261D01*
X2664Y261D02*
X2672Y261D01*
X24Y260D02*
X32Y260D01*
X261Y260D02*
X268Y260D01*
X2153Y260D02*
X2160Y260D01*
X2664Y260D02*
X2672Y260D01*
X25Y259D02*
X32Y259D01*
X261Y259D02*
X268Y259D01*
X2153Y259D02*
X2160Y259D01*
X2664Y259D02*
X2671Y259D01*
X25Y258D02*
X33Y258D01*
X261Y258D02*
X268Y258D01*
X2153Y258D02*
X2160Y258D01*
X2663Y258D02*
X2671Y258D01*
X26Y257D02*
X33Y257D01*
X261Y257D02*
X268Y257D01*
X2153Y257D02*
X2160Y257D01*
X2663Y257D02*
X2670Y257D01*
X26Y256D02*
X33Y256D01*
X261Y256D02*
X268Y256D01*
X2153Y256D02*
X2160Y256D01*
X2663Y256D02*
X2670Y256D01*
X26Y255D02*
X34Y255D01*
X261Y255D02*
X268Y255D01*
X2153Y255D02*
X2160Y255D01*
X2662Y255D02*
X2670Y255D01*
X27Y254D02*
X34Y254D01*
X261Y254D02*
X268Y254D01*
X2153Y254D02*
X2160Y254D01*
X2662Y254D02*
X2669Y254D01*
X27Y253D02*
X35Y253D01*
X261Y253D02*
X268Y253D01*
X2153Y253D02*
X2160Y253D01*
X2661Y253D02*
X2669Y253D01*
X28Y252D02*
X35Y252D01*
X261Y252D02*
X268Y252D01*
X2153Y252D02*
X2160Y252D01*
X2661Y252D02*
X2668Y252D01*
X28Y251D02*
X35Y251D01*
X261Y251D02*
X268Y251D01*
X2153Y251D02*
X2160Y251D01*
X2661Y251D02*
X2668Y251D01*
X28Y250D02*
X36Y250D01*
X261Y250D02*
X268Y250D01*
X2153Y250D02*
X2160Y250D01*
X2660Y250D02*
X2668Y250D01*
X29Y249D02*
X36Y249D01*
X261Y249D02*
X268Y249D01*
X2153Y249D02*
X2160Y249D01*
X2660Y249D02*
X2667Y249D01*
X29Y248D02*
X37Y248D01*
X261Y248D02*
X268Y248D01*
X2153Y248D02*
X2160Y248D01*
X2659Y248D02*
X2667Y248D01*
X30Y247D02*
X37Y247D01*
X261Y247D02*
X268Y247D01*
X2153Y247D02*
X2160Y247D01*
X2659Y247D02*
X2666Y247D01*
X30Y246D02*
X37Y246D01*
X261Y246D02*
X268Y246D01*
X2153Y246D02*
X2160Y246D01*
X2659Y246D02*
X2666Y246D01*
X30Y245D02*
X38Y245D01*
X261Y245D02*
X268Y245D01*
X2153Y245D02*
X2160Y245D01*
X2658Y245D02*
X2666Y245D01*
X31Y244D02*
X38Y244D01*
X261Y244D02*
X268Y244D01*
X2153Y244D02*
X2160Y244D01*
X2658Y244D02*
X2665Y244D01*
X31Y243D02*
X39Y243D01*
X261Y243D02*
X268Y243D01*
X2153Y243D02*
X2160Y243D01*
X2657Y243D02*
X2665Y243D01*
X32Y242D02*
X39Y242D01*
X261Y242D02*
X268Y242D01*
X2153Y242D02*
X2160Y242D01*
X2657Y242D02*
X2664Y242D01*
X32Y241D02*
X40Y241D01*
X261Y241D02*
X268Y241D01*
X2153Y241D02*
X2160Y241D01*
X2656Y241D02*
X2664Y241D01*
X33Y240D02*
X40Y240D01*
X261Y240D02*
X268Y240D01*
X2153Y240D02*
X2160Y240D01*
X2656Y240D02*
X2663Y240D01*
X33Y239D02*
X41Y239D01*
X261Y239D02*
X268Y239D01*
X2153Y239D02*
X2160Y239D01*
X2655Y239D02*
X2663Y239D01*
X33Y238D02*
X41Y238D01*
X261Y238D02*
X268Y238D01*
X2153Y238D02*
X2160Y238D01*
X2655Y238D02*
X2663Y238D01*
X34Y237D02*
X41Y237D01*
X261Y237D02*
X268Y237D01*
X2153Y237D02*
X2160Y237D01*
X2655Y237D02*
X2662Y237D01*
X34Y236D02*
X42Y236D01*
X261Y236D02*
X268Y236D01*
X2153Y236D02*
X2160Y236D01*
X2654Y236D02*
X2662Y236D01*
X35Y235D02*
X42Y235D01*
X261Y235D02*
X268Y235D01*
X2153Y235D02*
X2160Y235D01*
X2654Y235D02*
X2661Y235D01*
X35Y234D02*
X43Y234D01*
X261Y234D02*
X268Y234D01*
X2153Y234D02*
X2160Y234D01*
X2653Y234D02*
X2661Y234D01*
X36Y233D02*
X43Y233D01*
X261Y233D02*
X268Y233D01*
X2153Y233D02*
X2160Y233D01*
X2653Y233D02*
X2660Y233D01*
X36Y232D02*
X44Y232D01*
X261Y232D02*
X268Y232D01*
X2153Y232D02*
X2160Y232D01*
X2652Y232D02*
X2660Y232D01*
X37Y231D02*
X44Y231D01*
X261Y231D02*
X268Y231D01*
X2153Y231D02*
X2160Y231D01*
X2652Y231D02*
X2659Y231D01*
X37Y230D02*
X45Y230D01*
X261Y230D02*
X268Y230D01*
X2153Y230D02*
X2160Y230D01*
X2651Y230D02*
X2659Y230D01*
X37Y229D02*
X45Y229D01*
X261Y229D02*
X268Y229D01*
X2153Y229D02*
X2160Y229D01*
X2651Y229D02*
X2659Y229D01*
X38Y228D02*
X46Y228D01*
X261Y228D02*
X268Y228D01*
X2153Y228D02*
X2160Y228D01*
X2650Y228D02*
X2658Y228D01*
X38Y227D02*
X46Y227D01*
X261Y227D02*
X268Y227D01*
X2153Y227D02*
X2160Y227D01*
X2650Y227D02*
X2658Y227D01*
X39Y226D02*
X47Y226D01*
X261Y226D02*
X2160Y226D01*
X2649Y226D02*
X2657Y226D01*
X39Y225D02*
X47Y225D01*
X261Y225D02*
X2160Y225D01*
X2649Y225D02*
X2657Y225D01*
X40Y224D02*
X48Y224D01*
X261Y224D02*
X2160Y224D01*
X2648Y224D02*
X2656Y224D01*
X40Y223D02*
X48Y223D01*
X261Y223D02*
X2160Y223D01*
X2648Y223D02*
X2656Y223D01*
X41Y222D02*
X49Y222D01*
X261Y222D02*
X2160Y222D01*
X2647Y222D02*
X2655Y222D01*
X41Y221D02*
X49Y221D01*
X261Y221D02*
X2160Y221D01*
X2647Y221D02*
X2655Y221D01*
X42Y220D02*
X50Y220D01*
X261Y220D02*
X2160Y220D01*
X2646Y220D02*
X2654Y220D01*
X42Y219D02*
X50Y219D01*
X261Y219D02*
X2160Y219D01*
X2646Y219D02*
X2654Y219D01*
X43Y218D02*
X51Y218D01*
X2645Y218D02*
X2653Y218D01*
X43Y217D02*
X51Y217D01*
X2645Y217D02*
X2653Y217D01*
X44Y216D02*
X52Y216D01*
X2644Y216D02*
X2652Y216D01*
X44Y215D02*
X52Y215D01*
X2644Y215D02*
X2652Y215D01*
X45Y214D02*
X53Y214D01*
X2643Y214D02*
X2651Y214D01*
X45Y213D02*
X53Y213D01*
X2643Y213D02*
X2651Y213D01*
X46Y212D02*
X54Y212D01*
X2642Y212D02*
X2650Y212D01*
X46Y211D02*
X54Y211D01*
X2642Y211D02*
X2650Y211D01*
X47Y210D02*
X55Y210D01*
X2641Y210D02*
X2649Y210D01*
X47Y209D02*
X55Y209D01*
X2641Y209D02*
X2649Y209D01*
X48Y208D02*
X56Y208D01*
X2640Y208D02*
X2648Y208D01*
X49Y207D02*
X57Y207D01*
X2639Y207D02*
X2647Y207D01*
X49Y206D02*
X57Y206D01*
X2639Y206D02*
X2647Y206D01*
X50Y205D02*
X58Y205D01*
X2638Y205D02*
X2646Y205D01*
X50Y204D02*
X58Y204D01*
X2638Y204D02*
X2646Y204D01*
X51Y203D02*
X59Y203D01*
X2637Y203D02*
X2645Y203D01*
X51Y202D02*
X59Y202D01*
X2637Y202D02*
X2645Y202D01*
X52Y201D02*
X60Y201D01*
X2636Y201D02*
X2644Y201D01*
X53Y200D02*
X61Y200D01*
X2635Y200D02*
X2643Y200D01*
X53Y199D02*
X61Y199D01*
X2635Y199D02*
X2643Y199D01*
X54Y198D02*
X62Y198D01*
X2634Y198D02*
X2642Y198D01*
X54Y197D02*
X62Y197D01*
X2634Y197D02*
X2642Y197D01*
X55Y196D02*
X63Y196D01*
X2633Y196D02*
X2641Y196D01*
X55Y195D02*
X64Y195D01*
X2632Y195D02*
X2641Y195D01*
X56Y194D02*
X64Y194D01*
X2632Y194D02*
X2640Y194D01*
X57Y193D02*
X65Y193D01*
X2631Y193D02*
X2639Y193D01*
X57Y192D02*
X66Y192D01*
X2630Y192D02*
X2639Y192D01*
X58Y191D02*
X66Y191D01*
X2630Y191D02*
X2638Y191D01*
X58Y190D02*
X67Y190D01*
X2629Y190D02*
X2638Y190D01*
X59Y189D02*
X67Y189D01*
X2629Y189D02*
X2637Y189D01*
X60Y188D02*
X68Y188D01*
X2628Y188D02*
X2636Y188D01*
X60Y187D02*
X69Y187D01*
X2627Y187D02*
X2636Y187D01*
X61Y186D02*
X69Y186D01*
X2627Y186D02*
X2635Y186D01*
X62Y185D02*
X70Y185D01*
X2626Y185D02*
X2634Y185D01*
X62Y184D02*
X71Y184D01*
X2625Y184D02*
X2634Y184D01*
X63Y183D02*
X71Y183D01*
X2625Y183D02*
X2633Y183D01*
X64Y182D02*
X72Y182D01*
X2624Y182D02*
X2632Y182D01*
X64Y181D02*
X73Y181D01*
X2623Y181D02*
X2632Y181D01*
X65Y180D02*
X73Y180D01*
X2623Y180D02*
X2631Y180D01*
X65Y179D02*
X74Y179D01*
X2622Y179D02*
X2631Y179D01*
X66Y178D02*
X75Y178D01*
X2621Y178D02*
X2630Y178D01*
X67Y177D02*
X75Y177D01*
X2621Y177D02*
X2629Y177D01*
X67Y176D02*
X76Y176D01*
X2620Y176D02*
X2629Y176D01*
X68Y175D02*
X77Y175D01*
X2619Y175D02*
X2628Y175D01*
X69Y174D02*
X77Y174D01*
X2619Y174D02*
X2627Y174D01*
X69Y173D02*
X78Y173D01*
X2618Y173D02*
X2627Y173D01*
X70Y172D02*
X79Y172D01*
X2617Y172D02*
X2626Y172D01*
X71Y171D02*
X80Y171D01*
X2616Y171D02*
X2625Y171D01*
X72Y170D02*
X80Y170D01*
X2616Y170D02*
X2624Y170D01*
X72Y169D02*
X81Y169D01*
X2615Y169D02*
X2624Y169D01*
X73Y168D02*
X82Y168D01*
X2614Y168D02*
X2623Y168D01*
X74Y167D02*
X82Y167D01*
X2614Y167D02*
X2622Y167D01*
X74Y166D02*
X83Y166D01*
X2613Y166D02*
X2622Y166D01*
X75Y165D02*
X84Y165D01*
X2612Y165D02*
X2621Y165D01*
X76Y164D02*
X85Y164D01*
X2611Y164D02*
X2620Y164D01*
X77Y163D02*
X85Y163D01*
X2611Y163D02*
X2619Y163D01*
X77Y162D02*
X86Y162D01*
X2610Y162D02*
X2619Y162D01*
X78Y161D02*
X87Y161D01*
X2609Y161D02*
X2618Y161D01*
X79Y160D02*
X88Y160D01*
X2608Y160D02*
X2617Y160D01*
X79Y159D02*
X89Y159D01*
X2607Y159D02*
X2617Y159D01*
X80Y158D02*
X89Y158D01*
X2607Y158D02*
X2616Y158D01*
X81Y157D02*
X90Y157D01*
X2606Y157D02*
X2615Y157D01*
X82Y156D02*
X91Y156D01*
X2605Y156D02*
X2614Y156D01*
X83Y155D02*
X92Y155D01*
X2604Y155D02*
X2613Y155D01*
X83Y154D02*
X92Y154D01*
X2604Y154D02*
X2613Y154D01*
X84Y153D02*
X93Y153D01*
X2603Y153D02*
X2612Y153D01*
X85Y152D02*
X94Y152D01*
X2602Y152D02*
X2611Y152D01*
X86Y151D02*
X95Y151D01*
X2601Y151D02*
X2610Y151D01*
X86Y150D02*
X96Y150D01*
X2600Y150D02*
X2610Y150D01*
X87Y149D02*
X97Y149D01*
X2599Y149D02*
X2609Y149D01*
X88Y148D02*
X97Y148D01*
X2599Y148D02*
X2608Y148D01*
X89Y147D02*
X98Y147D01*
X2598Y147D02*
X2607Y147D01*
X90Y146D02*
X99Y146D01*
X2597Y146D02*
X2606Y146D01*
X90Y145D02*
X100Y145D01*
X2596Y145D02*
X2606Y145D01*
X91Y144D02*
X101Y144D01*
X2595Y144D02*
X2605Y144D01*
X92Y143D02*
X102Y143D01*
X2594Y143D02*
X2604Y143D01*
X93Y142D02*
X103Y142D01*
X2593Y142D02*
X2603Y142D01*
X94Y141D02*
X103Y141D01*
X2593Y141D02*
X2602Y141D01*
X95Y140D02*
X104Y140D01*
X2592Y140D02*
X2601Y140D01*
X96Y139D02*
X105Y139D01*
X2591Y139D02*
X2600Y139D01*
X96Y138D02*
X106Y138D01*
X2590Y138D02*
X2600Y138D01*
X97Y137D02*
X107Y137D01*
X2589Y137D02*
X2599Y137D01*
X98Y136D02*
X108Y136D01*
X2588Y136D02*
X2598Y136D01*
X99Y135D02*
X109Y135D01*
X2587Y135D02*
X2597Y135D01*
X100Y134D02*
X110Y134D01*
X2586Y134D02*
X2596Y134D01*
X101Y133D02*
X111Y133D01*
X2585Y133D02*
X2595Y133D01*
X102Y132D02*
X112Y132D01*
X2584Y132D02*
X2594Y132D01*
X103Y131D02*
X113Y131D01*
X2583Y131D02*
X2593Y131D01*
X103Y130D02*
X113Y130D01*
X2583Y130D02*
X2593Y130D01*
X104Y129D02*
X114Y129D01*
X2582Y129D02*
X2592Y129D01*
X105Y128D02*
X115Y128D01*
X2581Y128D02*
X2591Y128D01*
X106Y127D02*
X116Y127D01*
X2580Y127D02*
X2590Y127D01*
X107Y126D02*
X117Y126D01*
X2579Y126D02*
X2589Y126D01*
X108Y125D02*
X118Y125D01*
X2578Y125D02*
X2588Y125D01*
X109Y124D02*
X119Y124D01*
X2577Y124D02*
X2587Y124D01*
X110Y123D02*
X120Y123D01*
X2576Y123D02*
X2586Y123D01*
X111Y122D02*
X121Y122D01*
X2575Y122D02*
X2585Y122D01*
X112Y121D02*
X122Y121D01*
X2574Y121D02*
X2584Y121D01*
X113Y120D02*
X123Y120D01*
X2573Y120D02*
X2583Y120D01*
X114Y119D02*
X124Y119D01*
X2572Y119D02*
X2582Y119D01*
X115Y118D02*
X125Y118D01*
X2571Y118D02*
X2581Y118D01*
X116Y117D02*
X126Y117D01*
X2570Y117D02*
X2580Y117D01*
X117Y116D02*
X127Y116D01*
X2569Y116D02*
X2579Y116D01*
X118Y115D02*
X128Y115D01*
X2568Y115D02*
X2578Y115D01*
X119Y114D02*
X130Y114D01*
X2566Y114D02*
X2577Y114D01*
X120Y113D02*
X131Y113D01*
X2565Y113D02*
X2576Y113D01*
X121Y112D02*
X132Y112D01*
X2564Y112D02*
X2575Y112D01*
X122Y111D02*
X133Y111D01*
X2563Y111D02*
X2574Y111D01*
X123Y110D02*
X134Y110D01*
X2562Y110D02*
X2573Y110D01*
X124Y109D02*
X135Y109D01*
X2561Y109D02*
X2572Y109D01*
X125Y108D02*
X136Y108D01*
X2560Y108D02*
X2571Y108D01*
X126Y107D02*
X137Y107D01*
X2559Y107D02*
X2570Y107D01*
X127Y106D02*
X138Y106D01*
X2558Y106D02*
X2569Y106D01*
X128Y105D02*
X139Y105D01*
X2557Y105D02*
X2568Y105D01*
X129Y104D02*
X141Y104D01*
X2555Y104D02*
X2567Y104D01*
X131Y103D02*
X142Y103D01*
X2554Y103D02*
X2565Y103D01*
X132Y102D02*
X143Y102D01*
X2553Y102D02*
X2564Y102D01*
X133Y101D02*
X144Y101D01*
X2552Y101D02*
X2563Y101D01*
X134Y100D02*
X145Y100D01*
X2551Y100D02*
X2562Y100D01*
X135Y99D02*
X146Y99D01*
X2550Y99D02*
X2561Y99D01*
X136Y98D02*
X148Y98D01*
X2548Y98D02*
X2560Y98D01*
X137Y97D02*
X149Y97D01*
X2547Y97D02*
X2559Y97D01*
X139Y96D02*
X150Y96D01*
X2546Y96D02*
X2557Y96D01*
X140Y95D02*
X151Y95D01*
X2545Y95D02*
X2556Y95D01*
X141Y94D02*
X153Y94D01*
X2543Y94D02*
X2555Y94D01*
X142Y93D02*
X154Y93D01*
X2542Y93D02*
X2554Y93D01*
X143Y92D02*
X155Y92D01*
X2541Y92D02*
X2553Y92D01*
X145Y91D02*
X156Y91D01*
X2540Y91D02*
X2551Y91D01*
X146Y90D02*
X158Y90D01*
X2538Y90D02*
X2550Y90D01*
X147Y89D02*
X159Y89D01*
X2537Y89D02*
X2549Y89D01*
X148Y88D02*
X160Y88D01*
X2536Y88D02*
X2548Y88D01*
X150Y87D02*
X161Y87D01*
X2535Y87D02*
X2546Y87D01*
X151Y86D02*
X163Y86D01*
X2533Y86D02*
X2545Y86D01*
X152Y85D02*
X164Y85D01*
X2532Y85D02*
X2544Y85D01*
X153Y84D02*
X166Y84D01*
X2530Y84D02*
X2543Y84D01*
X155Y83D02*
X167Y83D01*
X2529Y83D02*
X2541Y83D01*
X156Y82D02*
X168Y82D01*
X2528Y82D02*
X2540Y82D01*
X157Y81D02*
X170Y81D01*
X2526Y81D02*
X2539Y81D01*
X158Y80D02*
X171Y80D01*
X2525Y80D02*
X2538Y80D01*
X160Y79D02*
X173Y79D01*
X2523Y79D02*
X2536Y79D01*
X161Y78D02*
X174Y78D01*
X2522Y78D02*
X2535Y78D01*
X163Y77D02*
X175Y77D01*
X2521Y77D02*
X2533Y77D01*
X164Y76D02*
X177Y76D01*
X2519Y76D02*
X2532Y76D01*
X165Y75D02*
X178Y75D01*
X2518Y75D02*
X2531Y75D01*
X167Y74D02*
X180Y74D01*
X2516Y74D02*
X2529Y74D01*
X168Y73D02*
X181Y73D01*
X2515Y73D02*
X2528Y73D01*
X170Y72D02*
X183Y72D01*
X2513Y72D02*
X2526Y72D01*
X171Y71D02*
X184Y71D01*
X2512Y71D02*
X2525Y71D01*
X172Y70D02*
X186Y70D01*
X2510Y70D02*
X2524Y70D01*
X174Y69D02*
X187Y69D01*
X2508Y69D02*
X2522Y69D01*
X175Y68D02*
X189Y68D01*
X2507Y68D02*
X2521Y68D01*
X177Y67D02*
X191Y67D01*
X2505Y67D02*
X2519Y67D01*
X179Y66D02*
X192Y66D01*
X2504Y66D02*
X2517Y66D01*
X180Y65D02*
X194Y65D01*
X2502Y65D02*
X2516Y65D01*
X182Y64D02*
X196Y64D01*
X2500Y64D02*
X2514Y64D01*
X183Y63D02*
X197Y63D01*
X2499Y63D02*
X2513Y63D01*
X185Y62D02*
X199Y62D01*
X2497Y62D02*
X2511Y62D01*
X186Y61D02*
X201Y61D01*
X2495Y61D02*
X2510Y61D01*
X188Y60D02*
X202Y60D01*
X2494Y60D02*
X2508Y60D01*
X189Y59D02*
X204Y59D01*
X2492Y59D02*
X2507Y59D01*
X191Y58D02*
X206Y58D01*
X2490Y58D02*
X2505Y58D01*
X193Y57D02*
X208Y57D01*
X2488Y57D02*
X2503Y57D01*
X195Y56D02*
X209Y56D01*
X2487Y56D02*
X2501Y56D01*
X196Y55D02*
X211Y55D01*
X2485Y55D02*
X2500Y55D01*
X198Y54D02*
X213Y54D01*
X2483Y54D02*
X2498Y54D01*
X200Y53D02*
X215Y53D01*
X2481Y53D02*
X2496Y53D01*
X202Y52D02*
X217Y52D01*
X2479Y52D02*
X2494Y52D01*
X203Y51D02*
X219Y51D01*
X2477Y51D02*
X2493Y51D01*
X205Y50D02*
X221Y50D01*
X2475Y50D02*
X2491Y50D01*
X207Y49D02*
X223Y49D01*
X2473Y49D02*
X2489Y49D01*
X209Y48D02*
X225Y48D01*
X2471Y48D02*
X2487Y48D01*
X211Y47D02*
X227Y47D01*
X2469Y47D02*
X2485Y47D01*
X213Y46D02*
X229Y46D01*
X2467Y46D02*
X2483Y46D01*
X215Y45D02*
X231Y45D01*
X2465Y45D02*
X2481Y45D01*
X217Y44D02*
X234Y44D01*
X2462Y44D02*
X2479Y44D01*
X219Y43D02*
X236Y43D01*
X2460Y43D02*
X2477Y43D01*
X220Y42D02*
X238Y42D01*
X2458Y42D02*
X2476Y42D01*
X222Y41D02*
X240Y41D01*
X2456Y41D02*
X2474Y41D01*
X224Y40D02*
X242Y40D01*
X2454Y40D02*
X2471Y40D01*
X227Y39D02*
X245Y39D01*
X2451Y39D02*
X2469Y39D01*
X229Y38D02*
X247Y38D01*
X2449Y38D02*
X2467Y38D01*
X231Y37D02*
X250Y37D01*
X2446Y37D02*
X2465Y37D01*
X233Y36D02*
X253Y36D01*
X2443Y36D02*
X2463Y36D01*
X236Y35D02*
X255Y35D01*
X2441Y35D02*
X2460Y35D01*
X238Y34D02*
X258Y34D01*
X2438Y34D02*
X2458Y34D01*
X240Y33D02*
X260Y33D01*
X2436Y33D02*
X2456Y33D01*
X242Y32D02*
X263Y32D01*
X2433Y32D02*
X2454Y32D01*
X245Y31D02*
X266Y31D01*
X2430Y31D02*
X2451Y31D01*
X247Y30D02*
X269Y30D01*
X2427Y30D02*
X2449Y30D01*
X250Y29D02*
X272Y29D01*
X2424Y29D02*
X2446Y29D01*
X252Y28D02*
X275Y28D01*
X2421Y28D02*
X2444Y28D01*
X255Y27D02*
X278Y27D01*
X2418Y27D02*
X2441Y27D01*
X257Y26D02*
X281Y26D01*
X2415Y26D02*
X2439Y26D01*
X260Y25D02*
X284Y25D01*
X2412Y25D02*
X2436Y25D01*
X263Y24D02*
X288Y24D01*
X2408Y24D02*
X2433Y24D01*
X266Y23D02*
X291Y23D01*
X2405Y23D02*
X2430Y23D01*
X269Y22D02*
X295Y22D01*
X2401Y22D02*
X2427Y22D01*
X272Y21D02*
X299Y21D01*
X2397Y21D02*
X2424Y21D01*
X275Y20D02*
X303Y20D01*
X2393Y20D02*
X2421Y20D01*
X278Y19D02*
X307Y19D01*
X2389Y19D02*
X2418Y19D01*
X281Y18D02*
X312Y18D01*
X2384Y18D02*
X2415Y18D01*
X285Y17D02*
X317Y17D01*
X2379Y17D02*
X2411Y17D01*
X288Y16D02*
X322Y16D01*
X2374Y16D02*
X2408Y16D01*
X292Y15D02*
X328Y15D01*
X2368Y15D02*
X2404Y15D01*
X296Y14D02*
X334Y14D01*
X2362Y14D02*
X2400Y14D01*
X300Y13D02*
X341Y13D01*
X2355Y13D02*
X2396Y13D01*
X304Y12D02*
X349Y12D01*
X2347Y12D02*
X2392Y12D01*
X308Y11D02*
X359Y11D01*
X2337Y11D02*
X2388Y11D01*
X313Y10D02*
X373Y10D01*
X2323Y10D02*
X2383Y10D01*
X318Y9D02*
X2378Y9D01*
X323Y8D02*
X2373Y8D01*
X328Y7D02*
X2368Y7D01*
X335Y6D02*
X2361Y6D01*
X342Y5D02*
X2354Y5D01*
X350Y4D02*
X2346Y4D01*
X360Y3D02*
X2336Y3D01*
X374Y2D02*
X2322Y2D01*
D02*
G04 End of Silk1*
M02*