<?xml version="1.0" encoding="utf-8"?>
<!-- Generator: Adobe Illustrator 22.1.0, SVG Export Plug-In . SVG Version: 6.00 Build 0)  -->
<svg version="1.1" id="Layer_1" xmlns="http://www.w3.org/2000/svg" xmlns:xlink="http://www.w3.org/1999/xlink" x="0px" y="0px"
	 viewBox="0 0 567 720" style="enable-background:new 0 0 567 720;" xml:space="preserve">
<style type="text/css">
	.st0{fill:none;stroke:#000000;stroke-miterlimit:10;}
</style>
<path class="st0" d="M446.6,720H19.8C8.9,720,0,711.1,0,700.2l0-357.5c0-1.6,0.9-3,2.3-3.7c17.3-8.6,17.3-39.9,33.7-50.1
	c19.3-11.9,31.2,0.7,54-5c19.8-4.9,63.8-44.3,64-66.8c0-0.1,0-0.2,0-0.4l-1.8-28.6c-0.1-1.9-1.5-3.4-3.3-3.8l-1.4-0.3
	c-0.3-0.1-0.6-0.2-0.9-0.3c-15.4-7-26.5-38.8-18.5-62.1c3.6-1.5,5.3-2.2,8.9-3.7l0,0c3.9-2.4,5.1-3.1,9-5.5
	C148.5-25.4,355.1,4,303.7,146.1c-0.4,1.2-0.3,2.6,0.4,3.6l4.7,7.3c0.8,1.2,0.9,2.7,0.2,4c-11.4,23.4-37.8,62.4-23.5,90.3
	c0.8,1.5,2.4,2.3,4.1,2.1c12.7-1.5,42.4,2.3,50.4,7.4c6.2,3.9,12.2,12.5,20,15c13.1,4.1,22.9,1,33,6
	c49.8,24.6,86.7,105.9,125.3,147.2c1.1,1.1,2.7,1.6,4.1,1.1l24.2-6.9c0.9-0.3,2-0.2,2.9,0.2c5.5,2.5,6.4,6,3.4,11.1
	c-0.5,0.8-1.3,1.4-2.2,1.8c-7.3,2.6-13.5,7.3-18.5,12.3c-1.2,1.3-1.5,3.2-0.7,4.7c28.1,55.5,19.2,159-24.3,192.5
	c-9.9,7.6-60.2,23.8-63,28c-2.7,3.3-4.7,12.1-5.6,17.8c-0.2,1.4,0.2,2.7,1.2,3.7l12.2,11.5C449.3,713.4,449.1,713.7,446.6,720z"/>
</svg>
