G04 MADE WITH FRITZING*
G04 WWW.FRITZING.ORG*
G04 DOUBLE SIDED*
G04 HOLES PLATED*
G04 CONTOUR ON CENTER OF CONTOUR VECTOR*
%ASAXBY*%
%FSLAX23Y23*%
%MOIN*%
%OFA0B0*%
%SFA1.0B1.0*%
%ADD10C,0.088000*%
%ADD11C,0.085000*%
%ADD12C,0.092000*%
%ADD13C,0.085433*%
%ADD14C,0.135984*%
%ADD15R,0.092000X0.092000*%
%ADD16R,0.085000X0.085000*%
%LNMASK1*%
G90*
G70*
G54D10*
X1673Y1070D03*
X1573Y1070D03*
G54D11*
X273Y470D03*
X673Y470D03*
X273Y270D03*
X673Y270D03*
X273Y370D03*
X673Y370D03*
G54D10*
X273Y1070D03*
X173Y1070D03*
X573Y1070D03*
X473Y1070D03*
X873Y1070D03*
X773Y1070D03*
G54D12*
X1171Y470D03*
X873Y470D03*
X1171Y370D03*
X873Y370D03*
X1171Y270D03*
X873Y270D03*
G54D10*
X1873Y870D03*
X1873Y770D03*
X1873Y670D03*
G54D11*
X273Y170D03*
X673Y170D03*
G54D12*
X1073Y870D03*
X1073Y770D03*
X1073Y670D03*
G54D11*
X1373Y870D03*
X1673Y870D03*
X1373Y770D03*
X1673Y770D03*
X1373Y670D03*
X1673Y670D03*
X1373Y570D03*
X1673Y570D03*
X1373Y470D03*
X1673Y470D03*
X1373Y370D03*
X1673Y370D03*
X1373Y270D03*
X1673Y270D03*
G54D12*
X273Y670D03*
X273Y770D03*
X273Y870D03*
X573Y670D03*
X573Y770D03*
X573Y870D03*
X873Y670D03*
X873Y770D03*
X873Y870D03*
G54D13*
X1048Y437D03*
X1240Y701D03*
G54D14*
X1873Y171D03*
X1273Y1170D03*
X119Y127D03*
G54D15*
X1172Y470D03*
X1172Y370D03*
X1172Y270D03*
X1073Y870D03*
G54D16*
X1373Y870D03*
G54D15*
X273Y670D03*
X573Y670D03*
X873Y670D03*
G04 End of Mask1*
M02*