G04 MADE WITH FRITZING*
G04 WWW.FRITZING.ORG*
G04 DOUBLE SIDED*
G04 HOLES PLATED*
G04 CONTOUR ON CENTER OF CONTOUR VECTOR*
%ASAXBY*%
%FSLAX23Y23*%
%MOIN*%
%OFA0B0*%
%SFA1.0B1.0*%
%ADD10C,0.010000*%
%ADD11C,0.005000*%
%ADD12C,0.020000*%
%ADD13R,0.001000X0.001000*%
%LNSILK1*%
G90*
G70*
G54D10*
X1723Y1120D02*
X1523Y1120D01*
D02*
X1523Y1120D02*
X1523Y1020D01*
D02*
X1523Y1020D02*
X1723Y1020D01*
D02*
X1723Y1020D02*
X1723Y1120D01*
D02*
X382Y503D02*
X582Y503D01*
D02*
X582Y503D02*
X582Y437D01*
D02*
X582Y437D02*
X382Y437D01*
D02*
X382Y437D02*
X382Y503D01*
D02*
X382Y303D02*
X582Y303D01*
D02*
X582Y303D02*
X582Y237D01*
D02*
X582Y237D02*
X382Y237D01*
D02*
X382Y237D02*
X382Y303D01*
D02*
X382Y403D02*
X582Y403D01*
D02*
X582Y403D02*
X582Y337D01*
D02*
X582Y337D02*
X382Y337D01*
D02*
X382Y337D02*
X382Y403D01*
D02*
X323Y1120D02*
X123Y1120D01*
D02*
X123Y1120D02*
X123Y1020D01*
D02*
X123Y1020D02*
X323Y1020D01*
D02*
X323Y1020D02*
X323Y1120D01*
D02*
X623Y1120D02*
X423Y1120D01*
D02*
X423Y1120D02*
X423Y1020D01*
D02*
X423Y1020D02*
X623Y1020D01*
D02*
X623Y1020D02*
X623Y1120D01*
D02*
X923Y1120D02*
X723Y1120D01*
D02*
X723Y1120D02*
X723Y1020D01*
D02*
X723Y1020D02*
X923Y1020D01*
D02*
X923Y1020D02*
X923Y1120D01*
G54D11*
D02*
X888Y1120D02*
X923Y1085D01*
G54D10*
D02*
X922Y515D02*
X1117Y515D01*
D02*
X1117Y515D02*
X1117Y425D01*
D02*
X1117Y325D02*
X922Y325D01*
D02*
X1117Y415D02*
X1117Y325D01*
D02*
X1117Y225D02*
X922Y225D01*
D02*
X922Y315D02*
X1117Y315D01*
D02*
X1117Y315D02*
X1117Y225D01*
G54D12*
D02*
X1097Y315D02*
X1097Y225D01*
G54D10*
D02*
X1823Y920D02*
X1823Y620D01*
D02*
X1823Y620D02*
X1923Y620D01*
D02*
X1923Y620D02*
X1923Y920D01*
D02*
X1923Y920D02*
X1823Y920D01*
D02*
X382Y203D02*
X582Y203D01*
D02*
X582Y203D02*
X582Y137D01*
D02*
X582Y137D02*
X382Y137D01*
D02*
X382Y137D02*
X382Y203D01*
D02*
X1193Y970D02*
X1193Y570D01*
D02*
X1193Y570D02*
X1013Y570D01*
D02*
X1013Y570D02*
X1013Y970D01*
D02*
X1013Y970D02*
X1193Y970D01*
D02*
X1193Y970D02*
X1193Y570D01*
D02*
X1193Y570D02*
X1133Y570D01*
D02*
X1133Y570D02*
X1133Y970D01*
D02*
X1133Y970D02*
X1193Y970D01*
G54D11*
D02*
X1193Y840D02*
X1133Y840D01*
D02*
X1193Y700D02*
X1133Y700D01*
G54D10*
D02*
X1323Y920D02*
X1323Y220D01*
D02*
X1323Y220D02*
X1723Y220D01*
D02*
X1723Y220D02*
X1723Y920D01*
D02*
X1323Y920D02*
X1473Y920D01*
D02*
X1573Y920D02*
X1723Y920D01*
D02*
X153Y570D02*
X153Y970D01*
D02*
X153Y970D02*
X333Y970D01*
D02*
X333Y970D02*
X333Y570D01*
D02*
X333Y570D02*
X153Y570D01*
D02*
X153Y570D02*
X153Y970D01*
D02*
X153Y970D02*
X213Y970D01*
D02*
X213Y970D02*
X213Y570D01*
D02*
X213Y570D02*
X153Y570D01*
G54D11*
D02*
X153Y700D02*
X213Y700D01*
D02*
X153Y840D02*
X213Y840D01*
G54D10*
D02*
X453Y570D02*
X453Y970D01*
D02*
X453Y970D02*
X633Y970D01*
D02*
X633Y970D02*
X633Y570D01*
D02*
X633Y570D02*
X453Y570D01*
D02*
X453Y570D02*
X453Y970D01*
D02*
X453Y970D02*
X513Y970D01*
D02*
X513Y970D02*
X513Y570D01*
D02*
X513Y570D02*
X453Y570D01*
G54D11*
D02*
X453Y700D02*
X513Y700D01*
D02*
X453Y840D02*
X513Y840D01*
G54D10*
D02*
X753Y570D02*
X753Y970D01*
D02*
X753Y970D02*
X933Y970D01*
D02*
X933Y970D02*
X933Y570D01*
D02*
X933Y570D02*
X753Y570D01*
D02*
X753Y570D02*
X753Y970D01*
D02*
X753Y970D02*
X813Y970D01*
D02*
X813Y970D02*
X813Y570D01*
D02*
X813Y570D02*
X753Y570D01*
G54D11*
D02*
X753Y700D02*
X813Y700D01*
D02*
X753Y840D02*
X813Y840D01*
G54D13*
X0Y1297D02*
X2013Y1297D01*
X0Y1296D02*
X2013Y1296D01*
X0Y1295D02*
X2013Y1295D01*
X0Y1294D02*
X2013Y1294D01*
X0Y1293D02*
X2013Y1293D01*
X0Y1292D02*
X2013Y1292D01*
X0Y1291D02*
X2013Y1291D01*
X0Y1290D02*
X2013Y1290D01*
X0Y1289D02*
X7Y1289D01*
X2006Y1289D02*
X2013Y1289D01*
X0Y1288D02*
X7Y1288D01*
X2006Y1288D02*
X2013Y1288D01*
X0Y1287D02*
X7Y1287D01*
X2006Y1287D02*
X2013Y1287D01*
X0Y1286D02*
X7Y1286D01*
X2006Y1286D02*
X2013Y1286D01*
X0Y1285D02*
X7Y1285D01*
X2006Y1285D02*
X2013Y1285D01*
X0Y1284D02*
X7Y1284D01*
X2006Y1284D02*
X2013Y1284D01*
X0Y1283D02*
X7Y1283D01*
X2006Y1283D02*
X2013Y1283D01*
X0Y1282D02*
X7Y1282D01*
X2006Y1282D02*
X2013Y1282D01*
X0Y1281D02*
X7Y1281D01*
X2006Y1281D02*
X2013Y1281D01*
X0Y1280D02*
X7Y1280D01*
X2006Y1280D02*
X2013Y1280D01*
X0Y1279D02*
X7Y1279D01*
X2006Y1279D02*
X2013Y1279D01*
X0Y1278D02*
X7Y1278D01*
X2006Y1278D02*
X2013Y1278D01*
X0Y1277D02*
X7Y1277D01*
X2006Y1277D02*
X2013Y1277D01*
X0Y1276D02*
X7Y1276D01*
X2006Y1276D02*
X2013Y1276D01*
X0Y1275D02*
X7Y1275D01*
X2006Y1275D02*
X2013Y1275D01*
X0Y1274D02*
X7Y1274D01*
X2006Y1274D02*
X2013Y1274D01*
X0Y1273D02*
X7Y1273D01*
X2006Y1273D02*
X2013Y1273D01*
X0Y1272D02*
X7Y1272D01*
X2006Y1272D02*
X2013Y1272D01*
X0Y1271D02*
X7Y1271D01*
X2006Y1271D02*
X2013Y1271D01*
X0Y1270D02*
X7Y1270D01*
X1726Y1270D02*
X1728Y1270D01*
X1751Y1270D02*
X1770Y1270D01*
X2006Y1270D02*
X2013Y1270D01*
X0Y1269D02*
X7Y1269D01*
X1725Y1269D02*
X1729Y1269D01*
X1750Y1269D02*
X1770Y1269D01*
X2006Y1269D02*
X2013Y1269D01*
X0Y1268D02*
X7Y1268D01*
X1724Y1268D02*
X1730Y1268D01*
X1750Y1268D02*
X1770Y1268D01*
X2006Y1268D02*
X2013Y1268D01*
X0Y1267D02*
X7Y1267D01*
X1724Y1267D02*
X1730Y1267D01*
X1750Y1267D02*
X1770Y1267D01*
X2006Y1267D02*
X2013Y1267D01*
X0Y1266D02*
X7Y1266D01*
X1724Y1266D02*
X1730Y1266D01*
X1750Y1266D02*
X1770Y1266D01*
X2006Y1266D02*
X2013Y1266D01*
X0Y1265D02*
X7Y1265D01*
X1724Y1265D02*
X1730Y1265D01*
X1751Y1265D02*
X1770Y1265D01*
X2006Y1265D02*
X2013Y1265D01*
X0Y1264D02*
X7Y1264D01*
X1724Y1264D02*
X1730Y1264D01*
X1752Y1264D02*
X1770Y1264D01*
X2006Y1264D02*
X2013Y1264D01*
X0Y1263D02*
X7Y1263D01*
X1724Y1263D02*
X1730Y1263D01*
X1764Y1263D02*
X1770Y1263D01*
X2006Y1263D02*
X2013Y1263D01*
X0Y1262D02*
X7Y1262D01*
X1724Y1262D02*
X1730Y1262D01*
X1764Y1262D02*
X1770Y1262D01*
X2006Y1262D02*
X2013Y1262D01*
X0Y1261D02*
X7Y1261D01*
X1724Y1261D02*
X1730Y1261D01*
X1764Y1261D02*
X1770Y1261D01*
X2006Y1261D02*
X2013Y1261D01*
X0Y1260D02*
X7Y1260D01*
X1724Y1260D02*
X1730Y1260D01*
X1764Y1260D02*
X1770Y1260D01*
X2006Y1260D02*
X2013Y1260D01*
X0Y1259D02*
X7Y1259D01*
X1724Y1259D02*
X1730Y1259D01*
X1764Y1259D02*
X1770Y1259D01*
X2006Y1259D02*
X2013Y1259D01*
X0Y1258D02*
X7Y1258D01*
X1724Y1258D02*
X1730Y1258D01*
X1764Y1258D02*
X1770Y1258D01*
X2006Y1258D02*
X2013Y1258D01*
X0Y1257D02*
X7Y1257D01*
X1724Y1257D02*
X1730Y1257D01*
X1764Y1257D02*
X1770Y1257D01*
X2006Y1257D02*
X2013Y1257D01*
X0Y1256D02*
X7Y1256D01*
X1724Y1256D02*
X1730Y1256D01*
X1764Y1256D02*
X1770Y1256D01*
X2006Y1256D02*
X2013Y1256D01*
X0Y1255D02*
X7Y1255D01*
X1724Y1255D02*
X1730Y1255D01*
X1764Y1255D02*
X1770Y1255D01*
X2006Y1255D02*
X2013Y1255D01*
X0Y1254D02*
X7Y1254D01*
X1724Y1254D02*
X1730Y1254D01*
X1764Y1254D02*
X1770Y1254D01*
X2006Y1254D02*
X2013Y1254D01*
X0Y1253D02*
X7Y1253D01*
X1724Y1253D02*
X1730Y1253D01*
X1764Y1253D02*
X1770Y1253D01*
X2006Y1253D02*
X2013Y1253D01*
X0Y1252D02*
X7Y1252D01*
X1724Y1252D02*
X1730Y1252D01*
X1764Y1252D02*
X1770Y1252D01*
X2006Y1252D02*
X2013Y1252D01*
X0Y1251D02*
X7Y1251D01*
X1724Y1251D02*
X1730Y1251D01*
X1764Y1251D02*
X1770Y1251D01*
X2006Y1251D02*
X2013Y1251D01*
X0Y1250D02*
X7Y1250D01*
X1724Y1250D02*
X1730Y1250D01*
X1764Y1250D02*
X1770Y1250D01*
X2006Y1250D02*
X2013Y1250D01*
X0Y1249D02*
X7Y1249D01*
X1724Y1249D02*
X1730Y1249D01*
X1764Y1249D02*
X1770Y1249D01*
X2006Y1249D02*
X2013Y1249D01*
X0Y1248D02*
X7Y1248D01*
X1724Y1248D02*
X1730Y1248D01*
X1764Y1248D02*
X1770Y1248D01*
X2006Y1248D02*
X2013Y1248D01*
X0Y1247D02*
X7Y1247D01*
X1724Y1247D02*
X1730Y1247D01*
X1764Y1247D02*
X1770Y1247D01*
X2006Y1247D02*
X2013Y1247D01*
X0Y1246D02*
X7Y1246D01*
X1724Y1246D02*
X1730Y1246D01*
X1764Y1246D02*
X1770Y1246D01*
X2006Y1246D02*
X2013Y1246D01*
X0Y1245D02*
X7Y1245D01*
X1724Y1245D02*
X1730Y1245D01*
X1764Y1245D02*
X1770Y1245D01*
X2006Y1245D02*
X2013Y1245D01*
X0Y1244D02*
X7Y1244D01*
X1724Y1244D02*
X1730Y1244D01*
X1764Y1244D02*
X1770Y1244D01*
X2006Y1244D02*
X2013Y1244D01*
X0Y1243D02*
X7Y1243D01*
X1724Y1243D02*
X1730Y1243D01*
X1764Y1243D02*
X1770Y1243D01*
X2006Y1243D02*
X2013Y1243D01*
X0Y1242D02*
X7Y1242D01*
X1724Y1242D02*
X1730Y1242D01*
X1764Y1242D02*
X1770Y1242D01*
X2006Y1242D02*
X2013Y1242D01*
X0Y1241D02*
X7Y1241D01*
X1706Y1241D02*
X1707Y1241D01*
X1724Y1241D02*
X1730Y1241D01*
X1764Y1241D02*
X1770Y1241D01*
X1780Y1241D02*
X1781Y1241D01*
X2006Y1241D02*
X2013Y1241D01*
X0Y1240D02*
X7Y1240D01*
X1704Y1240D02*
X1708Y1240D01*
X1724Y1240D02*
X1730Y1240D01*
X1764Y1240D02*
X1770Y1240D01*
X1778Y1240D02*
X1782Y1240D01*
X2006Y1240D02*
X2013Y1240D01*
X0Y1239D02*
X7Y1239D01*
X1704Y1239D02*
X1709Y1239D01*
X1724Y1239D02*
X1730Y1239D01*
X1764Y1239D02*
X1770Y1239D01*
X1778Y1239D02*
X1783Y1239D01*
X2006Y1239D02*
X2013Y1239D01*
X0Y1238D02*
X7Y1238D01*
X1703Y1238D02*
X1709Y1238D01*
X1724Y1238D02*
X1730Y1238D01*
X1764Y1238D02*
X1770Y1238D01*
X1777Y1238D02*
X1783Y1238D01*
X2006Y1238D02*
X2013Y1238D01*
X0Y1237D02*
X7Y1237D01*
X1703Y1237D02*
X1709Y1237D01*
X1724Y1237D02*
X1730Y1237D01*
X1764Y1237D02*
X1770Y1237D01*
X1777Y1237D02*
X1783Y1237D01*
X2006Y1237D02*
X2013Y1237D01*
X0Y1236D02*
X7Y1236D01*
X1703Y1236D02*
X1709Y1236D01*
X1724Y1236D02*
X1730Y1236D01*
X1764Y1236D02*
X1770Y1236D01*
X1777Y1236D02*
X1783Y1236D01*
X2006Y1236D02*
X2013Y1236D01*
X0Y1235D02*
X7Y1235D01*
X1703Y1235D02*
X1709Y1235D01*
X1724Y1235D02*
X1730Y1235D01*
X1764Y1235D02*
X1770Y1235D01*
X1777Y1235D02*
X1783Y1235D01*
X2006Y1235D02*
X2013Y1235D01*
X0Y1234D02*
X7Y1234D01*
X1703Y1234D02*
X1709Y1234D01*
X1724Y1234D02*
X1730Y1234D01*
X1764Y1234D02*
X1770Y1234D01*
X1777Y1234D02*
X1783Y1234D01*
X2006Y1234D02*
X2013Y1234D01*
X0Y1233D02*
X7Y1233D01*
X1703Y1233D02*
X1709Y1233D01*
X1724Y1233D02*
X1730Y1233D01*
X1764Y1233D02*
X1770Y1233D01*
X1777Y1233D02*
X1783Y1233D01*
X2006Y1233D02*
X2013Y1233D01*
X0Y1232D02*
X7Y1232D01*
X1703Y1232D02*
X1709Y1232D01*
X1724Y1232D02*
X1730Y1232D01*
X1764Y1232D02*
X1770Y1232D01*
X1777Y1232D02*
X1783Y1232D01*
X2006Y1232D02*
X2013Y1232D01*
X0Y1231D02*
X7Y1231D01*
X1703Y1231D02*
X1709Y1231D01*
X1724Y1231D02*
X1730Y1231D01*
X1764Y1231D02*
X1770Y1231D01*
X1777Y1231D02*
X1783Y1231D01*
X2006Y1231D02*
X2013Y1231D01*
X0Y1230D02*
X7Y1230D01*
X1703Y1230D02*
X1709Y1230D01*
X1724Y1230D02*
X1730Y1230D01*
X1764Y1230D02*
X1770Y1230D01*
X1777Y1230D02*
X1783Y1230D01*
X2006Y1230D02*
X2013Y1230D01*
X0Y1229D02*
X7Y1229D01*
X1703Y1229D02*
X1709Y1229D01*
X1724Y1229D02*
X1730Y1229D01*
X1764Y1229D02*
X1770Y1229D01*
X1777Y1229D02*
X1783Y1229D01*
X2006Y1229D02*
X2013Y1229D01*
X0Y1228D02*
X7Y1228D01*
X1703Y1228D02*
X1709Y1228D01*
X1724Y1228D02*
X1730Y1228D01*
X1764Y1228D02*
X1770Y1228D01*
X1777Y1228D02*
X1783Y1228D01*
X2006Y1228D02*
X2013Y1228D01*
X0Y1227D02*
X7Y1227D01*
X1703Y1227D02*
X1709Y1227D01*
X1724Y1227D02*
X1730Y1227D01*
X1764Y1227D02*
X1770Y1227D01*
X1777Y1227D02*
X1783Y1227D01*
X2006Y1227D02*
X2013Y1227D01*
X0Y1226D02*
X7Y1226D01*
X1703Y1226D02*
X1709Y1226D01*
X1724Y1226D02*
X1730Y1226D01*
X1764Y1226D02*
X1770Y1226D01*
X1777Y1226D02*
X1783Y1226D01*
X2006Y1226D02*
X2013Y1226D01*
X0Y1225D02*
X7Y1225D01*
X1703Y1225D02*
X1710Y1225D01*
X1723Y1225D02*
X1730Y1225D01*
X1764Y1225D02*
X1770Y1225D01*
X1777Y1225D02*
X1783Y1225D01*
X2006Y1225D02*
X2013Y1225D01*
X0Y1224D02*
X7Y1224D01*
X1704Y1224D02*
X1711Y1224D01*
X1722Y1224D02*
X1730Y1224D01*
X1764Y1224D02*
X1770Y1224D01*
X1777Y1224D02*
X1783Y1224D01*
X2006Y1224D02*
X2013Y1224D01*
X0Y1223D02*
X7Y1223D01*
X1704Y1223D02*
X1729Y1223D01*
X1752Y1223D02*
X1783Y1223D01*
X2006Y1223D02*
X2013Y1223D01*
X0Y1222D02*
X7Y1222D01*
X1705Y1222D02*
X1729Y1222D01*
X1751Y1222D02*
X1783Y1222D01*
X2006Y1222D02*
X2013Y1222D01*
X0Y1221D02*
X7Y1221D01*
X1705Y1221D02*
X1728Y1221D01*
X1750Y1221D02*
X1783Y1221D01*
X2006Y1221D02*
X2013Y1221D01*
X0Y1220D02*
X7Y1220D01*
X1706Y1220D02*
X1727Y1220D01*
X1750Y1220D02*
X1783Y1220D01*
X2006Y1220D02*
X2013Y1220D01*
X0Y1219D02*
X7Y1219D01*
X1707Y1219D02*
X1726Y1219D01*
X1750Y1219D02*
X1783Y1219D01*
X2006Y1219D02*
X2013Y1219D01*
X0Y1218D02*
X7Y1218D01*
X1708Y1218D02*
X1725Y1218D01*
X1751Y1218D02*
X1783Y1218D01*
X2006Y1218D02*
X2013Y1218D01*
X0Y1217D02*
X7Y1217D01*
X1711Y1217D02*
X1723Y1217D01*
X1752Y1217D02*
X1782Y1217D01*
X2006Y1217D02*
X2013Y1217D01*
X0Y1216D02*
X7Y1216D01*
X2006Y1216D02*
X2013Y1216D01*
X0Y1215D02*
X7Y1215D01*
X2006Y1215D02*
X2013Y1215D01*
X0Y1214D02*
X7Y1214D01*
X2006Y1214D02*
X2013Y1214D01*
X0Y1213D02*
X7Y1213D01*
X2006Y1213D02*
X2013Y1213D01*
X0Y1212D02*
X7Y1212D01*
X2006Y1212D02*
X2013Y1212D01*
X0Y1211D02*
X7Y1211D01*
X2006Y1211D02*
X2013Y1211D01*
X0Y1210D02*
X7Y1210D01*
X2006Y1210D02*
X2013Y1210D01*
X0Y1209D02*
X7Y1209D01*
X2006Y1209D02*
X2013Y1209D01*
X0Y1208D02*
X7Y1208D01*
X2006Y1208D02*
X2013Y1208D01*
X0Y1207D02*
X7Y1207D01*
X2006Y1207D02*
X2013Y1207D01*
X0Y1206D02*
X7Y1206D01*
X2006Y1206D02*
X2013Y1206D01*
X0Y1205D02*
X7Y1205D01*
X2006Y1205D02*
X2013Y1205D01*
X0Y1204D02*
X7Y1204D01*
X2006Y1204D02*
X2013Y1204D01*
X0Y1203D02*
X7Y1203D01*
X2006Y1203D02*
X2013Y1203D01*
X0Y1202D02*
X7Y1202D01*
X2006Y1202D02*
X2013Y1202D01*
X0Y1201D02*
X7Y1201D01*
X2006Y1201D02*
X2013Y1201D01*
X0Y1200D02*
X7Y1200D01*
X2006Y1200D02*
X2013Y1200D01*
X0Y1199D02*
X7Y1199D01*
X2006Y1199D02*
X2013Y1199D01*
X0Y1198D02*
X7Y1198D01*
X2006Y1198D02*
X2013Y1198D01*
X0Y1197D02*
X7Y1197D01*
X2006Y1197D02*
X2013Y1197D01*
X0Y1196D02*
X7Y1196D01*
X2006Y1196D02*
X2013Y1196D01*
X0Y1195D02*
X7Y1195D01*
X2006Y1195D02*
X2013Y1195D01*
X0Y1194D02*
X7Y1194D01*
X2006Y1194D02*
X2013Y1194D01*
X0Y1193D02*
X7Y1193D01*
X2006Y1193D02*
X2013Y1193D01*
X0Y1192D02*
X7Y1192D01*
X2006Y1192D02*
X2013Y1192D01*
X0Y1191D02*
X7Y1191D01*
X2006Y1191D02*
X2013Y1191D01*
X0Y1190D02*
X7Y1190D01*
X2006Y1190D02*
X2013Y1190D01*
X0Y1189D02*
X7Y1189D01*
X2006Y1189D02*
X2013Y1189D01*
X0Y1188D02*
X7Y1188D01*
X2006Y1188D02*
X2013Y1188D01*
X0Y1187D02*
X7Y1187D01*
X2006Y1187D02*
X2013Y1187D01*
X0Y1186D02*
X7Y1186D01*
X2006Y1186D02*
X2013Y1186D01*
X0Y1185D02*
X7Y1185D01*
X2006Y1185D02*
X2013Y1185D01*
X0Y1184D02*
X7Y1184D01*
X2006Y1184D02*
X2013Y1184D01*
X0Y1183D02*
X7Y1183D01*
X2006Y1183D02*
X2013Y1183D01*
X0Y1182D02*
X7Y1182D01*
X2006Y1182D02*
X2013Y1182D01*
X0Y1181D02*
X7Y1181D01*
X2006Y1181D02*
X2013Y1181D01*
X0Y1180D02*
X7Y1180D01*
X2006Y1180D02*
X2013Y1180D01*
X0Y1179D02*
X7Y1179D01*
X2006Y1179D02*
X2013Y1179D01*
X0Y1178D02*
X7Y1178D01*
X2006Y1178D02*
X2013Y1178D01*
X0Y1177D02*
X7Y1177D01*
X2006Y1177D02*
X2013Y1177D01*
X0Y1176D02*
X7Y1176D01*
X2006Y1176D02*
X2013Y1176D01*
X0Y1175D02*
X7Y1175D01*
X2006Y1175D02*
X2013Y1175D01*
X0Y1174D02*
X7Y1174D01*
X2006Y1174D02*
X2013Y1174D01*
X0Y1173D02*
X7Y1173D01*
X2006Y1173D02*
X2013Y1173D01*
X0Y1172D02*
X7Y1172D01*
X2006Y1172D02*
X2013Y1172D01*
X0Y1171D02*
X7Y1171D01*
X2006Y1171D02*
X2013Y1171D01*
X0Y1170D02*
X7Y1170D01*
X2006Y1170D02*
X2013Y1170D01*
X0Y1169D02*
X7Y1169D01*
X2006Y1169D02*
X2013Y1169D01*
X0Y1168D02*
X7Y1168D01*
X2006Y1168D02*
X2013Y1168D01*
X0Y1167D02*
X7Y1167D01*
X2006Y1167D02*
X2013Y1167D01*
X0Y1166D02*
X7Y1166D01*
X2006Y1166D02*
X2013Y1166D01*
X0Y1165D02*
X7Y1165D01*
X2006Y1165D02*
X2013Y1165D01*
X0Y1164D02*
X7Y1164D01*
X2006Y1164D02*
X2013Y1164D01*
X0Y1163D02*
X7Y1163D01*
X2006Y1163D02*
X2013Y1163D01*
X0Y1162D02*
X7Y1162D01*
X2006Y1162D02*
X2013Y1162D01*
X0Y1161D02*
X7Y1161D01*
X2006Y1161D02*
X2013Y1161D01*
X0Y1160D02*
X7Y1160D01*
X2006Y1160D02*
X2013Y1160D01*
X0Y1159D02*
X7Y1159D01*
X2006Y1159D02*
X2013Y1159D01*
X0Y1158D02*
X7Y1158D01*
X2006Y1158D02*
X2013Y1158D01*
X0Y1157D02*
X7Y1157D01*
X2006Y1157D02*
X2013Y1157D01*
X0Y1156D02*
X7Y1156D01*
X2006Y1156D02*
X2013Y1156D01*
X0Y1155D02*
X7Y1155D01*
X2006Y1155D02*
X2013Y1155D01*
X0Y1154D02*
X7Y1154D01*
X2006Y1154D02*
X2013Y1154D01*
X0Y1153D02*
X7Y1153D01*
X2006Y1153D02*
X2013Y1153D01*
X0Y1152D02*
X7Y1152D01*
X2006Y1152D02*
X2013Y1152D01*
X0Y1151D02*
X7Y1151D01*
X2006Y1151D02*
X2013Y1151D01*
X0Y1150D02*
X7Y1150D01*
X2006Y1150D02*
X2013Y1150D01*
X0Y1149D02*
X7Y1149D01*
X2006Y1149D02*
X2013Y1149D01*
X0Y1148D02*
X7Y1148D01*
X2006Y1148D02*
X2013Y1148D01*
X0Y1147D02*
X7Y1147D01*
X2006Y1147D02*
X2013Y1147D01*
X0Y1146D02*
X7Y1146D01*
X2006Y1146D02*
X2013Y1146D01*
X0Y1145D02*
X7Y1145D01*
X2006Y1145D02*
X2013Y1145D01*
X0Y1144D02*
X7Y1144D01*
X2006Y1144D02*
X2013Y1144D01*
X0Y1143D02*
X7Y1143D01*
X2006Y1143D02*
X2013Y1143D01*
X0Y1142D02*
X7Y1142D01*
X2006Y1142D02*
X2013Y1142D01*
X0Y1141D02*
X7Y1141D01*
X2006Y1141D02*
X2013Y1141D01*
X0Y1140D02*
X7Y1140D01*
X2006Y1140D02*
X2013Y1140D01*
X0Y1139D02*
X7Y1139D01*
X2006Y1139D02*
X2013Y1139D01*
X0Y1138D02*
X7Y1138D01*
X2006Y1138D02*
X2013Y1138D01*
X0Y1137D02*
X7Y1137D01*
X2006Y1137D02*
X2013Y1137D01*
X0Y1136D02*
X7Y1136D01*
X2006Y1136D02*
X2013Y1136D01*
X0Y1135D02*
X7Y1135D01*
X2006Y1135D02*
X2013Y1135D01*
X0Y1134D02*
X7Y1134D01*
X2006Y1134D02*
X2013Y1134D01*
X0Y1133D02*
X7Y1133D01*
X2006Y1133D02*
X2013Y1133D01*
X0Y1132D02*
X7Y1132D01*
X2006Y1132D02*
X2013Y1132D01*
X0Y1131D02*
X7Y1131D01*
X2006Y1131D02*
X2013Y1131D01*
X0Y1130D02*
X7Y1130D01*
X2006Y1130D02*
X2013Y1130D01*
X0Y1129D02*
X7Y1129D01*
X2006Y1129D02*
X2013Y1129D01*
X0Y1128D02*
X7Y1128D01*
X2006Y1128D02*
X2013Y1128D01*
X0Y1127D02*
X7Y1127D01*
X2006Y1127D02*
X2013Y1127D01*
X0Y1126D02*
X7Y1126D01*
X2006Y1126D02*
X2013Y1126D01*
X0Y1125D02*
X7Y1125D01*
X2006Y1125D02*
X2013Y1125D01*
X0Y1124D02*
X7Y1124D01*
X2006Y1124D02*
X2013Y1124D01*
X0Y1123D02*
X7Y1123D01*
X2006Y1123D02*
X2013Y1123D01*
X0Y1122D02*
X7Y1122D01*
X289Y1122D02*
X289Y1122D01*
X589Y1122D02*
X589Y1122D01*
X1688Y1122D02*
X1688Y1122D01*
X2006Y1122D02*
X2013Y1122D01*
X0Y1121D02*
X7Y1121D01*
X288Y1121D02*
X290Y1121D01*
X588Y1121D02*
X590Y1121D01*
X1687Y1121D02*
X1689Y1121D01*
X2006Y1121D02*
X2013Y1121D01*
X0Y1120D02*
X7Y1120D01*
X287Y1120D02*
X291Y1120D01*
X587Y1120D02*
X591Y1120D01*
X1686Y1120D02*
X1690Y1120D01*
X2006Y1120D02*
X2013Y1120D01*
X0Y1119D02*
X7Y1119D01*
X286Y1119D02*
X292Y1119D01*
X586Y1119D02*
X592Y1119D01*
X1686Y1119D02*
X1691Y1119D01*
X2006Y1119D02*
X2013Y1119D01*
X0Y1118D02*
X7Y1118D01*
X287Y1118D02*
X293Y1118D01*
X587Y1118D02*
X593Y1118D01*
X1686Y1118D02*
X1692Y1118D01*
X2006Y1118D02*
X2013Y1118D01*
X0Y1117D02*
X7Y1117D01*
X288Y1117D02*
X294Y1117D01*
X588Y1117D02*
X594Y1117D01*
X1687Y1117D02*
X1693Y1117D01*
X2006Y1117D02*
X2013Y1117D01*
X0Y1116D02*
X7Y1116D01*
X289Y1116D02*
X295Y1116D01*
X589Y1116D02*
X595Y1116D01*
X1688Y1116D02*
X1694Y1116D01*
X2006Y1116D02*
X2013Y1116D01*
X0Y1115D02*
X7Y1115D01*
X290Y1115D02*
X296Y1115D01*
X590Y1115D02*
X596Y1115D01*
X1689Y1115D02*
X1695Y1115D01*
X2006Y1115D02*
X2013Y1115D01*
X0Y1114D02*
X7Y1114D01*
X291Y1114D02*
X297Y1114D01*
X591Y1114D02*
X597Y1114D01*
X1690Y1114D02*
X1696Y1114D01*
X2006Y1114D02*
X2013Y1114D01*
X0Y1113D02*
X7Y1113D01*
X292Y1113D02*
X298Y1113D01*
X592Y1113D02*
X598Y1113D01*
X1691Y1113D02*
X1697Y1113D01*
X2006Y1113D02*
X2013Y1113D01*
X0Y1112D02*
X7Y1112D01*
X293Y1112D02*
X299Y1112D01*
X593Y1112D02*
X599Y1112D01*
X1692Y1112D02*
X1698Y1112D01*
X2006Y1112D02*
X2013Y1112D01*
X0Y1111D02*
X7Y1111D01*
X294Y1111D02*
X300Y1111D01*
X594Y1111D02*
X600Y1111D01*
X1693Y1111D02*
X1699Y1111D01*
X2006Y1111D02*
X2013Y1111D01*
X0Y1110D02*
X7Y1110D01*
X295Y1110D02*
X301Y1110D01*
X595Y1110D02*
X601Y1110D01*
X1694Y1110D02*
X1700Y1110D01*
X2006Y1110D02*
X2013Y1110D01*
X0Y1109D02*
X7Y1109D01*
X296Y1109D02*
X302Y1109D01*
X596Y1109D02*
X602Y1109D01*
X1695Y1109D02*
X1701Y1109D01*
X2006Y1109D02*
X2013Y1109D01*
X0Y1108D02*
X7Y1108D01*
X297Y1108D02*
X303Y1108D01*
X597Y1108D02*
X603Y1108D01*
X1696Y1108D02*
X1702Y1108D01*
X2006Y1108D02*
X2013Y1108D01*
X0Y1107D02*
X7Y1107D01*
X298Y1107D02*
X304Y1107D01*
X598Y1107D02*
X604Y1107D01*
X1697Y1107D02*
X1703Y1107D01*
X2006Y1107D02*
X2013Y1107D01*
X0Y1106D02*
X7Y1106D01*
X299Y1106D02*
X305Y1106D01*
X599Y1106D02*
X605Y1106D01*
X1698Y1106D02*
X1704Y1106D01*
X2006Y1106D02*
X2013Y1106D01*
X0Y1105D02*
X7Y1105D01*
X300Y1105D02*
X306Y1105D01*
X600Y1105D02*
X606Y1105D01*
X1700Y1105D02*
X1705Y1105D01*
X2006Y1105D02*
X2013Y1105D01*
X0Y1104D02*
X7Y1104D01*
X301Y1104D02*
X307Y1104D01*
X601Y1104D02*
X607Y1104D01*
X1701Y1104D02*
X1706Y1104D01*
X2006Y1104D02*
X2013Y1104D01*
X0Y1103D02*
X7Y1103D01*
X303Y1103D02*
X308Y1103D01*
X602Y1103D02*
X608Y1103D01*
X1702Y1103D02*
X1707Y1103D01*
X2006Y1103D02*
X2013Y1103D01*
X0Y1102D02*
X7Y1102D01*
X304Y1102D02*
X309Y1102D01*
X604Y1102D02*
X609Y1102D01*
X1703Y1102D02*
X1708Y1102D01*
X2006Y1102D02*
X2013Y1102D01*
X0Y1101D02*
X7Y1101D01*
X305Y1101D02*
X310Y1101D01*
X604Y1101D02*
X610Y1101D01*
X1704Y1101D02*
X1709Y1101D01*
X2006Y1101D02*
X2013Y1101D01*
X0Y1100D02*
X7Y1100D01*
X306Y1100D02*
X311Y1100D01*
X605Y1100D02*
X611Y1100D01*
X1705Y1100D02*
X1710Y1100D01*
X2006Y1100D02*
X2013Y1100D01*
X0Y1099D02*
X7Y1099D01*
X306Y1099D02*
X312Y1099D01*
X606Y1099D02*
X612Y1099D01*
X1706Y1099D02*
X1711Y1099D01*
X2006Y1099D02*
X2013Y1099D01*
X0Y1098D02*
X7Y1098D01*
X307Y1098D02*
X313Y1098D01*
X607Y1098D02*
X613Y1098D01*
X1707Y1098D02*
X1712Y1098D01*
X2006Y1098D02*
X2013Y1098D01*
X0Y1097D02*
X7Y1097D01*
X308Y1097D02*
X314Y1097D01*
X608Y1097D02*
X614Y1097D01*
X1707Y1097D02*
X1713Y1097D01*
X2006Y1097D02*
X2013Y1097D01*
X0Y1096D02*
X7Y1096D01*
X309Y1096D02*
X315Y1096D01*
X609Y1096D02*
X615Y1096D01*
X1708Y1096D02*
X1714Y1096D01*
X2006Y1096D02*
X2013Y1096D01*
X0Y1095D02*
X7Y1095D01*
X310Y1095D02*
X316Y1095D01*
X610Y1095D02*
X616Y1095D01*
X1709Y1095D02*
X1715Y1095D01*
X2006Y1095D02*
X2013Y1095D01*
X0Y1094D02*
X7Y1094D01*
X311Y1094D02*
X317Y1094D01*
X611Y1094D02*
X617Y1094D01*
X1710Y1094D02*
X1716Y1094D01*
X2006Y1094D02*
X2013Y1094D01*
X0Y1093D02*
X7Y1093D01*
X312Y1093D02*
X318Y1093D01*
X612Y1093D02*
X618Y1093D01*
X1711Y1093D02*
X1717Y1093D01*
X2006Y1093D02*
X2013Y1093D01*
X0Y1092D02*
X7Y1092D01*
X313Y1092D02*
X319Y1092D01*
X613Y1092D02*
X619Y1092D01*
X1712Y1092D02*
X1718Y1092D01*
X2006Y1092D02*
X2013Y1092D01*
X0Y1091D02*
X7Y1091D01*
X314Y1091D02*
X320Y1091D01*
X614Y1091D02*
X620Y1091D01*
X1713Y1091D02*
X1719Y1091D01*
X2006Y1091D02*
X2013Y1091D01*
X0Y1090D02*
X7Y1090D01*
X315Y1090D02*
X321Y1090D01*
X615Y1090D02*
X621Y1090D01*
X1714Y1090D02*
X1720Y1090D01*
X2006Y1090D02*
X2013Y1090D01*
X0Y1089D02*
X7Y1089D01*
X316Y1089D02*
X322Y1089D01*
X616Y1089D02*
X622Y1089D01*
X1715Y1089D02*
X1721Y1089D01*
X2006Y1089D02*
X2013Y1089D01*
X0Y1088D02*
X7Y1088D01*
X317Y1088D02*
X323Y1088D01*
X617Y1088D02*
X623Y1088D01*
X1716Y1088D02*
X1722Y1088D01*
X2006Y1088D02*
X2013Y1088D01*
X0Y1087D02*
X7Y1087D01*
X318Y1087D02*
X323Y1087D01*
X618Y1087D02*
X623Y1087D01*
X1717Y1087D02*
X1722Y1087D01*
X2006Y1087D02*
X2013Y1087D01*
X0Y1086D02*
X7Y1086D01*
X319Y1086D02*
X322Y1086D01*
X619Y1086D02*
X622Y1086D01*
X1718Y1086D02*
X1721Y1086D01*
X2006Y1086D02*
X2013Y1086D01*
X0Y1085D02*
X7Y1085D01*
X320Y1085D02*
X321Y1085D01*
X620Y1085D02*
X621Y1085D01*
X1719Y1085D02*
X1720Y1085D01*
X2006Y1085D02*
X2013Y1085D01*
X0Y1084D02*
X7Y1084D01*
X2006Y1084D02*
X2013Y1084D01*
X0Y1083D02*
X14Y1083D01*
X25Y1083D02*
X41Y1083D01*
X315Y1083D02*
X317Y1083D01*
X342Y1083D02*
X344Y1083D01*
X624Y1083D02*
X643Y1083D01*
X2006Y1083D02*
X2013Y1083D01*
X0Y1082D02*
X17Y1082D01*
X22Y1082D02*
X43Y1082D01*
X315Y1082D02*
X319Y1082D01*
X341Y1082D02*
X345Y1082D01*
X623Y1082D02*
X645Y1082D01*
X2006Y1082D02*
X2013Y1082D01*
X0Y1081D02*
X18Y1081D01*
X21Y1081D02*
X44Y1081D01*
X315Y1081D02*
X320Y1081D01*
X340Y1081D02*
X346Y1081D01*
X622Y1081D02*
X646Y1081D01*
X2006Y1081D02*
X2013Y1081D01*
X0Y1080D02*
X45Y1080D01*
X316Y1080D02*
X321Y1080D01*
X340Y1080D02*
X346Y1080D01*
X622Y1080D02*
X646Y1080D01*
X2006Y1080D02*
X2013Y1080D01*
X0Y1079D02*
X46Y1079D01*
X316Y1079D02*
X322Y1079D01*
X340Y1079D02*
X346Y1079D01*
X622Y1079D02*
X646Y1079D01*
X2006Y1079D02*
X2013Y1079D01*
X0Y1078D02*
X46Y1078D01*
X316Y1078D02*
X322Y1078D01*
X340Y1078D02*
X346Y1078D01*
X623Y1078D02*
X646Y1078D01*
X2006Y1078D02*
X2013Y1078D01*
X0Y1077D02*
X46Y1077D01*
X316Y1077D02*
X322Y1077D01*
X340Y1077D02*
X346Y1077D01*
X624Y1077D02*
X646Y1077D01*
X2006Y1077D02*
X2013Y1077D01*
X0Y1076D02*
X7Y1076D01*
X14Y1076D02*
X25Y1076D01*
X40Y1076D02*
X46Y1076D01*
X316Y1076D02*
X322Y1076D01*
X340Y1076D02*
X346Y1076D01*
X640Y1076D02*
X646Y1076D01*
X2006Y1076D02*
X2013Y1076D01*
X0Y1075D02*
X7Y1075D01*
X16Y1075D02*
X24Y1075D01*
X40Y1075D02*
X46Y1075D01*
X316Y1075D02*
X322Y1075D01*
X340Y1075D02*
X346Y1075D01*
X640Y1075D02*
X646Y1075D01*
X2006Y1075D02*
X2013Y1075D01*
X0Y1074D02*
X7Y1074D01*
X16Y1074D02*
X23Y1074D01*
X40Y1074D02*
X46Y1074D01*
X317Y1074D02*
X322Y1074D01*
X340Y1074D02*
X346Y1074D01*
X640Y1074D02*
X646Y1074D01*
X2006Y1074D02*
X2013Y1074D01*
X0Y1073D02*
X7Y1073D01*
X16Y1073D02*
X23Y1073D01*
X40Y1073D02*
X46Y1073D01*
X317Y1073D02*
X322Y1073D01*
X340Y1073D02*
X346Y1073D01*
X640Y1073D02*
X646Y1073D01*
X2006Y1073D02*
X2013Y1073D01*
X0Y1072D02*
X7Y1072D01*
X17Y1072D02*
X23Y1072D01*
X40Y1072D02*
X46Y1072D01*
X317Y1072D02*
X322Y1072D01*
X340Y1072D02*
X346Y1072D01*
X640Y1072D02*
X646Y1072D01*
X2006Y1072D02*
X2013Y1072D01*
X0Y1071D02*
X7Y1071D01*
X17Y1071D02*
X23Y1071D01*
X40Y1071D02*
X46Y1071D01*
X317Y1071D02*
X322Y1071D01*
X340Y1071D02*
X346Y1071D01*
X640Y1071D02*
X646Y1071D01*
X2006Y1071D02*
X2013Y1071D01*
X0Y1070D02*
X7Y1070D01*
X17Y1070D02*
X23Y1070D01*
X40Y1070D02*
X46Y1070D01*
X317Y1070D02*
X322Y1070D01*
X340Y1070D02*
X346Y1070D01*
X640Y1070D02*
X646Y1070D01*
X2006Y1070D02*
X2013Y1070D01*
X0Y1069D02*
X7Y1069D01*
X17Y1069D02*
X23Y1069D01*
X40Y1069D02*
X46Y1069D01*
X317Y1069D02*
X322Y1069D01*
X340Y1069D02*
X346Y1069D01*
X616Y1069D02*
X646Y1069D01*
X2006Y1069D02*
X2013Y1069D01*
X0Y1068D02*
X7Y1068D01*
X17Y1068D02*
X23Y1068D01*
X40Y1068D02*
X46Y1068D01*
X317Y1068D02*
X322Y1068D01*
X340Y1068D02*
X346Y1068D01*
X616Y1068D02*
X646Y1068D01*
X2006Y1068D02*
X2013Y1068D01*
X0Y1067D02*
X7Y1067D01*
X17Y1067D02*
X23Y1067D01*
X40Y1067D02*
X46Y1067D01*
X316Y1067D02*
X322Y1067D01*
X340Y1067D02*
X346Y1067D01*
X616Y1067D02*
X646Y1067D01*
X2006Y1067D02*
X2013Y1067D01*
X0Y1066D02*
X7Y1066D01*
X17Y1066D02*
X23Y1066D01*
X40Y1066D02*
X46Y1066D01*
X316Y1066D02*
X322Y1066D01*
X340Y1066D02*
X346Y1066D01*
X616Y1066D02*
X646Y1066D01*
X2006Y1066D02*
X2013Y1066D01*
X0Y1065D02*
X7Y1065D01*
X17Y1065D02*
X23Y1065D01*
X40Y1065D02*
X46Y1065D01*
X316Y1065D02*
X322Y1065D01*
X340Y1065D02*
X346Y1065D01*
X616Y1065D02*
X646Y1065D01*
X2006Y1065D02*
X2013Y1065D01*
X0Y1064D02*
X7Y1064D01*
X17Y1064D02*
X23Y1064D01*
X40Y1064D02*
X46Y1064D01*
X316Y1064D02*
X322Y1064D01*
X340Y1064D02*
X346Y1064D01*
X616Y1064D02*
X646Y1064D01*
X2006Y1064D02*
X2013Y1064D01*
X0Y1063D02*
X7Y1063D01*
X17Y1063D02*
X23Y1063D01*
X40Y1063D02*
X46Y1063D01*
X316Y1063D02*
X322Y1063D01*
X340Y1063D02*
X346Y1063D01*
X616Y1063D02*
X646Y1063D01*
X2006Y1063D02*
X2013Y1063D01*
X0Y1062D02*
X7Y1062D01*
X17Y1062D02*
X23Y1062D01*
X40Y1062D02*
X46Y1062D01*
X316Y1062D02*
X322Y1062D01*
X340Y1062D02*
X346Y1062D01*
X640Y1062D02*
X646Y1062D01*
X2006Y1062D02*
X2013Y1062D01*
X0Y1061D02*
X7Y1061D01*
X17Y1061D02*
X23Y1061D01*
X40Y1061D02*
X46Y1061D01*
X316Y1061D02*
X322Y1061D01*
X340Y1061D02*
X346Y1061D01*
X640Y1061D02*
X646Y1061D01*
X2006Y1061D02*
X2013Y1061D01*
X0Y1060D02*
X7Y1060D01*
X17Y1060D02*
X23Y1060D01*
X40Y1060D02*
X46Y1060D01*
X316Y1060D02*
X322Y1060D01*
X340Y1060D02*
X346Y1060D01*
X640Y1060D02*
X646Y1060D01*
X2006Y1060D02*
X2013Y1060D01*
X0Y1059D02*
X7Y1059D01*
X17Y1059D02*
X23Y1059D01*
X40Y1059D02*
X46Y1059D01*
X316Y1059D02*
X322Y1059D01*
X340Y1059D02*
X346Y1059D01*
X640Y1059D02*
X646Y1059D01*
X2006Y1059D02*
X2013Y1059D01*
X0Y1058D02*
X7Y1058D01*
X17Y1058D02*
X22Y1058D01*
X40Y1058D02*
X46Y1058D01*
X316Y1058D02*
X322Y1058D01*
X340Y1058D02*
X346Y1058D01*
X640Y1058D02*
X646Y1058D01*
X2006Y1058D02*
X2013Y1058D01*
X0Y1057D02*
X7Y1057D01*
X17Y1057D02*
X22Y1057D01*
X40Y1057D02*
X46Y1057D01*
X316Y1057D02*
X322Y1057D01*
X340Y1057D02*
X346Y1057D01*
X640Y1057D02*
X646Y1057D01*
X2006Y1057D02*
X2013Y1057D01*
X0Y1056D02*
X7Y1056D01*
X18Y1056D02*
X21Y1056D01*
X40Y1056D02*
X46Y1056D01*
X316Y1056D02*
X323Y1056D01*
X340Y1056D02*
X346Y1056D01*
X640Y1056D02*
X646Y1056D01*
X2006Y1056D02*
X2013Y1056D01*
X0Y1055D02*
X7Y1055D01*
X40Y1055D02*
X46Y1055D01*
X316Y1055D02*
X346Y1055D01*
X640Y1055D02*
X646Y1055D01*
X2006Y1055D02*
X2013Y1055D01*
X0Y1054D02*
X7Y1054D01*
X40Y1054D02*
X46Y1054D01*
X317Y1054D02*
X346Y1054D01*
X640Y1054D02*
X646Y1054D01*
X2006Y1054D02*
X2013Y1054D01*
X0Y1053D02*
X7Y1053D01*
X40Y1053D02*
X46Y1053D01*
X317Y1053D02*
X346Y1053D01*
X640Y1053D02*
X646Y1053D01*
X2006Y1053D02*
X2013Y1053D01*
X0Y1052D02*
X7Y1052D01*
X40Y1052D02*
X46Y1052D01*
X318Y1052D02*
X346Y1052D01*
X640Y1052D02*
X646Y1052D01*
X2006Y1052D02*
X2013Y1052D01*
X0Y1051D02*
X7Y1051D01*
X40Y1051D02*
X46Y1051D01*
X318Y1051D02*
X346Y1051D01*
X640Y1051D02*
X646Y1051D01*
X2006Y1051D02*
X2013Y1051D01*
X0Y1050D02*
X7Y1050D01*
X41Y1050D02*
X45Y1050D01*
X319Y1050D02*
X346Y1050D01*
X641Y1050D02*
X645Y1050D01*
X2006Y1050D02*
X2013Y1050D01*
X0Y1049D02*
X7Y1049D01*
X42Y1049D02*
X44Y1049D01*
X321Y1049D02*
X346Y1049D01*
X642Y1049D02*
X644Y1049D01*
X2006Y1049D02*
X2013Y1049D01*
X0Y1048D02*
X7Y1048D01*
X2006Y1048D02*
X2013Y1048D01*
X0Y1047D02*
X7Y1047D01*
X2006Y1047D02*
X2013Y1047D01*
X0Y1046D02*
X7Y1046D01*
X2006Y1046D02*
X2013Y1046D01*
X0Y1045D02*
X7Y1045D01*
X2006Y1045D02*
X2013Y1045D01*
X0Y1044D02*
X7Y1044D01*
X2006Y1044D02*
X2013Y1044D01*
X0Y1043D02*
X7Y1043D01*
X2006Y1043D02*
X2013Y1043D01*
X0Y1042D02*
X7Y1042D01*
X2006Y1042D02*
X2013Y1042D01*
X0Y1041D02*
X7Y1041D01*
X2006Y1041D02*
X2013Y1041D01*
X0Y1040D02*
X7Y1040D01*
X2006Y1040D02*
X2013Y1040D01*
X0Y1039D02*
X7Y1039D01*
X2006Y1039D02*
X2013Y1039D01*
X0Y1038D02*
X7Y1038D01*
X2006Y1038D02*
X2013Y1038D01*
X0Y1037D02*
X7Y1037D01*
X2006Y1037D02*
X2013Y1037D01*
X0Y1036D02*
X7Y1036D01*
X2006Y1036D02*
X2013Y1036D01*
X0Y1035D02*
X7Y1035D01*
X2006Y1035D02*
X2013Y1035D01*
X0Y1034D02*
X7Y1034D01*
X2006Y1034D02*
X2013Y1034D01*
X0Y1033D02*
X23Y1033D01*
X42Y1033D02*
X44Y1033D01*
X299Y1033D02*
X323Y1033D01*
X342Y1033D02*
X344Y1033D01*
X599Y1033D02*
X623Y1033D01*
X642Y1033D02*
X644Y1033D01*
X2006Y1033D02*
X2013Y1033D01*
X0Y1032D02*
X26Y1032D01*
X41Y1032D02*
X45Y1032D01*
X297Y1032D02*
X326Y1032D01*
X341Y1032D02*
X345Y1032D01*
X597Y1032D02*
X625Y1032D01*
X641Y1032D02*
X645Y1032D01*
X2006Y1032D02*
X2013Y1032D01*
X0Y1031D02*
X28Y1031D01*
X40Y1031D02*
X46Y1031D01*
X296Y1031D02*
X328Y1031D01*
X340Y1031D02*
X346Y1031D01*
X596Y1031D02*
X627Y1031D01*
X640Y1031D02*
X646Y1031D01*
X2006Y1031D02*
X2013Y1031D01*
X0Y1030D02*
X29Y1030D01*
X40Y1030D02*
X46Y1030D01*
X295Y1030D02*
X329Y1030D01*
X340Y1030D02*
X346Y1030D01*
X595Y1030D02*
X629Y1030D01*
X640Y1030D02*
X646Y1030D01*
X2006Y1030D02*
X2013Y1030D01*
X0Y1029D02*
X30Y1029D01*
X40Y1029D02*
X46Y1029D01*
X294Y1029D02*
X330Y1029D01*
X340Y1029D02*
X346Y1029D01*
X594Y1029D02*
X630Y1029D01*
X640Y1029D02*
X646Y1029D01*
X2006Y1029D02*
X2013Y1029D01*
X0Y1028D02*
X31Y1028D01*
X40Y1028D02*
X46Y1028D01*
X294Y1028D02*
X331Y1028D01*
X340Y1028D02*
X346Y1028D01*
X593Y1028D02*
X631Y1028D01*
X640Y1028D02*
X646Y1028D01*
X2006Y1028D02*
X2013Y1028D01*
X0Y1027D02*
X32Y1027D01*
X40Y1027D02*
X46Y1027D01*
X293Y1027D02*
X332Y1027D01*
X340Y1027D02*
X346Y1027D01*
X593Y1027D02*
X632Y1027D01*
X640Y1027D02*
X646Y1027D01*
X2006Y1027D02*
X2013Y1027D01*
X0Y1026D02*
X7Y1026D01*
X23Y1026D02*
X33Y1026D01*
X40Y1026D02*
X46Y1026D01*
X293Y1026D02*
X300Y1026D01*
X323Y1026D02*
X333Y1026D01*
X340Y1026D02*
X346Y1026D01*
X593Y1026D02*
X600Y1026D01*
X623Y1026D02*
X633Y1026D01*
X640Y1026D02*
X646Y1026D01*
X2006Y1026D02*
X2013Y1026D01*
X0Y1025D02*
X7Y1025D01*
X25Y1025D02*
X34Y1025D01*
X40Y1025D02*
X46Y1025D01*
X293Y1025D02*
X299Y1025D01*
X325Y1025D02*
X334Y1025D01*
X339Y1025D02*
X346Y1025D01*
X593Y1025D02*
X599Y1025D01*
X625Y1025D02*
X633Y1025D01*
X639Y1025D02*
X646Y1025D01*
X2006Y1025D02*
X2013Y1025D01*
X0Y1024D02*
X7Y1024D01*
X26Y1024D02*
X35Y1024D01*
X37Y1024D02*
X46Y1024D01*
X293Y1024D02*
X299Y1024D01*
X326Y1024D02*
X334Y1024D01*
X337Y1024D02*
X346Y1024D01*
X593Y1024D02*
X599Y1024D01*
X626Y1024D02*
X634Y1024D01*
X637Y1024D02*
X646Y1024D01*
X2006Y1024D02*
X2013Y1024D01*
X0Y1023D02*
X7Y1023D01*
X27Y1023D02*
X46Y1023D01*
X293Y1023D02*
X300Y1023D01*
X327Y1023D02*
X346Y1023D01*
X593Y1023D02*
X600Y1023D01*
X627Y1023D02*
X646Y1023D01*
X2006Y1023D02*
X2013Y1023D01*
X0Y1022D02*
X7Y1022D01*
X28Y1022D02*
X46Y1022D01*
X293Y1022D02*
X301Y1022D01*
X328Y1022D02*
X346Y1022D01*
X593Y1022D02*
X601Y1022D01*
X628Y1022D02*
X646Y1022D01*
X2006Y1022D02*
X2013Y1022D01*
X0Y1021D02*
X7Y1021D01*
X29Y1021D02*
X46Y1021D01*
X294Y1021D02*
X302Y1021D01*
X328Y1021D02*
X346Y1021D01*
X594Y1021D02*
X601Y1021D01*
X628Y1021D02*
X646Y1021D01*
X2006Y1021D02*
X2013Y1021D01*
X0Y1020D02*
X7Y1020D01*
X27Y1020D02*
X45Y1020D01*
X294Y1020D02*
X302Y1020D01*
X327Y1020D02*
X345Y1020D01*
X594Y1020D02*
X602Y1020D01*
X626Y1020D02*
X645Y1020D01*
X1975Y1020D02*
X1978Y1020D01*
X0Y1019D02*
X7Y1019D01*
X24Y1019D02*
X43Y1019D01*
X295Y1019D02*
X303Y1019D01*
X324Y1019D02*
X342Y1019D01*
X595Y1019D02*
X603Y1019D01*
X624Y1019D02*
X642Y1019D01*
X1974Y1019D02*
X1979Y1019D01*
X0Y1018D02*
X7Y1018D01*
X23Y1018D02*
X40Y1018D01*
X296Y1018D02*
X304Y1018D01*
X323Y1018D02*
X340Y1018D01*
X596Y1018D02*
X604Y1018D01*
X623Y1018D02*
X640Y1018D01*
X1974Y1018D02*
X1980Y1018D01*
X0Y1017D02*
X7Y1017D01*
X23Y1017D02*
X40Y1017D01*
X297Y1017D02*
X305Y1017D01*
X323Y1017D02*
X340Y1017D01*
X597Y1017D02*
X605Y1017D01*
X622Y1017D02*
X640Y1017D01*
X1974Y1017D02*
X1980Y1017D01*
X0Y1016D02*
X7Y1016D01*
X22Y1016D02*
X41Y1016D01*
X298Y1016D02*
X306Y1016D01*
X322Y1016D02*
X341Y1016D01*
X597Y1016D02*
X606Y1016D01*
X622Y1016D02*
X641Y1016D01*
X1974Y1016D02*
X1980Y1016D01*
X0Y1015D02*
X7Y1015D01*
X23Y1015D02*
X32Y1015D01*
X34Y1015D02*
X42Y1015D01*
X298Y1015D02*
X307Y1015D01*
X322Y1015D02*
X332Y1015D01*
X334Y1015D02*
X342Y1015D01*
X598Y1015D02*
X606Y1015D01*
X622Y1015D02*
X642Y1015D01*
X1974Y1015D02*
X1980Y1015D01*
X0Y1014D02*
X8Y1014D01*
X23Y1014D02*
X30Y1014D01*
X35Y1014D02*
X43Y1014D01*
X299Y1014D02*
X307Y1014D01*
X323Y1014D02*
X330Y1014D01*
X335Y1014D02*
X343Y1014D01*
X599Y1014D02*
X607Y1014D01*
X623Y1014D02*
X629Y1014D01*
X634Y1014D02*
X643Y1014D01*
X1974Y1014D02*
X1980Y1014D01*
X0Y1013D02*
X8Y1013D01*
X24Y1013D02*
X27Y1013D01*
X36Y1013D02*
X44Y1013D01*
X300Y1013D02*
X308Y1013D01*
X324Y1013D02*
X327Y1013D01*
X335Y1013D02*
X344Y1013D01*
X600Y1013D02*
X608Y1013D01*
X624Y1013D02*
X627Y1013D01*
X635Y1013D02*
X643Y1013D01*
X1974Y1013D02*
X1980Y1013D01*
X2006Y1013D02*
X2013Y1013D01*
X0Y1012D02*
X9Y1012D01*
X36Y1012D02*
X45Y1012D01*
X301Y1012D02*
X309Y1012D01*
X336Y1012D02*
X344Y1012D01*
X601Y1012D02*
X609Y1012D01*
X636Y1012D02*
X644Y1012D01*
X1974Y1012D02*
X1980Y1012D01*
X2006Y1012D02*
X2013Y1012D01*
X0Y1011D02*
X10Y1011D01*
X37Y1011D02*
X45Y1011D01*
X302Y1011D02*
X310Y1011D01*
X337Y1011D02*
X345Y1011D01*
X602Y1011D02*
X610Y1011D01*
X637Y1011D02*
X645Y1011D01*
X1974Y1011D02*
X1980Y1011D01*
X2006Y1011D02*
X2013Y1011D01*
X0Y1010D02*
X11Y1010D01*
X38Y1010D02*
X46Y1010D01*
X303Y1010D02*
X311Y1010D01*
X338Y1010D02*
X345Y1010D01*
X603Y1010D02*
X611Y1010D01*
X638Y1010D02*
X645Y1010D01*
X1741Y1010D02*
X1772Y1010D01*
X1804Y1010D02*
X1822Y1010D01*
X1841Y1010D02*
X1860Y1010D01*
X1974Y1010D02*
X1980Y1010D01*
X2006Y1010D02*
X2013Y1010D01*
X0Y1009D02*
X12Y1009D01*
X39Y1009D02*
X46Y1009D01*
X303Y1009D02*
X312Y1009D01*
X339Y1009D02*
X346Y1009D01*
X603Y1009D02*
X612Y1009D01*
X639Y1009D02*
X646Y1009D01*
X1740Y1009D02*
X1773Y1009D01*
X1802Y1009D02*
X1823Y1009D01*
X1840Y1009D02*
X1860Y1009D01*
X1974Y1009D02*
X1980Y1009D01*
X2006Y1009D02*
X2013Y1009D01*
X0Y1008D02*
X13Y1008D01*
X40Y1008D02*
X46Y1008D01*
X304Y1008D02*
X313Y1008D01*
X340Y1008D02*
X346Y1008D01*
X604Y1008D02*
X612Y1008D01*
X640Y1008D02*
X646Y1008D01*
X1740Y1008D02*
X1773Y1008D01*
X1801Y1008D02*
X1823Y1008D01*
X1840Y1008D02*
X1860Y1008D01*
X1974Y1008D02*
X1980Y1008D01*
X2006Y1008D02*
X2013Y1008D01*
X0Y1007D02*
X14Y1007D01*
X40Y1007D02*
X46Y1007D01*
X305Y1007D02*
X314Y1007D01*
X340Y1007D02*
X346Y1007D01*
X605Y1007D02*
X614Y1007D01*
X640Y1007D02*
X646Y1007D01*
X1740Y1007D02*
X1773Y1007D01*
X1800Y1007D02*
X1823Y1007D01*
X1840Y1007D02*
X1860Y1007D01*
X1974Y1007D02*
X1980Y1007D01*
X2006Y1007D02*
X2013Y1007D01*
X0Y1006D02*
X16Y1006D01*
X39Y1006D02*
X46Y1006D01*
X306Y1006D02*
X316Y1006D01*
X339Y1006D02*
X346Y1006D01*
X606Y1006D02*
X616Y1006D01*
X639Y1006D02*
X646Y1006D01*
X1740Y1006D02*
X1773Y1006D01*
X1799Y1006D02*
X1823Y1006D01*
X1840Y1006D02*
X1860Y1006D01*
X1974Y1006D02*
X1980Y1006D01*
X2006Y1006D02*
X2013Y1006D01*
X0Y1005D02*
X46Y1005D01*
X307Y1005D02*
X346Y1005D01*
X607Y1005D02*
X646Y1005D01*
X1741Y1005D02*
X1773Y1005D01*
X1799Y1005D02*
X1823Y1005D01*
X1841Y1005D02*
X1860Y1005D01*
X1974Y1005D02*
X1980Y1005D01*
X2006Y1005D02*
X2013Y1005D01*
X0Y1004D02*
X45Y1004D01*
X308Y1004D02*
X345Y1004D01*
X608Y1004D02*
X645Y1004D01*
X1742Y1004D02*
X1771Y1004D01*
X1798Y1004D02*
X1821Y1004D01*
X1842Y1004D02*
X1860Y1004D01*
X1974Y1004D02*
X1980Y1004D01*
X2006Y1004D02*
X2013Y1004D01*
X0Y1003D02*
X7Y1003D01*
X9Y1003D02*
X45Y1003D01*
X309Y1003D02*
X345Y1003D01*
X609Y1003D02*
X645Y1003D01*
X1754Y1003D02*
X1760Y1003D01*
X1798Y1003D02*
X1805Y1003D01*
X1854Y1003D02*
X1860Y1003D01*
X1974Y1003D02*
X1980Y1003D01*
X2006Y1003D02*
X2013Y1003D01*
X0Y1002D02*
X7Y1002D01*
X10Y1002D02*
X44Y1002D01*
X310Y1002D02*
X344Y1002D01*
X610Y1002D02*
X644Y1002D01*
X1754Y1002D02*
X1760Y1002D01*
X1797Y1002D02*
X1804Y1002D01*
X1854Y1002D02*
X1860Y1002D01*
X1974Y1002D02*
X1980Y1002D01*
X2006Y1002D02*
X2013Y1002D01*
X0Y1001D02*
X7Y1001D01*
X11Y1001D02*
X43Y1001D01*
X311Y1001D02*
X343Y1001D01*
X611Y1001D02*
X643Y1001D01*
X1754Y1001D02*
X1760Y1001D01*
X1797Y1001D02*
X1804Y1001D01*
X1854Y1001D02*
X1860Y1001D01*
X1974Y1001D02*
X1980Y1001D01*
X2006Y1001D02*
X2013Y1001D01*
X0Y1000D02*
X7Y1000D01*
X13Y1000D02*
X42Y1000D01*
X313Y1000D02*
X342Y1000D01*
X613Y1000D02*
X642Y1000D01*
X1754Y1000D02*
X1760Y1000D01*
X1796Y1000D02*
X1803Y1000D01*
X1854Y1000D02*
X1860Y1000D01*
X1974Y1000D02*
X1980Y1000D01*
X2006Y1000D02*
X2013Y1000D01*
X0Y999D02*
X7Y999D01*
X16Y999D02*
X40Y999D01*
X316Y999D02*
X340Y999D01*
X616Y999D02*
X640Y999D01*
X1754Y999D02*
X1760Y999D01*
X1796Y999D02*
X1803Y999D01*
X1854Y999D02*
X1860Y999D01*
X1974Y999D02*
X1980Y999D01*
X2006Y999D02*
X2013Y999D01*
X0Y998D02*
X7Y998D01*
X1754Y998D02*
X1760Y998D01*
X1795Y998D02*
X1802Y998D01*
X1854Y998D02*
X1860Y998D01*
X1974Y998D02*
X1980Y998D01*
X2006Y998D02*
X2013Y998D01*
X0Y997D02*
X7Y997D01*
X1754Y997D02*
X1760Y997D01*
X1795Y997D02*
X1801Y997D01*
X1854Y997D02*
X1860Y997D01*
X1974Y997D02*
X1980Y997D01*
X0Y996D02*
X7Y996D01*
X1754Y996D02*
X1760Y996D01*
X1794Y996D02*
X1801Y996D01*
X1854Y996D02*
X1860Y996D01*
X1974Y996D02*
X1980Y996D01*
X0Y995D02*
X7Y995D01*
X1754Y995D02*
X1760Y995D01*
X1794Y995D02*
X1800Y995D01*
X1854Y995D02*
X1860Y995D01*
X1974Y995D02*
X1980Y995D01*
X0Y994D02*
X7Y994D01*
X1754Y994D02*
X1760Y994D01*
X1793Y994D02*
X1800Y994D01*
X1854Y994D02*
X1860Y994D01*
X1974Y994D02*
X1980Y994D01*
X0Y993D02*
X7Y993D01*
X1754Y993D02*
X1760Y993D01*
X1793Y993D02*
X1799Y993D01*
X1854Y993D02*
X1860Y993D01*
X1974Y993D02*
X1980Y993D01*
X0Y992D02*
X7Y992D01*
X1754Y992D02*
X1760Y992D01*
X1792Y992D02*
X1799Y992D01*
X1854Y992D02*
X1860Y992D01*
X1974Y992D02*
X1980Y992D01*
X0Y991D02*
X7Y991D01*
X1754Y991D02*
X1760Y991D01*
X1792Y991D02*
X1798Y991D01*
X1854Y991D02*
X1860Y991D01*
X1956Y991D02*
X1957Y991D01*
X1974Y991D02*
X1980Y991D01*
X0Y990D02*
X7Y990D01*
X1754Y990D02*
X1760Y990D01*
X1791Y990D02*
X1798Y990D01*
X1854Y990D02*
X1860Y990D01*
X1954Y990D02*
X1958Y990D01*
X1974Y990D02*
X1980Y990D01*
X2006Y990D02*
X2013Y990D01*
X0Y989D02*
X7Y989D01*
X375Y989D02*
X390Y989D01*
X675Y989D02*
X690Y989D01*
X975Y989D02*
X990Y989D01*
X1754Y989D02*
X1760Y989D01*
X1791Y989D02*
X1797Y989D01*
X1854Y989D02*
X1860Y989D01*
X1953Y989D02*
X1959Y989D01*
X1974Y989D02*
X1980Y989D01*
X2006Y989D02*
X2013Y989D01*
X0Y988D02*
X7Y988D01*
X373Y988D02*
X391Y988D01*
X673Y988D02*
X691Y988D01*
X973Y988D02*
X991Y988D01*
X1754Y988D02*
X1760Y988D01*
X1791Y988D02*
X1797Y988D01*
X1854Y988D02*
X1860Y988D01*
X1953Y988D02*
X1959Y988D01*
X1974Y988D02*
X1980Y988D01*
X2006Y988D02*
X2013Y988D01*
X0Y987D02*
X7Y987D01*
X372Y987D02*
X392Y987D01*
X672Y987D02*
X692Y987D01*
X972Y987D02*
X992Y987D01*
X1754Y987D02*
X1760Y987D01*
X1790Y987D02*
X1797Y987D01*
X1854Y987D02*
X1860Y987D01*
X1953Y987D02*
X1959Y987D01*
X1974Y987D02*
X1980Y987D01*
X2006Y987D02*
X2013Y987D01*
X0Y986D02*
X7Y986D01*
X371Y986D02*
X392Y986D01*
X671Y986D02*
X692Y986D01*
X971Y986D02*
X992Y986D01*
X1754Y986D02*
X1760Y986D01*
X1790Y986D02*
X1796Y986D01*
X1854Y986D02*
X1860Y986D01*
X1953Y986D02*
X1959Y986D01*
X1974Y986D02*
X1980Y986D01*
X2006Y986D02*
X2013Y986D01*
X0Y985D02*
X7Y985D01*
X370Y985D02*
X392Y985D01*
X670Y985D02*
X692Y985D01*
X970Y985D02*
X992Y985D01*
X1754Y985D02*
X1760Y985D01*
X1790Y985D02*
X1796Y985D01*
X1854Y985D02*
X1860Y985D01*
X1953Y985D02*
X1959Y985D01*
X1974Y985D02*
X1980Y985D01*
X2006Y985D02*
X2013Y985D01*
X0Y984D02*
X7Y984D01*
X370Y984D02*
X391Y984D01*
X669Y984D02*
X691Y984D01*
X969Y984D02*
X991Y984D01*
X1754Y984D02*
X1760Y984D01*
X1790Y984D02*
X1796Y984D01*
X1854Y984D02*
X1860Y984D01*
X1953Y984D02*
X1959Y984D01*
X1974Y984D02*
X1980Y984D01*
X2006Y984D02*
X2013Y984D01*
X0Y983D02*
X7Y983D01*
X369Y983D02*
X390Y983D01*
X669Y983D02*
X690Y983D01*
X969Y983D02*
X990Y983D01*
X1754Y983D02*
X1760Y983D01*
X1790Y983D02*
X1796Y983D01*
X1854Y983D02*
X1860Y983D01*
X1953Y983D02*
X1959Y983D01*
X1974Y983D02*
X1980Y983D01*
X2006Y983D02*
X2013Y983D01*
X0Y982D02*
X7Y982D01*
X369Y982D02*
X376Y982D01*
X669Y982D02*
X676Y982D01*
X969Y982D02*
X976Y982D01*
X1754Y982D02*
X1760Y982D01*
X1790Y982D02*
X1796Y982D01*
X1854Y982D02*
X1860Y982D01*
X1953Y982D02*
X1959Y982D01*
X1974Y982D02*
X1980Y982D01*
X2006Y982D02*
X2013Y982D01*
X0Y981D02*
X7Y981D01*
X369Y981D02*
X375Y981D01*
X668Y981D02*
X675Y981D01*
X968Y981D02*
X975Y981D01*
X1754Y981D02*
X1760Y981D01*
X1790Y981D02*
X1796Y981D01*
X1854Y981D02*
X1860Y981D01*
X1870Y981D02*
X1871Y981D01*
X1953Y981D02*
X1959Y981D01*
X1974Y981D02*
X1980Y981D01*
X2006Y981D02*
X2013Y981D01*
X0Y980D02*
X7Y980D01*
X368Y980D02*
X375Y980D01*
X668Y980D02*
X674Y980D01*
X968Y980D02*
X974Y980D01*
X1754Y980D02*
X1760Y980D01*
X1790Y980D02*
X1797Y980D01*
X1854Y980D02*
X1860Y980D01*
X1868Y980D02*
X1872Y980D01*
X1953Y980D02*
X1959Y980D01*
X1974Y980D02*
X1980Y980D01*
X2006Y980D02*
X2013Y980D01*
X0Y979D02*
X7Y979D01*
X368Y979D02*
X374Y979D01*
X668Y979D02*
X674Y979D01*
X968Y979D02*
X974Y979D01*
X1754Y979D02*
X1760Y979D01*
X1791Y979D02*
X1797Y979D01*
X1854Y979D02*
X1860Y979D01*
X1868Y979D02*
X1873Y979D01*
X1953Y979D02*
X1959Y979D01*
X1974Y979D02*
X1980Y979D01*
X2006Y979D02*
X2013Y979D01*
X0Y978D02*
X7Y978D01*
X368Y978D02*
X374Y978D01*
X668Y978D02*
X674Y978D01*
X968Y978D02*
X974Y978D01*
X1754Y978D02*
X1760Y978D01*
X1791Y978D02*
X1798Y978D01*
X1854Y978D02*
X1860Y978D01*
X1867Y978D02*
X1873Y978D01*
X1953Y978D02*
X1959Y978D01*
X1974Y978D02*
X1980Y978D01*
X2006Y978D02*
X2013Y978D01*
X0Y977D02*
X7Y977D01*
X368Y977D02*
X374Y977D01*
X668Y977D02*
X674Y977D01*
X968Y977D02*
X974Y977D01*
X1754Y977D02*
X1760Y977D01*
X1791Y977D02*
X1798Y977D01*
X1854Y977D02*
X1860Y977D01*
X1867Y977D02*
X1873Y977D01*
X1953Y977D02*
X1959Y977D01*
X1974Y977D02*
X1980Y977D01*
X2006Y977D02*
X2013Y977D01*
X0Y976D02*
X7Y976D01*
X368Y976D02*
X374Y976D01*
X668Y976D02*
X674Y976D01*
X968Y976D02*
X974Y976D01*
X1754Y976D02*
X1760Y976D01*
X1792Y976D02*
X1799Y976D01*
X1854Y976D02*
X1860Y976D01*
X1867Y976D02*
X1873Y976D01*
X1953Y976D02*
X1959Y976D01*
X1974Y976D02*
X1980Y976D01*
X2002Y976D02*
X2004Y976D01*
X2006Y976D02*
X2013Y976D01*
X0Y975D02*
X7Y975D01*
X368Y975D02*
X374Y975D01*
X668Y975D02*
X674Y975D01*
X968Y975D02*
X974Y975D01*
X1754Y975D02*
X1760Y975D01*
X1792Y975D02*
X1799Y975D01*
X1854Y975D02*
X1860Y975D01*
X1867Y975D02*
X1873Y975D01*
X1953Y975D02*
X1960Y975D01*
X1973Y975D02*
X1980Y975D01*
X2000Y975D02*
X2013Y975D01*
X0Y974D02*
X7Y974D01*
X368Y974D02*
X374Y974D01*
X668Y974D02*
X674Y974D01*
X968Y974D02*
X974Y974D01*
X1754Y974D02*
X1760Y974D01*
X1793Y974D02*
X1800Y974D01*
X1854Y974D02*
X1860Y974D01*
X1867Y974D02*
X1873Y974D01*
X1954Y974D02*
X1961Y974D01*
X1972Y974D02*
X1979Y974D01*
X2000Y974D02*
X2013Y974D01*
X0Y973D02*
X7Y973D01*
X368Y973D02*
X374Y973D01*
X668Y973D02*
X674Y973D01*
X968Y973D02*
X974Y973D01*
X1754Y973D02*
X1760Y973D01*
X1793Y973D02*
X1800Y973D01*
X1854Y973D02*
X1860Y973D01*
X1867Y973D02*
X1873Y973D01*
X1954Y973D02*
X1979Y973D01*
X0Y972D02*
X7Y972D01*
X368Y972D02*
X374Y972D01*
X668Y972D02*
X674Y972D01*
X968Y972D02*
X974Y972D01*
X1754Y972D02*
X1760Y972D01*
X1794Y972D02*
X1801Y972D01*
X1854Y972D02*
X1860Y972D01*
X1867Y972D02*
X1873Y972D01*
X1954Y972D02*
X1979Y972D01*
X0Y971D02*
X7Y971D01*
X368Y971D02*
X375Y971D01*
X668Y971D02*
X675Y971D01*
X968Y971D02*
X974Y971D01*
X1754Y971D02*
X1760Y971D01*
X1794Y971D02*
X1801Y971D01*
X1854Y971D02*
X1860Y971D01*
X1867Y971D02*
X1873Y971D01*
X1955Y971D02*
X1978Y971D01*
X0Y970D02*
X7Y970D01*
X369Y970D02*
X375Y970D01*
X669Y970D02*
X675Y970D01*
X968Y970D02*
X975Y970D01*
X1754Y970D02*
X1760Y970D01*
X1795Y970D02*
X1802Y970D01*
X1854Y970D02*
X1860Y970D01*
X1867Y970D02*
X1873Y970D01*
X1956Y970D02*
X1977Y970D01*
X0Y969D02*
X7Y969D01*
X369Y969D02*
X377Y969D01*
X669Y969D02*
X677Y969D01*
X969Y969D02*
X977Y969D01*
X1754Y969D02*
X1760Y969D01*
X1795Y969D02*
X1802Y969D01*
X1854Y969D02*
X1860Y969D01*
X1867Y969D02*
X1873Y969D01*
X1957Y969D02*
X1976Y969D01*
X0Y968D02*
X7Y968D01*
X369Y968D02*
X420Y968D01*
X669Y968D02*
X720Y968D01*
X969Y968D02*
X1020Y968D01*
X1754Y968D02*
X1760Y968D01*
X1796Y968D02*
X1803Y968D01*
X1854Y968D02*
X1860Y968D01*
X1867Y968D02*
X1873Y968D01*
X1958Y968D02*
X1975Y968D01*
X0Y967D02*
X7Y967D01*
X370Y967D02*
X421Y967D01*
X670Y967D02*
X721Y967D01*
X970Y967D02*
X1021Y967D01*
X1754Y967D02*
X1760Y967D01*
X1796Y967D02*
X1803Y967D01*
X1854Y967D02*
X1860Y967D01*
X1867Y967D02*
X1873Y967D01*
X1961Y967D02*
X1972Y967D01*
X0Y966D02*
X7Y966D01*
X371Y966D02*
X421Y966D01*
X670Y966D02*
X721Y966D01*
X970Y966D02*
X1021Y966D01*
X1754Y966D02*
X1760Y966D01*
X1797Y966D02*
X1804Y966D01*
X1854Y966D02*
X1860Y966D01*
X1867Y966D02*
X1873Y966D01*
X2006Y966D02*
X2013Y966D01*
X0Y965D02*
X7Y965D01*
X371Y965D02*
X421Y965D01*
X671Y965D02*
X721Y965D01*
X971Y965D02*
X1021Y965D01*
X1754Y965D02*
X1760Y965D01*
X1797Y965D02*
X1804Y965D01*
X1854Y965D02*
X1860Y965D01*
X1867Y965D02*
X1873Y965D01*
X2006Y965D02*
X2013Y965D01*
X0Y964D02*
X7Y964D01*
X373Y964D02*
X421Y964D01*
X672Y964D02*
X721Y964D01*
X972Y964D02*
X1021Y964D01*
X1754Y964D02*
X1760Y964D01*
X1798Y964D02*
X1805Y964D01*
X1854Y964D02*
X1860Y964D01*
X1867Y964D02*
X1873Y964D01*
X2006Y964D02*
X2013Y964D01*
X0Y963D02*
X7Y963D01*
X374Y963D02*
X420Y963D01*
X674Y963D02*
X720Y963D01*
X974Y963D02*
X1020Y963D01*
X1742Y963D02*
X1772Y963D01*
X1798Y963D02*
X1822Y963D01*
X1842Y963D02*
X1873Y963D01*
X2006Y963D02*
X2013Y963D01*
X0Y962D02*
X7Y962D01*
X378Y962D02*
X419Y962D01*
X677Y962D02*
X719Y962D01*
X977Y962D02*
X1018Y962D01*
X1741Y962D02*
X1773Y962D01*
X1799Y962D02*
X1823Y962D01*
X1840Y962D02*
X1873Y962D01*
X2006Y962D02*
X2013Y962D01*
X0Y961D02*
X7Y961D01*
X1740Y961D02*
X1773Y961D01*
X1800Y961D02*
X1823Y961D01*
X1840Y961D02*
X1873Y961D01*
X2006Y961D02*
X2013Y961D01*
X0Y960D02*
X7Y960D01*
X1740Y960D02*
X1773Y960D01*
X1800Y960D02*
X1823Y960D01*
X1840Y960D02*
X1873Y960D01*
X2006Y960D02*
X2013Y960D01*
X0Y959D02*
X7Y959D01*
X1740Y959D02*
X1773Y959D01*
X1801Y959D02*
X1823Y959D01*
X1840Y959D02*
X1873Y959D01*
X2006Y959D02*
X2013Y959D01*
X0Y958D02*
X7Y958D01*
X1741Y958D02*
X1773Y958D01*
X1803Y958D02*
X1823Y958D01*
X1841Y958D02*
X1873Y958D01*
X2006Y958D02*
X2013Y958D01*
X0Y957D02*
X7Y957D01*
X1742Y957D02*
X1772Y957D01*
X1805Y957D02*
X1822Y957D01*
X1842Y957D02*
X1871Y957D01*
X2006Y957D02*
X2013Y957D01*
X0Y956D02*
X7Y956D01*
X2006Y956D02*
X2013Y956D01*
X0Y955D02*
X7Y955D01*
X2006Y955D02*
X2013Y955D01*
X0Y954D02*
X7Y954D01*
X2006Y954D02*
X2013Y954D01*
X0Y953D02*
X7Y953D01*
X2006Y953D02*
X2013Y953D01*
X0Y952D02*
X7Y952D01*
X2006Y952D02*
X2013Y952D01*
X0Y951D02*
X7Y951D01*
X2006Y951D02*
X2013Y951D01*
X0Y950D02*
X7Y950D01*
X2006Y950D02*
X2013Y950D01*
X0Y949D02*
X7Y949D01*
X2006Y949D02*
X2013Y949D01*
X0Y948D02*
X7Y948D01*
X2006Y948D02*
X2013Y948D01*
X0Y947D02*
X7Y947D01*
X2006Y947D02*
X2013Y947D01*
X0Y946D02*
X7Y946D01*
X2006Y946D02*
X2013Y946D01*
X0Y945D02*
X7Y945D01*
X2006Y945D02*
X2013Y945D01*
X0Y944D02*
X7Y944D01*
X2006Y944D02*
X2013Y944D01*
X0Y943D02*
X7Y943D01*
X369Y943D02*
X391Y943D01*
X2006Y943D02*
X2013Y943D01*
X0Y942D02*
X7Y942D01*
X368Y942D02*
X394Y942D01*
X417Y942D02*
X420Y942D01*
X669Y942D02*
X673Y942D01*
X716Y942D02*
X720Y942D01*
X2006Y942D02*
X2013Y942D01*
X0Y941D02*
X7Y941D01*
X368Y941D02*
X396Y941D01*
X416Y941D02*
X421Y941D01*
X669Y941D02*
X674Y941D01*
X716Y941D02*
X721Y941D01*
X986Y941D02*
X1019Y941D01*
X2006Y941D02*
X2013Y941D01*
X0Y940D02*
X7Y940D01*
X368Y940D02*
X397Y940D01*
X416Y940D02*
X421Y940D01*
X668Y940D02*
X674Y940D01*
X715Y940D02*
X721Y940D01*
X986Y940D02*
X1020Y940D01*
X2006Y940D02*
X2013Y940D01*
X0Y939D02*
X7Y939D01*
X368Y939D02*
X397Y939D01*
X415Y939D02*
X422Y939D01*
X668Y939D02*
X674Y939D01*
X715Y939D02*
X721Y939D01*
X986Y939D02*
X1021Y939D01*
X2006Y939D02*
X2013Y939D01*
X0Y938D02*
X7Y938D01*
X368Y938D02*
X398Y938D01*
X415Y938D02*
X422Y938D01*
X668Y938D02*
X674Y938D01*
X715Y938D02*
X721Y938D01*
X986Y938D02*
X1021Y938D01*
X2006Y938D02*
X2013Y938D01*
X0Y937D02*
X7Y937D01*
X368Y937D02*
X398Y937D01*
X415Y937D02*
X422Y937D01*
X668Y937D02*
X674Y937D01*
X715Y937D02*
X721Y937D01*
X986Y937D02*
X1021Y937D01*
X2006Y937D02*
X2013Y937D01*
X0Y936D02*
X7Y936D01*
X368Y936D02*
X398Y936D01*
X415Y936D02*
X422Y936D01*
X668Y936D02*
X674Y936D01*
X695Y936D02*
X695Y936D01*
X715Y936D02*
X721Y936D01*
X986Y936D02*
X1021Y936D01*
X2006Y936D02*
X2013Y936D01*
X0Y935D02*
X7Y935D01*
X368Y935D02*
X374Y935D01*
X392Y935D02*
X398Y935D01*
X415Y935D02*
X422Y935D01*
X668Y935D02*
X674Y935D01*
X693Y935D02*
X697Y935D01*
X715Y935D02*
X721Y935D01*
X986Y935D02*
X1020Y935D01*
X2006Y935D02*
X2013Y935D01*
X0Y934D02*
X7Y934D01*
X368Y934D02*
X374Y934D01*
X392Y934D02*
X398Y934D01*
X415Y934D02*
X422Y934D01*
X668Y934D02*
X674Y934D01*
X692Y934D02*
X698Y934D01*
X715Y934D02*
X721Y934D01*
X986Y934D02*
X992Y934D01*
X2006Y934D02*
X2013Y934D01*
X0Y933D02*
X7Y933D01*
X368Y933D02*
X374Y933D01*
X392Y933D02*
X398Y933D01*
X415Y933D02*
X422Y933D01*
X668Y933D02*
X674Y933D01*
X692Y933D02*
X698Y933D01*
X715Y933D02*
X721Y933D01*
X986Y933D02*
X992Y933D01*
X2006Y933D02*
X2013Y933D01*
X0Y932D02*
X7Y932D01*
X368Y932D02*
X374Y932D01*
X392Y932D02*
X398Y932D01*
X415Y932D02*
X422Y932D01*
X668Y932D02*
X674Y932D01*
X692Y932D02*
X698Y932D01*
X715Y932D02*
X721Y932D01*
X986Y932D02*
X992Y932D01*
X2006Y932D02*
X2013Y932D01*
X0Y931D02*
X7Y931D01*
X368Y931D02*
X374Y931D01*
X392Y931D02*
X398Y931D01*
X415Y931D02*
X422Y931D01*
X668Y931D02*
X674Y931D01*
X692Y931D02*
X698Y931D01*
X715Y931D02*
X721Y931D01*
X986Y931D02*
X992Y931D01*
X2006Y931D02*
X2013Y931D01*
X0Y930D02*
X7Y930D01*
X368Y930D02*
X374Y930D01*
X392Y930D02*
X398Y930D01*
X415Y930D02*
X422Y930D01*
X668Y930D02*
X674Y930D01*
X692Y930D02*
X698Y930D01*
X715Y930D02*
X721Y930D01*
X986Y930D02*
X992Y930D01*
X2006Y930D02*
X2013Y930D01*
X0Y929D02*
X7Y929D01*
X368Y929D02*
X374Y929D01*
X392Y929D02*
X398Y929D01*
X415Y929D02*
X422Y929D01*
X668Y929D02*
X674Y929D01*
X692Y929D02*
X698Y929D01*
X715Y929D02*
X721Y929D01*
X986Y929D02*
X992Y929D01*
X2006Y929D02*
X2013Y929D01*
X0Y928D02*
X7Y928D01*
X368Y928D02*
X374Y928D01*
X392Y928D02*
X398Y928D01*
X415Y928D02*
X422Y928D01*
X668Y928D02*
X674Y928D01*
X692Y928D02*
X698Y928D01*
X715Y928D02*
X721Y928D01*
X986Y928D02*
X992Y928D01*
X2006Y928D02*
X2013Y928D01*
X0Y927D02*
X7Y927D01*
X368Y927D02*
X374Y927D01*
X392Y927D02*
X398Y927D01*
X415Y927D02*
X422Y927D01*
X668Y927D02*
X674Y927D01*
X692Y927D02*
X698Y927D01*
X715Y927D02*
X721Y927D01*
X986Y927D02*
X992Y927D01*
X2006Y927D02*
X2013Y927D01*
X0Y926D02*
X7Y926D01*
X368Y926D02*
X374Y926D01*
X392Y926D02*
X398Y926D01*
X415Y926D02*
X422Y926D01*
X668Y926D02*
X674Y926D01*
X692Y926D02*
X698Y926D01*
X715Y926D02*
X721Y926D01*
X986Y926D02*
X992Y926D01*
X2006Y926D02*
X2013Y926D01*
X0Y925D02*
X7Y925D01*
X368Y925D02*
X374Y925D01*
X392Y925D02*
X398Y925D01*
X415Y925D02*
X422Y925D01*
X668Y925D02*
X674Y925D01*
X692Y925D02*
X698Y925D01*
X715Y925D02*
X721Y925D01*
X986Y925D02*
X992Y925D01*
X2006Y925D02*
X2013Y925D01*
X0Y924D02*
X7Y924D01*
X368Y924D02*
X374Y924D01*
X392Y924D02*
X398Y924D01*
X415Y924D02*
X422Y924D01*
X668Y924D02*
X674Y924D01*
X692Y924D02*
X698Y924D01*
X715Y924D02*
X721Y924D01*
X986Y924D02*
X992Y924D01*
X2006Y924D02*
X2013Y924D01*
X0Y923D02*
X7Y923D01*
X368Y923D02*
X374Y923D01*
X392Y923D02*
X398Y923D01*
X415Y923D02*
X422Y923D01*
X668Y923D02*
X674Y923D01*
X692Y923D02*
X698Y923D01*
X715Y923D02*
X721Y923D01*
X986Y923D02*
X992Y923D01*
X2006Y923D02*
X2013Y923D01*
X0Y922D02*
X7Y922D01*
X368Y922D02*
X374Y922D01*
X392Y922D02*
X398Y922D01*
X415Y922D02*
X422Y922D01*
X668Y922D02*
X674Y922D01*
X692Y922D02*
X698Y922D01*
X715Y922D02*
X721Y922D01*
X986Y922D02*
X992Y922D01*
X1855Y922D02*
X1855Y922D01*
X2006Y922D02*
X2013Y922D01*
X0Y921D02*
X7Y921D01*
X368Y921D02*
X374Y921D01*
X392Y921D02*
X398Y921D01*
X415Y921D02*
X422Y921D01*
X668Y921D02*
X674Y921D01*
X692Y921D02*
X698Y921D01*
X715Y921D02*
X721Y921D01*
X986Y921D02*
X992Y921D01*
X1854Y921D02*
X1856Y921D01*
X2006Y921D02*
X2013Y921D01*
X0Y920D02*
X7Y920D01*
X368Y920D02*
X374Y920D01*
X392Y920D02*
X398Y920D01*
X415Y920D02*
X422Y920D01*
X668Y920D02*
X674Y920D01*
X692Y920D02*
X698Y920D01*
X715Y920D02*
X721Y920D01*
X970Y920D02*
X1014Y920D01*
X1853Y920D02*
X1857Y920D01*
X2006Y920D02*
X2013Y920D01*
X0Y919D02*
X7Y919D01*
X368Y919D02*
X374Y919D01*
X392Y919D02*
X398Y919D01*
X415Y919D02*
X422Y919D01*
X668Y919D02*
X674Y919D01*
X692Y919D02*
X698Y919D01*
X715Y919D02*
X721Y919D01*
X969Y919D02*
X1015Y919D01*
X1852Y919D02*
X1857Y919D01*
X2006Y919D02*
X2013Y919D01*
X0Y918D02*
X7Y918D01*
X368Y918D02*
X374Y918D01*
X392Y918D02*
X398Y918D01*
X415Y918D02*
X422Y918D01*
X668Y918D02*
X674Y918D01*
X692Y918D02*
X698Y918D01*
X715Y918D02*
X721Y918D01*
X968Y918D02*
X1015Y918D01*
X1851Y918D02*
X1857Y918D01*
X2006Y918D02*
X2013Y918D01*
X0Y917D02*
X7Y917D01*
X368Y917D02*
X374Y917D01*
X392Y917D02*
X398Y917D01*
X415Y917D02*
X422Y917D01*
X668Y917D02*
X674Y917D01*
X691Y917D02*
X699Y917D01*
X715Y917D02*
X721Y917D01*
X968Y917D02*
X1015Y917D01*
X1850Y917D02*
X1856Y917D01*
X2006Y917D02*
X2013Y917D01*
X0Y916D02*
X7Y916D01*
X368Y916D02*
X374Y916D01*
X392Y916D02*
X398Y916D01*
X415Y916D02*
X422Y916D01*
X668Y916D02*
X674Y916D01*
X690Y916D02*
X700Y916D01*
X715Y916D02*
X721Y916D01*
X968Y916D02*
X1015Y916D01*
X1849Y916D02*
X1855Y916D01*
X2006Y916D02*
X2013Y916D01*
X0Y915D02*
X7Y915D01*
X368Y915D02*
X374Y915D01*
X392Y915D02*
X421Y915D01*
X668Y915D02*
X721Y915D01*
X969Y915D02*
X1015Y915D01*
X1848Y915D02*
X1854Y915D01*
X2006Y915D02*
X2013Y915D01*
X0Y914D02*
X7Y914D01*
X368Y914D02*
X374Y914D01*
X392Y914D02*
X421Y914D01*
X668Y914D02*
X721Y914D01*
X970Y914D02*
X1013Y914D01*
X1847Y914D02*
X1853Y914D01*
X2006Y914D02*
X2013Y914D01*
X0Y913D02*
X7Y913D01*
X368Y913D02*
X374Y913D01*
X392Y913D02*
X421Y913D01*
X669Y913D02*
X721Y913D01*
X986Y913D02*
X992Y913D01*
X1846Y913D02*
X1852Y913D01*
X2006Y913D02*
X2013Y913D01*
X0Y912D02*
X7Y912D01*
X368Y912D02*
X374Y912D01*
X393Y912D02*
X421Y912D01*
X669Y912D02*
X720Y912D01*
X986Y912D02*
X991Y912D01*
X1845Y912D02*
X1851Y912D01*
X2006Y912D02*
X2013Y912D01*
X0Y911D02*
X7Y911D01*
X369Y911D02*
X374Y911D01*
X394Y911D02*
X420Y911D01*
X670Y911D02*
X720Y911D01*
X987Y911D02*
X990Y911D01*
X1844Y911D02*
X1850Y911D01*
X2006Y911D02*
X2013Y911D01*
X0Y910D02*
X7Y910D01*
X369Y910D02*
X374Y910D01*
X395Y910D02*
X419Y910D01*
X671Y910D02*
X693Y910D01*
X697Y910D02*
X719Y910D01*
X1843Y910D02*
X1849Y910D01*
X2006Y910D02*
X2013Y910D01*
X0Y909D02*
X7Y909D01*
X370Y909D02*
X373Y909D01*
X396Y909D02*
X417Y909D01*
X673Y909D02*
X691Y909D01*
X699Y909D02*
X717Y909D01*
X1842Y909D02*
X1848Y909D01*
X2006Y909D02*
X2013Y909D01*
X0Y908D02*
X7Y908D01*
X1841Y908D02*
X1847Y908D01*
X2006Y908D02*
X2013Y908D01*
X0Y907D02*
X7Y907D01*
X1840Y907D02*
X1846Y907D01*
X2006Y907D02*
X2013Y907D01*
X0Y906D02*
X7Y906D01*
X1839Y906D02*
X1845Y906D01*
X2006Y906D02*
X2013Y906D01*
X0Y905D02*
X7Y905D01*
X1838Y905D02*
X1843Y905D01*
X2006Y905D02*
X2013Y905D01*
X0Y904D02*
X7Y904D01*
X1837Y904D02*
X1842Y904D01*
X2006Y904D02*
X2013Y904D01*
X0Y903D02*
X7Y903D01*
X1836Y903D02*
X1841Y903D01*
X2006Y903D02*
X2013Y903D01*
X0Y902D02*
X7Y902D01*
X1835Y902D02*
X1840Y902D01*
X2006Y902D02*
X2013Y902D01*
X0Y901D02*
X7Y901D01*
X1834Y901D02*
X1839Y901D01*
X2006Y901D02*
X2013Y901D01*
X0Y900D02*
X7Y900D01*
X1833Y900D02*
X1838Y900D01*
X2006Y900D02*
X2013Y900D01*
X0Y899D02*
X7Y899D01*
X1832Y899D02*
X1837Y899D01*
X2006Y899D02*
X2013Y899D01*
X0Y898D02*
X7Y898D01*
X1831Y898D02*
X1836Y898D01*
X2006Y898D02*
X2013Y898D01*
X0Y897D02*
X7Y897D01*
X1830Y897D02*
X1836Y897D01*
X2006Y897D02*
X2013Y897D01*
X0Y896D02*
X7Y896D01*
X1829Y896D02*
X1835Y896D01*
X2006Y896D02*
X2013Y896D01*
X0Y895D02*
X7Y895D01*
X1828Y895D02*
X1834Y895D01*
X2006Y895D02*
X2013Y895D01*
X0Y894D02*
X7Y894D01*
X1827Y894D02*
X1833Y894D01*
X2006Y894D02*
X2013Y894D01*
X0Y893D02*
X7Y893D01*
X1826Y893D02*
X1832Y893D01*
X2006Y893D02*
X2013Y893D01*
X0Y892D02*
X7Y892D01*
X1825Y892D02*
X1831Y892D01*
X2006Y892D02*
X2013Y892D01*
X0Y891D02*
X7Y891D01*
X1824Y891D02*
X1830Y891D01*
X2006Y891D02*
X2013Y891D01*
X0Y890D02*
X7Y890D01*
X1823Y890D02*
X1829Y890D01*
X2006Y890D02*
X2013Y890D01*
X0Y889D02*
X7Y889D01*
X1822Y889D02*
X1828Y889D01*
X2006Y889D02*
X2013Y889D01*
X0Y888D02*
X7Y888D01*
X1821Y888D02*
X1827Y888D01*
X2006Y888D02*
X2013Y888D01*
X0Y887D02*
X7Y887D01*
X1821Y887D02*
X1826Y887D01*
X2006Y887D02*
X2013Y887D01*
X0Y886D02*
X7Y886D01*
X1822Y886D02*
X1825Y886D01*
X2006Y886D02*
X2013Y886D01*
X0Y885D02*
X7Y885D01*
X1823Y885D02*
X1824Y885D01*
X2006Y885D02*
X2013Y885D01*
X0Y884D02*
X7Y884D01*
X2006Y884D02*
X2013Y884D01*
X0Y883D02*
X7Y883D01*
X2006Y883D02*
X2013Y883D01*
X0Y882D02*
X7Y882D01*
X2006Y882D02*
X2013Y882D01*
X0Y881D02*
X7Y881D01*
X2006Y881D02*
X2013Y881D01*
X0Y880D02*
X7Y880D01*
X2006Y880D02*
X2013Y880D01*
X0Y879D02*
X7Y879D01*
X2006Y879D02*
X2013Y879D01*
X0Y878D02*
X7Y878D01*
X2006Y878D02*
X2013Y878D01*
X0Y877D02*
X7Y877D01*
X2006Y877D02*
X2013Y877D01*
X0Y876D02*
X7Y876D01*
X2006Y876D02*
X2013Y876D01*
X0Y875D02*
X7Y875D01*
X2006Y875D02*
X2013Y875D01*
X0Y874D02*
X7Y874D01*
X2006Y874D02*
X2013Y874D01*
X0Y873D02*
X7Y873D01*
X2006Y873D02*
X2013Y873D01*
X0Y872D02*
X7Y872D01*
X2006Y872D02*
X2013Y872D01*
X0Y871D02*
X7Y871D01*
X2006Y871D02*
X2013Y871D01*
X0Y870D02*
X7Y870D01*
X2006Y870D02*
X2013Y870D01*
X0Y869D02*
X7Y869D01*
X2006Y869D02*
X2013Y869D01*
X0Y868D02*
X7Y868D01*
X2006Y868D02*
X2013Y868D01*
X0Y867D02*
X7Y867D01*
X2006Y867D02*
X2013Y867D01*
X0Y866D02*
X7Y866D01*
X2006Y866D02*
X2013Y866D01*
X0Y865D02*
X7Y865D01*
X2006Y865D02*
X2013Y865D01*
X0Y864D02*
X7Y864D01*
X2006Y864D02*
X2013Y864D01*
X0Y863D02*
X7Y863D01*
X2006Y863D02*
X2013Y863D01*
X0Y862D02*
X7Y862D01*
X2006Y862D02*
X2013Y862D01*
X0Y861D02*
X7Y861D01*
X2006Y861D02*
X2013Y861D01*
X0Y860D02*
X7Y860D01*
X2006Y860D02*
X2013Y860D01*
X0Y859D02*
X7Y859D01*
X2006Y859D02*
X2013Y859D01*
X0Y858D02*
X7Y858D01*
X2006Y858D02*
X2013Y858D01*
X0Y857D02*
X7Y857D01*
X2006Y857D02*
X2013Y857D01*
X0Y856D02*
X7Y856D01*
X2006Y856D02*
X2013Y856D01*
X0Y855D02*
X7Y855D01*
X2006Y855D02*
X2013Y855D01*
X0Y854D02*
X7Y854D01*
X2006Y854D02*
X2013Y854D01*
X0Y853D02*
X7Y853D01*
X2006Y853D02*
X2013Y853D01*
X0Y852D02*
X7Y852D01*
X2006Y852D02*
X2013Y852D01*
X0Y851D02*
X7Y851D01*
X2006Y851D02*
X2013Y851D01*
X0Y850D02*
X7Y850D01*
X2006Y850D02*
X2013Y850D01*
X0Y849D02*
X7Y849D01*
X2006Y849D02*
X2013Y849D01*
X0Y848D02*
X7Y848D01*
X2006Y848D02*
X2013Y848D01*
X0Y847D02*
X7Y847D01*
X2006Y847D02*
X2013Y847D01*
X0Y846D02*
X7Y846D01*
X2006Y846D02*
X2013Y846D01*
X0Y845D02*
X7Y845D01*
X2006Y845D02*
X2013Y845D01*
X0Y844D02*
X7Y844D01*
X2006Y844D02*
X2013Y844D01*
X0Y843D02*
X7Y843D01*
X2006Y843D02*
X2013Y843D01*
X0Y842D02*
X7Y842D01*
X2006Y842D02*
X2013Y842D01*
X0Y841D02*
X7Y841D01*
X2006Y841D02*
X2013Y841D01*
X0Y840D02*
X7Y840D01*
X2006Y840D02*
X2013Y840D01*
X0Y839D02*
X7Y839D01*
X2006Y839D02*
X2013Y839D01*
X0Y838D02*
X7Y838D01*
X2006Y838D02*
X2013Y838D01*
X0Y837D02*
X7Y837D01*
X2006Y837D02*
X2013Y837D01*
X0Y836D02*
X7Y836D01*
X2006Y836D02*
X2013Y836D01*
X0Y835D02*
X7Y835D01*
X2006Y835D02*
X2013Y835D01*
X0Y834D02*
X7Y834D01*
X2006Y834D02*
X2013Y834D01*
X0Y833D02*
X7Y833D01*
X2006Y833D02*
X2013Y833D01*
X0Y832D02*
X7Y832D01*
X2006Y832D02*
X2013Y832D01*
X0Y831D02*
X7Y831D01*
X2006Y831D02*
X2013Y831D01*
X0Y830D02*
X7Y830D01*
X2006Y830D02*
X2013Y830D01*
X0Y829D02*
X7Y829D01*
X2006Y829D02*
X2013Y829D01*
X0Y828D02*
X7Y828D01*
X2006Y828D02*
X2013Y828D01*
X0Y827D02*
X7Y827D01*
X2006Y827D02*
X2013Y827D01*
X0Y826D02*
X7Y826D01*
X2006Y826D02*
X2013Y826D01*
X0Y825D02*
X7Y825D01*
X2006Y825D02*
X2013Y825D01*
X0Y824D02*
X7Y824D01*
X2006Y824D02*
X2013Y824D01*
X0Y823D02*
X7Y823D01*
X2006Y823D02*
X2013Y823D01*
X0Y822D02*
X7Y822D01*
X2006Y822D02*
X2013Y822D01*
X0Y821D02*
X7Y821D01*
X2006Y821D02*
X2013Y821D01*
X0Y820D02*
X7Y820D01*
X2006Y820D02*
X2013Y820D01*
X0Y819D02*
X7Y819D01*
X2006Y819D02*
X2013Y819D01*
X0Y818D02*
X7Y818D01*
X2006Y818D02*
X2013Y818D01*
X0Y817D02*
X7Y817D01*
X2006Y817D02*
X2013Y817D01*
X0Y816D02*
X7Y816D01*
X2006Y816D02*
X2013Y816D01*
X0Y815D02*
X7Y815D01*
X2006Y815D02*
X2013Y815D01*
X0Y814D02*
X7Y814D01*
X2006Y814D02*
X2013Y814D01*
X0Y813D02*
X7Y813D01*
X2006Y813D02*
X2013Y813D01*
X0Y812D02*
X7Y812D01*
X2006Y812D02*
X2013Y812D01*
X0Y811D02*
X7Y811D01*
X2006Y811D02*
X2013Y811D01*
X0Y810D02*
X7Y810D01*
X2006Y810D02*
X2013Y810D01*
X0Y809D02*
X7Y809D01*
X2006Y809D02*
X2013Y809D01*
X0Y808D02*
X7Y808D01*
X2006Y808D02*
X2013Y808D01*
X0Y807D02*
X7Y807D01*
X2006Y807D02*
X2013Y807D01*
X0Y806D02*
X7Y806D01*
X2006Y806D02*
X2013Y806D01*
X0Y805D02*
X7Y805D01*
X2006Y805D02*
X2013Y805D01*
X0Y804D02*
X7Y804D01*
X2006Y804D02*
X2013Y804D01*
X0Y803D02*
X7Y803D01*
X2006Y803D02*
X2013Y803D01*
X0Y802D02*
X7Y802D01*
X2006Y802D02*
X2013Y802D01*
X0Y801D02*
X7Y801D01*
X2006Y801D02*
X2013Y801D01*
X0Y800D02*
X7Y800D01*
X2006Y800D02*
X2013Y800D01*
X0Y799D02*
X7Y799D01*
X2006Y799D02*
X2013Y799D01*
X0Y798D02*
X7Y798D01*
X2006Y798D02*
X2013Y798D01*
X0Y797D02*
X7Y797D01*
X2006Y797D02*
X2013Y797D01*
X0Y796D02*
X7Y796D01*
X2006Y796D02*
X2013Y796D01*
X0Y795D02*
X7Y795D01*
X2006Y795D02*
X2013Y795D01*
X0Y794D02*
X7Y794D01*
X2006Y794D02*
X2013Y794D01*
X0Y793D02*
X7Y793D01*
X2006Y793D02*
X2013Y793D01*
X0Y792D02*
X7Y792D01*
X2006Y792D02*
X2013Y792D01*
X0Y791D02*
X7Y791D01*
X2006Y791D02*
X2013Y791D01*
X0Y790D02*
X7Y790D01*
X2006Y790D02*
X2013Y790D01*
X0Y789D02*
X7Y789D01*
X2006Y789D02*
X2013Y789D01*
X0Y788D02*
X7Y788D01*
X2006Y788D02*
X2013Y788D01*
X0Y787D02*
X7Y787D01*
X2006Y787D02*
X2013Y787D01*
X0Y786D02*
X7Y786D01*
X2006Y786D02*
X2013Y786D01*
X0Y785D02*
X7Y785D01*
X2006Y785D02*
X2013Y785D01*
X0Y784D02*
X7Y784D01*
X2006Y784D02*
X2013Y784D01*
X0Y783D02*
X7Y783D01*
X2006Y783D02*
X2013Y783D01*
X0Y782D02*
X7Y782D01*
X2006Y782D02*
X2013Y782D01*
X0Y781D02*
X7Y781D01*
X2006Y781D02*
X2013Y781D01*
X0Y780D02*
X7Y780D01*
X2006Y780D02*
X2013Y780D01*
X0Y779D02*
X7Y779D01*
X2006Y779D02*
X2013Y779D01*
X0Y778D02*
X7Y778D01*
X2006Y778D02*
X2013Y778D01*
X0Y777D02*
X7Y777D01*
X2006Y777D02*
X2013Y777D01*
X0Y776D02*
X7Y776D01*
X2006Y776D02*
X2013Y776D01*
X0Y775D02*
X7Y775D01*
X2006Y775D02*
X2013Y775D01*
X0Y774D02*
X7Y774D01*
X2006Y774D02*
X2013Y774D01*
X0Y773D02*
X7Y773D01*
X2006Y773D02*
X2013Y773D01*
X0Y772D02*
X7Y772D01*
X2006Y772D02*
X2013Y772D01*
X0Y771D02*
X7Y771D01*
X2006Y771D02*
X2013Y771D01*
X0Y770D02*
X7Y770D01*
X2006Y770D02*
X2013Y770D01*
X0Y769D02*
X7Y769D01*
X2006Y769D02*
X2013Y769D01*
X0Y768D02*
X7Y768D01*
X2006Y768D02*
X2013Y768D01*
X0Y767D02*
X7Y767D01*
X2006Y767D02*
X2013Y767D01*
X0Y766D02*
X7Y766D01*
X2006Y766D02*
X2013Y766D01*
X0Y765D02*
X7Y765D01*
X2006Y765D02*
X2013Y765D01*
X0Y764D02*
X7Y764D01*
X2006Y764D02*
X2013Y764D01*
X0Y763D02*
X7Y763D01*
X2006Y763D02*
X2013Y763D01*
X0Y762D02*
X7Y762D01*
X2006Y762D02*
X2013Y762D01*
X0Y761D02*
X7Y761D01*
X2006Y761D02*
X2013Y761D01*
X0Y760D02*
X7Y760D01*
X2006Y760D02*
X2013Y760D01*
X0Y759D02*
X7Y759D01*
X2006Y759D02*
X2013Y759D01*
X0Y758D02*
X7Y758D01*
X2006Y758D02*
X2013Y758D01*
X0Y757D02*
X7Y757D01*
X2006Y757D02*
X2013Y757D01*
X0Y756D02*
X7Y756D01*
X2006Y756D02*
X2013Y756D01*
X0Y755D02*
X7Y755D01*
X2006Y755D02*
X2013Y755D01*
X0Y754D02*
X7Y754D01*
X2006Y754D02*
X2013Y754D01*
X0Y753D02*
X7Y753D01*
X2006Y753D02*
X2013Y753D01*
X0Y752D02*
X7Y752D01*
X2006Y752D02*
X2013Y752D01*
X0Y751D02*
X7Y751D01*
X2006Y751D02*
X2013Y751D01*
X0Y750D02*
X7Y750D01*
X2006Y750D02*
X2013Y750D01*
X0Y749D02*
X7Y749D01*
X2006Y749D02*
X2013Y749D01*
X0Y748D02*
X7Y748D01*
X2006Y748D02*
X2013Y748D01*
X0Y747D02*
X7Y747D01*
X2006Y747D02*
X2013Y747D01*
X0Y746D02*
X7Y746D01*
X2006Y746D02*
X2013Y746D01*
X0Y745D02*
X7Y745D01*
X2006Y745D02*
X2013Y745D01*
X0Y744D02*
X7Y744D01*
X2006Y744D02*
X2013Y744D01*
X0Y743D02*
X7Y743D01*
X2006Y743D02*
X2013Y743D01*
X0Y742D02*
X7Y742D01*
X2006Y742D02*
X2013Y742D01*
X0Y741D02*
X7Y741D01*
X2006Y741D02*
X2013Y741D01*
X0Y740D02*
X7Y740D01*
X2006Y740D02*
X2013Y740D01*
X0Y739D02*
X7Y739D01*
X2006Y739D02*
X2013Y739D01*
X0Y738D02*
X7Y738D01*
X2006Y738D02*
X2013Y738D01*
X0Y737D02*
X7Y737D01*
X2006Y737D02*
X2013Y737D01*
X0Y736D02*
X7Y736D01*
X2006Y736D02*
X2013Y736D01*
X0Y735D02*
X7Y735D01*
X2006Y735D02*
X2013Y735D01*
X0Y734D02*
X7Y734D01*
X2006Y734D02*
X2013Y734D01*
X0Y733D02*
X7Y733D01*
X2006Y733D02*
X2013Y733D01*
X0Y732D02*
X7Y732D01*
X2006Y732D02*
X2013Y732D01*
X0Y731D02*
X7Y731D01*
X2006Y731D02*
X2013Y731D01*
X0Y730D02*
X7Y730D01*
X2006Y730D02*
X2013Y730D01*
X0Y729D02*
X7Y729D01*
X2006Y729D02*
X2013Y729D01*
X0Y728D02*
X7Y728D01*
X2006Y728D02*
X2013Y728D01*
X0Y727D02*
X7Y727D01*
X2006Y727D02*
X2013Y727D01*
X0Y726D02*
X7Y726D01*
X2006Y726D02*
X2013Y726D01*
X0Y725D02*
X7Y725D01*
X2006Y725D02*
X2013Y725D01*
X0Y724D02*
X7Y724D01*
X2006Y724D02*
X2013Y724D01*
X0Y723D02*
X7Y723D01*
X2006Y723D02*
X2013Y723D01*
X0Y722D02*
X7Y722D01*
X2006Y722D02*
X2013Y722D01*
X0Y721D02*
X7Y721D01*
X2006Y721D02*
X2013Y721D01*
X0Y720D02*
X7Y720D01*
X2006Y720D02*
X2013Y720D01*
X0Y719D02*
X7Y719D01*
X2006Y719D02*
X2013Y719D01*
X0Y718D02*
X7Y718D01*
X2006Y718D02*
X2013Y718D01*
X0Y717D02*
X7Y717D01*
X2006Y717D02*
X2013Y717D01*
X0Y716D02*
X7Y716D01*
X2006Y716D02*
X2013Y716D01*
X0Y715D02*
X7Y715D01*
X2006Y715D02*
X2013Y715D01*
X0Y714D02*
X7Y714D01*
X2006Y714D02*
X2013Y714D01*
X0Y713D02*
X7Y713D01*
X2006Y713D02*
X2013Y713D01*
X0Y712D02*
X7Y712D01*
X2006Y712D02*
X2013Y712D01*
X0Y711D02*
X7Y711D01*
X2006Y711D02*
X2013Y711D01*
X0Y710D02*
X7Y710D01*
X2006Y710D02*
X2013Y710D01*
X0Y709D02*
X7Y709D01*
X2006Y709D02*
X2013Y709D01*
X0Y708D02*
X7Y708D01*
X2006Y708D02*
X2013Y708D01*
X0Y707D02*
X7Y707D01*
X2006Y707D02*
X2013Y707D01*
X0Y706D02*
X7Y706D01*
X2006Y706D02*
X2013Y706D01*
X0Y705D02*
X7Y705D01*
X2006Y705D02*
X2013Y705D01*
X0Y704D02*
X7Y704D01*
X2006Y704D02*
X2013Y704D01*
X0Y703D02*
X7Y703D01*
X2006Y703D02*
X2013Y703D01*
X0Y702D02*
X7Y702D01*
X2006Y702D02*
X2013Y702D01*
X0Y701D02*
X7Y701D01*
X2006Y701D02*
X2013Y701D01*
X0Y700D02*
X7Y700D01*
X2006Y700D02*
X2013Y700D01*
X0Y699D02*
X7Y699D01*
X2006Y699D02*
X2013Y699D01*
X0Y698D02*
X7Y698D01*
X2006Y698D02*
X2013Y698D01*
X0Y697D02*
X7Y697D01*
X2006Y697D02*
X2013Y697D01*
X0Y696D02*
X7Y696D01*
X2006Y696D02*
X2013Y696D01*
X0Y695D02*
X7Y695D01*
X2006Y695D02*
X2013Y695D01*
X0Y694D02*
X7Y694D01*
X2006Y694D02*
X2013Y694D01*
X0Y693D02*
X7Y693D01*
X2006Y693D02*
X2013Y693D01*
X0Y692D02*
X7Y692D01*
X2006Y692D02*
X2013Y692D01*
X0Y691D02*
X7Y691D01*
X2006Y691D02*
X2013Y691D01*
X0Y690D02*
X7Y690D01*
X2006Y690D02*
X2013Y690D01*
X0Y689D02*
X7Y689D01*
X2006Y689D02*
X2013Y689D01*
X0Y688D02*
X7Y688D01*
X2006Y688D02*
X2013Y688D01*
X0Y687D02*
X7Y687D01*
X2006Y687D02*
X2013Y687D01*
X0Y686D02*
X7Y686D01*
X2006Y686D02*
X2013Y686D01*
X0Y685D02*
X7Y685D01*
X2006Y685D02*
X2013Y685D01*
X0Y684D02*
X7Y684D01*
X2006Y684D02*
X2013Y684D01*
X0Y683D02*
X7Y683D01*
X2006Y683D02*
X2013Y683D01*
X0Y682D02*
X7Y682D01*
X2006Y682D02*
X2013Y682D01*
X0Y681D02*
X7Y681D01*
X2006Y681D02*
X2013Y681D01*
X0Y680D02*
X7Y680D01*
X2006Y680D02*
X2013Y680D01*
X0Y679D02*
X7Y679D01*
X2006Y679D02*
X2013Y679D01*
X0Y678D02*
X7Y678D01*
X2006Y678D02*
X2013Y678D01*
X0Y677D02*
X7Y677D01*
X2006Y677D02*
X2013Y677D01*
X0Y676D02*
X7Y676D01*
X2006Y676D02*
X2013Y676D01*
X0Y675D02*
X7Y675D01*
X2006Y675D02*
X2013Y675D01*
X0Y674D02*
X7Y674D01*
X2006Y674D02*
X2013Y674D01*
X0Y673D02*
X7Y673D01*
X2006Y673D02*
X2013Y673D01*
X0Y672D02*
X7Y672D01*
X2006Y672D02*
X2013Y672D01*
X0Y671D02*
X7Y671D01*
X2006Y671D02*
X2013Y671D01*
X0Y670D02*
X7Y670D01*
X2006Y670D02*
X2013Y670D01*
X0Y669D02*
X7Y669D01*
X2006Y669D02*
X2013Y669D01*
X0Y668D02*
X7Y668D01*
X2006Y668D02*
X2013Y668D01*
X0Y667D02*
X7Y667D01*
X2006Y667D02*
X2013Y667D01*
X0Y666D02*
X7Y666D01*
X2006Y666D02*
X2013Y666D01*
X0Y665D02*
X7Y665D01*
X2006Y665D02*
X2013Y665D01*
X0Y664D02*
X7Y664D01*
X2006Y664D02*
X2013Y664D01*
X0Y663D02*
X7Y663D01*
X2006Y663D02*
X2013Y663D01*
X0Y662D02*
X7Y662D01*
X2006Y662D02*
X2013Y662D01*
X0Y661D02*
X7Y661D01*
X2006Y661D02*
X2013Y661D01*
X0Y660D02*
X7Y660D01*
X2006Y660D02*
X2013Y660D01*
X0Y659D02*
X7Y659D01*
X2006Y659D02*
X2013Y659D01*
X0Y658D02*
X7Y658D01*
X2006Y658D02*
X2013Y658D01*
X0Y657D02*
X7Y657D01*
X2006Y657D02*
X2013Y657D01*
X0Y656D02*
X7Y656D01*
X2006Y656D02*
X2013Y656D01*
X0Y655D02*
X7Y655D01*
X2006Y655D02*
X2013Y655D01*
X0Y654D02*
X7Y654D01*
X2006Y654D02*
X2013Y654D01*
X0Y653D02*
X7Y653D01*
X2006Y653D02*
X2013Y653D01*
X0Y652D02*
X7Y652D01*
X2006Y652D02*
X2013Y652D01*
X0Y651D02*
X7Y651D01*
X2006Y651D02*
X2013Y651D01*
X0Y650D02*
X7Y650D01*
X2006Y650D02*
X2013Y650D01*
X0Y649D02*
X7Y649D01*
X2006Y649D02*
X2013Y649D01*
X0Y648D02*
X7Y648D01*
X2006Y648D02*
X2013Y648D01*
X0Y647D02*
X7Y647D01*
X2006Y647D02*
X2013Y647D01*
X0Y646D02*
X7Y646D01*
X2006Y646D02*
X2013Y646D01*
X0Y645D02*
X7Y645D01*
X2006Y645D02*
X2013Y645D01*
X0Y644D02*
X7Y644D01*
X2006Y644D02*
X2013Y644D01*
X0Y643D02*
X7Y643D01*
X2006Y643D02*
X2013Y643D01*
X0Y642D02*
X7Y642D01*
X2006Y642D02*
X2013Y642D01*
X0Y641D02*
X7Y641D01*
X2006Y641D02*
X2013Y641D01*
X0Y640D02*
X7Y640D01*
X2006Y640D02*
X2013Y640D01*
X0Y639D02*
X7Y639D01*
X2006Y639D02*
X2013Y639D01*
X0Y638D02*
X7Y638D01*
X2006Y638D02*
X2013Y638D01*
X0Y637D02*
X7Y637D01*
X2006Y637D02*
X2013Y637D01*
X0Y636D02*
X7Y636D01*
X2006Y636D02*
X2013Y636D01*
X0Y635D02*
X7Y635D01*
X2006Y635D02*
X2013Y635D01*
X0Y634D02*
X7Y634D01*
X2006Y634D02*
X2013Y634D01*
X0Y633D02*
X7Y633D01*
X2006Y633D02*
X2013Y633D01*
X0Y632D02*
X7Y632D01*
X2006Y632D02*
X2013Y632D01*
X0Y631D02*
X7Y631D01*
X2006Y631D02*
X2013Y631D01*
X0Y630D02*
X7Y630D01*
X2006Y630D02*
X2013Y630D01*
X0Y629D02*
X7Y629D01*
X2006Y629D02*
X2013Y629D01*
X0Y628D02*
X7Y628D01*
X2006Y628D02*
X2013Y628D01*
X0Y627D02*
X7Y627D01*
X2006Y627D02*
X2013Y627D01*
X0Y626D02*
X7Y626D01*
X2006Y626D02*
X2013Y626D01*
X0Y625D02*
X7Y625D01*
X2006Y625D02*
X2013Y625D01*
X0Y624D02*
X7Y624D01*
X2006Y624D02*
X2013Y624D01*
X0Y623D02*
X7Y623D01*
X2006Y623D02*
X2013Y623D01*
X0Y622D02*
X7Y622D01*
X2006Y622D02*
X2013Y622D01*
X0Y621D02*
X7Y621D01*
X2006Y621D02*
X2013Y621D01*
X0Y620D02*
X7Y620D01*
X2006Y620D02*
X2013Y620D01*
X0Y619D02*
X7Y619D01*
X2006Y619D02*
X2013Y619D01*
X0Y618D02*
X7Y618D01*
X2006Y618D02*
X2013Y618D01*
X0Y617D02*
X7Y617D01*
X2006Y617D02*
X2013Y617D01*
X0Y616D02*
X7Y616D01*
X2006Y616D02*
X2013Y616D01*
X0Y615D02*
X7Y615D01*
X2006Y615D02*
X2013Y615D01*
X0Y614D02*
X7Y614D01*
X2006Y614D02*
X2013Y614D01*
X0Y613D02*
X7Y613D01*
X2006Y613D02*
X2013Y613D01*
X0Y612D02*
X7Y612D01*
X2006Y612D02*
X2013Y612D01*
X0Y611D02*
X7Y611D01*
X2006Y611D02*
X2013Y611D01*
X0Y610D02*
X7Y610D01*
X2006Y610D02*
X2013Y610D01*
X0Y609D02*
X7Y609D01*
X2006Y609D02*
X2013Y609D01*
X0Y608D02*
X7Y608D01*
X2006Y608D02*
X2013Y608D01*
X0Y607D02*
X7Y607D01*
X2006Y607D02*
X2013Y607D01*
X0Y606D02*
X7Y606D01*
X2006Y606D02*
X2013Y606D01*
X0Y605D02*
X7Y605D01*
X2006Y605D02*
X2013Y605D01*
X0Y604D02*
X7Y604D01*
X2006Y604D02*
X2013Y604D01*
X0Y603D02*
X7Y603D01*
X2006Y603D02*
X2013Y603D01*
X0Y602D02*
X7Y602D01*
X2006Y602D02*
X2013Y602D01*
X0Y601D02*
X7Y601D01*
X2006Y601D02*
X2013Y601D01*
X0Y600D02*
X7Y600D01*
X2006Y600D02*
X2013Y600D01*
X0Y599D02*
X7Y599D01*
X2006Y599D02*
X2013Y599D01*
X0Y598D02*
X7Y598D01*
X2006Y598D02*
X2013Y598D01*
X0Y597D02*
X7Y597D01*
X2006Y597D02*
X2013Y597D01*
X0Y596D02*
X7Y596D01*
X2006Y596D02*
X2013Y596D01*
X0Y595D02*
X7Y595D01*
X2006Y595D02*
X2013Y595D01*
X0Y594D02*
X7Y594D01*
X2006Y594D02*
X2013Y594D01*
X0Y593D02*
X7Y593D01*
X718Y593D02*
X745Y593D01*
X769Y593D02*
X797Y593D01*
X2006Y593D02*
X2013Y593D01*
X0Y592D02*
X7Y592D01*
X718Y592D02*
X747Y592D01*
X768Y592D02*
X799Y592D01*
X2006Y592D02*
X2013Y592D01*
X0Y591D02*
X7Y591D01*
X718Y591D02*
X748Y591D01*
X768Y591D02*
X800Y591D01*
X2006Y591D02*
X2013Y591D01*
X0Y590D02*
X7Y590D01*
X718Y590D02*
X749Y590D01*
X768Y590D02*
X801Y590D01*
X2006Y590D02*
X2013Y590D01*
X0Y589D02*
X7Y589D01*
X718Y589D02*
X750Y589D01*
X768Y589D02*
X801Y589D01*
X2006Y589D02*
X2013Y589D01*
X0Y588D02*
X7Y588D01*
X718Y588D02*
X750Y588D01*
X769Y588D02*
X801Y588D01*
X2006Y588D02*
X2013Y588D01*
X0Y587D02*
X7Y587D01*
X718Y587D02*
X751Y587D01*
X770Y587D02*
X801Y587D01*
X2006Y587D02*
X2013Y587D01*
X0Y586D02*
X7Y586D01*
X718Y586D02*
X724Y586D01*
X744Y586D02*
X751Y586D01*
X795Y586D02*
X801Y586D01*
X2006Y586D02*
X2013Y586D01*
X0Y585D02*
X7Y585D01*
X718Y585D02*
X724Y585D01*
X745Y585D02*
X751Y585D01*
X795Y585D02*
X801Y585D01*
X2006Y585D02*
X2013Y585D01*
X0Y584D02*
X7Y584D01*
X718Y584D02*
X724Y584D01*
X745Y584D02*
X751Y584D01*
X795Y584D02*
X801Y584D01*
X2006Y584D02*
X2013Y584D01*
X0Y583D02*
X7Y583D01*
X718Y583D02*
X724Y583D01*
X745Y583D02*
X751Y583D01*
X795Y583D02*
X801Y583D01*
X2006Y583D02*
X2013Y583D01*
X0Y582D02*
X7Y582D01*
X718Y582D02*
X724Y582D01*
X745Y582D02*
X751Y582D01*
X795Y582D02*
X801Y582D01*
X2006Y582D02*
X2013Y582D01*
X0Y581D02*
X7Y581D01*
X718Y581D02*
X724Y581D01*
X745Y581D02*
X751Y581D01*
X795Y581D02*
X801Y581D01*
X2006Y581D02*
X2013Y581D01*
X0Y580D02*
X7Y580D01*
X718Y580D02*
X724Y580D01*
X745Y580D02*
X751Y580D01*
X795Y580D02*
X801Y580D01*
X2006Y580D02*
X2013Y580D01*
X0Y579D02*
X7Y579D01*
X718Y579D02*
X724Y579D01*
X745Y579D02*
X751Y579D01*
X795Y579D02*
X801Y579D01*
X2006Y579D02*
X2013Y579D01*
X0Y578D02*
X7Y578D01*
X718Y578D02*
X724Y578D01*
X745Y578D02*
X751Y578D01*
X795Y578D02*
X801Y578D01*
X2006Y578D02*
X2013Y578D01*
X0Y577D02*
X7Y577D01*
X718Y577D02*
X724Y577D01*
X744Y577D02*
X751Y577D01*
X795Y577D02*
X801Y577D01*
X2006Y577D02*
X2013Y577D01*
X0Y576D02*
X7Y576D01*
X718Y576D02*
X751Y576D01*
X795Y576D02*
X801Y576D01*
X2006Y576D02*
X2013Y576D01*
X0Y575D02*
X7Y575D01*
X718Y575D02*
X750Y575D01*
X795Y575D02*
X801Y575D01*
X2006Y575D02*
X2013Y575D01*
X0Y574D02*
X7Y574D01*
X718Y574D02*
X750Y574D01*
X795Y574D02*
X801Y574D01*
X2006Y574D02*
X2013Y574D01*
X0Y573D02*
X7Y573D01*
X718Y573D02*
X749Y573D01*
X795Y573D02*
X801Y573D01*
X2006Y573D02*
X2013Y573D01*
X0Y572D02*
X7Y572D01*
X718Y572D02*
X748Y572D01*
X795Y572D02*
X801Y572D01*
X2006Y572D02*
X2013Y572D01*
X0Y571D02*
X7Y571D01*
X718Y571D02*
X747Y571D01*
X794Y571D02*
X801Y571D01*
X2006Y571D02*
X2013Y571D01*
X0Y570D02*
X7Y570D01*
X718Y570D02*
X745Y570D01*
X777Y570D02*
X801Y570D01*
X2006Y570D02*
X2013Y570D01*
X0Y569D02*
X7Y569D01*
X718Y569D02*
X724Y569D01*
X729Y569D02*
X737Y569D01*
X776Y569D02*
X800Y569D01*
X2006Y569D02*
X2013Y569D01*
X0Y568D02*
X7Y568D01*
X718Y568D02*
X724Y568D01*
X730Y568D02*
X737Y568D01*
X775Y568D02*
X800Y568D01*
X2006Y568D02*
X2013Y568D01*
X0Y567D02*
X7Y567D01*
X718Y567D02*
X724Y567D01*
X731Y567D02*
X738Y567D01*
X775Y567D02*
X799Y567D01*
X2006Y567D02*
X2013Y567D01*
X0Y566D02*
X7Y566D01*
X718Y566D02*
X724Y566D01*
X731Y566D02*
X739Y566D01*
X775Y566D02*
X799Y566D01*
X2006Y566D02*
X2013Y566D01*
X0Y565D02*
X7Y565D01*
X718Y565D02*
X724Y565D01*
X732Y565D02*
X739Y565D01*
X775Y565D02*
X800Y565D01*
X2006Y565D02*
X2013Y565D01*
X0Y564D02*
X7Y564D01*
X718Y564D02*
X724Y564D01*
X733Y564D02*
X740Y564D01*
X776Y564D02*
X800Y564D01*
X2006Y564D02*
X2013Y564D01*
X0Y563D02*
X7Y563D01*
X718Y563D02*
X724Y563D01*
X733Y563D02*
X740Y563D01*
X793Y563D02*
X801Y563D01*
X2006Y563D02*
X2013Y563D01*
X0Y562D02*
X7Y562D01*
X718Y562D02*
X724Y562D01*
X734Y562D02*
X741Y562D01*
X794Y562D02*
X801Y562D01*
X2006Y562D02*
X2013Y562D01*
X0Y561D02*
X7Y561D01*
X718Y561D02*
X724Y561D01*
X734Y561D02*
X742Y561D01*
X795Y561D02*
X801Y561D01*
X2006Y561D02*
X2013Y561D01*
X0Y560D02*
X7Y560D01*
X718Y560D02*
X724Y560D01*
X735Y560D02*
X742Y560D01*
X795Y560D02*
X801Y560D01*
X2006Y560D02*
X2013Y560D01*
X0Y559D02*
X7Y559D01*
X718Y559D02*
X724Y559D01*
X736Y559D02*
X743Y559D01*
X795Y559D02*
X801Y559D01*
X2006Y559D02*
X2013Y559D01*
X0Y558D02*
X7Y558D01*
X718Y558D02*
X724Y558D01*
X736Y558D02*
X743Y558D01*
X795Y558D02*
X801Y558D01*
X2006Y558D02*
X2013Y558D01*
X0Y557D02*
X7Y557D01*
X718Y557D02*
X724Y557D01*
X737Y557D02*
X744Y557D01*
X795Y557D02*
X801Y557D01*
X2006Y557D02*
X2013Y557D01*
X0Y556D02*
X7Y556D01*
X718Y556D02*
X724Y556D01*
X737Y556D02*
X744Y556D01*
X795Y556D02*
X801Y556D01*
X2006Y556D02*
X2013Y556D01*
X0Y555D02*
X7Y555D01*
X718Y555D02*
X724Y555D01*
X738Y555D02*
X745Y555D01*
X795Y555D02*
X801Y555D01*
X2006Y555D02*
X2013Y555D01*
X0Y554D02*
X7Y554D01*
X718Y554D02*
X724Y554D01*
X738Y554D02*
X746Y554D01*
X795Y554D02*
X801Y554D01*
X2006Y554D02*
X2013Y554D01*
X0Y553D02*
X7Y553D01*
X718Y553D02*
X724Y553D01*
X739Y553D02*
X746Y553D01*
X795Y553D02*
X801Y553D01*
X2006Y553D02*
X2013Y553D01*
X0Y552D02*
X7Y552D01*
X718Y552D02*
X724Y552D01*
X740Y552D02*
X747Y552D01*
X795Y552D02*
X801Y552D01*
X2006Y552D02*
X2013Y552D01*
X0Y551D02*
X7Y551D01*
X718Y551D02*
X724Y551D01*
X740Y551D02*
X747Y551D01*
X795Y551D02*
X801Y551D01*
X2006Y551D02*
X2013Y551D01*
X0Y550D02*
X7Y550D01*
X718Y550D02*
X724Y550D01*
X741Y550D02*
X748Y550D01*
X795Y550D02*
X801Y550D01*
X2006Y550D02*
X2013Y550D01*
X0Y549D02*
X7Y549D01*
X718Y549D02*
X724Y549D01*
X741Y549D02*
X749Y549D01*
X795Y549D02*
X801Y549D01*
X2006Y549D02*
X2013Y549D01*
X0Y548D02*
X7Y548D01*
X718Y548D02*
X724Y548D01*
X742Y548D02*
X749Y548D01*
X795Y548D02*
X801Y548D01*
X2006Y548D02*
X2013Y548D01*
X0Y547D02*
X7Y547D01*
X718Y547D02*
X724Y547D01*
X743Y547D02*
X750Y547D01*
X795Y547D02*
X801Y547D01*
X2006Y547D02*
X2013Y547D01*
X0Y546D02*
X7Y546D01*
X718Y546D02*
X724Y546D01*
X743Y546D02*
X750Y546D01*
X769Y546D02*
X801Y546D01*
X2006Y546D02*
X2013Y546D01*
X0Y545D02*
X7Y545D01*
X718Y545D02*
X724Y545D01*
X744Y545D02*
X751Y545D01*
X768Y545D02*
X801Y545D01*
X2006Y545D02*
X2013Y545D01*
X0Y544D02*
X7Y544D01*
X718Y544D02*
X724Y544D01*
X744Y544D02*
X751Y544D01*
X768Y544D02*
X801Y544D01*
X2006Y544D02*
X2013Y544D01*
X0Y543D02*
X7Y543D01*
X718Y543D02*
X724Y543D01*
X745Y543D02*
X751Y543D01*
X768Y543D02*
X800Y543D01*
X1308Y543D02*
X1339Y543D01*
X2006Y543D02*
X2013Y543D01*
X0Y542D02*
X7Y542D01*
X718Y542D02*
X724Y542D01*
X745Y542D02*
X751Y542D01*
X768Y542D02*
X800Y542D01*
X1304Y542D02*
X1340Y542D01*
X2006Y542D02*
X2013Y542D01*
X0Y541D02*
X7Y541D01*
X719Y541D02*
X723Y541D01*
X746Y541D02*
X751Y541D01*
X769Y541D02*
X798Y541D01*
X1302Y541D02*
X1341Y541D01*
X2006Y541D02*
X2013Y541D01*
X0Y540D02*
X7Y540D01*
X720Y540D02*
X722Y540D01*
X747Y540D02*
X749Y540D01*
X770Y540D02*
X797Y540D01*
X1301Y540D02*
X1342Y540D01*
X2006Y540D02*
X2013Y540D01*
X0Y539D02*
X7Y539D01*
X1300Y539D02*
X1343Y539D01*
X2006Y539D02*
X2013Y539D01*
X0Y538D02*
X7Y538D01*
X1299Y538D02*
X1344Y538D01*
X2006Y538D02*
X2013Y538D01*
X0Y537D02*
X7Y537D01*
X1299Y537D02*
X1346Y537D01*
X2006Y537D02*
X2013Y537D01*
X0Y536D02*
X7Y536D01*
X1299Y536D02*
X1307Y536D01*
X2006Y536D02*
X2013Y536D01*
X0Y535D02*
X7Y535D01*
X1298Y535D02*
X1305Y535D01*
X2006Y535D02*
X2013Y535D01*
X0Y534D02*
X7Y534D01*
X1298Y534D02*
X1304Y534D01*
X2006Y534D02*
X2013Y534D01*
X0Y533D02*
X7Y533D01*
X1298Y533D02*
X1304Y533D01*
X2006Y533D02*
X2013Y533D01*
X0Y532D02*
X7Y532D01*
X1298Y532D02*
X1304Y532D01*
X2006Y532D02*
X2013Y532D01*
X0Y531D02*
X7Y531D01*
X1298Y531D02*
X1304Y531D01*
X2006Y531D02*
X2013Y531D01*
X0Y530D02*
X7Y530D01*
X1298Y530D02*
X1304Y530D01*
X2006Y530D02*
X2013Y530D01*
X0Y529D02*
X7Y529D01*
X1298Y529D02*
X1304Y529D01*
X2006Y529D02*
X2013Y529D01*
X0Y528D02*
X7Y528D01*
X1298Y528D02*
X1304Y528D01*
X2006Y528D02*
X2013Y528D01*
X0Y527D02*
X7Y527D01*
X1298Y527D02*
X1304Y527D01*
X2006Y527D02*
X2013Y527D01*
X0Y526D02*
X7Y526D01*
X1298Y526D02*
X1304Y526D01*
X2006Y526D02*
X2013Y526D01*
X0Y525D02*
X7Y525D01*
X1298Y525D02*
X1304Y525D01*
X2006Y525D02*
X2013Y525D01*
X0Y524D02*
X7Y524D01*
X1298Y524D02*
X1304Y524D01*
X2006Y524D02*
X2013Y524D01*
X0Y523D02*
X7Y523D01*
X1298Y523D02*
X1304Y523D01*
X2006Y523D02*
X2013Y523D01*
X0Y522D02*
X7Y522D01*
X1298Y522D02*
X1304Y522D01*
X2006Y522D02*
X2013Y522D01*
X0Y521D02*
X7Y521D01*
X1298Y521D02*
X1304Y521D01*
X2006Y521D02*
X2013Y521D01*
X0Y520D02*
X7Y520D01*
X1298Y520D02*
X1304Y520D01*
X2006Y520D02*
X2013Y520D01*
X0Y519D02*
X7Y519D01*
X1298Y519D02*
X1304Y519D01*
X2006Y519D02*
X2013Y519D01*
X0Y518D02*
X7Y518D01*
X1298Y518D02*
X1304Y518D01*
X2006Y518D02*
X2013Y518D01*
X0Y517D02*
X7Y517D01*
X1298Y517D02*
X1305Y517D01*
X2006Y517D02*
X2013Y517D01*
X0Y516D02*
X7Y516D01*
X1298Y516D02*
X1306Y516D01*
X2006Y516D02*
X2013Y516D01*
X0Y515D02*
X7Y515D01*
X916Y515D02*
X925Y515D01*
X1086Y515D02*
X1105Y515D01*
X1299Y515D02*
X1349Y515D01*
X2006Y515D02*
X2013Y515D01*
X0Y514D02*
X7Y514D01*
X916Y514D02*
X925Y514D01*
X1086Y514D02*
X1105Y514D01*
X1299Y514D02*
X1350Y514D01*
X2006Y514D02*
X2013Y514D01*
X0Y513D02*
X7Y513D01*
X916Y513D02*
X925Y513D01*
X1086Y513D02*
X1105Y513D01*
X1300Y513D02*
X1351Y513D01*
X2006Y513D02*
X2013Y513D01*
X0Y512D02*
X7Y512D01*
X916Y512D02*
X925Y512D01*
X1086Y512D02*
X1105Y512D01*
X1301Y512D02*
X1351Y512D01*
X2006Y512D02*
X2013Y512D01*
X0Y511D02*
X7Y511D01*
X916Y511D02*
X925Y511D01*
X1086Y511D02*
X1105Y511D01*
X1302Y511D02*
X1351Y511D01*
X2006Y511D02*
X2013Y511D01*
X0Y510D02*
X7Y510D01*
X916Y510D02*
X925Y510D01*
X1086Y510D02*
X1105Y510D01*
X1303Y510D02*
X1350Y510D01*
X2006Y510D02*
X2013Y510D01*
X0Y509D02*
X7Y509D01*
X916Y509D02*
X925Y509D01*
X1086Y509D02*
X1105Y509D01*
X1305Y509D02*
X1349Y509D01*
X2006Y509D02*
X2013Y509D01*
X0Y508D02*
X7Y508D01*
X916Y508D02*
X925Y508D01*
X1086Y508D02*
X1105Y508D01*
X2006Y508D02*
X2013Y508D01*
X0Y507D02*
X7Y507D01*
X916Y507D02*
X925Y507D01*
X1086Y507D02*
X1105Y507D01*
X2006Y507D02*
X2013Y507D01*
X0Y506D02*
X7Y506D01*
X916Y506D02*
X925Y506D01*
X1086Y506D02*
X1105Y506D01*
X2006Y506D02*
X2013Y506D01*
X0Y505D02*
X7Y505D01*
X916Y505D02*
X925Y505D01*
X1086Y505D02*
X1105Y505D01*
X2006Y505D02*
X2013Y505D01*
X0Y504D02*
X7Y504D01*
X916Y504D02*
X925Y504D01*
X1086Y504D02*
X1105Y504D01*
X2006Y504D02*
X2013Y504D01*
X0Y503D02*
X7Y503D01*
X916Y503D02*
X925Y503D01*
X1086Y503D02*
X1105Y503D01*
X2006Y503D02*
X2013Y503D01*
X0Y502D02*
X7Y502D01*
X916Y502D02*
X925Y502D01*
X1086Y502D02*
X1105Y502D01*
X2006Y502D02*
X2013Y502D01*
X0Y501D02*
X7Y501D01*
X916Y501D02*
X925Y501D01*
X1086Y501D02*
X1105Y501D01*
X2006Y501D02*
X2013Y501D01*
X0Y500D02*
X7Y500D01*
X916Y500D02*
X925Y500D01*
X1086Y500D02*
X1105Y500D01*
X2006Y500D02*
X2013Y500D01*
X0Y499D02*
X7Y499D01*
X382Y499D02*
X382Y499D01*
X916Y499D02*
X925Y499D01*
X1086Y499D02*
X1105Y499D01*
X2006Y499D02*
X2013Y499D01*
X0Y498D02*
X7Y498D01*
X380Y498D02*
X384Y498D01*
X916Y498D02*
X925Y498D01*
X1086Y498D02*
X1105Y498D01*
X2006Y498D02*
X2013Y498D01*
X0Y497D02*
X7Y497D01*
X380Y497D02*
X385Y497D01*
X916Y497D02*
X925Y497D01*
X1086Y497D02*
X1105Y497D01*
X2006Y497D02*
X2013Y497D01*
X0Y496D02*
X7Y496D01*
X379Y496D02*
X385Y496D01*
X916Y496D02*
X925Y496D01*
X1086Y496D02*
X1105Y496D01*
X2006Y496D02*
X2013Y496D01*
X0Y495D02*
X7Y495D01*
X357Y495D02*
X401Y495D01*
X916Y495D02*
X925Y495D01*
X1086Y495D02*
X1105Y495D01*
X2006Y495D02*
X2013Y495D01*
X0Y494D02*
X7Y494D01*
X356Y494D02*
X402Y494D01*
X916Y494D02*
X925Y494D01*
X1086Y494D02*
X1105Y494D01*
X2006Y494D02*
X2013Y494D01*
X0Y493D02*
X7Y493D01*
X356Y493D02*
X403Y493D01*
X718Y493D02*
X745Y493D01*
X769Y493D02*
X788Y493D01*
X916Y493D02*
X925Y493D01*
X1086Y493D02*
X1105Y493D01*
X1301Y493D02*
X1301Y493D01*
X2006Y493D02*
X2013Y493D01*
X0Y492D02*
X7Y492D01*
X356Y492D02*
X403Y492D01*
X718Y492D02*
X747Y492D01*
X768Y492D02*
X788Y492D01*
X916Y492D02*
X925Y492D01*
X1086Y492D02*
X1105Y492D01*
X1299Y492D02*
X1303Y492D01*
X2006Y492D02*
X2013Y492D01*
X0Y491D02*
X7Y491D01*
X356Y491D02*
X403Y491D01*
X718Y491D02*
X748Y491D01*
X768Y491D02*
X788Y491D01*
X916Y491D02*
X925Y491D01*
X1086Y491D02*
X1105Y491D01*
X1298Y491D02*
X1304Y491D01*
X2006Y491D02*
X2013Y491D01*
X0Y490D02*
X7Y490D01*
X357Y490D02*
X402Y490D01*
X718Y490D02*
X749Y490D01*
X768Y490D02*
X788Y490D01*
X916Y490D02*
X925Y490D01*
X1086Y490D02*
X1105Y490D01*
X1298Y490D02*
X1304Y490D01*
X2006Y490D02*
X2013Y490D01*
X0Y489D02*
X7Y489D01*
X358Y489D02*
X401Y489D01*
X718Y489D02*
X750Y489D01*
X768Y489D02*
X788Y489D01*
X916Y489D02*
X925Y489D01*
X1086Y489D02*
X1105Y489D01*
X1298Y489D02*
X1304Y489D01*
X2006Y489D02*
X2013Y489D01*
X0Y488D02*
X7Y488D01*
X379Y488D02*
X385Y488D01*
X718Y488D02*
X750Y488D01*
X769Y488D02*
X788Y488D01*
X916Y488D02*
X925Y488D01*
X1086Y488D02*
X1105Y488D01*
X1298Y488D02*
X1304Y488D01*
X2006Y488D02*
X2013Y488D01*
X0Y487D02*
X7Y487D01*
X379Y487D02*
X385Y487D01*
X718Y487D02*
X751Y487D01*
X770Y487D02*
X788Y487D01*
X916Y487D02*
X925Y487D01*
X1086Y487D02*
X1105Y487D01*
X1298Y487D02*
X1304Y487D01*
X2006Y487D02*
X2013Y487D01*
X0Y486D02*
X7Y486D01*
X379Y486D02*
X385Y486D01*
X718Y486D02*
X724Y486D01*
X744Y486D02*
X751Y486D01*
X782Y486D02*
X788Y486D01*
X916Y486D02*
X925Y486D01*
X1086Y486D02*
X1105Y486D01*
X1298Y486D02*
X1304Y486D01*
X2006Y486D02*
X2013Y486D01*
X0Y485D02*
X7Y485D01*
X379Y485D02*
X385Y485D01*
X718Y485D02*
X724Y485D01*
X745Y485D02*
X751Y485D01*
X782Y485D02*
X788Y485D01*
X916Y485D02*
X925Y485D01*
X1086Y485D02*
X1105Y485D01*
X1298Y485D02*
X1304Y485D01*
X2006Y485D02*
X2013Y485D01*
X0Y484D02*
X7Y484D01*
X379Y484D02*
X385Y484D01*
X718Y484D02*
X724Y484D01*
X745Y484D02*
X751Y484D01*
X782Y484D02*
X788Y484D01*
X916Y484D02*
X925Y484D01*
X1086Y484D02*
X1105Y484D01*
X1298Y484D02*
X1304Y484D01*
X2006Y484D02*
X2013Y484D01*
X0Y483D02*
X7Y483D01*
X379Y483D02*
X385Y483D01*
X718Y483D02*
X724Y483D01*
X745Y483D02*
X751Y483D01*
X782Y483D02*
X788Y483D01*
X917Y483D02*
X925Y483D01*
X1086Y483D02*
X1105Y483D01*
X1298Y483D02*
X1304Y483D01*
X2006Y483D02*
X2013Y483D01*
X0Y482D02*
X7Y482D01*
X379Y482D02*
X385Y482D01*
X718Y482D02*
X724Y482D01*
X745Y482D02*
X751Y482D01*
X782Y482D02*
X788Y482D01*
X917Y482D02*
X925Y482D01*
X1086Y482D02*
X1105Y482D01*
X1298Y482D02*
X1304Y482D01*
X2006Y482D02*
X2013Y482D01*
X0Y481D02*
X7Y481D01*
X379Y481D02*
X385Y481D01*
X718Y481D02*
X724Y481D01*
X745Y481D02*
X751Y481D01*
X782Y481D02*
X788Y481D01*
X917Y481D02*
X925Y481D01*
X1086Y481D02*
X1105Y481D01*
X1298Y481D02*
X1304Y481D01*
X2006Y481D02*
X2013Y481D01*
X0Y480D02*
X7Y480D01*
X379Y480D02*
X385Y480D01*
X718Y480D02*
X724Y480D01*
X745Y480D02*
X751Y480D01*
X782Y480D02*
X788Y480D01*
X917Y480D02*
X925Y480D01*
X1086Y480D02*
X1105Y480D01*
X1298Y480D02*
X1304Y480D01*
X2006Y480D02*
X2013Y480D01*
X0Y479D02*
X7Y479D01*
X379Y479D02*
X385Y479D01*
X718Y479D02*
X724Y479D01*
X745Y479D02*
X751Y479D01*
X782Y479D02*
X788Y479D01*
X918Y479D02*
X925Y479D01*
X1086Y479D02*
X1105Y479D01*
X1298Y479D02*
X1330Y479D01*
X2006Y479D02*
X2013Y479D01*
X0Y478D02*
X7Y478D01*
X379Y478D02*
X385Y478D01*
X718Y478D02*
X724Y478D01*
X745Y478D02*
X751Y478D01*
X782Y478D02*
X788Y478D01*
X918Y478D02*
X925Y478D01*
X1086Y478D02*
X1105Y478D01*
X1298Y478D02*
X1329Y478D01*
X2006Y478D02*
X2013Y478D01*
X0Y477D02*
X7Y477D01*
X379Y477D02*
X385Y477D01*
X718Y477D02*
X724Y477D01*
X744Y477D02*
X751Y477D01*
X782Y477D02*
X788Y477D01*
X918Y477D02*
X925Y477D01*
X1086Y477D02*
X1105Y477D01*
X1298Y477D02*
X1329Y477D01*
X2006Y477D02*
X2013Y477D01*
X0Y476D02*
X7Y476D01*
X379Y476D02*
X385Y476D01*
X718Y476D02*
X751Y476D01*
X782Y476D02*
X788Y476D01*
X918Y476D02*
X925Y476D01*
X1086Y476D02*
X1105Y476D01*
X1298Y476D02*
X1329Y476D01*
X2006Y476D02*
X2013Y476D01*
X0Y475D02*
X7Y475D01*
X315Y475D02*
X385Y475D01*
X582Y475D02*
X629Y475D01*
X718Y475D02*
X750Y475D01*
X782Y475D02*
X788Y475D01*
X918Y475D02*
X925Y475D01*
X1086Y475D02*
X1105Y475D01*
X1116Y475D02*
X1124Y475D01*
X1298Y475D02*
X1329Y475D01*
X2006Y475D02*
X2013Y475D01*
X0Y474D02*
X7Y474D01*
X315Y474D02*
X385Y474D01*
X582Y474D02*
X629Y474D01*
X718Y474D02*
X750Y474D01*
X782Y474D02*
X788Y474D01*
X918Y474D02*
X925Y474D01*
X1086Y474D02*
X1105Y474D01*
X1116Y474D02*
X1123Y474D01*
X1298Y474D02*
X1329Y474D01*
X2006Y474D02*
X2013Y474D01*
X0Y473D02*
X7Y473D01*
X315Y473D02*
X385Y473D01*
X582Y473D02*
X629Y473D01*
X718Y473D02*
X749Y473D01*
X782Y473D02*
X788Y473D01*
X918Y473D02*
X925Y473D01*
X1086Y473D02*
X1105Y473D01*
X1116Y473D02*
X1123Y473D01*
X1298Y473D02*
X1329Y473D01*
X2006Y473D02*
X2013Y473D01*
X0Y472D02*
X7Y472D01*
X315Y472D02*
X385Y472D01*
X582Y472D02*
X629Y472D01*
X718Y472D02*
X748Y472D01*
X782Y472D02*
X788Y472D01*
X918Y472D02*
X925Y472D01*
X1086Y472D02*
X1105Y472D01*
X1116Y472D02*
X1123Y472D01*
X1298Y472D02*
X1304Y472D01*
X2006Y472D02*
X2013Y472D01*
X0Y471D02*
X7Y471D01*
X315Y471D02*
X385Y471D01*
X582Y471D02*
X629Y471D01*
X718Y471D02*
X747Y471D01*
X782Y471D02*
X788Y471D01*
X918Y471D02*
X925Y471D01*
X1086Y471D02*
X1105Y471D01*
X1116Y471D02*
X1123Y471D01*
X1298Y471D02*
X1304Y471D01*
X2006Y471D02*
X2013Y471D01*
X0Y470D02*
X7Y470D01*
X315Y470D02*
X385Y470D01*
X582Y470D02*
X629Y470D01*
X718Y470D02*
X745Y470D01*
X782Y470D02*
X788Y470D01*
X918Y470D02*
X925Y470D01*
X1086Y470D02*
X1105Y470D01*
X1116Y470D02*
X1123Y470D01*
X1298Y470D02*
X1304Y470D01*
X2006Y470D02*
X2013Y470D01*
X0Y469D02*
X7Y469D01*
X315Y469D02*
X385Y469D01*
X582Y469D02*
X629Y469D01*
X718Y469D02*
X724Y469D01*
X729Y469D02*
X737Y469D01*
X782Y469D02*
X788Y469D01*
X918Y469D02*
X925Y469D01*
X1086Y469D02*
X1105Y469D01*
X1116Y469D02*
X1123Y469D01*
X1298Y469D02*
X1304Y469D01*
X2006Y469D02*
X2013Y469D01*
X0Y468D02*
X7Y468D01*
X315Y468D02*
X385Y468D01*
X582Y468D02*
X629Y468D01*
X718Y468D02*
X724Y468D01*
X730Y468D02*
X737Y468D01*
X782Y468D02*
X788Y468D01*
X918Y468D02*
X925Y468D01*
X1086Y468D02*
X1105Y468D01*
X1116Y468D02*
X1123Y468D01*
X1298Y468D02*
X1304Y468D01*
X2006Y468D02*
X2013Y468D01*
X0Y467D02*
X7Y467D01*
X315Y467D02*
X381Y467D01*
X582Y467D02*
X629Y467D01*
X718Y467D02*
X724Y467D01*
X731Y467D02*
X738Y467D01*
X782Y467D02*
X788Y467D01*
X918Y467D02*
X925Y467D01*
X1086Y467D02*
X1105Y467D01*
X1116Y467D02*
X1124Y467D01*
X1298Y467D02*
X1304Y467D01*
X2006Y467D02*
X2013Y467D01*
X0Y466D02*
X7Y466D01*
X315Y466D02*
X381Y466D01*
X582Y466D02*
X629Y466D01*
X718Y466D02*
X724Y466D01*
X731Y466D02*
X739Y466D01*
X782Y466D02*
X788Y466D01*
X918Y466D02*
X925Y466D01*
X1086Y466D02*
X1105Y466D01*
X1117Y466D02*
X1124Y466D01*
X1298Y466D02*
X1304Y466D01*
X2006Y466D02*
X2013Y466D01*
X0Y465D02*
X7Y465D01*
X718Y465D02*
X724Y465D01*
X732Y465D02*
X739Y465D01*
X782Y465D02*
X788Y465D01*
X918Y465D02*
X925Y465D01*
X1086Y465D02*
X1105Y465D01*
X1298Y465D02*
X1320Y465D01*
X2006Y465D02*
X2013Y465D01*
X0Y464D02*
X7Y464D01*
X718Y464D02*
X724Y464D01*
X733Y464D02*
X740Y464D01*
X782Y464D02*
X788Y464D01*
X797Y464D02*
X799Y464D01*
X918Y464D02*
X925Y464D01*
X1086Y464D02*
X1105Y464D01*
X1298Y464D02*
X1321Y464D01*
X2006Y464D02*
X2013Y464D01*
X0Y463D02*
X7Y463D01*
X718Y463D02*
X724Y463D01*
X733Y463D02*
X740Y463D01*
X782Y463D02*
X788Y463D01*
X796Y463D02*
X801Y463D01*
X918Y463D02*
X925Y463D01*
X1086Y463D02*
X1105Y463D01*
X1298Y463D02*
X1321Y463D01*
X2006Y463D02*
X2013Y463D01*
X0Y462D02*
X7Y462D01*
X718Y462D02*
X724Y462D01*
X734Y462D02*
X741Y462D01*
X782Y462D02*
X788Y462D01*
X796Y462D02*
X801Y462D01*
X917Y462D02*
X925Y462D01*
X1086Y462D02*
X1105Y462D01*
X1298Y462D02*
X1322Y462D01*
X2006Y462D02*
X2013Y462D01*
X0Y461D02*
X7Y461D01*
X718Y461D02*
X724Y461D01*
X734Y461D02*
X742Y461D01*
X782Y461D02*
X788Y461D01*
X795Y461D02*
X801Y461D01*
X917Y461D02*
X925Y461D01*
X1086Y461D02*
X1105Y461D01*
X1298Y461D02*
X1321Y461D01*
X2006Y461D02*
X2013Y461D01*
X0Y460D02*
X7Y460D01*
X718Y460D02*
X724Y460D01*
X735Y460D02*
X742Y460D01*
X782Y460D02*
X788Y460D01*
X795Y460D02*
X801Y460D01*
X917Y460D02*
X925Y460D01*
X1086Y460D02*
X1105Y460D01*
X1299Y460D02*
X1321Y460D01*
X2006Y460D02*
X2013Y460D01*
X0Y459D02*
X7Y459D01*
X718Y459D02*
X724Y459D01*
X736Y459D02*
X743Y459D01*
X782Y459D02*
X788Y459D01*
X795Y459D02*
X801Y459D01*
X917Y459D02*
X925Y459D01*
X1086Y459D02*
X1105Y459D01*
X1300Y459D02*
X1320Y459D01*
X2006Y459D02*
X2013Y459D01*
X0Y458D02*
X7Y458D01*
X718Y458D02*
X724Y458D01*
X736Y458D02*
X743Y458D01*
X782Y458D02*
X788Y458D01*
X795Y458D02*
X801Y458D01*
X916Y458D02*
X925Y458D01*
X1086Y458D02*
X1105Y458D01*
X2006Y458D02*
X2013Y458D01*
X0Y457D02*
X7Y457D01*
X718Y457D02*
X724Y457D01*
X737Y457D02*
X744Y457D01*
X782Y457D02*
X788Y457D01*
X795Y457D02*
X801Y457D01*
X916Y457D02*
X925Y457D01*
X1086Y457D02*
X1105Y457D01*
X2006Y457D02*
X2013Y457D01*
X0Y456D02*
X7Y456D01*
X718Y456D02*
X724Y456D01*
X737Y456D02*
X744Y456D01*
X782Y456D02*
X788Y456D01*
X795Y456D02*
X801Y456D01*
X916Y456D02*
X925Y456D01*
X1086Y456D02*
X1105Y456D01*
X2006Y456D02*
X2013Y456D01*
X0Y455D02*
X7Y455D01*
X718Y455D02*
X724Y455D01*
X738Y455D02*
X745Y455D01*
X782Y455D02*
X788Y455D01*
X795Y455D02*
X801Y455D01*
X916Y455D02*
X925Y455D01*
X1087Y455D02*
X1105Y455D01*
X2006Y455D02*
X2013Y455D01*
X0Y454D02*
X7Y454D01*
X718Y454D02*
X724Y454D01*
X738Y454D02*
X746Y454D01*
X782Y454D02*
X788Y454D01*
X795Y454D02*
X801Y454D01*
X916Y454D02*
X925Y454D01*
X1087Y454D02*
X1105Y454D01*
X2006Y454D02*
X2013Y454D01*
X0Y453D02*
X7Y453D01*
X718Y453D02*
X724Y453D01*
X739Y453D02*
X746Y453D01*
X782Y453D02*
X788Y453D01*
X795Y453D02*
X801Y453D01*
X916Y453D02*
X925Y453D01*
X1088Y453D02*
X1105Y453D01*
X2006Y453D02*
X2013Y453D01*
X0Y452D02*
X7Y452D01*
X718Y452D02*
X724Y452D01*
X740Y452D02*
X747Y452D01*
X782Y452D02*
X788Y452D01*
X795Y452D02*
X801Y452D01*
X916Y452D02*
X925Y452D01*
X1088Y452D02*
X1105Y452D01*
X2006Y452D02*
X2013Y452D01*
X0Y451D02*
X7Y451D01*
X718Y451D02*
X724Y451D01*
X740Y451D02*
X747Y451D01*
X782Y451D02*
X788Y451D01*
X795Y451D02*
X801Y451D01*
X916Y451D02*
X925Y451D01*
X1088Y451D02*
X1105Y451D01*
X2006Y451D02*
X2013Y451D01*
X0Y450D02*
X7Y450D01*
X356Y450D02*
X367Y450D01*
X398Y450D02*
X402Y450D01*
X718Y450D02*
X724Y450D01*
X741Y450D02*
X748Y450D01*
X782Y450D02*
X788Y450D01*
X795Y450D02*
X801Y450D01*
X916Y450D02*
X925Y450D01*
X1089Y450D02*
X1105Y450D01*
X2006Y450D02*
X2013Y450D01*
X0Y449D02*
X7Y449D01*
X354Y449D02*
X369Y449D01*
X396Y449D02*
X402Y449D01*
X718Y449D02*
X724Y449D01*
X741Y449D02*
X749Y449D01*
X782Y449D02*
X788Y449D01*
X795Y449D02*
X801Y449D01*
X916Y449D02*
X925Y449D01*
X1089Y449D02*
X1105Y449D01*
X2006Y449D02*
X2013Y449D01*
X0Y448D02*
X7Y448D01*
X353Y448D02*
X370Y448D01*
X395Y448D02*
X403Y448D01*
X718Y448D02*
X724Y448D01*
X742Y448D02*
X749Y448D01*
X782Y448D02*
X788Y448D01*
X795Y448D02*
X801Y448D01*
X916Y448D02*
X925Y448D01*
X1089Y448D02*
X1105Y448D01*
X2006Y448D02*
X2013Y448D01*
X0Y447D02*
X7Y447D01*
X352Y447D02*
X371Y447D01*
X393Y447D02*
X403Y447D01*
X718Y447D02*
X724Y447D01*
X743Y447D02*
X750Y447D01*
X781Y447D02*
X788Y447D01*
X795Y447D02*
X801Y447D01*
X916Y447D02*
X925Y447D01*
X1089Y447D02*
X1105Y447D01*
X2006Y447D02*
X2013Y447D01*
X0Y446D02*
X7Y446D01*
X352Y446D02*
X372Y446D01*
X391Y446D02*
X403Y446D01*
X718Y446D02*
X724Y446D01*
X743Y446D02*
X750Y446D01*
X769Y446D02*
X801Y446D01*
X916Y446D02*
X925Y446D01*
X1090Y446D02*
X1105Y446D01*
X2006Y446D02*
X2013Y446D01*
X0Y445D02*
X7Y445D01*
X351Y445D02*
X372Y445D01*
X389Y445D02*
X402Y445D01*
X718Y445D02*
X724Y445D01*
X744Y445D02*
X751Y445D01*
X768Y445D02*
X801Y445D01*
X916Y445D02*
X925Y445D01*
X1090Y445D02*
X1105Y445D01*
X2006Y445D02*
X2013Y445D01*
X0Y444D02*
X7Y444D01*
X350Y444D02*
X373Y444D01*
X388Y444D02*
X401Y444D01*
X718Y444D02*
X724Y444D01*
X744Y444D02*
X751Y444D01*
X768Y444D02*
X801Y444D01*
X916Y444D02*
X925Y444D01*
X1090Y444D02*
X1105Y444D01*
X2006Y444D02*
X2013Y444D01*
X0Y443D02*
X7Y443D01*
X350Y443D02*
X357Y443D01*
X366Y443D02*
X373Y443D01*
X386Y443D02*
X399Y443D01*
X718Y443D02*
X724Y443D01*
X745Y443D02*
X751Y443D01*
X768Y443D02*
X801Y443D01*
X916Y443D02*
X925Y443D01*
X1090Y443D02*
X1105Y443D01*
X2006Y443D02*
X2013Y443D01*
X0Y442D02*
X7Y442D01*
X350Y442D02*
X356Y442D01*
X367Y442D02*
X373Y442D01*
X384Y442D02*
X397Y442D01*
X718Y442D02*
X724Y442D01*
X745Y442D02*
X751Y442D01*
X768Y442D02*
X801Y442D01*
X916Y442D02*
X925Y442D01*
X1090Y442D02*
X1105Y442D01*
X2006Y442D02*
X2013Y442D01*
X0Y441D02*
X7Y441D01*
X350Y441D02*
X356Y441D01*
X367Y441D02*
X373Y441D01*
X383Y441D02*
X396Y441D01*
X719Y441D02*
X723Y441D01*
X746Y441D02*
X751Y441D01*
X769Y441D02*
X801Y441D01*
X916Y441D02*
X925Y441D01*
X1090Y441D02*
X1105Y441D01*
X2006Y441D02*
X2013Y441D01*
X0Y440D02*
X7Y440D01*
X350Y440D02*
X356Y440D01*
X368Y440D02*
X374Y440D01*
X381Y440D02*
X394Y440D01*
X720Y440D02*
X722Y440D01*
X747Y440D02*
X749Y440D01*
X770Y440D02*
X799Y440D01*
X916Y440D02*
X925Y440D01*
X1090Y440D02*
X1105Y440D01*
X2006Y440D02*
X2013Y440D01*
X0Y439D02*
X7Y439D01*
X350Y439D02*
X356Y439D01*
X368Y439D02*
X374Y439D01*
X379Y439D02*
X392Y439D01*
X916Y439D02*
X925Y439D01*
X1091Y439D02*
X1105Y439D01*
X2006Y439D02*
X2013Y439D01*
X0Y438D02*
X7Y438D01*
X350Y438D02*
X356Y438D01*
X368Y438D02*
X374Y438D01*
X377Y438D02*
X391Y438D01*
X916Y438D02*
X925Y438D01*
X1091Y438D02*
X1105Y438D01*
X2006Y438D02*
X2013Y438D01*
X0Y437D02*
X7Y437D01*
X350Y437D02*
X356Y437D01*
X368Y437D02*
X374Y437D01*
X376Y437D02*
X389Y437D01*
X916Y437D02*
X925Y437D01*
X1091Y437D02*
X1105Y437D01*
X2006Y437D02*
X2013Y437D01*
X0Y436D02*
X7Y436D01*
X350Y436D02*
X356Y436D01*
X368Y436D02*
X387Y436D01*
X916Y436D02*
X925Y436D01*
X1091Y436D02*
X1105Y436D01*
X2006Y436D02*
X2013Y436D01*
X0Y435D02*
X7Y435D01*
X350Y435D02*
X356Y435D01*
X368Y435D02*
X385Y435D01*
X916Y435D02*
X925Y435D01*
X1090Y435D02*
X1105Y435D01*
X2006Y435D02*
X2013Y435D01*
X0Y434D02*
X7Y434D01*
X350Y434D02*
X356Y434D01*
X368Y434D02*
X384Y434D01*
X916Y434D02*
X925Y434D01*
X1090Y434D02*
X1105Y434D01*
X2006Y434D02*
X2013Y434D01*
X0Y433D02*
X7Y433D01*
X350Y433D02*
X356Y433D01*
X368Y433D02*
X382Y433D01*
X916Y433D02*
X925Y433D01*
X1090Y433D02*
X1105Y433D01*
X2006Y433D02*
X2013Y433D01*
X0Y432D02*
X7Y432D01*
X350Y432D02*
X356Y432D01*
X368Y432D02*
X380Y432D01*
X916Y432D02*
X925Y432D01*
X1090Y432D02*
X1105Y432D01*
X2006Y432D02*
X2013Y432D01*
X0Y431D02*
X7Y431D01*
X350Y431D02*
X356Y431D01*
X368Y431D02*
X379Y431D01*
X916Y431D02*
X925Y431D01*
X1090Y431D02*
X1105Y431D01*
X2006Y431D02*
X2013Y431D01*
X0Y430D02*
X7Y430D01*
X350Y430D02*
X356Y430D01*
X368Y430D02*
X377Y430D01*
X916Y430D02*
X1005Y430D01*
X1090Y430D02*
X1115Y430D01*
X2006Y430D02*
X2013Y430D01*
X0Y429D02*
X7Y429D01*
X350Y429D02*
X356Y429D01*
X368Y429D02*
X375Y429D01*
X916Y429D02*
X1005Y429D01*
X1090Y429D02*
X1115Y429D01*
X2006Y429D02*
X2013Y429D01*
X0Y428D02*
X7Y428D01*
X350Y428D02*
X356Y428D01*
X368Y428D02*
X374Y428D01*
X916Y428D02*
X1005Y428D01*
X1089Y428D02*
X1115Y428D01*
X2006Y428D02*
X2013Y428D01*
X0Y427D02*
X7Y427D01*
X350Y427D02*
X356Y427D01*
X368Y427D02*
X374Y427D01*
X916Y427D02*
X1006Y427D01*
X1089Y427D02*
X1115Y427D01*
X2006Y427D02*
X2013Y427D01*
X0Y426D02*
X7Y426D01*
X350Y426D02*
X356Y426D01*
X368Y426D02*
X374Y426D01*
X917Y426D02*
X1006Y426D01*
X1089Y426D02*
X1115Y426D01*
X2006Y426D02*
X2013Y426D01*
X0Y425D02*
X7Y425D01*
X350Y425D02*
X356Y425D01*
X368Y425D02*
X374Y425D01*
X921Y425D02*
X1006Y425D01*
X1089Y425D02*
X1115Y425D01*
X2006Y425D02*
X2013Y425D01*
X0Y424D02*
X7Y424D01*
X350Y424D02*
X356Y424D01*
X368Y424D02*
X374Y424D01*
X921Y424D02*
X1006Y424D01*
X1088Y424D02*
X1115Y424D01*
X2006Y424D02*
X2013Y424D01*
X0Y423D02*
X7Y423D01*
X350Y423D02*
X401Y423D01*
X921Y423D02*
X1007Y423D01*
X1088Y423D02*
X1115Y423D01*
X2006Y423D02*
X2013Y423D01*
X0Y422D02*
X7Y422D01*
X350Y422D02*
X402Y422D01*
X921Y422D02*
X1007Y422D01*
X1088Y422D02*
X1115Y422D01*
X2006Y422D02*
X2013Y422D01*
X0Y421D02*
X7Y421D01*
X350Y421D02*
X403Y421D01*
X922Y421D02*
X1008Y421D01*
X1087Y421D02*
X1115Y421D01*
X2006Y421D02*
X2013Y421D01*
X0Y420D02*
X7Y420D01*
X350Y420D02*
X403Y420D01*
X921Y420D02*
X1008Y420D01*
X1087Y420D02*
X1115Y420D01*
X2006Y420D02*
X2013Y420D01*
X0Y419D02*
X7Y419D01*
X350Y419D02*
X403Y419D01*
X921Y419D02*
X1009Y419D01*
X1086Y419D02*
X1115Y419D01*
X2006Y419D02*
X2013Y419D01*
X0Y418D02*
X7Y418D01*
X350Y418D02*
X402Y418D01*
X921Y418D02*
X1009Y418D01*
X1086Y418D02*
X1115Y418D01*
X2006Y418D02*
X2013Y418D01*
X0Y417D02*
X7Y417D01*
X350Y417D02*
X401Y417D01*
X921Y417D02*
X1010Y417D01*
X1085Y417D02*
X1115Y417D01*
X2006Y417D02*
X2013Y417D01*
X0Y416D02*
X7Y416D01*
X921Y416D02*
X1010Y416D01*
X1085Y416D02*
X1115Y416D01*
X2006Y416D02*
X2013Y416D01*
X0Y415D02*
X7Y415D01*
X916Y415D02*
X1011Y415D01*
X1084Y415D02*
X1115Y415D01*
X2006Y415D02*
X2013Y415D01*
X0Y414D02*
X7Y414D01*
X916Y414D02*
X1011Y414D01*
X1083Y414D02*
X1115Y414D01*
X2006Y414D02*
X2013Y414D01*
X0Y413D02*
X7Y413D01*
X916Y413D02*
X1012Y413D01*
X1083Y413D02*
X1115Y413D01*
X2006Y413D02*
X2013Y413D01*
X0Y412D02*
X7Y412D01*
X916Y412D02*
X1013Y412D01*
X1082Y412D02*
X1115Y412D01*
X2006Y412D02*
X2013Y412D01*
X0Y411D02*
X7Y411D01*
X916Y411D02*
X1014Y411D01*
X1081Y411D02*
X1115Y411D01*
X2006Y411D02*
X2013Y411D01*
X0Y410D02*
X7Y410D01*
X916Y410D02*
X925Y410D01*
X1086Y410D02*
X1105Y410D01*
X2006Y410D02*
X2013Y410D01*
X0Y409D02*
X7Y409D01*
X916Y409D02*
X925Y409D01*
X1086Y409D02*
X1105Y409D01*
X2006Y409D02*
X2013Y409D01*
X0Y408D02*
X7Y408D01*
X916Y408D02*
X925Y408D01*
X1086Y408D02*
X1105Y408D01*
X2006Y408D02*
X2013Y408D01*
X0Y407D02*
X7Y407D01*
X916Y407D02*
X925Y407D01*
X1086Y407D02*
X1105Y407D01*
X2006Y407D02*
X2013Y407D01*
X0Y406D02*
X7Y406D01*
X916Y406D02*
X925Y406D01*
X1086Y406D02*
X1105Y406D01*
X2006Y406D02*
X2013Y406D01*
X0Y405D02*
X7Y405D01*
X916Y405D02*
X925Y405D01*
X1086Y405D02*
X1105Y405D01*
X2006Y405D02*
X2013Y405D01*
X0Y404D02*
X7Y404D01*
X916Y404D02*
X925Y404D01*
X1086Y404D02*
X1105Y404D01*
X2006Y404D02*
X2013Y404D01*
X0Y403D02*
X7Y403D01*
X916Y403D02*
X925Y403D01*
X1086Y403D02*
X1105Y403D01*
X2006Y403D02*
X2013Y403D01*
X0Y402D02*
X7Y402D01*
X916Y402D02*
X925Y402D01*
X1086Y402D02*
X1105Y402D01*
X2006Y402D02*
X2013Y402D01*
X0Y401D02*
X7Y401D01*
X916Y401D02*
X925Y401D01*
X1086Y401D02*
X1105Y401D01*
X2006Y401D02*
X2013Y401D01*
X0Y400D02*
X7Y400D01*
X916Y400D02*
X925Y400D01*
X1086Y400D02*
X1105Y400D01*
X2006Y400D02*
X2013Y400D01*
X0Y399D02*
X7Y399D01*
X916Y399D02*
X925Y399D01*
X1086Y399D02*
X1105Y399D01*
X2006Y399D02*
X2013Y399D01*
X0Y398D02*
X7Y398D01*
X916Y398D02*
X925Y398D01*
X1086Y398D02*
X1105Y398D01*
X2006Y398D02*
X2013Y398D01*
X0Y397D02*
X7Y397D01*
X916Y397D02*
X925Y397D01*
X1086Y397D02*
X1105Y397D01*
X2006Y397D02*
X2013Y397D01*
X0Y396D02*
X7Y396D01*
X916Y396D02*
X925Y396D01*
X1086Y396D02*
X1105Y396D01*
X2006Y396D02*
X2013Y396D01*
X0Y395D02*
X7Y395D01*
X916Y395D02*
X925Y395D01*
X1086Y395D02*
X1105Y395D01*
X2006Y395D02*
X2013Y395D01*
X0Y394D02*
X7Y394D01*
X916Y394D02*
X925Y394D01*
X1086Y394D02*
X1105Y394D01*
X2006Y394D02*
X2013Y394D01*
X0Y393D02*
X7Y393D01*
X718Y393D02*
X745Y393D01*
X769Y393D02*
X797Y393D01*
X916Y393D02*
X925Y393D01*
X1086Y393D02*
X1105Y393D01*
X2006Y393D02*
X2013Y393D01*
X0Y392D02*
X7Y392D01*
X718Y392D02*
X747Y392D01*
X768Y392D02*
X799Y392D01*
X916Y392D02*
X925Y392D01*
X1086Y392D02*
X1105Y392D01*
X2006Y392D02*
X2013Y392D01*
X0Y391D02*
X7Y391D01*
X718Y391D02*
X748Y391D01*
X768Y391D02*
X800Y391D01*
X916Y391D02*
X925Y391D01*
X1086Y391D02*
X1105Y391D01*
X2006Y391D02*
X2013Y391D01*
X0Y390D02*
X7Y390D01*
X718Y390D02*
X749Y390D01*
X768Y390D02*
X801Y390D01*
X916Y390D02*
X925Y390D01*
X1086Y390D02*
X1105Y390D01*
X2006Y390D02*
X2013Y390D01*
X0Y389D02*
X7Y389D01*
X718Y389D02*
X750Y389D01*
X768Y389D02*
X801Y389D01*
X916Y389D02*
X925Y389D01*
X1086Y389D02*
X1105Y389D01*
X2006Y389D02*
X2013Y389D01*
X0Y388D02*
X7Y388D01*
X718Y388D02*
X750Y388D01*
X769Y388D02*
X801Y388D01*
X916Y388D02*
X925Y388D01*
X1086Y388D02*
X1105Y388D01*
X2006Y388D02*
X2013Y388D01*
X0Y387D02*
X7Y387D01*
X718Y387D02*
X751Y387D01*
X770Y387D02*
X801Y387D01*
X916Y387D02*
X925Y387D01*
X1086Y387D02*
X1105Y387D01*
X2006Y387D02*
X2013Y387D01*
X0Y386D02*
X7Y386D01*
X718Y386D02*
X724Y386D01*
X744Y386D02*
X751Y386D01*
X795Y386D02*
X801Y386D01*
X916Y386D02*
X925Y386D01*
X1086Y386D02*
X1105Y386D01*
X2006Y386D02*
X2013Y386D01*
X0Y385D02*
X7Y385D01*
X718Y385D02*
X724Y385D01*
X745Y385D02*
X751Y385D01*
X795Y385D02*
X801Y385D01*
X916Y385D02*
X925Y385D01*
X1086Y385D02*
X1105Y385D01*
X2006Y385D02*
X2013Y385D01*
X0Y384D02*
X7Y384D01*
X718Y384D02*
X724Y384D01*
X745Y384D02*
X751Y384D01*
X795Y384D02*
X801Y384D01*
X916Y384D02*
X925Y384D01*
X1086Y384D02*
X1105Y384D01*
X2006Y384D02*
X2013Y384D01*
X0Y383D02*
X7Y383D01*
X718Y383D02*
X724Y383D01*
X745Y383D02*
X751Y383D01*
X795Y383D02*
X801Y383D01*
X917Y383D02*
X925Y383D01*
X1086Y383D02*
X1105Y383D01*
X2006Y383D02*
X2013Y383D01*
X0Y382D02*
X7Y382D01*
X718Y382D02*
X724Y382D01*
X745Y382D02*
X751Y382D01*
X795Y382D02*
X801Y382D01*
X917Y382D02*
X925Y382D01*
X1086Y382D02*
X1105Y382D01*
X2006Y382D02*
X2013Y382D01*
X0Y381D02*
X7Y381D01*
X718Y381D02*
X724Y381D01*
X745Y381D02*
X751Y381D01*
X795Y381D02*
X801Y381D01*
X917Y381D02*
X925Y381D01*
X1086Y381D02*
X1105Y381D01*
X2006Y381D02*
X2013Y381D01*
X0Y380D02*
X7Y380D01*
X718Y380D02*
X724Y380D01*
X745Y380D02*
X751Y380D01*
X795Y380D02*
X801Y380D01*
X917Y380D02*
X925Y380D01*
X1086Y380D02*
X1105Y380D01*
X2006Y380D02*
X2013Y380D01*
X0Y379D02*
X7Y379D01*
X718Y379D02*
X724Y379D01*
X745Y379D02*
X751Y379D01*
X795Y379D02*
X801Y379D01*
X918Y379D02*
X925Y379D01*
X1086Y379D02*
X1105Y379D01*
X2006Y379D02*
X2013Y379D01*
X0Y378D02*
X7Y378D01*
X718Y378D02*
X724Y378D01*
X745Y378D02*
X751Y378D01*
X795Y378D02*
X801Y378D01*
X918Y378D02*
X925Y378D01*
X1086Y378D02*
X1105Y378D01*
X2006Y378D02*
X2013Y378D01*
X0Y377D02*
X7Y377D01*
X718Y377D02*
X724Y377D01*
X744Y377D02*
X751Y377D01*
X795Y377D02*
X801Y377D01*
X918Y377D02*
X925Y377D01*
X1086Y377D02*
X1105Y377D01*
X2006Y377D02*
X2013Y377D01*
X0Y376D02*
X7Y376D01*
X718Y376D02*
X751Y376D01*
X795Y376D02*
X801Y376D01*
X918Y376D02*
X925Y376D01*
X1086Y376D02*
X1105Y376D01*
X2006Y376D02*
X2013Y376D01*
X0Y375D02*
X7Y375D01*
X315Y375D02*
X381Y375D01*
X582Y375D02*
X629Y375D01*
X718Y375D02*
X750Y375D01*
X795Y375D02*
X801Y375D01*
X918Y375D02*
X925Y375D01*
X1086Y375D02*
X1105Y375D01*
X1116Y375D02*
X1124Y375D01*
X2006Y375D02*
X2013Y375D01*
X0Y374D02*
X7Y374D01*
X315Y374D02*
X381Y374D01*
X582Y374D02*
X629Y374D01*
X718Y374D02*
X750Y374D01*
X795Y374D02*
X801Y374D01*
X918Y374D02*
X925Y374D01*
X1086Y374D02*
X1105Y374D01*
X1116Y374D02*
X1123Y374D01*
X2006Y374D02*
X2013Y374D01*
X0Y373D02*
X7Y373D01*
X315Y373D02*
X381Y373D01*
X582Y373D02*
X629Y373D01*
X718Y373D02*
X749Y373D01*
X795Y373D02*
X801Y373D01*
X918Y373D02*
X925Y373D01*
X1086Y373D02*
X1105Y373D01*
X1116Y373D02*
X1123Y373D01*
X2006Y373D02*
X2013Y373D01*
X0Y372D02*
X7Y372D01*
X315Y372D02*
X381Y372D01*
X582Y372D02*
X629Y372D01*
X718Y372D02*
X748Y372D01*
X795Y372D02*
X801Y372D01*
X918Y372D02*
X925Y372D01*
X1086Y372D02*
X1105Y372D01*
X1116Y372D02*
X1123Y372D01*
X2006Y372D02*
X2013Y372D01*
X0Y371D02*
X7Y371D01*
X315Y371D02*
X381Y371D01*
X582Y371D02*
X629Y371D01*
X718Y371D02*
X747Y371D01*
X795Y371D02*
X801Y371D01*
X918Y371D02*
X925Y371D01*
X1086Y371D02*
X1105Y371D01*
X1116Y371D02*
X1123Y371D01*
X2006Y371D02*
X2013Y371D01*
X0Y370D02*
X7Y370D01*
X315Y370D02*
X381Y370D01*
X582Y370D02*
X629Y370D01*
X718Y370D02*
X745Y370D01*
X773Y370D02*
X801Y370D01*
X918Y370D02*
X925Y370D01*
X1086Y370D02*
X1105Y370D01*
X1116Y370D02*
X1123Y370D01*
X2006Y370D02*
X2013Y370D01*
X0Y369D02*
X7Y369D01*
X315Y369D02*
X381Y369D01*
X582Y369D02*
X629Y369D01*
X718Y369D02*
X724Y369D01*
X729Y369D02*
X737Y369D01*
X771Y369D02*
X801Y369D01*
X918Y369D02*
X925Y369D01*
X1086Y369D02*
X1105Y369D01*
X1116Y369D02*
X1123Y369D01*
X2006Y369D02*
X2013Y369D01*
X0Y368D02*
X7Y368D01*
X315Y368D02*
X381Y368D01*
X582Y368D02*
X629Y368D01*
X718Y368D02*
X724Y368D01*
X730Y368D02*
X737Y368D01*
X770Y368D02*
X801Y368D01*
X918Y368D02*
X925Y368D01*
X1086Y368D02*
X1105Y368D01*
X1116Y368D02*
X1123Y368D01*
X2006Y368D02*
X2013Y368D01*
X0Y367D02*
X7Y367D01*
X315Y367D02*
X381Y367D01*
X582Y367D02*
X629Y367D01*
X718Y367D02*
X724Y367D01*
X731Y367D02*
X738Y367D01*
X769Y367D02*
X801Y367D01*
X918Y367D02*
X925Y367D01*
X1086Y367D02*
X1105Y367D01*
X1116Y367D02*
X1124Y367D01*
X2006Y367D02*
X2013Y367D01*
X0Y366D02*
X7Y366D01*
X315Y366D02*
X381Y366D01*
X582Y366D02*
X629Y366D01*
X718Y366D02*
X724Y366D01*
X731Y366D02*
X739Y366D01*
X768Y366D02*
X800Y366D01*
X918Y366D02*
X925Y366D01*
X1086Y366D02*
X1105Y366D01*
X1117Y366D02*
X1124Y366D01*
X2006Y366D02*
X2013Y366D01*
X0Y365D02*
X7Y365D01*
X718Y365D02*
X724Y365D01*
X732Y365D02*
X739Y365D01*
X768Y365D02*
X799Y365D01*
X918Y365D02*
X925Y365D01*
X1086Y365D02*
X1105Y365D01*
X2006Y365D02*
X2013Y365D01*
X0Y364D02*
X7Y364D01*
X718Y364D02*
X724Y364D01*
X733Y364D02*
X740Y364D01*
X768Y364D02*
X797Y364D01*
X918Y364D02*
X925Y364D01*
X1086Y364D02*
X1105Y364D01*
X2006Y364D02*
X2013Y364D01*
X0Y363D02*
X7Y363D01*
X718Y363D02*
X724Y363D01*
X733Y363D02*
X740Y363D01*
X768Y363D02*
X774Y363D01*
X918Y363D02*
X925Y363D01*
X1086Y363D02*
X1105Y363D01*
X2006Y363D02*
X2013Y363D01*
X0Y362D02*
X7Y362D01*
X718Y362D02*
X724Y362D01*
X734Y362D02*
X741Y362D01*
X768Y362D02*
X774Y362D01*
X917Y362D02*
X925Y362D01*
X1086Y362D02*
X1105Y362D01*
X2006Y362D02*
X2013Y362D01*
X0Y361D02*
X7Y361D01*
X718Y361D02*
X724Y361D01*
X734Y361D02*
X742Y361D01*
X768Y361D02*
X774Y361D01*
X917Y361D02*
X925Y361D01*
X1086Y361D02*
X1105Y361D01*
X2006Y361D02*
X2013Y361D01*
X0Y360D02*
X7Y360D01*
X718Y360D02*
X724Y360D01*
X735Y360D02*
X742Y360D01*
X768Y360D02*
X774Y360D01*
X917Y360D02*
X925Y360D01*
X1086Y360D02*
X1105Y360D01*
X2006Y360D02*
X2013Y360D01*
X0Y359D02*
X7Y359D01*
X718Y359D02*
X724Y359D01*
X736Y359D02*
X743Y359D01*
X768Y359D02*
X774Y359D01*
X917Y359D02*
X925Y359D01*
X1086Y359D02*
X1105Y359D01*
X2006Y359D02*
X2013Y359D01*
X0Y358D02*
X7Y358D01*
X718Y358D02*
X724Y358D01*
X736Y358D02*
X743Y358D01*
X768Y358D02*
X774Y358D01*
X916Y358D02*
X925Y358D01*
X1086Y358D02*
X1105Y358D01*
X2006Y358D02*
X2013Y358D01*
X0Y357D02*
X7Y357D01*
X718Y357D02*
X724Y357D01*
X737Y357D02*
X744Y357D01*
X768Y357D02*
X774Y357D01*
X916Y357D02*
X925Y357D01*
X1086Y357D02*
X1105Y357D01*
X2006Y357D02*
X2013Y357D01*
X0Y356D02*
X7Y356D01*
X718Y356D02*
X724Y356D01*
X737Y356D02*
X744Y356D01*
X768Y356D02*
X774Y356D01*
X916Y356D02*
X925Y356D01*
X1086Y356D02*
X1105Y356D01*
X2006Y356D02*
X2013Y356D01*
X0Y355D02*
X7Y355D01*
X718Y355D02*
X724Y355D01*
X738Y355D02*
X745Y355D01*
X768Y355D02*
X774Y355D01*
X916Y355D02*
X925Y355D01*
X1086Y355D02*
X1105Y355D01*
X2006Y355D02*
X2013Y355D01*
X0Y354D02*
X7Y354D01*
X718Y354D02*
X724Y354D01*
X738Y354D02*
X746Y354D01*
X768Y354D02*
X774Y354D01*
X916Y354D02*
X925Y354D01*
X1086Y354D02*
X1105Y354D01*
X2006Y354D02*
X2013Y354D01*
X0Y353D02*
X7Y353D01*
X718Y353D02*
X724Y353D01*
X739Y353D02*
X746Y353D01*
X768Y353D02*
X774Y353D01*
X916Y353D02*
X925Y353D01*
X1086Y353D02*
X1105Y353D01*
X2006Y353D02*
X2013Y353D01*
X0Y352D02*
X7Y352D01*
X718Y352D02*
X724Y352D01*
X740Y352D02*
X747Y352D01*
X768Y352D02*
X774Y352D01*
X916Y352D02*
X925Y352D01*
X1086Y352D02*
X1105Y352D01*
X2006Y352D02*
X2013Y352D01*
X0Y351D02*
X7Y351D01*
X718Y351D02*
X724Y351D01*
X740Y351D02*
X747Y351D01*
X768Y351D02*
X774Y351D01*
X916Y351D02*
X925Y351D01*
X1086Y351D02*
X1105Y351D01*
X2006Y351D02*
X2013Y351D01*
X0Y350D02*
X7Y350D01*
X718Y350D02*
X724Y350D01*
X741Y350D02*
X748Y350D01*
X768Y350D02*
X774Y350D01*
X916Y350D02*
X925Y350D01*
X1086Y350D02*
X1105Y350D01*
X2006Y350D02*
X2013Y350D01*
X0Y349D02*
X7Y349D01*
X718Y349D02*
X724Y349D01*
X741Y349D02*
X749Y349D01*
X768Y349D02*
X774Y349D01*
X916Y349D02*
X925Y349D01*
X1086Y349D02*
X1105Y349D01*
X2006Y349D02*
X2013Y349D01*
X0Y348D02*
X7Y348D01*
X718Y348D02*
X724Y348D01*
X742Y348D02*
X749Y348D01*
X768Y348D02*
X774Y348D01*
X916Y348D02*
X925Y348D01*
X1086Y348D02*
X1105Y348D01*
X2006Y348D02*
X2013Y348D01*
X0Y347D02*
X7Y347D01*
X718Y347D02*
X724Y347D01*
X743Y347D02*
X750Y347D01*
X768Y347D02*
X774Y347D01*
X916Y347D02*
X925Y347D01*
X1086Y347D02*
X1105Y347D01*
X2006Y347D02*
X2013Y347D01*
X0Y346D02*
X7Y346D01*
X718Y346D02*
X724Y346D01*
X743Y346D02*
X750Y346D01*
X768Y346D02*
X800Y346D01*
X916Y346D02*
X925Y346D01*
X1086Y346D02*
X1105Y346D01*
X2006Y346D02*
X2013Y346D01*
X0Y345D02*
X7Y345D01*
X718Y345D02*
X724Y345D01*
X744Y345D02*
X751Y345D01*
X768Y345D02*
X801Y345D01*
X916Y345D02*
X925Y345D01*
X1086Y345D02*
X1105Y345D01*
X2006Y345D02*
X2013Y345D01*
X0Y344D02*
X7Y344D01*
X718Y344D02*
X724Y344D01*
X744Y344D02*
X751Y344D01*
X768Y344D02*
X801Y344D01*
X916Y344D02*
X925Y344D01*
X1086Y344D02*
X1105Y344D01*
X2006Y344D02*
X2013Y344D01*
X0Y343D02*
X7Y343D01*
X718Y343D02*
X724Y343D01*
X745Y343D02*
X751Y343D01*
X768Y343D02*
X801Y343D01*
X916Y343D02*
X925Y343D01*
X1086Y343D02*
X1105Y343D01*
X2006Y343D02*
X2013Y343D01*
X0Y342D02*
X7Y342D01*
X718Y342D02*
X724Y342D01*
X745Y342D02*
X751Y342D01*
X768Y342D02*
X801Y342D01*
X916Y342D02*
X925Y342D01*
X1086Y342D02*
X1105Y342D01*
X2006Y342D02*
X2013Y342D01*
X0Y341D02*
X7Y341D01*
X719Y341D02*
X723Y341D01*
X746Y341D02*
X751Y341D01*
X768Y341D02*
X801Y341D01*
X916Y341D02*
X925Y341D01*
X1086Y341D02*
X1105Y341D01*
X2006Y341D02*
X2013Y341D01*
X0Y340D02*
X7Y340D01*
X720Y340D02*
X722Y340D01*
X747Y340D02*
X749Y340D01*
X768Y340D02*
X799Y340D01*
X916Y340D02*
X925Y340D01*
X1086Y340D02*
X1105Y340D01*
X2006Y340D02*
X2013Y340D01*
X0Y339D02*
X7Y339D01*
X916Y339D02*
X925Y339D01*
X1086Y339D02*
X1105Y339D01*
X2006Y339D02*
X2013Y339D01*
X0Y338D02*
X7Y338D01*
X916Y338D02*
X925Y338D01*
X1086Y338D02*
X1105Y338D01*
X2006Y338D02*
X2013Y338D01*
X0Y337D02*
X7Y337D01*
X916Y337D02*
X925Y337D01*
X1086Y337D02*
X1105Y337D01*
X2006Y337D02*
X2013Y337D01*
X0Y336D02*
X7Y336D01*
X916Y336D02*
X925Y336D01*
X1086Y336D02*
X1105Y336D01*
X2006Y336D02*
X2013Y336D01*
X0Y335D02*
X7Y335D01*
X916Y335D02*
X925Y335D01*
X1086Y335D02*
X1105Y335D01*
X2006Y335D02*
X2013Y335D01*
X0Y334D02*
X7Y334D01*
X916Y334D02*
X925Y334D01*
X1086Y334D02*
X1105Y334D01*
X2006Y334D02*
X2013Y334D01*
X0Y333D02*
X7Y333D01*
X916Y333D02*
X925Y333D01*
X1086Y333D02*
X1105Y333D01*
X2006Y333D02*
X2013Y333D01*
X0Y332D02*
X7Y332D01*
X916Y332D02*
X925Y332D01*
X1086Y332D02*
X1105Y332D01*
X2006Y332D02*
X2013Y332D01*
X0Y331D02*
X7Y331D01*
X916Y331D02*
X925Y331D01*
X1086Y331D02*
X1105Y331D01*
X2006Y331D02*
X2013Y331D01*
X0Y330D02*
X7Y330D01*
X916Y330D02*
X925Y330D01*
X1086Y330D02*
X1105Y330D01*
X2006Y330D02*
X2013Y330D01*
X0Y329D02*
X7Y329D01*
X916Y329D02*
X925Y329D01*
X1086Y329D02*
X1105Y329D01*
X2006Y329D02*
X2013Y329D01*
X0Y328D02*
X7Y328D01*
X916Y328D02*
X925Y328D01*
X1086Y328D02*
X1105Y328D01*
X2006Y328D02*
X2013Y328D01*
X0Y327D02*
X7Y327D01*
X916Y327D02*
X925Y327D01*
X1086Y327D02*
X1105Y327D01*
X2006Y327D02*
X2013Y327D01*
X0Y326D02*
X7Y326D01*
X917Y326D02*
X925Y326D01*
X1087Y326D02*
X1105Y326D01*
X2006Y326D02*
X2013Y326D01*
X0Y325D02*
X7Y325D01*
X2006Y325D02*
X2013Y325D01*
X0Y324D02*
X7Y324D01*
X2006Y324D02*
X2013Y324D01*
X0Y323D02*
X7Y323D01*
X2006Y323D02*
X2013Y323D01*
X0Y322D02*
X7Y322D01*
X2006Y322D02*
X2013Y322D01*
X0Y321D02*
X7Y321D01*
X2006Y321D02*
X2013Y321D01*
X0Y320D02*
X7Y320D01*
X2006Y320D02*
X2013Y320D01*
X0Y319D02*
X7Y319D01*
X2006Y319D02*
X2013Y319D01*
X0Y318D02*
X7Y318D01*
X2006Y318D02*
X2013Y318D01*
X0Y317D02*
X7Y317D01*
X2006Y317D02*
X2013Y317D01*
X0Y316D02*
X7Y316D01*
X2006Y316D02*
X2013Y316D01*
X0Y315D02*
X7Y315D01*
X916Y315D02*
X925Y315D01*
X2006Y315D02*
X2013Y315D01*
X0Y314D02*
X7Y314D01*
X916Y314D02*
X925Y314D01*
X2006Y314D02*
X2013Y314D01*
X0Y313D02*
X7Y313D01*
X916Y313D02*
X925Y313D01*
X2006Y313D02*
X2013Y313D01*
X0Y312D02*
X7Y312D01*
X916Y312D02*
X925Y312D01*
X2006Y312D02*
X2013Y312D01*
X0Y311D02*
X7Y311D01*
X916Y311D02*
X925Y311D01*
X2006Y311D02*
X2013Y311D01*
X0Y310D02*
X7Y310D01*
X916Y310D02*
X925Y310D01*
X2006Y310D02*
X2013Y310D01*
X0Y309D02*
X7Y309D01*
X916Y309D02*
X925Y309D01*
X2006Y309D02*
X2013Y309D01*
X0Y308D02*
X7Y308D01*
X916Y308D02*
X925Y308D01*
X2006Y308D02*
X2013Y308D01*
X0Y307D02*
X7Y307D01*
X916Y307D02*
X925Y307D01*
X2006Y307D02*
X2013Y307D01*
X0Y306D02*
X7Y306D01*
X916Y306D02*
X925Y306D01*
X2006Y306D02*
X2013Y306D01*
X0Y305D02*
X7Y305D01*
X916Y305D02*
X925Y305D01*
X2006Y305D02*
X2013Y305D01*
X0Y304D02*
X7Y304D01*
X916Y304D02*
X925Y304D01*
X2006Y304D02*
X2013Y304D01*
X0Y303D02*
X7Y303D01*
X916Y303D02*
X925Y303D01*
X2006Y303D02*
X2013Y303D01*
X0Y302D02*
X7Y302D01*
X916Y302D02*
X925Y302D01*
X2006Y302D02*
X2013Y302D01*
X0Y301D02*
X7Y301D01*
X916Y301D02*
X925Y301D01*
X2006Y301D02*
X2013Y301D01*
X0Y300D02*
X7Y300D01*
X916Y300D02*
X925Y300D01*
X2006Y300D02*
X2013Y300D01*
X0Y299D02*
X7Y299D01*
X916Y299D02*
X925Y299D01*
X2006Y299D02*
X2013Y299D01*
X0Y298D02*
X7Y298D01*
X916Y298D02*
X925Y298D01*
X2006Y298D02*
X2013Y298D01*
X0Y297D02*
X7Y297D01*
X916Y297D02*
X925Y297D01*
X2006Y297D02*
X2013Y297D01*
X0Y296D02*
X7Y296D01*
X916Y296D02*
X925Y296D01*
X2006Y296D02*
X2013Y296D01*
X0Y295D02*
X7Y295D01*
X916Y295D02*
X925Y295D01*
X2006Y295D02*
X2013Y295D01*
X0Y294D02*
X7Y294D01*
X916Y294D02*
X925Y294D01*
X2006Y294D02*
X2013Y294D01*
X0Y293D02*
X7Y293D01*
X916Y293D02*
X925Y293D01*
X2006Y293D02*
X2013Y293D01*
X0Y292D02*
X7Y292D01*
X916Y292D02*
X925Y292D01*
X2006Y292D02*
X2013Y292D01*
X0Y291D02*
X7Y291D01*
X916Y291D02*
X925Y291D01*
X2006Y291D02*
X2013Y291D01*
X0Y290D02*
X7Y290D01*
X916Y290D02*
X925Y290D01*
X2006Y290D02*
X2013Y290D01*
X0Y289D02*
X7Y289D01*
X916Y289D02*
X925Y289D01*
X2006Y289D02*
X2013Y289D01*
X0Y288D02*
X7Y288D01*
X916Y288D02*
X925Y288D01*
X2006Y288D02*
X2013Y288D01*
X0Y287D02*
X7Y287D01*
X916Y287D02*
X925Y287D01*
X2006Y287D02*
X2013Y287D01*
X0Y286D02*
X7Y286D01*
X916Y286D02*
X925Y286D01*
X2006Y286D02*
X2013Y286D01*
X0Y285D02*
X7Y285D01*
X916Y285D02*
X925Y285D01*
X2006Y285D02*
X2013Y285D01*
X0Y284D02*
X7Y284D01*
X916Y284D02*
X925Y284D01*
X2006Y284D02*
X2013Y284D01*
X0Y283D02*
X7Y283D01*
X917Y283D02*
X925Y283D01*
X2006Y283D02*
X2013Y283D01*
X0Y282D02*
X7Y282D01*
X917Y282D02*
X925Y282D01*
X2006Y282D02*
X2013Y282D01*
X0Y281D02*
X7Y281D01*
X917Y281D02*
X925Y281D01*
X2006Y281D02*
X2013Y281D01*
X0Y280D02*
X7Y280D01*
X917Y280D02*
X925Y280D01*
X2006Y280D02*
X2013Y280D01*
X0Y279D02*
X7Y279D01*
X918Y279D02*
X925Y279D01*
X2006Y279D02*
X2013Y279D01*
X0Y278D02*
X7Y278D01*
X918Y278D02*
X925Y278D01*
X2006Y278D02*
X2013Y278D01*
X0Y277D02*
X7Y277D01*
X918Y277D02*
X925Y277D01*
X2006Y277D02*
X2013Y277D01*
X0Y276D02*
X7Y276D01*
X918Y276D02*
X925Y276D01*
X2006Y276D02*
X2013Y276D01*
X0Y275D02*
X7Y275D01*
X315Y275D02*
X381Y275D01*
X582Y275D02*
X629Y275D01*
X918Y275D02*
X925Y275D01*
X1116Y275D02*
X1124Y275D01*
X2006Y275D02*
X2013Y275D01*
X0Y274D02*
X7Y274D01*
X315Y274D02*
X381Y274D01*
X582Y274D02*
X629Y274D01*
X918Y274D02*
X925Y274D01*
X1116Y274D02*
X1123Y274D01*
X2006Y274D02*
X2013Y274D01*
X0Y273D02*
X7Y273D01*
X315Y273D02*
X381Y273D01*
X582Y273D02*
X629Y273D01*
X918Y273D02*
X925Y273D01*
X1116Y273D02*
X1123Y273D01*
X2006Y273D02*
X2013Y273D01*
X0Y272D02*
X7Y272D01*
X315Y272D02*
X381Y272D01*
X582Y272D02*
X629Y272D01*
X918Y272D02*
X925Y272D01*
X1100Y272D02*
X1100Y272D01*
X1116Y272D02*
X1123Y272D01*
X2006Y272D02*
X2013Y272D01*
X0Y271D02*
X7Y271D01*
X315Y271D02*
X381Y271D01*
X582Y271D02*
X629Y271D01*
X918Y271D02*
X925Y271D01*
X1098Y271D02*
X1102Y271D01*
X1116Y271D02*
X1123Y271D01*
X2006Y271D02*
X2013Y271D01*
X0Y270D02*
X7Y270D01*
X315Y270D02*
X381Y270D01*
X582Y270D02*
X629Y270D01*
X918Y270D02*
X925Y270D01*
X1097Y270D02*
X1103Y270D01*
X1116Y270D02*
X1123Y270D01*
X2006Y270D02*
X2013Y270D01*
X0Y269D02*
X7Y269D01*
X315Y269D02*
X381Y269D01*
X582Y269D02*
X629Y269D01*
X918Y269D02*
X925Y269D01*
X1097Y269D02*
X1103Y269D01*
X1116Y269D02*
X1123Y269D01*
X2006Y269D02*
X2013Y269D01*
X0Y268D02*
X7Y268D01*
X315Y268D02*
X381Y268D01*
X582Y268D02*
X629Y268D01*
X918Y268D02*
X925Y268D01*
X1097Y268D02*
X1103Y268D01*
X1116Y268D02*
X1123Y268D01*
X2006Y268D02*
X2013Y268D01*
X0Y267D02*
X7Y267D01*
X315Y267D02*
X381Y267D01*
X582Y267D02*
X629Y267D01*
X918Y267D02*
X925Y267D01*
X1097Y267D02*
X1103Y267D01*
X1116Y267D02*
X1124Y267D01*
X2006Y267D02*
X2013Y267D01*
X0Y266D02*
X7Y266D01*
X315Y266D02*
X381Y266D01*
X582Y266D02*
X629Y266D01*
X918Y266D02*
X925Y266D01*
X1097Y266D02*
X1103Y266D01*
X1117Y266D02*
X1124Y266D01*
X2006Y266D02*
X2013Y266D01*
X0Y265D02*
X7Y265D01*
X918Y265D02*
X925Y265D01*
X1097Y265D02*
X1124Y265D01*
X2006Y265D02*
X2013Y265D01*
X0Y264D02*
X7Y264D01*
X918Y264D02*
X925Y264D01*
X1097Y264D02*
X1124Y264D01*
X2006Y264D02*
X2013Y264D01*
X0Y263D02*
X7Y263D01*
X918Y263D02*
X925Y263D01*
X1097Y263D02*
X1124Y263D01*
X2006Y263D02*
X2013Y263D01*
X0Y262D02*
X7Y262D01*
X917Y262D02*
X925Y262D01*
X1097Y262D02*
X1124Y262D01*
X2006Y262D02*
X2013Y262D01*
X0Y261D02*
X7Y261D01*
X917Y261D02*
X925Y261D01*
X1097Y261D02*
X1124Y261D01*
X2006Y261D02*
X2013Y261D01*
X0Y260D02*
X7Y260D01*
X917Y260D02*
X925Y260D01*
X1097Y260D02*
X1124Y260D01*
X2006Y260D02*
X2013Y260D01*
X0Y259D02*
X7Y259D01*
X917Y259D02*
X925Y259D01*
X1097Y259D02*
X1124Y259D01*
X2006Y259D02*
X2013Y259D01*
X0Y258D02*
X7Y258D01*
X916Y258D02*
X925Y258D01*
X1097Y258D02*
X1103Y258D01*
X2006Y258D02*
X2013Y258D01*
X0Y257D02*
X7Y257D01*
X916Y257D02*
X925Y257D01*
X1097Y257D02*
X1103Y257D01*
X2006Y257D02*
X2013Y257D01*
X0Y256D02*
X7Y256D01*
X916Y256D02*
X925Y256D01*
X1097Y256D02*
X1103Y256D01*
X2006Y256D02*
X2013Y256D01*
X0Y255D02*
X7Y255D01*
X916Y255D02*
X925Y255D01*
X1097Y255D02*
X1103Y255D01*
X2006Y255D02*
X2013Y255D01*
X0Y254D02*
X7Y254D01*
X916Y254D02*
X925Y254D01*
X1097Y254D02*
X1103Y254D01*
X2006Y254D02*
X2013Y254D01*
X0Y253D02*
X7Y253D01*
X916Y253D02*
X925Y253D01*
X1097Y253D02*
X1104Y253D01*
X2006Y253D02*
X2013Y253D01*
X0Y252D02*
X7Y252D01*
X916Y252D02*
X925Y252D01*
X1098Y252D02*
X1106Y252D01*
X2006Y252D02*
X2013Y252D01*
X0Y251D02*
X7Y251D01*
X916Y251D02*
X925Y251D01*
X1098Y251D02*
X1108Y251D01*
X2006Y251D02*
X2013Y251D01*
X0Y250D02*
X7Y250D01*
X916Y250D02*
X925Y250D01*
X1099Y250D02*
X1110Y250D01*
X2006Y250D02*
X2013Y250D01*
X0Y249D02*
X7Y249D01*
X916Y249D02*
X925Y249D01*
X1099Y249D02*
X1112Y249D01*
X2006Y249D02*
X2013Y249D01*
X0Y248D02*
X7Y248D01*
X916Y248D02*
X925Y248D01*
X1100Y248D02*
X1114Y248D01*
X2006Y248D02*
X2013Y248D01*
X0Y247D02*
X7Y247D01*
X916Y247D02*
X925Y247D01*
X1102Y247D02*
X1116Y247D01*
X2006Y247D02*
X2013Y247D01*
X0Y246D02*
X7Y246D01*
X916Y246D02*
X925Y246D01*
X1103Y246D02*
X1118Y246D01*
X2006Y246D02*
X2013Y246D01*
X0Y245D02*
X7Y245D01*
X916Y245D02*
X925Y245D01*
X1105Y245D02*
X1121Y245D01*
X2006Y245D02*
X2013Y245D01*
X0Y244D02*
X7Y244D01*
X916Y244D02*
X925Y244D01*
X1107Y244D02*
X1124Y244D01*
X2006Y244D02*
X2013Y244D01*
X0Y243D02*
X7Y243D01*
X916Y243D02*
X925Y243D01*
X1109Y243D02*
X1124Y243D01*
X2006Y243D02*
X2013Y243D01*
X0Y242D02*
X7Y242D01*
X916Y242D02*
X925Y242D01*
X1111Y242D02*
X1124Y242D01*
X2006Y242D02*
X2013Y242D01*
X0Y241D02*
X7Y241D01*
X916Y241D02*
X925Y241D01*
X1113Y241D02*
X1124Y241D01*
X2006Y241D02*
X2013Y241D01*
X0Y240D02*
X7Y240D01*
X916Y240D02*
X925Y240D01*
X1115Y240D02*
X1124Y240D01*
X2006Y240D02*
X2013Y240D01*
X0Y239D02*
X7Y239D01*
X916Y239D02*
X925Y239D01*
X1118Y239D02*
X1124Y239D01*
X2006Y239D02*
X2013Y239D01*
X0Y238D02*
X7Y238D01*
X916Y238D02*
X925Y238D01*
X1120Y238D02*
X1124Y238D01*
X2006Y238D02*
X2013Y238D01*
X0Y237D02*
X7Y237D01*
X916Y237D02*
X925Y237D01*
X2006Y237D02*
X2013Y237D01*
X0Y236D02*
X7Y236D01*
X916Y236D02*
X925Y236D01*
X2006Y236D02*
X2013Y236D01*
X0Y235D02*
X7Y235D01*
X916Y235D02*
X925Y235D01*
X2006Y235D02*
X2013Y235D01*
X0Y234D02*
X7Y234D01*
X916Y234D02*
X925Y234D01*
X2006Y234D02*
X2013Y234D01*
X0Y233D02*
X7Y233D01*
X916Y233D02*
X925Y233D01*
X2006Y233D02*
X2013Y233D01*
X0Y232D02*
X7Y232D01*
X916Y232D02*
X925Y232D01*
X2006Y232D02*
X2013Y232D01*
X0Y231D02*
X7Y231D01*
X916Y231D02*
X925Y231D01*
X2006Y231D02*
X2013Y231D01*
X0Y230D02*
X7Y230D01*
X916Y230D02*
X925Y230D01*
X2006Y230D02*
X2013Y230D01*
X0Y229D02*
X7Y229D01*
X916Y229D02*
X925Y229D01*
X2006Y229D02*
X2013Y229D01*
X0Y228D02*
X7Y228D01*
X916Y228D02*
X925Y228D01*
X2006Y228D02*
X2013Y228D01*
X0Y227D02*
X7Y227D01*
X916Y227D02*
X925Y227D01*
X2006Y227D02*
X2013Y227D01*
X0Y226D02*
X7Y226D01*
X917Y226D02*
X925Y226D01*
X2006Y226D02*
X2013Y226D01*
X0Y225D02*
X7Y225D01*
X2006Y225D02*
X2013Y225D01*
X0Y224D02*
X7Y224D01*
X2006Y224D02*
X2013Y224D01*
X0Y223D02*
X7Y223D01*
X2006Y223D02*
X2013Y223D01*
X0Y222D02*
X7Y222D01*
X1100Y222D02*
X1100Y222D01*
X1147Y222D02*
X1147Y222D01*
X2006Y222D02*
X2013Y222D01*
X0Y221D02*
X7Y221D01*
X1098Y221D02*
X1102Y221D01*
X1145Y221D02*
X1149Y221D01*
X2006Y221D02*
X2013Y221D01*
X0Y220D02*
X7Y220D01*
X1097Y220D02*
X1103Y220D01*
X1144Y220D02*
X1150Y220D01*
X2006Y220D02*
X2013Y220D01*
X0Y219D02*
X7Y219D01*
X1097Y219D02*
X1103Y219D01*
X1144Y219D02*
X1150Y219D01*
X2006Y219D02*
X2013Y219D01*
X0Y218D02*
X7Y218D01*
X1097Y218D02*
X1103Y218D01*
X1144Y218D02*
X1150Y218D01*
X2006Y218D02*
X2013Y218D01*
X0Y217D02*
X7Y217D01*
X1097Y217D02*
X1103Y217D01*
X1144Y217D02*
X1150Y217D01*
X2006Y217D02*
X2013Y217D01*
X0Y216D02*
X7Y216D01*
X1097Y216D02*
X1103Y216D01*
X1144Y216D02*
X1150Y216D01*
X2006Y216D02*
X2013Y216D01*
X0Y215D02*
X7Y215D01*
X1097Y215D02*
X1103Y215D01*
X1144Y215D02*
X1150Y215D01*
X2006Y215D02*
X2013Y215D01*
X0Y214D02*
X7Y214D01*
X1097Y214D02*
X1103Y214D01*
X1144Y214D02*
X1150Y214D01*
X2006Y214D02*
X2013Y214D01*
X0Y213D02*
X7Y213D01*
X1097Y213D02*
X1103Y213D01*
X1144Y213D02*
X1150Y213D01*
X2006Y213D02*
X2013Y213D01*
X0Y212D02*
X7Y212D01*
X1097Y212D02*
X1103Y212D01*
X1144Y212D02*
X1150Y212D01*
X2006Y212D02*
X2013Y212D01*
X0Y211D02*
X7Y211D01*
X1097Y211D02*
X1103Y211D01*
X1144Y211D02*
X1150Y211D01*
X2006Y211D02*
X2013Y211D01*
X0Y210D02*
X7Y210D01*
X1097Y210D02*
X1103Y210D01*
X1144Y210D02*
X1150Y210D01*
X2006Y210D02*
X2013Y210D01*
X0Y209D02*
X7Y209D01*
X1097Y209D02*
X1103Y209D01*
X1144Y209D02*
X1150Y209D01*
X2006Y209D02*
X2013Y209D01*
X0Y208D02*
X7Y208D01*
X1097Y208D02*
X1150Y208D01*
X2006Y208D02*
X2013Y208D01*
X0Y207D02*
X7Y207D01*
X1097Y207D02*
X1150Y207D01*
X2006Y207D02*
X2013Y207D01*
X0Y206D02*
X7Y206D01*
X1097Y206D02*
X1150Y206D01*
X2006Y206D02*
X2013Y206D01*
X0Y205D02*
X7Y205D01*
X1097Y205D02*
X1150Y205D01*
X2006Y205D02*
X2013Y205D01*
X0Y204D02*
X7Y204D01*
X1097Y204D02*
X1150Y204D01*
X2006Y204D02*
X2013Y204D01*
X0Y203D02*
X7Y203D01*
X1097Y203D02*
X1150Y203D01*
X2006Y203D02*
X2013Y203D01*
X0Y202D02*
X7Y202D01*
X1097Y202D02*
X1150Y202D01*
X2006Y202D02*
X2013Y202D01*
X0Y201D02*
X7Y201D01*
X1097Y201D02*
X1103Y201D01*
X2006Y201D02*
X2013Y201D01*
X0Y200D02*
X7Y200D01*
X1097Y200D02*
X1103Y200D01*
X2006Y200D02*
X2013Y200D01*
X0Y199D02*
X7Y199D01*
X1097Y199D02*
X1103Y199D01*
X2006Y199D02*
X2013Y199D01*
X0Y198D02*
X7Y198D01*
X1097Y198D02*
X1103Y198D01*
X2006Y198D02*
X2013Y198D01*
X0Y197D02*
X7Y197D01*
X1097Y197D02*
X1103Y197D01*
X2006Y197D02*
X2013Y197D01*
X0Y196D02*
X7Y196D01*
X1097Y196D02*
X1103Y196D01*
X2006Y196D02*
X2013Y196D01*
X0Y195D02*
X7Y195D01*
X1097Y195D02*
X1103Y195D01*
X2006Y195D02*
X2013Y195D01*
X0Y194D02*
X7Y194D01*
X1097Y194D02*
X1119Y194D01*
X2006Y194D02*
X2013Y194D01*
X0Y193D02*
X7Y193D01*
X1097Y193D02*
X1120Y193D01*
X2006Y193D02*
X2013Y193D01*
X0Y192D02*
X7Y192D01*
X1097Y192D02*
X1121Y192D01*
X2006Y192D02*
X2013Y192D01*
X0Y191D02*
X7Y191D01*
X1097Y191D02*
X1121Y191D01*
X2006Y191D02*
X2013Y191D01*
X0Y190D02*
X7Y190D01*
X1097Y190D02*
X1121Y190D01*
X2006Y190D02*
X2013Y190D01*
X0Y189D02*
X7Y189D01*
X1098Y189D02*
X1120Y189D01*
X2006Y189D02*
X2013Y189D01*
X0Y188D02*
X7Y188D01*
X1099Y188D02*
X1119Y188D01*
X2006Y188D02*
X2013Y188D01*
X0Y187D02*
X7Y187D01*
X2006Y187D02*
X2013Y187D01*
X0Y186D02*
X7Y186D01*
X2006Y186D02*
X2013Y186D01*
X0Y185D02*
X7Y185D01*
X2006Y185D02*
X2013Y185D01*
X0Y184D02*
X7Y184D01*
X2006Y184D02*
X2013Y184D01*
X0Y183D02*
X7Y183D01*
X2006Y183D02*
X2013Y183D01*
X0Y182D02*
X7Y182D01*
X2006Y182D02*
X2013Y182D01*
X0Y181D02*
X7Y181D01*
X2006Y181D02*
X2013Y181D01*
X0Y180D02*
X7Y180D01*
X2006Y180D02*
X2013Y180D01*
X0Y179D02*
X7Y179D01*
X2006Y179D02*
X2013Y179D01*
X0Y178D02*
X7Y178D01*
X2006Y178D02*
X2013Y178D01*
X0Y177D02*
X7Y177D01*
X2006Y177D02*
X2013Y177D01*
X0Y176D02*
X7Y176D01*
X2006Y176D02*
X2013Y176D01*
X0Y175D02*
X7Y175D01*
X315Y175D02*
X381Y175D01*
X582Y175D02*
X629Y175D01*
X2006Y175D02*
X2013Y175D01*
X0Y174D02*
X7Y174D01*
X315Y174D02*
X381Y174D01*
X582Y174D02*
X629Y174D01*
X2006Y174D02*
X2013Y174D01*
X0Y173D02*
X7Y173D01*
X315Y173D02*
X381Y173D01*
X582Y173D02*
X629Y173D01*
X2006Y173D02*
X2013Y173D01*
X0Y172D02*
X7Y172D01*
X315Y172D02*
X381Y172D01*
X582Y172D02*
X629Y172D01*
X1100Y172D02*
X1100Y172D01*
X1147Y172D02*
X1147Y172D01*
X2006Y172D02*
X2013Y172D01*
X0Y171D02*
X7Y171D01*
X315Y171D02*
X381Y171D01*
X582Y171D02*
X629Y171D01*
X1098Y171D02*
X1102Y171D01*
X1145Y171D02*
X1149Y171D01*
X2006Y171D02*
X2013Y171D01*
X0Y170D02*
X7Y170D01*
X315Y170D02*
X381Y170D01*
X582Y170D02*
X629Y170D01*
X1097Y170D02*
X1103Y170D01*
X1144Y170D02*
X1150Y170D01*
X2006Y170D02*
X2013Y170D01*
X0Y169D02*
X7Y169D01*
X315Y169D02*
X381Y169D01*
X582Y169D02*
X629Y169D01*
X1097Y169D02*
X1103Y169D01*
X1144Y169D02*
X1150Y169D01*
X2006Y169D02*
X2013Y169D01*
X0Y168D02*
X7Y168D01*
X315Y168D02*
X381Y168D01*
X582Y168D02*
X629Y168D01*
X1097Y168D02*
X1103Y168D01*
X1144Y168D02*
X1150Y168D01*
X2006Y168D02*
X2013Y168D01*
X0Y167D02*
X7Y167D01*
X315Y167D02*
X381Y167D01*
X582Y167D02*
X629Y167D01*
X1097Y167D02*
X1103Y167D01*
X1144Y167D02*
X1150Y167D01*
X2006Y167D02*
X2013Y167D01*
X0Y166D02*
X7Y166D01*
X315Y166D02*
X381Y166D01*
X582Y166D02*
X629Y166D01*
X1097Y166D02*
X1103Y166D01*
X1144Y166D02*
X1150Y166D01*
X2006Y166D02*
X2013Y166D01*
X0Y165D02*
X7Y165D01*
X1097Y165D02*
X1150Y165D01*
X2006Y165D02*
X2013Y165D01*
X0Y164D02*
X7Y164D01*
X1097Y164D02*
X1150Y164D01*
X2006Y164D02*
X2013Y164D01*
X0Y163D02*
X7Y163D01*
X1097Y163D02*
X1150Y163D01*
X2006Y163D02*
X2013Y163D01*
X0Y162D02*
X7Y162D01*
X1097Y162D02*
X1150Y162D01*
X2006Y162D02*
X2013Y162D01*
X0Y161D02*
X7Y161D01*
X1097Y161D02*
X1150Y161D01*
X2006Y161D02*
X2013Y161D01*
X0Y160D02*
X7Y160D01*
X1097Y160D02*
X1150Y160D01*
X2006Y160D02*
X2013Y160D01*
X0Y159D02*
X7Y159D01*
X1097Y159D02*
X1150Y159D01*
X2006Y159D02*
X2013Y159D01*
X0Y158D02*
X7Y158D01*
X1097Y158D02*
X1103Y158D01*
X1144Y158D02*
X1150Y158D01*
X2006Y158D02*
X2013Y158D01*
X0Y157D02*
X7Y157D01*
X1097Y157D02*
X1103Y157D01*
X1144Y157D02*
X1150Y157D01*
X2006Y157D02*
X2013Y157D01*
X0Y156D02*
X7Y156D01*
X1097Y156D02*
X1103Y156D01*
X1144Y156D02*
X1150Y156D01*
X2006Y156D02*
X2013Y156D01*
X0Y155D02*
X7Y155D01*
X1097Y155D02*
X1103Y155D01*
X1144Y155D02*
X1150Y155D01*
X2006Y155D02*
X2013Y155D01*
X0Y154D02*
X7Y154D01*
X1097Y154D02*
X1104Y154D01*
X1144Y154D02*
X1150Y154D01*
X2006Y154D02*
X2013Y154D01*
X0Y153D02*
X7Y153D01*
X1097Y153D02*
X1104Y153D01*
X1143Y153D02*
X1150Y153D01*
X2006Y153D02*
X2013Y153D01*
X0Y152D02*
X7Y152D01*
X1098Y152D02*
X1106Y152D01*
X1141Y152D02*
X1149Y152D01*
X2006Y152D02*
X2013Y152D01*
X0Y151D02*
X7Y151D01*
X1098Y151D02*
X1108Y151D01*
X1139Y151D02*
X1149Y151D01*
X2006Y151D02*
X2013Y151D01*
X0Y150D02*
X7Y150D01*
X1099Y150D02*
X1110Y150D01*
X1137Y150D02*
X1148Y150D01*
X2006Y150D02*
X2013Y150D01*
X0Y149D02*
X7Y149D01*
X1099Y149D02*
X1112Y149D01*
X1135Y149D02*
X1148Y149D01*
X2006Y149D02*
X2013Y149D01*
X0Y148D02*
X7Y148D01*
X1100Y148D02*
X1114Y148D01*
X1133Y148D02*
X1147Y148D01*
X2006Y148D02*
X2013Y148D01*
X0Y147D02*
X7Y147D01*
X1102Y147D02*
X1116Y147D01*
X1131Y147D02*
X1145Y147D01*
X2006Y147D02*
X2013Y147D01*
X0Y146D02*
X7Y146D01*
X1103Y146D02*
X1118Y146D01*
X1129Y146D02*
X1144Y146D01*
X2006Y146D02*
X2013Y146D01*
X0Y145D02*
X7Y145D01*
X1105Y145D02*
X1121Y145D01*
X1127Y145D02*
X1142Y145D01*
X2006Y145D02*
X2013Y145D01*
X0Y144D02*
X7Y144D01*
X1107Y144D02*
X1140Y144D01*
X2006Y144D02*
X2013Y144D01*
X0Y143D02*
X7Y143D01*
X1109Y143D02*
X1138Y143D01*
X2006Y143D02*
X2013Y143D01*
X0Y142D02*
X7Y142D01*
X1111Y142D02*
X1136Y142D01*
X2006Y142D02*
X2013Y142D01*
X0Y141D02*
X7Y141D01*
X1113Y141D02*
X1134Y141D01*
X2006Y141D02*
X2013Y141D01*
X0Y140D02*
X7Y140D01*
X1115Y140D02*
X1132Y140D01*
X2006Y140D02*
X2013Y140D01*
X0Y139D02*
X7Y139D01*
X1118Y139D02*
X1129Y139D01*
X2006Y139D02*
X2013Y139D01*
X0Y138D02*
X7Y138D01*
X1120Y138D02*
X1127Y138D01*
X2006Y138D02*
X2013Y138D01*
X0Y137D02*
X7Y137D01*
X2006Y137D02*
X2013Y137D01*
X0Y136D02*
X7Y136D01*
X2006Y136D02*
X2013Y136D01*
X0Y135D02*
X7Y135D01*
X2006Y135D02*
X2013Y135D01*
X0Y134D02*
X7Y134D01*
X2006Y134D02*
X2013Y134D01*
X0Y133D02*
X7Y133D01*
X2006Y133D02*
X2013Y133D01*
X0Y132D02*
X7Y132D01*
X2006Y132D02*
X2013Y132D01*
X0Y131D02*
X7Y131D01*
X2006Y131D02*
X2013Y131D01*
X0Y130D02*
X7Y130D01*
X2006Y130D02*
X2013Y130D01*
X0Y129D02*
X7Y129D01*
X2006Y129D02*
X2013Y129D01*
X0Y128D02*
X7Y128D01*
X2006Y128D02*
X2013Y128D01*
X0Y127D02*
X7Y127D01*
X2006Y127D02*
X2013Y127D01*
X0Y126D02*
X7Y126D01*
X2006Y126D02*
X2013Y126D01*
X0Y125D02*
X7Y125D01*
X2006Y125D02*
X2013Y125D01*
X0Y124D02*
X7Y124D01*
X2006Y124D02*
X2013Y124D01*
X0Y123D02*
X7Y123D01*
X2006Y123D02*
X2013Y123D01*
X0Y122D02*
X7Y122D01*
X1097Y122D02*
X1121Y122D01*
X1147Y122D02*
X1147Y122D01*
X2006Y122D02*
X2013Y122D01*
X0Y121D02*
X7Y121D01*
X1097Y121D02*
X1123Y121D01*
X1145Y121D02*
X1149Y121D01*
X2006Y121D02*
X2013Y121D01*
X0Y120D02*
X7Y120D01*
X1097Y120D02*
X1125Y120D01*
X1144Y120D02*
X1150Y120D01*
X2006Y120D02*
X2013Y120D01*
X0Y119D02*
X7Y119D01*
X1097Y119D02*
X1125Y119D01*
X1144Y119D02*
X1150Y119D01*
X2006Y119D02*
X2013Y119D01*
X0Y118D02*
X7Y118D01*
X1097Y118D02*
X1126Y118D01*
X1144Y118D02*
X1150Y118D01*
X2006Y118D02*
X2013Y118D01*
X0Y117D02*
X7Y117D01*
X1097Y117D02*
X1126Y117D01*
X1144Y117D02*
X1150Y117D01*
X2006Y117D02*
X2013Y117D01*
X0Y116D02*
X7Y116D01*
X1097Y116D02*
X1126Y116D01*
X1144Y116D02*
X1150Y116D01*
X2006Y116D02*
X2013Y116D01*
X0Y115D02*
X7Y115D01*
X1097Y115D02*
X1103Y115D01*
X1120Y115D02*
X1127Y115D01*
X1144Y115D02*
X1150Y115D01*
X2006Y115D02*
X2013Y115D01*
X0Y114D02*
X7Y114D01*
X1097Y114D02*
X1103Y114D01*
X1121Y114D02*
X1127Y114D01*
X1144Y114D02*
X1150Y114D01*
X2006Y114D02*
X2013Y114D01*
X0Y113D02*
X7Y113D01*
X1097Y113D02*
X1103Y113D01*
X1121Y113D02*
X1127Y113D01*
X1144Y113D02*
X1150Y113D01*
X2006Y113D02*
X2013Y113D01*
X0Y112D02*
X7Y112D01*
X1097Y112D02*
X1103Y112D01*
X1121Y112D02*
X1127Y112D01*
X1144Y112D02*
X1150Y112D01*
X2006Y112D02*
X2013Y112D01*
X0Y111D02*
X7Y111D01*
X1097Y111D02*
X1103Y111D01*
X1121Y111D02*
X1127Y111D01*
X1144Y111D02*
X1150Y111D01*
X2006Y111D02*
X2013Y111D01*
X0Y110D02*
X7Y110D01*
X1097Y110D02*
X1103Y110D01*
X1121Y110D02*
X1127Y110D01*
X1144Y110D02*
X1150Y110D01*
X2006Y110D02*
X2013Y110D01*
X0Y109D02*
X7Y109D01*
X1097Y109D02*
X1103Y109D01*
X1121Y109D02*
X1127Y109D01*
X1144Y109D02*
X1150Y109D01*
X2006Y109D02*
X2013Y109D01*
X0Y108D02*
X7Y108D01*
X1097Y108D02*
X1103Y108D01*
X1121Y108D02*
X1127Y108D01*
X1144Y108D02*
X1150Y108D01*
X2006Y108D02*
X2013Y108D01*
X0Y107D02*
X7Y107D01*
X1097Y107D02*
X1103Y107D01*
X1121Y107D02*
X1127Y107D01*
X1144Y107D02*
X1150Y107D01*
X2006Y107D02*
X2013Y107D01*
X0Y106D02*
X7Y106D01*
X1097Y106D02*
X1103Y106D01*
X1121Y106D02*
X1127Y106D01*
X1144Y106D02*
X1150Y106D01*
X2006Y106D02*
X2013Y106D01*
X0Y105D02*
X7Y105D01*
X1097Y105D02*
X1103Y105D01*
X1121Y105D02*
X1127Y105D01*
X1144Y105D02*
X1150Y105D01*
X2006Y105D02*
X2013Y105D01*
X0Y104D02*
X7Y104D01*
X1097Y104D02*
X1103Y104D01*
X1121Y104D02*
X1127Y104D01*
X1144Y104D02*
X1150Y104D01*
X2006Y104D02*
X2013Y104D01*
X0Y103D02*
X7Y103D01*
X1097Y103D02*
X1103Y103D01*
X1121Y103D02*
X1127Y103D01*
X1144Y103D02*
X1150Y103D01*
X2006Y103D02*
X2013Y103D01*
X0Y102D02*
X7Y102D01*
X1097Y102D02*
X1103Y102D01*
X1121Y102D02*
X1127Y102D01*
X1144Y102D02*
X1150Y102D01*
X2006Y102D02*
X2013Y102D01*
X0Y101D02*
X7Y101D01*
X1097Y101D02*
X1103Y101D01*
X1121Y101D02*
X1127Y101D01*
X1144Y101D02*
X1150Y101D01*
X2006Y101D02*
X2013Y101D01*
X0Y100D02*
X7Y100D01*
X1097Y100D02*
X1103Y100D01*
X1121Y100D02*
X1127Y100D01*
X1144Y100D02*
X1150Y100D01*
X2006Y100D02*
X2013Y100D01*
X0Y99D02*
X7Y99D01*
X1097Y99D02*
X1103Y99D01*
X1121Y99D02*
X1127Y99D01*
X1144Y99D02*
X1150Y99D01*
X2006Y99D02*
X2013Y99D01*
X0Y98D02*
X7Y98D01*
X1097Y98D02*
X1103Y98D01*
X1121Y98D02*
X1127Y98D01*
X1144Y98D02*
X1150Y98D01*
X2006Y98D02*
X2013Y98D01*
X0Y97D02*
X7Y97D01*
X1097Y97D02*
X1103Y97D01*
X1121Y97D02*
X1127Y97D01*
X1144Y97D02*
X1150Y97D01*
X2006Y97D02*
X2013Y97D01*
X0Y96D02*
X7Y96D01*
X1097Y96D02*
X1103Y96D01*
X1121Y96D02*
X1127Y96D01*
X1144Y96D02*
X1150Y96D01*
X2006Y96D02*
X2013Y96D01*
X0Y95D02*
X7Y95D01*
X1097Y95D02*
X1103Y95D01*
X1121Y95D02*
X1127Y95D01*
X1144Y95D02*
X1150Y95D01*
X2006Y95D02*
X2013Y95D01*
X0Y94D02*
X7Y94D01*
X1097Y94D02*
X1103Y94D01*
X1121Y94D02*
X1150Y94D01*
X2006Y94D02*
X2013Y94D01*
X0Y93D02*
X7Y93D01*
X1097Y93D02*
X1103Y93D01*
X1121Y93D02*
X1150Y93D01*
X2006Y93D02*
X2013Y93D01*
X0Y92D02*
X7Y92D01*
X1097Y92D02*
X1103Y92D01*
X1121Y92D02*
X1150Y92D01*
X2006Y92D02*
X2013Y92D01*
X0Y91D02*
X7Y91D01*
X1097Y91D02*
X1103Y91D01*
X1122Y91D02*
X1149Y91D01*
X2006Y91D02*
X2013Y91D01*
X0Y90D02*
X7Y90D01*
X1097Y90D02*
X1103Y90D01*
X1122Y90D02*
X1148Y90D01*
X2006Y90D02*
X2013Y90D01*
X0Y89D02*
X7Y89D01*
X1098Y89D02*
X1102Y89D01*
X1123Y89D02*
X1147Y89D01*
X2006Y89D02*
X2013Y89D01*
X0Y88D02*
X7Y88D01*
X1099Y88D02*
X1101Y88D01*
X1125Y88D02*
X1146Y88D01*
X2006Y88D02*
X2013Y88D01*
X0Y87D02*
X7Y87D01*
X2006Y87D02*
X2013Y87D01*
X0Y86D02*
X7Y86D01*
X2006Y86D02*
X2013Y86D01*
X0Y85D02*
X7Y85D01*
X2006Y85D02*
X2013Y85D01*
X0Y84D02*
X7Y84D01*
X2006Y84D02*
X2013Y84D01*
X0Y83D02*
X7Y83D01*
X2006Y83D02*
X2013Y83D01*
X0Y82D02*
X7Y82D01*
X2006Y82D02*
X2013Y82D01*
X0Y81D02*
X7Y81D01*
X2006Y81D02*
X2013Y81D01*
X0Y80D02*
X7Y80D01*
X2006Y80D02*
X2013Y80D01*
X0Y79D02*
X7Y79D01*
X2006Y79D02*
X2013Y79D01*
X0Y78D02*
X7Y78D01*
X2006Y78D02*
X2013Y78D01*
X0Y77D02*
X7Y77D01*
X2006Y77D02*
X2013Y77D01*
X0Y76D02*
X7Y76D01*
X2006Y76D02*
X2013Y76D01*
X0Y75D02*
X7Y75D01*
X2006Y75D02*
X2013Y75D01*
X0Y74D02*
X7Y74D01*
X2006Y74D02*
X2013Y74D01*
X0Y73D02*
X7Y73D01*
X2006Y73D02*
X2013Y73D01*
X0Y72D02*
X7Y72D01*
X1100Y72D02*
X1100Y72D01*
X1147Y72D02*
X1147Y72D01*
X2006Y72D02*
X2013Y72D01*
X0Y71D02*
X7Y71D01*
X1098Y71D02*
X1102Y71D01*
X1145Y71D02*
X1149Y71D01*
X2006Y71D02*
X2013Y71D01*
X0Y70D02*
X7Y70D01*
X1097Y70D02*
X1103Y70D01*
X1144Y70D02*
X1150Y70D01*
X2006Y70D02*
X2013Y70D01*
X0Y69D02*
X7Y69D01*
X1097Y69D02*
X1103Y69D01*
X1144Y69D02*
X1150Y69D01*
X2006Y69D02*
X2013Y69D01*
X0Y68D02*
X7Y68D01*
X1097Y68D02*
X1103Y68D01*
X1144Y68D02*
X1150Y68D01*
X2006Y68D02*
X2013Y68D01*
X0Y67D02*
X7Y67D01*
X1097Y67D02*
X1103Y67D01*
X1144Y67D02*
X1150Y67D01*
X2006Y67D02*
X2013Y67D01*
X0Y66D02*
X7Y66D01*
X1097Y66D02*
X1103Y66D01*
X1144Y66D02*
X1150Y66D01*
X2006Y66D02*
X2013Y66D01*
X0Y65D02*
X7Y65D01*
X1097Y65D02*
X1150Y65D01*
X2006Y65D02*
X2013Y65D01*
X0Y64D02*
X7Y64D01*
X1097Y64D02*
X1150Y64D01*
X2006Y64D02*
X2013Y64D01*
X0Y63D02*
X7Y63D01*
X1097Y63D02*
X1150Y63D01*
X2006Y63D02*
X2013Y63D01*
X0Y62D02*
X7Y62D01*
X1097Y62D02*
X1150Y62D01*
X2006Y62D02*
X2013Y62D01*
X0Y61D02*
X7Y61D01*
X1097Y61D02*
X1150Y61D01*
X2006Y61D02*
X2013Y61D01*
X0Y60D02*
X7Y60D01*
X1097Y60D02*
X1150Y60D01*
X2006Y60D02*
X2013Y60D01*
X0Y59D02*
X7Y59D01*
X1097Y59D02*
X1150Y59D01*
X2006Y59D02*
X2013Y59D01*
X0Y58D02*
X7Y58D01*
X1097Y58D02*
X1103Y58D01*
X1144Y58D02*
X1150Y58D01*
X2006Y58D02*
X2013Y58D01*
X0Y57D02*
X7Y57D01*
X1097Y57D02*
X1103Y57D01*
X1144Y57D02*
X1150Y57D01*
X2006Y57D02*
X2013Y57D01*
X0Y56D02*
X7Y56D01*
X1097Y56D02*
X1103Y56D01*
X1144Y56D02*
X1150Y56D01*
X2006Y56D02*
X2013Y56D01*
X0Y55D02*
X7Y55D01*
X1097Y55D02*
X1103Y55D01*
X1144Y55D02*
X1150Y55D01*
X2006Y55D02*
X2013Y55D01*
X0Y54D02*
X7Y54D01*
X1097Y54D02*
X1104Y54D01*
X1144Y54D02*
X1150Y54D01*
X2006Y54D02*
X2013Y54D01*
X0Y53D02*
X7Y53D01*
X1097Y53D02*
X1104Y53D01*
X1143Y53D02*
X1150Y53D01*
X2006Y53D02*
X2013Y53D01*
X0Y52D02*
X7Y52D01*
X1098Y52D02*
X1106Y52D01*
X1141Y52D02*
X1149Y52D01*
X2006Y52D02*
X2013Y52D01*
X0Y51D02*
X7Y51D01*
X1098Y51D02*
X1108Y51D01*
X1139Y51D02*
X1149Y51D01*
X2006Y51D02*
X2013Y51D01*
X0Y50D02*
X7Y50D01*
X1099Y50D02*
X1110Y50D01*
X1137Y50D02*
X1148Y50D01*
X2006Y50D02*
X2013Y50D01*
X0Y49D02*
X7Y49D01*
X1099Y49D02*
X1112Y49D01*
X1135Y49D02*
X1148Y49D01*
X2006Y49D02*
X2013Y49D01*
X0Y48D02*
X7Y48D01*
X1100Y48D02*
X1114Y48D01*
X1133Y48D02*
X1147Y48D01*
X2006Y48D02*
X2013Y48D01*
X0Y47D02*
X7Y47D01*
X1102Y47D02*
X1116Y47D01*
X1131Y47D02*
X1145Y47D01*
X2006Y47D02*
X2013Y47D01*
X0Y46D02*
X7Y46D01*
X1103Y46D02*
X1118Y46D01*
X1129Y46D02*
X1144Y46D01*
X2006Y46D02*
X2013Y46D01*
X0Y45D02*
X7Y45D01*
X1105Y45D02*
X1121Y45D01*
X1127Y45D02*
X1142Y45D01*
X2006Y45D02*
X2013Y45D01*
X0Y44D02*
X7Y44D01*
X1107Y44D02*
X1140Y44D01*
X2006Y44D02*
X2013Y44D01*
X0Y43D02*
X7Y43D01*
X1109Y43D02*
X1138Y43D01*
X2006Y43D02*
X2013Y43D01*
X0Y42D02*
X7Y42D01*
X1111Y42D02*
X1136Y42D01*
X2006Y42D02*
X2013Y42D01*
X0Y41D02*
X7Y41D01*
X1113Y41D02*
X1134Y41D01*
X2006Y41D02*
X2013Y41D01*
X0Y40D02*
X7Y40D01*
X1116Y40D02*
X1132Y40D01*
X2006Y40D02*
X2013Y40D01*
X0Y39D02*
X7Y39D01*
X1118Y39D02*
X1129Y39D01*
X2006Y39D02*
X2013Y39D01*
X0Y38D02*
X7Y38D01*
X1121Y38D02*
X1127Y38D01*
X2006Y38D02*
X2013Y38D01*
X0Y37D02*
X7Y37D01*
X2006Y37D02*
X2013Y37D01*
X0Y36D02*
X7Y36D01*
X2006Y36D02*
X2013Y36D01*
X0Y35D02*
X7Y35D01*
X2006Y35D02*
X2013Y35D01*
X0Y34D02*
X7Y34D01*
X2006Y34D02*
X2013Y34D01*
X0Y33D02*
X7Y33D01*
X2006Y33D02*
X2013Y33D01*
X0Y32D02*
X7Y32D01*
X2006Y32D02*
X2013Y32D01*
X0Y31D02*
X7Y31D01*
X2006Y31D02*
X2013Y31D01*
X0Y30D02*
X7Y30D01*
X2006Y30D02*
X2013Y30D01*
X0Y29D02*
X7Y29D01*
X2006Y29D02*
X2013Y29D01*
X0Y28D02*
X7Y28D01*
X2006Y28D02*
X2013Y28D01*
X0Y27D02*
X7Y27D01*
X2006Y27D02*
X2013Y27D01*
X0Y26D02*
X7Y26D01*
X2006Y26D02*
X2013Y26D01*
X0Y25D02*
X7Y25D01*
X2006Y25D02*
X2013Y25D01*
X0Y24D02*
X7Y24D01*
X2006Y24D02*
X2013Y24D01*
X0Y23D02*
X7Y23D01*
X2006Y23D02*
X2013Y23D01*
X0Y22D02*
X7Y22D01*
X1100Y22D02*
X1100Y22D01*
X1147Y22D02*
X1147Y22D01*
X2006Y22D02*
X2013Y22D01*
X0Y21D02*
X7Y21D01*
X1098Y21D02*
X1102Y21D01*
X1145Y21D02*
X1149Y21D01*
X2006Y21D02*
X2013Y21D01*
X0Y20D02*
X7Y20D01*
X1097Y20D02*
X1103Y20D01*
X1144Y20D02*
X1150Y20D01*
X2006Y20D02*
X2013Y20D01*
X0Y19D02*
X7Y19D01*
X1097Y19D02*
X1103Y19D01*
X1144Y19D02*
X1150Y19D01*
X2006Y19D02*
X2013Y19D01*
X0Y18D02*
X7Y18D01*
X1097Y18D02*
X1103Y18D01*
X1144Y18D02*
X1150Y18D01*
X2006Y18D02*
X2013Y18D01*
X0Y17D02*
X7Y17D01*
X1097Y17D02*
X1103Y17D01*
X1144Y17D02*
X1150Y17D01*
X2006Y17D02*
X2013Y17D01*
X0Y16D02*
X7Y16D01*
X1097Y16D02*
X1103Y16D01*
X1144Y16D02*
X1150Y16D01*
X2006Y16D02*
X2013Y16D01*
X0Y15D02*
X7Y15D01*
X1097Y15D02*
X1103Y15D01*
X1123Y15D02*
X1124Y15D01*
X1144Y15D02*
X1150Y15D01*
X2006Y15D02*
X2013Y15D01*
X0Y14D02*
X7Y14D01*
X1097Y14D02*
X1103Y14D01*
X1121Y14D02*
X1126Y14D01*
X1144Y14D02*
X1150Y14D01*
X2006Y14D02*
X2013Y14D01*
X0Y13D02*
X7Y13D01*
X1097Y13D02*
X1103Y13D01*
X1121Y13D02*
X1126Y13D01*
X1144Y13D02*
X1150Y13D01*
X2006Y13D02*
X2013Y13D01*
X0Y12D02*
X7Y12D01*
X1097Y12D02*
X1103Y12D01*
X1121Y12D02*
X1127Y12D01*
X1144Y12D02*
X1150Y12D01*
X2006Y12D02*
X2013Y12D01*
X0Y11D02*
X7Y11D01*
X1097Y11D02*
X1103Y11D01*
X1121Y11D02*
X1127Y11D01*
X1144Y11D02*
X1150Y11D01*
X2006Y11D02*
X2013Y11D01*
X0Y10D02*
X7Y10D01*
X1097Y10D02*
X1103Y10D01*
X1121Y10D02*
X1127Y10D01*
X1144Y10D02*
X1150Y10D01*
X2006Y10D02*
X2013Y10D01*
X0Y9D02*
X7Y9D01*
X1097Y9D02*
X1103Y9D01*
X1121Y9D02*
X1127Y9D01*
X1144Y9D02*
X1150Y9D01*
X2006Y9D02*
X2013Y9D01*
X0Y8D02*
X2013Y8D01*
X0Y7D02*
X2013Y7D01*
X0Y6D02*
X2013Y6D01*
X0Y5D02*
X2013Y5D01*
X0Y4D02*
X2013Y4D01*
X0Y3D02*
X2013Y3D01*
X0Y2D02*
X2013Y2D01*
X0Y1D02*
X2013Y1D01*
X1097Y0D02*
X1103Y0D01*
X1121Y0D02*
X1127Y0D01*
X1144Y0D02*
X1150Y0D01*
X1097Y-1D02*
X1103Y-1D01*
X1121Y-1D02*
X1127Y-1D01*
X1144Y-1D02*
X1150Y-1D01*
D02*
G04 End of Silk1*
M02*