; NON-PLATED HOLES START AT T1
; THROUGH (PLATED) HOLES START AT T100
M48
INCH
T1C0.125984
T100C0.038000
T101C0.042000
T102C0.035433
T103C0.035000
%
T1
X012728Y011704
X018728Y001705
X001189Y001274
T100
X004728Y010704
X016728Y010704
X007728Y010704
X015728Y010704
X018728Y008704
X008728Y010704
X002728Y010704
X001728Y010704
X018728Y006704
X018728Y007704
X005728Y010704
T101
X008728Y007704
X011708Y002704
X008728Y003704
X011708Y003704
X005728Y007704
X002728Y007704
X008728Y008704
X005728Y006704
X005728Y008704
X010728Y006704
X008728Y004704
X002728Y006704
X008728Y002704
X002728Y008704
X010728Y007704
X010728Y008704
X011708Y004704
X008728Y006704
T102
X010484Y004371
X012404Y007011
T103
X016728Y006704
X016728Y008704
X002728Y004704
X013728Y004704
X006728Y004704
X013728Y005704
X016728Y005704
X013728Y002704
X016728Y002704
X006728Y001704
X013728Y008704
X013728Y003704
X016728Y003704
X006728Y003704
X013728Y006704
X013728Y007704
X002728Y003704
X016728Y007704
X006728Y002704
X002728Y001704
X016728Y004704
X002728Y002704
T00
M30
