G04 MADE WITH FRITZING*
G04 WWW.FRITZING.ORG*
G04 DOUBLE SIDED*
G04 HOLES PLATED*
G04 CONTOUR ON CENTER OF CONTOUR VECTOR*
%ASAXBY*%
%FSLAX23Y23*%
%MOIN*%
%OFA0B0*%
%SFA1.0B1.0*%
%ADD10C,0.078000*%
%ADD11C,0.075000*%
%ADD12C,0.082000*%
%ADD13C,0.075433*%
%ADD14R,0.082000X0.082000*%
%ADD15R,0.075000X0.075000*%
%ADD16C,0.024000*%
%LNCOPPER1*%
G90*
G70*
G54D10*
X1673Y1070D03*
X1573Y1070D03*
G54D11*
X273Y470D03*
X673Y470D03*
X273Y270D03*
X673Y270D03*
X273Y370D03*
X673Y370D03*
G54D10*
X273Y1070D03*
X173Y1070D03*
X573Y1070D03*
X473Y1070D03*
X873Y1070D03*
X773Y1070D03*
G54D12*
X1171Y470D03*
X873Y470D03*
X1171Y370D03*
X873Y370D03*
X1171Y270D03*
X873Y270D03*
G54D10*
X1873Y870D03*
X1873Y770D03*
X1873Y670D03*
G54D11*
X273Y170D03*
X673Y170D03*
G54D12*
X1073Y870D03*
X1073Y770D03*
X1073Y670D03*
G54D11*
X1373Y870D03*
X1673Y870D03*
X1373Y770D03*
X1673Y770D03*
X1373Y670D03*
X1673Y670D03*
X1373Y570D03*
X1673Y570D03*
X1373Y470D03*
X1673Y470D03*
X1373Y370D03*
X1673Y370D03*
X1373Y270D03*
X1673Y270D03*
G54D12*
X273Y670D03*
X273Y770D03*
X273Y870D03*
X573Y670D03*
X573Y770D03*
X573Y870D03*
X873Y670D03*
X873Y770D03*
X873Y870D03*
G54D13*
X1048Y437D03*
X1240Y701D03*
G54D14*
X1172Y470D03*
X1172Y370D03*
X1172Y270D03*
X1073Y870D03*
G54D15*
X1373Y870D03*
G54D14*
X273Y670D03*
X573Y670D03*
X873Y670D03*
G54D16*
X273Y638D02*
X273Y499D01*
D02*
X550Y648D02*
X293Y391D01*
D02*
X1350Y488D02*
X1240Y571D01*
D02*
X1240Y571D02*
X894Y575D01*
D02*
X894Y575D02*
X699Y483D01*
D02*
X844Y656D02*
X550Y501D01*
D02*
X550Y501D02*
X391Y334D01*
D02*
X391Y334D02*
X298Y284D01*
D02*
X490Y1046D02*
X496Y1037D01*
D02*
X496Y1037D02*
X496Y797D01*
D02*
X496Y797D02*
X543Y781D01*
D02*
X904Y465D02*
X1020Y443D01*
D02*
X1101Y785D02*
X1193Y831D01*
D02*
X1193Y831D02*
X1294Y976D01*
D02*
X1294Y976D02*
X1463Y978D01*
D02*
X1463Y978D02*
X1647Y884D01*
D02*
X902Y856D02*
X1044Y785D01*
D02*
X605Y870D02*
X841Y870D01*
D02*
X286Y900D02*
X411Y1166D01*
D02*
X411Y1166D02*
X657Y1161D01*
D02*
X657Y1161D02*
X640Y917D01*
D02*
X640Y917D02*
X599Y889D01*
D02*
X1694Y289D02*
X1864Y437D01*
D02*
X1864Y437D02*
X1872Y640D01*
D02*
X698Y157D02*
X712Y149D01*
D02*
X712Y149D02*
X1288Y149D01*
D02*
X1288Y149D02*
X1646Y262D01*
D02*
X1171Y303D02*
X1171Y338D01*
D02*
X894Y1049D02*
X1050Y893D01*
D02*
X1212Y696D02*
X1104Y676D01*
G04 End of Copper1*
M02*